<?xml version="1.0" standalone="no"?>
<!DOCTYPE svg PUBLIC "-//W3C//DTD SVG 20010904//EN"
 "http://www.w3.org/TR/2001/REC-SVG-20010904/DTD/svg10.dtd">
<svg version="1.0" xmlns="http://www.w3.org/2000/svg"
 width="128.000000pt" height="128.000000pt" viewBox="0 0 128.000000 128.000000"
 preserveAspectRatio="xMidYMid meet">
<metadata>
Created by potrace 1.14, written by Peter Selinger 2001-2017
</metadata>
<g transform="translate(0.000000,128.000000) scale(0.100000,-0.100000)"
fill="#000000" stroke="none">
<path d="M544 993 c7 -53 45 -106 48 -68 7 95 1 115 -35 115 -18 0 -19 -4 -13
-47z"/>
<path d="M845 929 c-52 -39 -61 -57 -41 -77 15 -15 19 -13 55 23 42 43 62 85
39 85 -7 0 -31 -14 -53 -31z"/>
<path d="M268 873 c-10 -2 -18 -6 -18 -8 0 -2 21 -24 48 -49 62 -60 112 -63
82 -5 -9 16 -84 71 -92 68 -2 -1 -11 -3 -20 -6z"/>
<path d="M524 815 c-65 -33 -104 -93 -111 -174 -7 -73 16 -126 80 -189 37 -36
53 -44 116 -57 66 -14 78 -14 132 1 52 15 62 22 90 65 18 28 29 56 25 65 -3 8
-1 36 4 61 15 67 -3 144 -43 187 -62 65 -204 85 -293 41z m215 -53 c49 -24 71
-60 78 -125 3 -31 9 -54 13 -52 15 9 17 -70 3 -97 -23 -46 -56 -61 -136 -62
-40 0 -89 6 -109 13 -39 13 -103 76 -118 117 -23 61 -1 154 46 195 48 41 153
46 223 11z"/>
<path d="M726 680 c-22 -3 -42 -11 -44 -19 -4 -11 3 -13 33 -8 35 6 65 22 54
30 -2 1 -22 0 -43 -3z"/>
<path d="M523 663 c-26 -10 -12 -23 26 -23 22 0 44 6 51 15 11 13 7 15 -26 14
-22 0 -45 -3 -51 -6z"/>
<path d="M770 631 c0 -6 -21 -25 -47 -41 -51 -33 -116 -40 -170 -19 -15 6 -36
12 -46 14 -30 6 1 -25 40 -42 49 -20 103 -16 159 12 48 24 85 67 71 82 -4 3
-7 1 -7 -6z"/>
<path d="M937 693 c-13 -12 -7 -44 8 -49 21 -8 68 12 83 36 11 19 9 20 -36 20
-27 0 -52 -3 -55 -7z"/>
<path d="M290 503 c-8 -3 -23 -14 -33 -24 -17 -18 -16 -19 53 -19 38 0 70 4
70 9 0 5 3 16 6 25 5 13 -2 16 -37 15 -24 0 -51 -3 -59 -6z"/>
<path d="M822 398 c-7 -7 -12 -17 -12 -22 1 -14 129 -111 136 -103 9 9 -24 65
-62 102 -38 38 -44 41 -62 23z"/>
<path d="M532 337 c-17 -21 -20 -97 -3 -97 11 0 51 66 51 85 0 7 -7 16 -16 19
-21 8 -20 8 -32 -7z"/>
</g>
</svg>
