<svg width="45" height="46" viewBox="0 0 45 46" xmlns="http://www.w3.org/2000/svg">
<path d="M43.4874 25.7344L24.5124 44.7094C24.2249 44.9969 23.9135 45.201 23.5781 45.3217C23.2426 45.4406 22.8833 45.5 22.4999 45.5C22.1166 45.5 21.7572 45.4406 21.4218 45.3217C21.0864 45.201 20.7749 44.9969 20.4874 44.7094L1.51243 25.7344C0.985347 25.2073 0.709348 24.5489 0.684431 23.7592C0.661431 22.9677 0.93743 22.2844 1.51243 21.7094C2.03951 21.1344 2.69789 20.8344 3.48756 20.8095C4.27914 20.7865 4.96243 21.0625 5.53743 21.6375L19.6249 35.725L19.6249 3.59687C19.6249 2.78229 19.9 2.099 20.4501 1.547C21.0021 0.996917 21.6853 0.721873 22.4999 0.721873C23.3145 0.721873 23.9968 0.996917 24.5469 1.547C25.0989 2.099 25.3749 2.78229 25.3749 3.59687L25.3749 35.725L39.4624 21.6375C39.9895 21.1104 40.6603 20.8344 41.4749 20.8095C42.2895 20.7865 42.9603 21.0625 43.4874 21.6375C44.0624 22.1646 44.3499 22.8354 44.3499 23.65C44.3499 24.4646 44.0624 25.1594 43.4874 25.7344Z" />
</svg>
