<svg xmlns="http://www.w3.org/2000/svg" viewBox="0 0 1280 71"><path d="M267.5 47.7v.2h.2l-.2-.2zm64.8-6.7h0l-.1-.1c.1.1.1.2.1.1l.1.1-.1-.1zm3.4-.1l-.2.1h.1c.1 0 .1-.1.1-.1zm-67.9 6.9h0c-.1 0-.1 0 0 0zm823.4 6.8l-.2.1h.3l-.1-.1z"/><path d="M1091.2 54.7h0 0 0 0zm135.8-1l.1.1h.1l-.2-.1zm-136.1 1h0 0 0zm-823.5-7.1v.1h.2l-.2-.1z"/><path d="M1227.1 53.8h0l.1.1-.1-.1zM335.7 41.1h0zM221.1 44c.1-.1.1-.1 0 0h0zm1046.2 21.6c-5.3-1.6-11.1-1.3-16.7-1.8-1.5-.1-3-.4-4.4-.8-1.9-.5-3.9-.9-6-.9-3.1-.1-6.2-.2-9.2-.1-2 .1-4.1 0-6.2-.1-1.5-.1-3-.5-4.1-1.2-.3-.2-.8-.6-.8-.8 0-.6.9-1.1 2-.9 4 .7 7.9 1.4 12.1 1.4h7.7c3.1 0 6.2-.4 9.2.3 3.4.8 7.2-.3 10.5 1 2 .2 4.1.5 6.1 0 .9-.2 1.6-.8 2.3-1.3s-1.1-2.1-2.5-2.2c-.5 0-1-.1-1.5-.1l-12.3-1c-4.4-1.2-9-1.2-13.7-1.3-3.1-.1-6.2 0-9.3-.2-1.5-.1-2.7-.8-3.4-1.7-5-.3-10 0-15-.1-8.1-.1-16.3.5-24.2-1.3-.9-.2-2-.3-3-.3l-16.8-.3c-2.5 0-4.7.7-6 2.2-3.6-.2-7 0-10.3 1.2-2.3.9-4.9.9-7.4.2-4.4-1.1-8.9-1.6-13.5-1.5-2.1 0-4.1-.1-6-.6-1-.2-1.9-.2-2.9.1-4.9 1.5-9.9 1.6-14.9.2-.9-.3-1.9-.5-2.9-.7s-2.1-.2-3 .2c-3.1 1.2-6.5 1.5-9.9 1.6.6.9 1.7 1.5 3.2 1.7 2 .2 4.1.3 6.1.5.4 0 .9.4 1.1.7.2.4-.6.9-1.8 1-3.6.1-7.1.1-10.7 0-2.6 0-5 .4-7.3 1.2-1 .3-2 .3-2.9-.1-4.6-2.6-9.9-3.4-15.7-3.1l-9.2.2c-1.5 0-3.1-.1-4.5-.5-3.3-.9-6.8-1.5-10.4-1.4-2.6 0-5-.4-7.4-1.1-1.9-.6-3.9-.9-5.9-.9l-7.6.1c-2.1.1-3.5.8-4.6 1.9l-9.4-3.2c-1.8-.7-3.8-.9-5.8-1-1.5 0-3-.2-4.5-.4-.9-.1-1.5-.6-1.9-1.3 2.7-.8 5.1-2 8.2-2.2 1.2-.1 1.8-.6 1.7-1.2 0-.2-.8-.4-1.3-.5-3.6-.5-7.2-.3-10.8-.3-3.2 0-6-.5-8.5-1.9-2-1.2-4.5-1.6-7.1-1.7l-23.2-.7c-2.6-.1-5.1-.5-7.6-1-4.1-.8-8.2-.5-12.2.3-1.5.3-2.7 1-3.8 1.7-1.2.8-2.6 1.2-4.1 1.3-3.1.2-6.2.4-9.2 0-.5 0-.9-.4-1.3-.6.3-.2.6-.5 1-.7 1.9-.8 4-.3 6-.6 1.2-.2 1.9-.6 1.6-1.1-.2-.3-.8-.5-1.3-.5l-7.7-.2c-2.6-.1-5.1.3-7.5 1-.9.3-1.9.5-2.9.6-2.2.4-4.3 0-5.6-1.1-1.7-1.4-3.6-2.4-6.3-2.6-1.5-.1-3.2-.1-4.6-.5-3.5-.9-6.9-.8-10.5-.2-3 .5-6.1.4-9.2-.1-1.5-.2-3-.3-4.5 0-2.6.6-5 .2-7.5-.4-.9-.2-2.1-.2-3 .1-2.4.7-4.7 1.5-7 2.2-.9.3-1.9.7-2.9.7-3.6.2-7.2.2-10.8.3-.5 0-1-.2-1.4-.4-2.8-.9-5.7-1.5-8.9-1.2-3.1.2-6.2.2-9.3.3-1.6 0-3.1-.1-4.6-.1-2.2-.1-3.7-.5-5.4-1.7-.7-.5-1.3-1.1-2-1.5-1.2-.7-2.8-.8-4.3-.8-1.6 0-2.4.6-2.1 2 .2.9 0 1.3-1.3 1.5-5.6.8-11.3.6-16.9.5-3.6-.1-7.2.1-10.6 1.1-3 .9-6 .8-9.1.2-1.5-.3-3-.5-4.5-.7-4.1 1.4-8-.4-12.1-.3s-8.3 0-12.4 0c-3.1.1-6.2 0-9.3-.1a30.12 30.12 0 0 1-7.4-1.2c-.8-.3-2-.2-3 0-1.5.3-2.8.9-4.3 1.1-2.6.4-5.1.4-7.1-1.1-.7-.5-1.4-1-2.2-1.4-1.8-.8-3.7-1.1-5.8-.4l-4.1 1.5c-2.8 1-5.7 1.5-8.9 1.7-3.1.1-6.2.4-9.3.4l-24.7.1h-9.3c-2.1 0-4.1.5-5.9 1.1-1.1.4-1.9.3-2.7-.3-1.7-1.4-3.8-2.2-6.6-2.2-2.6 0-5.1-.4-7.4-1.3-1.9-.8-3.9-.8-5.9-.5-1 .2-1.9.5-2.9.7-5.6 1.3-11.1 1.3-16.5-.6-1.8-.7-3.9-.8-6-.7l-4.6.3c-2.6.1-5.2.1-7.6-.5-3.6-.9-6.9-.8-10.5.1-1.4.4-3 .3-4.6.3l-32.4.4c-6.7 0-13.4-.3-19.9 1.1-1 .2-2 .1-3-.1-4.4-.9-9.2-.8-13.6-1.9a12.59 12.59 0 0 0-6.1 0c-4 .9-8 1.2-12.2 1.1-4.6-.1-9.3 0-13.9.2l-15.4.5c-1 0-2 .3-3 .5-2.4.7-4.8 1.2-7.4 1.2-1.6 0-3.1.1-4.6.3-3.1.4-6.2.2-9.1-.7-3.9-1.1-7.9-1.5-12.1-1.6-5.1 0-5.1-.1-10.5-1.2-2.2-.5-4.1-.1-5.6 1-1 .8-1.7 1.7-3.1 2.2-1.8.6-4 .5-5.8 1.3-1.7.7-3.1 1.9-5.2 2.2-.3 0-.9-.2-1.2-.4s-.7-.6-.7-.9c-.3-1.9-1.8-3.1-4.4-3.9-3.2-.9-3.6-1-5.2.4-1.2 1.1-2.5 2.2-4.2 3-2.9 1.5-5.9 2.7-9.9 1.5-1.2-.4-2.9-.3-4.3-.3-.2.6-.7 1.2-1.6 1.2s-1.5-.5-1.7-1.2c-4 0-8-.1-12.1 0-3.1 0-6.1-.2-9-.9l-1.4-.3c-2.2-.5-3.7.1-5.2 1.3-2.5 2-2.6 2-6.4 1.1-1-.2-1.9-.5-2.9-.7-1.5-.2-3-.1-4.5.2-.5.1-.9.3-1.4.4-.9.3-1.8.7-2.7 1-2.7.7-3.5 2.2-3.9 4-.4 2.4-2.7 3.9-5.7 4.2-2 .1-4.1.1-6.1.1-1.3 0-2.9-1-3.1-1.9-.1-.6-.3-1.2-.4-1.7-1.4.3-2.4 1-3 1.9-1 1.4-2.7 2-4.8 2.1-1.6.1-3.2-.4-3.9-1.2-1-1.2-1.6-2.5-3-3.5-2.4-1.8-5.1-3.3-8.1-4.6-1.3-.6-2.9-.6-4.3-.1l-8 2.9c-2.4.8-4.9.7-7.3-.1-1.3-.4-2.5-1-3.9-1.2-.1.3-.2.5-.2.8-.4 1.4-1.4 2.6-3.5 3.1l-8.6 2.3c-1.1.3-1.5 1-1.2 1.5.2.3.8.5 1.3.5 4.1.2 8.2-.3 12.3.2.4.1.8.4 1.2.6-.3.2-.6.5-.9.5-1 .2-2 .4-3 .4-10.3.1-20.6.5-30.9.2-.5 0-1-.1-1.5-.2l-1.5-.3-1.2-.6c-.8-.4-1.6-.9-2.5-1.3s-1.9-.4-2.9-.2c-2.6.7-5 .5-7.3-.5-1.3-.6-2.9-.7-4.3-.1-1.8.8-3.8.8-5.9.5-6.4 1.4-12.9 1.4-19.5 1.2.3-.6.9-1.1 1.7-1.4 2.4-.8 5.1-.6 7.5-1.2 3.9-.9 7.9-1.5 12-1.9 2.6-.2 4.7-1.3 6.8-2.3.4-.2.7-.6.7-.9 0-.2-.7-.5-1.1-.5-4-.6-8.2-.2-12.3-.4-4.6-.3-9.2 0-13.6 1.2-.2.1-.9-.4-1.1-.6-.2-.3-.1-.7.1-1 1-.9 2.5-1.1 4-1.3 2.2-.2 3.6-1 4.4-2.5 1.1-2.1 3.4-3.4 6.6-3.9l1.5-.3c1.1-.2 1.9-.6 1.9-1.2 0-.2-.9-.4-1.3-.4-3.6-.1-7.2-.2-10.8-.1-2 0-4.1.2-6.1.7-3 .7-6 1-9.1 1l-17 .4c-4.6.1-9.3.1-13.7 1.4-1.4.4-3 .4-4.5.5l-9.3.2c-2.1 0-4.1.3-6 .9-2.3.8-4.8 1.2-7.4 1.3l-17 .6c-1.9.1-3.7 1.3-3.9 2.7-.2 1-.2 2.1-.6 3.1-.7 2-2 3.9-4.2 5.4-.3.2-.8.5-1.2.6-2.5.5-5.1.4-7.7.6-2.1.1-4 .7-5.6 1.6-.8.5-1.5 1-2.4 1.3-3.8 1.4-7.8 1.9-11.7.4-2.9-1.1-5.8-1.3-8.9-.9-1.5.2-3 .6-4.5.8-1 .1-2.1.1-3-.1-1-.2-1.9-.3-2.8-.3V65c.8.2 1.7.3 2.4.1 4.9-1.3 10-1.1 15.1-1.1 1.1 0 1.9.4 2.3.9-.7.5-1.7.8-2.7.9-1.5.1-3.1.1-4.6.2s-3.2.1-4.4.6c-2.6 1-5.4 1.3-8.1 1.9v3.9h1278.6l-7.7-.2c-3.2 0-6.1-.6-8.9-1.5-1.4-.4-3-.4-4.4.2-.4.2-.9.3-1.4.4-2.5.7-5 .7-7.5.1-.5-.1-1-.2-1.4-.4-1.3-.5-3.1-.6-3.7-1.7-.3-.4 1.8-1.1 3.7-1 6.6.4 13.4-.5 19.9.9 1.4.3 2.9-.4 4.4-.6 2.4-.4 4.7-.5 7.1-.2V66c-1.7 0-3.4 0-5.2-.1-2.9 0-5.5-.2-8-.3zm-1236-2.8c-.6.7-1.4.9-2.5.7-.4-.1-1-.6-1-.7.4-.7 1.4-1 2.5-.7.4.1.7.5 1 .7h0zm57-14.4h0c-.4-.1-1.1-.1-1.3-.2-.5-.4.1-.7 1.4-.6.4 0 .7.3 1.1.5-.3.1-.7.2-1.2.3zm34.7 4.7c-.7.4-1.5.9-2.3 1.1-2.3.7-4.8.7-7.1.7h0c-1.2-.2-2-.5-2.1-1-.1-.2.3-.6.6-.9 1-.8 2.3-1.4 3.7-1.5 1.9-.2 3.9-.2 5.8-.2 1.1 0 1.9.4 2 1-.1.2-.3.6-.6.8zm7.4-8c-.4.6-1.2 1-2.3 1.1l-7.4.5h0c-2.8-.1-5.3-.1-7.8-.3-.4 0-.9-.4-1.3-.6.4-.2.8-.5 1.2-.5 1.5-.2 3-.3 4.5-.4 4.1 0 8.1-.5 12-1.4.2-.1.9.4 1.1.7.1.3.1.7 0 .9zm5.6 9.6c-1.1.1-2.1-.1-2.5-.8-.3-.5.4-.9 1.6-1.1.5-.1 1-.2 1.5-.2 1.3 0 2.7.1 4 .2-1.1 1.2-2.6 1.7-4.6 1.9zm103.1-3.1c-.3 0-.5-.4-.7-.6.4-.2.8-.4 1.2-.4h0c.4 0 1.1.1 1.2.3.3.5-.4.9-1.7.7zM986.3 49c-1.2 0-1.8-.5-1.6-1 .1-.3.7-.5 1.1-.6 2.5-.3 4.6 0 5.9 1.6h-5.4zm31.7 8.3c-.5.6-1.3 1.1-2.3 1-.9-.1-1.4-.7-1.5-1.4-.2-.6-.3-1.1-.4-1.7 1.3-.1 2.6-.1 3.8.4.9.5 1 1 .4 1.7zm126.8 4.5c-.1.3-.6.5-1 .7-.9.4-1.8.7-2.7 1-1.9.7-3.8.9-5.8.3-1.4-.4-2.9-.4-4.4 0-2.4.7-5 1-7.4 0-2.7-1.2-5.9-1.1-8.8-1.8a10.05 10.05 0 0 1-2.6-1c-.8-.5-1.1-1.2-.7-1.7.2-.3.8-.5 1.2-.6 3-.6 6.1-.2 9.1-.3h0c1 0 2.1.1 3.1.1 6 .2 12 .9 18 2.2 1.3.3 2.1.6 2 1.1zm15.9 2l.1-.5.7.3-.8.2zm8.8-8.6c-.5.6-1.5.7-2.6.7-1.9-.1-3.5-.5-4.5-1.6 1.8 0 3.6 0 5.3.1 1.3 0 2.1.5 1.8.8zm28.8 2.2c1.1-1.4 2.3-.6 3.5-.1.3.1.4.4.6.6-.9 0-1.8-.1-2.6-.2-.6.1-1-.1-1.5-.3zm11.6 1.8c-.1.2-.7.5-1.1.6-1.4.2-2.9.1-4.2-.3a2.69 2.69 0 0 1-1.7-1.2c1.8 0 3.6-.1 5.4 0 1.1 0 1.8.4 1.6.9z"/><path d="M221.2 43.7l-.2.1h.1c.1 0 .1 0 .1-.1zm114.3-2.6h0zm-67.7 6.8c0-.1 0-.1 0 0l-.1-.1h-.1-.2 0l.2.1h.2z"/><path d="M267.8 47.9h0 0zm8.8-.3c.5-.1 1.1-.2 1.4-.4.5-.5 0-1.1-1-1.5-1.4-.6-2.1-1.3-1.5-2.5.1-.3.1-.7-.1-1a2.2 2.2 0 0 0-1.2-.5c-4.6-.5-9.1-.1-13.6.7-1.1.2-1.7.8-1.9 1.5-.4 1.4 0 2.8.8 2.8 1.1 0 1.7-.6 2.2-1.3.5-.8 1.5-.9 2.5-.5 1.7.7 3 1.7 3.6 2.9 2.9 0 5.9.2 8.8-.2zm814.4 6.3c-.4-2.6-2.8-3-5-2.4-2.3.7-4.6 1.2-7.2 1.2l-6 .3c-.4 0-.9.3-1.1.6-.3.4.3.9 1.6 1 5.9.3 11.8.3 17.7.1v-.8z"/><path d="M1091.2 54.7h0-.3v.1.1l.3-.2h0 0zm-893.7-7h0c.8-.1 1.8-.8 2.7-1.6s.1-1.9-1.5-2.1c-2-.3-3.8-.1-5.7.4-1.2.3-1.5.8-.9 1.5 1.4 1.5 3.2 2.2 5.4 1.8zm1078.9 12.5c-1.4.3-1.5.8-.6 1.6 1.3 1 2.7 1.6 4.3 1.8v-3.5c-1.1-.2-2.4-.1-3.7.1zM833.2 37.4c1 .3 1.8.1 2.4-.5h0c-.3-.2-.5-.6-.9-.7-1-.3-1.9-.1-2.4.6 0 0 .5.4.9.6zM183.3 46c1.1.3 2 0 2.6-.7-.3-.2-.7-.5-1.1-.6-1.1-.3-2 0-2.5.6-.1.1.6.5 1 .7zm1006.1 3.4c1.3.2 1.9-.1 1.7-.7-.1-.2-.8-.2-1.2-.3-.4.1-.8.3-1.2.4.2.2.4.5.7.6zm-32.7 2.5c.4-.1 1-.5.9-.5-.4-.6-1.2-.8-2.2-.6h0c-.3.2-1 .5-.9.6.4.5 1.3.7 2.2.5zM332.6 41.2h0 0zM334 40c-.7 0-1.2.5-1.4 1h2.8c-.1-.5-.6-1-1.4-1zm1.5 1.1v.1l.1-.1h0l.1-.1h-.1c.1 0 0 0-.1.1 0-.1 0-.1 0 0 0-.1 0 0 0 0z"/><path d="M332.4 41.1l.1.1c0-.1 0-.1.1-.2 0 0-.1 0-.2.1l-.1-.1.1.1zM219.5 43c-.1.6.3.9 1.4.9-.1-.3-.1-.5-.4-.7-.1-.2-.6-.2-1-.2z"/><path d="M221.2 43.9h0-.2-.1c0 .1 0 .1.1.2l.1-.1.1-.1h0zm1007.5 9c-.6 0-1 .3-1.2.8l.8-.3c.3-.1.3-.3.4-.5z"/><path d="M1227.4 54c0-.1.1-.2.1-.3-.1 0-.2.1-.3.1h-.1l.1.1.2.1z"/></svg>