<svg xmlns="http://www.w3.org/2000/svg" viewBox="0 0 199.2 72.8" style="&#10;    background: white;&#10;"><path d="M183.4 56.3h0c-.1.5-.7.6-.9 1-.1.5-.3.9-.7 1.2-.2.2-.3.2-.4-.1s-.1-.6-.5-.7v-.2c.3-.1.4-.3.5-.6 0 0 .2-.1.2 0 .1.1.2.1.2.2.2-.2.4-.3.5-.5 0 0-.1-.2-.1-.3-.4-.2-.4-.4-.1-.7.1-.1.1-.3.3-.4.1-.1.1-.1.2-.1.1.1.1.1.1.2 0 .2-.1.3-.2.5 0 .1 0 .3.1.3h.1c.3 0 .5-.1.8-.3s.5-.4 0-.7c-.2-.1-.2-.3-.2-.4s.4-.2.6-.1l.1.2c-.4.2-.2.5 0 .7s.1.4 0 .6-.2.3-.6.2m.2-10.6v.3c.3.5 0 .8-.3 1.1-.3.2-.4.4-.5.7s-.4.3-.5.1v-.3a1.38 1.38 0 0 1 .4-.3c.5-.2.5-.5.5-1 0-.1-.1-.3-.1-.3-.1 0-.3 0-.4.1-.1 0-.1.1-.1.1s0 .5-.3.4-.5-.2-.5-.5c0-.1 0-.2-.1-.3l.1-.1c.4.3.7 0 .9-.2s1-.1 1.1-.7c0 0 .1-.1.2-.1.5 0 1 0 1.5.3l.2.2c-.1.1-.2.3-.3.3l-1-.3c-.5-.2-.7-.1-.8.5h0 0zm7.1-16.7c0-.1.1-.3.1-.3.2 0 .4 0 .6.1l.6.6c.1.1-.1.1-.1.2s0 .4-.1.5-.1.6-.4.6-.4-.4-.5-.6c-.2-.4-.2-.7-.2-1.1m-6.3 27.9h.4c.1 0 .2.1.1.3s-.4.2-.2.5c0 0-.1.2-.2.2s-.4.3-.6.5-.3.1-.4 0-.2-.3-.3-.4 0-.1.1-.1.1-.1.2 0c0 .1.1.1.1.2l.1-.1c0-.2-.1-.3-.1-.5-.1-.4-.1-.5.4-.5l.4-.1h0zm4.8-20.3l-.1-.1-.3-.6c-.1-.2-.1-.3.1-.3.5 0 .4-.4.4-.6s0-.4.2-.5.2.1.4.2.2.1.3.1v.2c-.1.1-.2.1-.3.2-.3.1-.4.3-.2.6s-.1.9-.4.9l-.1-.1m-4.7 16.9c-.1.1-.1.1-.1.2s-.3.2-.4.2-.4.3-.7 0c-.1-.1-.4.2-.6.2-.1 0-.2 0-.3-.1 0 0 0-.2.1-.3.3-.5.4-.6.8-.4s.8-.1 1.1 0l.1.2m7.3-19.5a.47.47 0 0 0 .6.1c.2-.1.5.4.4.7 0 .1-.1.2-.1.2-.1.6-.2 0-.3 0s-.1.2-.2.2c-.2-.1-.6-.1-.7-.3a1.1 1.1 0 0 1 0-.8c.1 0 .2-.1.3-.1m5-16.7c-.1.2-.3.3-.4.4-.3.1-.6.2-.9.2-.1 0-.2-.1-.3-.1.1-.1.1-.4.3-.3s.3 0 .4-.2c0-.1 0-.2.1-.3.2-.2.3-.3.5-.4.1.2.2.5.3.7m-1.6 15.6c-.1-.1-.4-.2-.4-.4s-.3-.5 0-.8c.1-.1.3-.1.5-.1.2.1.6-.3.6.1.1.4-.3.2-.5.3s-.1.2 0 .3.2 0 .4.1.2.2.2.2-.1.2-.2.2c-.2 0-.3 0-.6.1h0m-3.4 2.7h.2c.1 0 .1.1.1.2s0 .1-.1.2c-.4.2-.8.4-1.2.5-.2 0-.3-.1-.2-.3.3-.5.8-.7 1.2-.6m-6-28h0v-.2c.3-.4.7-.6 1.1-.5.1 0 .2.2.4.3l-.3.3c-.3.2-.2-.2-.3-.2s-.1.3-.2.3c-.2.1-.5.1-.7 0m-1.4 45.1s-.2-.1-.3-.3.1-.3.1-.3c.3.1.6-.3.9 0 .1.1.2.1.3.2-.1.1-.1.3-.2.3-.3.1-.5.1-.8.1m7.9-30.7c.4.2.4.2.5-.3 0-.1.1-.1.2-.2a1.38 1.38 0 0 0 .4.3c.2.1.4.1.2.4s-.1.5-.5.2c-.2-.1-.4-.1-.6-.1s-.1-.2-.2-.3m3.9 2.3l.4-.3c.1-.1.3-.3.4-.3.2.1.4.3.5.5 0 .1-.1.1-.1.1-.6.4-.6.4-1.2 0m0 0c-.4-.2-.9-.2-1.3 0-.1 0-.2-.1-.2-.1 0-.1 0-.2.1-.3.2-.1.6.1.7-.3h.1c.2.2.4.3.6.5v.2m-9.7 24.6h0l-.1.1-.4-.3c-.1 0-.2-.1-.3-.1-.2.1-.4 0-.3-.2 0-.2.1-.3.2-.4s.3.1.4.2.3.2.4.4c0 .1.1.2.1.3m3.6-15.4c0 .3-.2.6-.6.7h-.2s-.1-.1-.1-.2 0 0 .1-.1c.3-.2.6-.4.5-.8 0-.1.2-.1.2-.2 0 .1.1.2.1.2v.4M180.6 45v.4s-.2.2-.3.2-.2-.1-.2-.3 0-.5.1-.7c0-.1.2-.2.2-.2.1.1.2.2.2.3v.3m-1.1.9c.5.1.8.4.8.8 0 .1-.1.2-.2.2-.1.1-.2 0-.2-.2-.1-.3-.1-.6-.4-.8h0c-.1 0 0 0 0 0m16.2-23.3c-.1.2-.2.4-.5.3s-.2-.4-.2-.6c0-.1.2-.2.3-.2.3.1.5.3.4.5h0m-19.4 20.3c-.2.1-.4.3-.4.3-.2-.1-.3-.2-.3-.4a.76.76 0 0 1 .2-.4c.1.2.3.3.5.5m3.5 6c-.2.3-.5.5-.9.6-.1 0-.3-.1-.3-.2 0-.3.2 0 .3-.1l.8-.5.1.2c0-.1 0-.1 0 0m14.4-23.4c.1-.2.1-.4.2-.5s.1-.3.2-.3.2.1.4.1 0 .2 0 .2c-.4.1-.5.6-.8.5m-.1-7.1l.3.1c.1.1.4.1.2.4s-.2.2-.4.1h-.2c-.2 0-.3-.1-.2-.3s.1-.2.3-.3m-3.3 14.8c-.1 0-.2-.1-.3-.2s-.1-.3-.1-.3.2-.1.3 0 .2 0 .2.1c.1.1.1.2.1.3.1.3-.1 0-.2.1m1.8-22.8c-.1-.1-.2-.1-.2-.2s.1-.2.2-.3.6.1.6.2 0 .1-.1.2c-.2 0-.4.1-.5.1m-9.7 27.2c0-.1 0-.1.1-.2l.3.3v.3c-.1.1-.2.1-.3.2-.1 0-.1-.1-.2-.2 0-.2 0-.3.1-.4m9.6-2l.5.4c0 .1 0 .1-.1.1h-.4c-.1 0-.1-.2-.2-.3l.2-.2m2.7-9.6c-.1.1-.3.2-.5.2-.1 0-.2-.1-.3-.1.1-.1.2-.3.3-.3s.4.1.5.2m-2 .2c-.2.1-.3.2-.5.2l-.2-.2.4-.4.3.4m-.3.8l.2-.2c.1-.1.3-.2.4 0 0 .1 0 .2.1.2h-.4-.3m-65.4 24.3c.1.1.2.1.3.1v-.1h-.3 0zm9.7-12.5c-.1-.2-.2-.3-.4-.5l-.1-.1-1-.6h-.1l-1.1-.3c-.8-.2-1.7-.4-2.6-.4l-.6-.1c-.1 0-.3 0-.4-.1l-.7-.1h-.2c-.4 0-.8 0-1.2-.1h-.4c-.3.1-.7 0-1-.1-.1-.1-.3-.1-.4-.1-.1.1-.2.2-.2.4v6.9c0 .6-.1 1.2-.1 1.7 0 .2.1.3.3.3h.1c.1 0 .2-.1.3-.1h1.9c.4 0 .7.1 1.1.1h1.4c.3 0 .5.1.7 0 .7 0 1.4-.1 2.1-.2a.45.45 0 0 1 .5 0h.2c.2-.1.3-.2.4-.3s.3-.2.4-.1.2.1.3 0c.3-.2.5-.4.6-.7s.3-.6.4-.9c.3-.8.4-1.6.4-2.5 0-.4-.1-.8-.1-1.2 0-.2-.2-.6-.5-.9h0zm-9.2-9.7c-.1-.2-.3-.2-.5-.2h-.5c0 .3 0 .3.3.4V29c.2 0 .5 0 .7.1z" style="&#10;    fill: white;&#10;"/><path d="M195.7 14.8s-.1-.1 0-.1.2-.3-.1-.3-.6-.1-.9-.3c-.1-.1-.3-.1-.4.1-.2.1-.3.3-.3.6 0 .1 0 .2-.1.2l-.2-.2c-.1-.1-.2-.3-.1-.4.2-.5.1-.5-.5-.7-.2 0-.3-.1-.5-.2s-.5-.1-.7 0c-.3.1-.5.2-.3.6s-.1.4-.4.3-.3-.2-.5-.1c0 0-.3-.2-.3-.3s.1-.3.2-.3c.2 0 .3-.2.3-.4v-.1c-.1-.4.1-.4.4-.4.5 0 .5 0 .5-.6 0-.1-.1-.2.1-.2.4-.1.6-.4 1.1-.2s1-.1 1.6 0c0 0 .1 0 .1-.1.1-.1.1-.2.2-.3h-.3c-.3-.1-.7-.1-1-.2-.1 0-.2-.1-.2-.2-.1-.1 0-.4-.1-.5-.3-.1-.2.3-.3.4-.1 0-.1.1-.2.1s-.2.1-.2 0-.1-.2-.1-.3c.2-.4 0-.2-.2-.2-.5-.2-1 .1-1.5-.2-.2-.1-.5 0-.8.1v.1c.1.1.2.1.3.2l.2.1-.2.1c-.4.1-.9.1-1 .7 0 0 0 .1-.1.1h-.1s-.1 0-.1-.1c.2-.2.1-.4-.2-.3-.1-.4-.4-.3-.7-.3s-.4.3-.3.6l-.1.1h-.1c0-.4-.3-.6-.5-.8-.1-.1-.1-.1-.1-.2.1-.1.2-.1.3-.1s.3.1.4.1h.4c.1 0 .5-.4.4-.6-.2-.2-.4-.4-.7-.3s-.6.1-.9 0-.7.2-.7.5h0v.4c0 .1-.1.4-.1.6-.3-.1-.3-.4-.5-.6-.1-.2-.2-.4-.2-.6 0-.3-.1-.5-.4-.5s-.4-.4-.6 0c-.2-.2-.3-.3-.5-.4h-.5c-.1 0-.2.1-.3.1-.4 0-1-.2-1.2.5 0 .1-.2.2-.3.3h-.2v-.2c.3-.3.4-.4 0-.7s-.3-.7.1-.9l.3-.5c.1-.1.2-.2.1-.4h0c-.1-.2 0-.5.2-.7s.3-.5.1-.7c-.1-.3-.4-.5-.8-.3-.1 0-.2 0-.3-.1 0-.3-.3-.6 0-.8v-.3c-.2 0-.4-.1-.5.1s-.3.4-.4.7l-.1.1-.1-.1v-.5c0-.1-.1-.2-.2-.3-.1 0-.2.1-.3.2s-.1.2-.2.2h-.3c0-.3-.6-.3-.3-.7l-.1-.1c-.1 0-.2 0-.3.1.1.2-.1.3-.2.4s-.5.2-.8.3h-.2c0-.1.1-.1.1-.2.1-.1.2-.2.3-.2s.4.1.4-.2c0 0-.2-.1-.3-.2s-.3-.1-.4-.2c-.5-.2-1-.1-1.3.3-.3.3-.6.2-.9.4l-.1-.1v-.2s.2-.1.1-.3c0-.1-.1-.1-.2-.2l-.3.3c0 .1 0 .2-.1.2-.1.1-.2.3-.4.3s-.3 0-.5-.1c-.1 0-.1-.2-.1-.3.1 0 .3-.1.4-.1a.76.76 0 0 1 .4-.2c-.1-.1-.3-.2-.4-.3h-.3c-.8.3-1.5-.5-2.3 0 0 0-.1-.1-.2-.1-.8-.4-1.8-.4-2.6.1-.1.1-.2.1-.2-.1s-.3-.3-.3-.3c-.3.1-.4 0-.6-.1s-.4-.1-.6-.2c-.8-.1-1.6-.1-2.4 0-.3 0-.4.1-.6-.2s-.3-.1-.5-.1c-.4.1-.8.3-1.2 0-.1 0-.2 0-.3.1l-.3.3c-.2.3-.3.3-.6.2s-.5-.1-.6-.4c-.1-.2-.2-.3-.4-.2h-.1c-.7.3-1.5.7-1.6 1.6 0 .2-.3.3-.1.4.1.2.3.3.4.4.2.1.5 0 .5.3s-.3.2-.4.4-.4.1-.5.2-.5.4-.3.5.1.6.1.8c0 .1.1.2.1.3.1 0 .1-.1.2-.1.3-.2.8-.3.9-.2.3.4.4.9.3 1.3s-.5.7-.9.7c-.1 0-.3.1-.3.2h0c-.1.3-.2.6-.2 1 0 .2-.1.3-.3.3-.1 0-.2.1-.3.1l-.9-.3v-.1c0-.2 0-.5.1-.6s.3.1.4.2l.1.1h.2c.1 0 .1-.1.1-.2-.2-.3.1-.6.1-.9s-.4-.5-.6-.7c-.1-.1-.1-.3-.2-.5-.1-.1 0-.2.1-.2.2-.2.4-.3.5-.5.1-.1.1-.2.2-.3v-.2l-.2.1c-.1 0-.3.1-.4.1-.2-.1-.4-.3-.7-.2 0 0-.2-.3-.3-.4.1-.1.2-.1.3-.2.2 0 .4-.2.4-.5s0-.7.1-.8.5 0 .8 0h.1c.1-.1.2-.1.2-.2s-.1-.2-.1-.3h-.5-.1 0c.3-.2.3-.5.6-.6.3 0 .6-.3.6-.7v-.1c0-.4-.4-.3-.6-.3-.3-.1-.6-.1-.9-.1-.2 0-.5.1-.6.3-.3.5-.7.8-.4 1.4 0 .1 0 .2-.1.3h-.3c-.1 0-.1-.1-.2-.2 0-.2-.2-.2-.4-.2h-.3c-.3 0-.2-.2-.2-.4.1-.2.2-.4.4-.5.2-.2 0-.3-.1-.4-.4-.1-.9.1-1.1.5-.2.3.2.4.3.6s.1 0 .1.1.1.4-.1.5c-.5 0-.7.4-.9.7s-.2.7-.7.3c0 0-.2.1-.3.2a.53.53 0 0 1-.8.1c-.4-.3-.7 0-1 .1-.6.3-1.1.6-1.6 1.1-.5.4-.7.3-1.2.2-.3 0-.5-.3-.5-.6s.2-.4.4-.5.3-.2.5-.4c.1-.2 0-.5-.1-.7-.2-.3-.5-.7-.8-.7s-.6-.4-1-.5c-.1 0-.2-.1-.2-.2-.2-.6-.4-.7-1-.6-.2 0-.3.1-.5 0-.4-.1-.9.1-1.2.5-.3.3-.3.5.1.6h.5c.2 0 .2 0 .3.2.2.5.2.5-.3.7-.2 0-.3.1-.5.1-.5-.1-.7.2-.9.5-.1.1-.2.3-.3.4-.1.2-.2.2-.4.1-.4-.3-.5-.8-.7-1.1-.1-.2.1-.5.4-.5s.3.1.2.4v.3h.1c0-.4.4-.5.6-.7.4-.4.3-.6-.3-.9-.8-.2-1.5-.3-2.3-.3-.1 0-.3.1-.3.2l-.3.8c-.1.2-.1.4-.2.5-.2.2-.4.5-.4.8 0 .1-.2.4-.3.4-.2 0-.4-.1-.6-.3-.1-.1-.2-.3-.1-.4.3-.4.1-.8.2-1.2 0-.1-.1-.2-.2-.2-.3 0-.6 0-.8.2-.4.5-1.1.3-1.5.8 0 0-.2 0-.2-.1s-.1-.4-.2-.5c-.1-.2-.2-.4-.4-.5-.3-.1-.6-.1-.8.1s-.5.3-.3.7c.1.2.1.4 0 .6-.1.3 0 .3.3.5.4.3.4.5.1 1s-.5.4-.9.5-.4-.1-.6-.1-.2-.4-.4-.6c0 0-.1 0-.1-.1v.2c-.1.2.2.5 0 .6-.1 0-.3-.2-.5-.3s-.1-.4-.1-.6 0-.3.2-.3c-.1-.1-.1-.2-.2-.2-.3-.1-.3-.3-.3-.5-.1-.5-.2-.6.3-.9.1-.1.1-.1.1-.2s-.1-.1-.2-.1c-.3 0-.5-.1-.8-.1s-.3 0-.3-.3c-.2-.6-.2-.6-.8-.6-.5 0-.9 0-1.4.1-.2 0-.3.2-.4.4.2.1.3.3.5.2h.3c.2.2.3.4.5.6s0 .2-.1.2c-.2.1-.3.3-.3.4-.1.2-.1.1-.2 0-.4-.1-.3-.5-.5-.7s-.6-.1-.8-.4c0-.1-.1-.2-.1-.3-.1-.2-.2-.3-.2-.5 0-.1-.1-.3-.3-.2h-.1c-.3.2-.6.3-.9 0l-.4.1c-.2 0-.3.1-.4.1-.3-.4-.6-.2-.8 0s-.2.1-.3 0-.3-.1-.4 0-.3.2-.4-.1-.3-.4-.6-.4h-.1c-.3.1-.7.1-1 0-.5 0-1.1.2-1.4-.4h-.2c-.3.2-.6 0-.8-.1a.61.61 0 0 0-.8 0c-.3.2-.4.4-.6 0h-.3-1c-.5 0-1 0-1.5.1-.1 0-.2.1-.2.1-.1.1-.2.2-.3-.1-.2-.4-.6-.7-1.1-.8-.6 0-1.1.1-1.7.1-.3 0-.5 0-.7.3s-.7.4-1.1.3h-.4c-.3.2-.4 0-.4-.3 0-.5-.2-.5-.6-.4-.2.1-.5.1-.7.1s-.2.1-.3-.1c-.2-.4-.6-.5-1-.4h0c-.6.1-1.1.1-1.7.1-.4 0-.8-.1-1.1 0-.5.2-1 .1-1.5-.1-.2-.1-.4-.1-.5-.2-.3-.2-.6-.2-.9-.1-.4.1-.8.1-1.2 0s-.8.1-1.2 0-.8 0-1.2.3c-.1 0-.2.1-.3.1-.2-.5-.6-.2-.9-.3s-.7.4-.9.6-.2.2-.4 0c-.5-.6-1.3-.9-2.1-.6-.1 0-.2.1-.3 0-.3-.4-.7-.3-1.1-.1-.3.1-.7.2-1 .1-.4 0-.7-.2-1.1-.2-.6 0-1.2-.1-1.7-.3-.1-.1-.3 0-.4 0-.2 0-.4.1-.7.1h-1c-.4.1-.9.1-1.3-.2-.2-.1-.4-.1-.6 0-.3.1-.7.1-1 .1-.6-.2-1.2-.2-1.8 0s-1.2.2-1.7 0C76.8 0 76 0 75.2.3H75c-1-.2-2.1-.1-3.1.2-.2 0-.3.1-.3-.1 0 0-.2-.1-.3-.1-.6 0-1.2-.3-1.8 0h-.3c-.5-.1-1.1.2-1.6 0h-.2c-.3.2-.5.3-.8-.1h-.3c-.1 0-.2.2-.3.2-.4-.3-.9 0-1.3 0s-.7 0-1.1.1c-.3 0-.7-.1-1-.2-.2 0-.4 0-.6.1h-.4c-.7-.1-1.4 0-2 .3-.2.1-.4.1-.6.1-.5 0-.9.1-1.3.4s-1 .3-1.4 0c-.1-.1-.3-.1-.5-.2-.1 0-.3-.1-.3 0-.3.3-.6.2-.8 0a1.69 1.69 0 0 0-1-.3c-.5.1-1.1.2-1.6.4-.4.2-.9.3-1.3.1-.1 0-.2-.1-.2 0-.3 0-.6 0-.8-.2-.2-.1-.5-.1-.8 0-.6 0-1.2.4-1.8.2-.1 0-.2 0-.2.1s-.2.4-.6.3c-.2-.1-.5.1-.7.2s-.4 0-.6 0-.5.1-.7.1a1.3 1.3 0 0 0-1.3.5c-.2.4-.6.5-1 .3h0c-.1 0-.2-.1-.2-.1-.3.2-.5 0-.8 0s-.5.1-.8.1-.6.1-.8.3c-.4-.4-.9.1-1.3 0-.2-.1-.5 0-.6.2s-.5.4-.6.3c-.4-.2-.5.1-.7.3s-.2.2-.3.2c-.4-.1-.8 0-1.2.2-.3-.3-.6 0-.8.1-.7.4-1.5.7-2.3.7-.2 0-.4.1-.6.2-1 .7-2.2 1-3.2 1.7h-.3c-.3 0-.7.1-.9.3-.4.3-.9.5-1.4.7-.4.1-.7.3-1 .6-.3.4-.8.7-1.3.7-.4.1-.7.3-1 .6-.1.1-.3.3-.4.3-.5 0-.7.4-1 .7s-.6.7-.9.9c-.4.5-.9.9-1.4 1.3 0 0 0 .1-.1.1-.3.7-.7 1.3-1.2 1.9s-.5 1.4-1.1 1.9l-.1.1c.1.4-.2.7-.4 1s-.1.5-.2.6c-.5.7-.9 1.5-1.2 2.3-.1.6-.3 1.1-.6 1.6-.4.6-.7 1.3-.9 1.9-.1.5-.6.8-.5 1.4-.4.5-.6 1-.8 1.6l-.6 1.5c-.2.4-.3.8-.5 1.1-.1.2 0 .7-.1.8s.1.5-.2.7c-.2.1-.2.5-.4.7-.4.6-.6 1.3-.6 2v.2c-.1.2-.2.5-.4.8-.1.3-.2.5-.2.8-.2.4-.4.8-.3 1 .2.4-.3.4-.3.7s-.1.7-.2 1c-.2.4-.3.9-.1 1.4v.4c-.3.8-.4 1.7-.3 2.6v.2c-.2.5-.2 1-.1 1.4.2.5.1.9-.1 1.3v.4c.1.3.2.6.2.9v.3c0 .1-.4.5-.6.5-.6 0-.3.3-.3.6a.76.76 0 0 0 .2.4c.2.3.2.3-.2.4-.3 0-.5.3-.4.5v.2c.2.3.4.5 0 .8v.1c.4.3.1.8.3 1.1.1.1.1.2.1.4-.1 0-.3-.1-.3 0-.3.3-.8.2-1 .5-.3.4-.7.5-1.1.3-.3-.1-.6-.3-.9-.4-.1-.1-.3-.2-.3 0s-.3.2-.1.4c.1.2.3.4.4.6.1.1.1.3 0 .4l-.1.1c-.2.1-.5.2-.6.2-.3-.1-.3.1-.3.2.2.3.4.7.6 1.1.1.1.1.3.1.4-.3.2-.2.4-.2.7-.1.4-.2.7-.4 1.1h-.2c-.4-.3-.5.2-.7.3s-.4.1-.5.2-.5.1-.5.2c0 .2 0 .4.1.6 0 .1.2.2.3.2.4.2.8.5 1 .9.1.1.2.3.3.4.4.3.5.9 1 1 .1.1.1.1.1.2.2.4.3.8.3 1.3-.1.5-.1 1-.1 1.4 0 .8.2 1.6.6 2.3.3.1.4.4.4.6 0 .3.1.6.4.7a4.74 4.74 0 0 1 1 1c.3.4.6.7 1 .9.2.3.6.5 1 .6.6.2 1.3.2 1.9.3.2 0 .4.1.6.2.5.1 1 .3 1.5-.2.2-.1.4-.1.6 0 .4.2.8.1 1.1-.2.1-.1.4-.1.5-.2l.8-.3c.3-.2.5.1.8-.1l.9-.6c.1 0 .2-.1.3-.1.3.4.7.3 1.1 0 .2-.2.6-.2.8-.1s.4.1.6 0c.8-.2 1.7-.3 2.5-.6s1.8-.2 2.5-.9h.2c.4 0 .8-.1 1.2-.2s.8-.1 1.2-.1c.3.4.6.2.9.1l.9-.3c.3-.1.7-.1 1-.1.4 0 .8.3 1.2.3.4.1.8 0 1.2-.2.3-.3.8-.3 1.2-.2l.2-.1h1c.6-.1 1.3.4 1.8-.2h.1l1.1.3c.5.1 1 0 1.4-.3.4-.1.7-.1 1.1 0 .6.3 1.2.6 1.8 0 .2-.2.4-.1.7.1.4.4 1.1.5 1.6.1h.3c.8.2 1.7.2 2.5-.1.3-.1.5-.2.8-.2.8 0 1.6.1 2.4.2.3.1.6 0 .9-.2.1-.1.5 0 .6-.2.2-.4.5 0 .5 0a.91.91 0 0 0 1 0c.1-.1.3-.1.4-.1.4.3.8 0 1.3 0s1-.4 1.6-.4h1.5c.5 0 .8.2 1.1-.2 0 0 .2 0 .3.1l1.5.3c.2-.3.4 0 .6 0h.7c.5 0 1 0 1.5-.2.7-.2 1.3-.3 2-.4.2 0 .1-.3.4-.1.6.3 1.2.4 1.9.3.4.1.9 0 1.3-.2s.9-.3 1.4-.3c.8-.1 1.5.5 2.3.2 0 0 .1 0 .1.1.8.6 1.7.1 2.5.2 0 0 .1-.1.2-.1s.2-.2.3-.2c.3.3.7 0 .9.1.5.3.9-.1 1.3-.1 0 0-.1-.3.2-.3s.4 0 .4.3c0 0 .2.1.3.1.3-.1.7 0 1 .1.5.1 1.1.1 1.6-.1h.4c.7.2 1.5.2 2.2.2.4.3.8 0 1.2 0 .4.2.8.1 1.1-.2l1.1.2h.1c.7-.2 1.4-.3 2.1-.4.2-.1.5 0 .7.1.3.2.6.3.9.1.2-.1.4 0 .5.1a.76.76 0 0 0 .4.2l2.4-.3c.3 0 .6-.1.9-.2.4-.3 1-.1 1.3.3v.1c.1.2.1.2.2 0s.4-.3.7-.2.5.2.8.2c.4 0 .8-.1 1.2-.2.7-.2 1.4-.2 2 .1a4.22 4.22 0 0 0 2.2.3.76.76 0 0 0 .4-.2h.2c.3.5.7.2 1 0 .2-.1.4-.2.6-.1.3.2.6.2.9.2.7-.1 1.3.2 2 .1.5.4 1 .1 1.5 0 .5-.2 1.2-.1 1.6.2.1.1.3.2.5.1.4 0 .7-.4 1.2-.1.1 0 .3-.2.5-.3.5-.1.9-.1 1.4-.1l2.1-.1c.6 0 1.2 0 1.8.2s1.2.2 1.7 0c.1-.1.2-.1.4 0 .4.3.8.1 1.3.1.4 0 .7 0 1.1-.1a.78.78 0 0 1 1 .2h.1c1 .1 2-.3 3 0 .4.1.8.1 1.2 0 .4 0 .9 0 1.4.1h.5c.7-.2 1.3-.3 2-.3 1-.1 1.9-.3 2.8-.5.6-.1 1.3-.2 1.4-.8a1.27 1.27 0 0 1 1.1-1.1c.5-.1 1 .2 1.3.6.1.1.1.1.1.2.1.4.2.3.5.5l.7.4c.6.3 1.3.5 2 .6 1.1-.2 2.1-.7 3.1-1 .4-.2.8-.4 1.3-.5s1-.2 1.6-.2c.6.1 1.2-.1 1.7-.5.2-.2.3-.1.4-.1.3 0 .5.1.8.2.6.2 1.2 0 1.6-.5.4-.3.7-.8 1.3-.5.2.1.3 0 .3-.1.3-.4.9-.6 1.4-.5.4 0 .8-.3 1.1-.7.5-.8.6-1 1.6-.2h.1s.1.1.1.2l-.1.1c-.2 0-.5 0-.7.1-.1 0-.2.1-.2.2s.1.2.2.2.5.4.7 0l.2.1c.7.2 1.4 0 1.9-.5.2-.1.4-.3.6-.3.5-.2.6-.2.5-.6s0-.4.2-.5.3 0 .3.2.3.3.4.1l.3-.3c.1 0 .1-.1.2-.1v.2c0 .1-.1.2-.1.3s.2 0 .3 0c.3-.2.4-.2.4.2 0 .1 0 .1.1.1.3.1.5.1.8.1.1 0 .2-.2.4-.3s.2 0 .1-.2c-.3-.5-.2-.8.2-1 .1-.1.3-.1.3-.1.2.3.4 0 .5 0 .3-.1.6 0 .8.2.3.3.3.2.4-.1v-.3c.1-.4.2-.4.5-.2s.4.4.2.7c0 0 0 .1-.1.2-.2.2-.2.4 0 .6h0c.1.2.4.1.5 0s.4-.2.6 0 .2.1.3 0 .2-.2.3-.2c.6 0 1.3-.2 1.9-.4.3-.1.7-.1 1-.1.2 0 .3-.1.2-.3s-.2-.2-.2-.3.1-.3.1-.4c.1-.2.2 0 .3.1.5.3.9.5 1.5.5h.5c.1 0 .2-.1.4-.2-.1-.1-.2-.1-.3-.1-.3-.1-.6-.2-.9-.2-.1 0-.1-.1-.2-.1.1 0 .2-.1.2-.1 0-.2-.1-.4-.1-.6 0-.1 0-.2.1-.3s.1-.1.2-.1a.76.76 0 0 1 .4.2c.3.3.7.5 1.1.4.7-.1 1.2-.7 1.1-1.3 0-.2-.1-.3-.1-.5-.1-.2.1-.5-.2-.5s-.4.2-.5.4-.3.1-.5 0 0-.3 0-.4.2-.2.4-.3.4-.9.1-1.1h-.2c-.3.1-.2 0-.2-.2s.2-.5.2-.5c-.3-.2-.3-.7-.8-.8s-.5-.2-.8.1h-.2c0-.1-.1-.1-.1-.2.5-.3.2-.7.2-1s-.1-.5-.4-.5h0c-.1 0-.1-.2-.2-.3.1-.1.2-.2.3-.2.3 0 .6-.1.6-.4s0-.5.1-.8c.1-.2.4-.2.6-.3s.3-.3-.1-.5c-.1 0-.1-.1-.1-.2s.1-.1.1-.2l1.3-.3c.4-.1.7-.1 1.1 0 .1 0 .1.1.1.1-.1.2 0 .4 0 .6-.1.3-.2.5-.3.7s-.1.1-.2 0c-.2-.3-.3-.3-.5 0-.1.1-.2.2-.1.3 0 .4-.3.5-.5.5-.4.2-.5.2-.2.6s.1.3-.1.3-.3.1-.5.2c-.1.1-.1.2-.1.3 0 .3.6.4.5.8h.2c.4-.1.4-.1.4.3v.3c.1.1.1.2.2.3.1-.1.2-.3.3-.5v-.2c-.2-.2-.2-.5 0-.6.1-.1.1-.1.2-.1s.2-.1.2-.1c.1-.5.5-.6.9-.7.1 0 .3-.2.4-.3.1 0 .2-.1.3-.1s.2.1.2-.1 0-.5-.1-.5c-.4-.2-.3-.5-.4-.8s0-.9.3-.9.4-.3.5-.5.4-.4.1-.7-.5.1-.8 0l-.2.2c-.1.1-.1.2-.2.2-.3-.3-.4 0-.6.2l-.1.1c0-.1-.1-.1-.1-.2v-.3c0-.1 0-.1-.1-.2-.1 0-.1 0-.1.1-.1.1-.3.2-.3.3 0 .4-.3.3-.5.4l-.2.1c-.5-.4-.9 0-1.4.2-.2.1-.4.2-.4.5 0 .1-.1.2-.2.2s-.3 0-.4-.1-.1-.2-.1-.4c-.1-.2 0-.3.2-.3.3-.1.4-.3.3-.6 0-.2-.1-.4-.2-.5-.1-.3.2-.3.3-.5s.2-.1.3 0a3.86 3.86 0 0 0 2.1-.3c.3-.1.3-.3.1-.6s-.5-.3-.7-.5l-.2.1-.3.1c-.1-.1-.1-.2-.1-.4l.1-.1c-.1-.1-.2-.2-.2-.3-.1.1-.2.1-.2.2v.3a.76.76 0 0 1-.2.4c-.1.1-.3-.1-.4-.2-.2-.3-.4-.5-.6-.6-.7-.4-.7-.5-.2-1.1l.2-.1s.2.1.2.2-.1.2-.1.4c0 .1 0 .2.1.3h.3c.2-.2.5-.3.6-.5s.3-.4.5-.5.3-.3.1-.5-.2-.4-.1-.5c.3-.4-.1-.5-.2-.7s-.2-.1-.3-.1c-.1.1-.2.2-.2.3v.6c0 .4 0 .5-.4.7-.2.1-.6.1-.7-.2-.1-.2-.1-.4-.1-.6s-.2-.4-.4-.4h-.1c-.2 0-.3.1-.4.2-.3.2-.7.3-1 .2-.1 0-.1-.1-.1-.1 0-.3 0-.5.1-.8s-.1-.4-.3-.5-.2 0-.3.1-.2.2-.3.2c-.5.2-1 .5-1.2 1l-.1.1s-.1-.1-.1-.2c.1-.4-.1-.8-.4-1.1-.4-.2.1-.3-.4 0a.45.45 0 0 1-.5 0c-.2-.1-.5-.1-.8 0-.1.1-.2.1-.4 0-.6-.5-.3-.7-1.1-.8-.2 0 .1-.1 0-.3s-.7-.3-.7-.5-.1-.1-.2-.1c-.2-.2.3-.3.4-.4s.1 0 .1-.1a.76.76 0 0 1 .2-.4 1.38 1.38 0 0 0 .4.3c.2.1.1-.1.4.1s.2-.2.3-.6c0-.1.2-.3.2-.3.2-.2.2-.4.5-.5s.5.2.6.4c.1.1.1.1.1.2.2.5-.1.5.4.5.2 0 .4 0 .4-.3s.2-.2.4-.1.2.2.3.2.2 0 .3-.1c-.4-.3.4-.4.1-.7.1-.1.2-.2.3-.2s.2.1.2.2c.1.4.3.7.6.8.4.3.4.3.7-.1s.3-.4.7-.3c.1 0 .3.1.4 0s.5-.4.4-.5c-.1-.4.2-.4.3-.5s.9-.4.4-1l.1-.2c.3-.1.5 0 .6.4.1.3.2.6.4.8.1.1.2.1.3.2.1 0 .1-.2.2-.2s0-.2 0-.3c0-.3.2-.1.3 0s.2.2.3 0c.1-.1.1-.2.2-.2l.2.1c-.2.6.1.4.4.3.2-.1.3-.1.4-.2a.47.47 0 0 1 .6.1c.2.2.3.3.4-.1s.2-.4.1-.6c0-.3 0-.6.1-.9 0-.2.2-.3.4-.1l.4.4c.1.1.1.3.4.4.1 0 .1.2.1.3s-.1.4.2.4c.1 0 .1-.2.2-.3 0-.1.1-.1.1-.2.2-.2.2-.3 0-.6s-.1-.4-.1-.5-.1-.1-.1-.1-.1.4-.2 0c0-.2 0-.3.1-.4s.2-.2.3-.4c0-.1.1-.1.1-.2h-.3c-.1 0-.1.1-.2.1-.2 0-.3-.1-.2-.3 0-.1.1-.2.1-.3 0-.2.1-.2.3-.1s.3.4.6.1.6 0 .7.4-.2.2-.3.3-.1.1-.1.2a.94.94 0 0 0 .1 1.3s.1 0 .1.1c.2.2.3.4 0 .6s0 .3.1.4.2.1.3 0c.4-.4.9-.7 1.4-.9.3-.2.3-.3 0-.5s-.1-.2 0-.2c.3-.1.4-.3.3-.6V35c-.2-.3-.1-.5.2-.6.2-.1.2-.2.1-.4s.1-.2.2-.1.2.1.2.2c0 .2.1.3.1.5.1.1.2.2.4.3 0 0 .2-.1.2-.2s0-.3-.1-.4l-.3-.3s-.1-.1-.1-.2c.5-.4.1-.5-.1-.7s0-.2-.1-.3c-.3.1-.1.3-.2.5s-.2.1-.2.1c-.1-.1-.1-.2-.1-.3l.1-.1c.2-.2.3-.5-.1-.6s-.1-.5-.4-.4c-.4.1-.3-.2-.3-.4.1-.4.2-.4.5-.1.1.1.2.2.4.1.3-.2.6-.4.8-.8.1-.2.1-.4.2-.6 0-.1 0-.1.1-.1 0 0 .1 0 .1.1.1.3.3.6 0 .9-.1.1-.2.3-.3.4-.3.4-.5.8-.5 1.3.5.2.5.2.8-.1s.4-.5.7-.7c.1-.1.3-.2.3-.2.3.2.4 0 .5-.2.1-.1.1-.3.2-.4.3-.4.3-.4 0-.7s-.3-1.1-.7-1.5c-.1-.1.1-.4.1-.5s0-.2-.1-.3h-.2v.2c-.1-.1-.1-.2-.2-.2-.1-.1-.2-.1-.3-.2-.1.1-.2.2-.2.3s.1.3.1.4c0 0 0 .1-.1.1h-.2c-.1 0-.1-.1-.1-.2 0 .1-.1.2-.1.2 0 .3-.1.5-.1.8l-.8-.2c-.1 0-.1 0-.1-.1-.4-.2-.7-.4-.9-.8v-.1h.2c.1 0 .2.4.4.3 0-.2-.1-.3-.2-.5 0-.1-.1-.2-.1-.3 0-.2 0-.5.1-.6.2-.1.4-.1.6 0 .1 0 .2.1.2.2s.1.4.2.6.5.3.6.2 0-.3 0-.4c.4-.1.4-.5.5-.8 0 0 .1-.1.1 0 .1 0 .1 0 .1.1v.3c.1.4.1.4.4.2s.5-.4.6-.3c.3.2.4-.2.6-.2h.3c.3.3.7-.1 1 0 0 0 .1-.2.1-.3-.4 0-.7-.3-.8-.6s-.2-.2-.3-.1l-.3.2c-.4.4-.4.4-1 .1-.2-.1-.4-.2-.6.1h-.2c-.1-.2-.1-.6-.4-.7 0 0 0-.1.1-.1s.4-.3.5 0c.3.5.7.1 1.1.1s.4-.2.2-.5c-.3-.6-.2-.6.4-.6h.1c.4-.2.5-.1.4.3v.3l.1.1s.2 0 .2-.1c.1-.4.5-.7.9-.7l.8-.3c.2-.1.3-.3.2-.5v-.1c-.1-.2-.3-.3-.5-.1-.1.1-.1.1-.2.1h-.2v-.3s.1-.1.2-.1.4 0 .6-.1.1-.4.1-.6c0-.3.1-.6.2-.8s.5-.3.8-.5h.1l.1-.1-.1-.1h-.6c-.4 0-.4-.3-.5-.5s.2-.2.3-.3.3-.2.1-.3-.5-.5-1-.4c-.2 0-.4-.1-.2-.4.1-.2.1-.4.1-.6 0-.1 0-.2-.1-.2-.2-.1-.4 0-.5.2s-.4.4-.1.6c.4.3.3.8.5 1.2.1.2 0 .2-.2.3s-.4.1-.1.3.1.3.1.5c.1-.1.5 0 .4-.4 0-.1.3-.3.4-.3s.3.4.2.7-.4.4-.1.7.1.5-.3.5l-1 .1c-.1 0-.3 0-.3.1s-.2.3-.4.2-.4-.2-.6-.4c0-.2 0-.4.1-.5l.7-.3c.1-.3 0-.6-.3-.8-.1-.1-.2-.1-.3-.2l.2-.2c-.1-.3-.1-.6-.2-.9s-.3-.4-.6-.4-.4 0-.5.3-.4.4-.6.5-.3.2-.4-.1c0-.1-.4-.3-.5-.2-.4.4-.8.2-1.1-.1-.2-.2-.7-.2-.9 0-.1.1-.3.2-.4.3-.2.4-.3.2-.5 0s-.1-.4-.1-.6-.4.2-.5-.1c0-.1-.2-.3-.2-.4v-.4c0-.6 0-.6.5-.6a.9.9 0 0 1 .5.1c0 .1-.1.3-.1.4v.2c0 .3 0 .3.3.3s.9-.4 1.3.1h.2c.4-.1.7-.4.9-.8l.1-.2c.1.1.1.2.2.3v.3c.1.2.2.4.4.6.1.1.3-.1.4-.1.3 0 .5-.2.5-.4h0c0-.3.2-.2.4-.1s.1.1.1.1c.3.4.4.4.5 0 .1-.3.4-.6.8-.6.3 0 .7 0 1 .1s.7.1.9-.2c.2-.1.4-.4.3-.5-.1-.4.2-.4.3-.6 0-.1 0-.2-.1-.2-.1-.1-.2-.3-.3-.4s0-.2 0-.2.2-.1.3 0 .1.2.1.3c0 .3.3.2.4.2.2 0 .4-.1.4-.3h0c0-.2-.1-.3-.2-.4s-.3-.1-.4-.1-.1-.1 0-.2.3-.2.3-.3c.2-.4.4-.6.8-.3.4-.2.4.1.4.3v.4c0 .1.2.4.4.3.5-.2 1.1-.2 1.7 0 .4.1.6-.1.8-.3s0-1-.2-1.1h0zm-4.7-4c.1-.1.2-.1.4-.1l.1.1c.1.1.1.1.2.1s.1.1 0 .1c0 .1-.1.1-.1.1h-.3c-.1-.1-.2-.1-.3-.2-.1 0-.1-.1 0-.1h0zm-130.6 37c-.1.3-.2.7-.4.9-.1.2-.3.3-.4.5-.2.2-.3.5-.4.7l-.6 1.2c-.2.3-.4.5-.6.7-.1.2-.3.3-.4.5s-.3.3-.4.4c-.3.2-.5.4-.8.5-.1.1-.2.1-.3.1-.3.2-.5.4-.8.6s-.4.2-.6.3-.2.2-.3.3c-.7.5-1.5.7-2.4.7-.6 0-1.2 0-1.7.1h-1.8-1.2-1.5c-.1 0-.3-.1-.4-.1-.3 0-.7-.1-1-.1-.6-.1-1.3-.2-1.9-.4-.5-.2-1-.3-1.5-.5s-1-.5-1.5-.7l-.6-.3c-.4-.2-.8-.5-1.1-.7-.1 0-.1-.1-.2-.1-.2-.2-.5-.3-.7-.5-.4-.3-.8-.5-1.1-.8s-1-.8-1.5-1.2c-.1-.1-.3-.2-.4-.4l-.5-.5c-.2-.2-.2-.2-.2-.3-.3-.4-.6-.8-.8-1.2-.1-.2-.3-.4-.5-.6l-.6-.9c-.4-.6-.7-1.2-1-1.8-.2-.4-.4-.8-.5-1.2s-.2-.6-.4-.8c-.5-1.1-.8-2.3-1-3.5l-.3-1.9v-2c0-.8.1-1.6.3-2.4l.7-3.2c.2-.9.6-1.8 1-2.6l.9-1.8c.1-.2.2-.4.4-.5l1.7-2.3 1.2-1.3 1.2-1.1c.3-.3.8-.5 1.1-.8l.7-.5c.9-.6 1.8-1.1 2.8-1.6.6-.3 1.3-.4 1.9-.6 1.4-.4 2.8-.6 4.2-.5.3 0 .5.1.8.1.4.1.9.1 1.3.1.9.1 1.7.3 2.5.6a4.67 4.67 0 0 1 1 .5c.6.3 1.2.5 1.7.9.8.5 1.5 1 2.2 1.6.1 0 .2.1.3.1 0 0 .1 0 .1.1.1.3.4.5.7.6h.1c.3.2.5.4.8.6 0 0 .1.1.1.2.1.1.1.3.2.4v.2l-.1-.1c-.1-.1-.1 0-.1.1v.2l-.2-.1H57l-.1.1s0 .1-.1.2-.1.1 0 .2.1.3 0 .5c0 0 0 .1.1.1v.2h-.2c.1.1.1.2-.1.2h-.1c-.1 0 0 0 .1.1s0 .2 0 .3c-.1 0-.1.1-.2.1s-.2.1-.2.2v.1c0 .1.1.2.1.3v.2h-.6c.2.3.4.1.6.2h.1-.1-.3s0 .1.1.1.1.1 0 .1 0 0-.1.1c-.2.2-.2.2 0 .4 0 0 0 .1.1.1H56c-.1 0-.1 0-.1.1v.1h-.1s-.1-.1-.2-.1h-.1v.1c0 .1.1.2.2.4.1.1.1.4.3.4h.1c.1 0-.1.1-.1.1h-.2l.1.1h-.2c-.1 0-.2-.1-.2-.1h-.1v.1c.1.1.1.3.3.3 0 0 .1 0 .1.1v.3c0 .1 0 .1-.1.2v.1l-.1-.1v-.1c0 .1-.2.2-.3.2 0 0-.1 0-.1-.1h-.1V27c.1.1.1.2.2.3l.1.1s.2.1.1.3-.2.3-.4.1-.1-.1-.1 0 0 .1-.1.1v.1s-.1.2 0 .2c.1.1.2.1.3.2v.1h-.3c-.1 0-.1 0-.2.1 0 0 0 .1-.1.1s-.1.1 0 .2l.1.1v.1h-.1v.2c.2.3 0 .2-.2.2s-.2.1-.3.1h-.2c-.1 0-.2 0-.2.1v.4c0 .1.1.2-.1.3v.1c0 .2-.1.3-.3.3l-.8-.2c-.3-.1-.6-.2-.9-.4-.4-.3-.9-.5-1.3-.8l-1.4-.8c-.2-.1-.4-.2-.6-.2-.1-.3-.3-.4-.6-.4-.3-.1-.5-.1-.8-.1h-1.1c-.5 0-1 .2-1.4.4-.5.3-.9.6-1.3.9-.3.3-.6.6-.9 1-.2.4-.5.7-.7 1.1l-.3.8c-.1.3-.3.6-.3.9-.1.3-.1.6-.1.9v.5 1.4a.76.76 0 0 0 .2.4c.1.2.2.5.3.7s.2.4.2.6 0 .1.1.2c.2.4.4.8.5 1.2 0 .1.1.2.1.3v.1c.2.4.5.8.7 1.2s.5.8.9 1.1c.2.1.3.3.5.4a.76.76 0 0 0 .4.2c.1 0 .1 0 .2.1.2.1.4.3.7.3l.9.3c.3.1.6.1.9.1.2 0 .4.1.5.1.2 0 .4 0 .6-.1.3-.1.7-.1 1-.2l1.1-.3c.4-.1.8-.2 1.2-.4.3-.1.6-.4 1-.5.5-.3 1-.5 1.6-.7.1-.1.3-.1.4-.2.3 0 .5 0 .8-.1.3 0 .6.1.8.2l.1.1c.1.1.1.2.2.2l.1.1v.1c.2.1.3.3.4.5s.5.4.5.6.5.5.5.9c0 .1.1.2.2.2s.2.2.2.3 0 .2.2.3.2.3.3.4c0 .1.1.1.1.2l.1.1c.1.2.1.3.2.5s.2.3.2.5.1.2.2.2c.5 0 .6.4.6.8-.1.6-.1.8-.1 1h0zm35-5.7c-.1.6-.2 1.2-.1 1.8v4.5c0 .9.1 1.9.2 2.8v.8.2c0 .2-.2.3-.4.3 0 0-.1 0-.1-.1l-.1-.1c-.1 0-.1-.1-.2 0s-.1.1-.2.1c-.3 0-.3 0-.6.2-.2-.1-.3-.2-.4-.1h-.4c-.2 0-.3-.1-.3-.3-.1.1-.2.1-.3.1h-.2c-.2.2-.4 0-.6 0s-.1-.1-.2-.1-.1-.1-.2-.1H91c0 .1-.1.1-.2 0h0s-.1-.1-.2-.1a.47.47 0 0 1-.6-.1c-.3.1-.5-.1-.7-.2h-.1c-.1.1-.2.1-.2 0l-.4-.3c-.2 0-.3-.1-.3-.3s-.1-.2-.3-.2h-.4c-.1 0-.3 0-.4-.1-.4-.7-.9-1.4-1.3-2l-.5-.8c-.2-.3-.4-.5-.6-.8-.3-.3-.5-.6-.7-1-.4-.8-.9-1.6-1.3-2.3l-1.4-2.3c-.4-.7-.9-1.4-1.3-2l-1.5-1.8-1.7-2c-.2-.3-.5-.5-.7-.8l-.2-.2v3.4l-.1 2.5c-.1.5-.1 1-.1 1.5l-.4 2.1-.2 1.9c0 .6-.2 1.3-.3 2-.1.5-.1 1-.1 1.5s-.1.9-.2 1.4c0 .1 0 .2-.1.4l-.3 1-.1.1c0 .3-.3.4-.5.6h-.1c-.4-.2-.8 0-1.1-.2-.5.1-1 0-1.4 0-.2 0-.4-.1-.7-.2h-.2c-.1 0-.1.1-.2 0s-.2-.1-.3-.1H69h-.1c-.2-.2-.5-.2-.8 0h-.7-.2c-.4.1-.8.1-1.2 0h-.1c-.5 0-.7-.4-.8-.8l-.3-1.5c-.1-.8-.2-1.5-.1-2.3v-1.2c0-.2 0-.3.1-.5 0-.2.1-.4.1-.6.1-.5.1-1.1.1-1.6v-.3-.8c0-.5 0-1 .1-1.5s0-1 0-1.5V40v-.2c0-.2 0-.3-.1-.5 0-.2-.1-.3-.1-.4s.1-.3 0-.5c0-.8-.2-1.6-.1-2.4s0-1.3 0-2v-.9c0-.5.1-1 .1-1.5s.1-1 .1-1.5l.2-2.4v-.2l-.3-1.8c-.1-.6-.2-1.1-.1-1.7 0-.4 0-.8.1-1.1s.1-.9.1-1.3v-.9a10.9 10.9 0 0 1 .3-2.6c.1-.3.2-.6.5-.8l.3-.3c.1-.2.3-.2.5-.2.3.1.5 0 .7-.1s.4-.1.6-.1c.1 0 .2 0 .3-.1.3-.2.6-.3.9-.3.3-.1.7-.1 1 .1h.2l1.1.1c.4-.2.9-.1 1.3-.2h.2c.2-.1.4-.1.6 0 .3.1.5.3.5.6a.55.55 0 0 0 .3.5c.2.3.4.5.5.8l.6 1.4c.5 1.1 1 2.1 1.7 3a7.55 7.55 0 0 0 1.1 1.4l2.1 2.9c.3.5.7 1 1.1 1.5l1.1 1.5c.2.3.5.6.8.9s.4.6.7.9.4.5.6.8c.1.1.2.2 0 .3s0 .2.1.2a.55.55 0 0 1 .5.3l.1.1c-.1.2.1.3.3.3l-.8.4c-.1.1-.1.2 0 .3 0 0 .1 0 .1.1h.4c.2 0 .4.1.3.3s.1.2 0 .3c-.1.3-.1.5 0 .3s.3 0 .3.1l.2-1.1.5-3.1c.1-.4.1-.9.1-1.3s.1-1.1.1-1.6v-.6l-.5-3.1-.3-1.9c-.1-.6 0-1.4 0-2.1 0-.6 0-1.1.1-1.7 0-.5.2-.9.4-1.3.1-.2.2-.5.3-.7.1-.4.3-.5.6-.4h.3c.3-.1.7-.2 1-.1h.3c.4-.2.9-.1 1.3-.3.3 0 .6 0 .9-.1.1 0 .3 0 .4-.1.4-.1.7-.2 1.1-.2h.5.4c.3 0 .3 0 .4.2.2.4.3.8.3 1.2l.4 3.9.4 3.4v.6c0 .3.1.5.1.8 0 .2.1.4.2.6v.2.2c.1.4 0 .8 0 1.2 0 .3 0 .6-.1.9l-.1 1.6v.4c0 .4-.1.8-.1 1.2 0 .2.1.4.1.7V34l.3 2.8.2 2.6c0 .9-.1 1.8-.3 2.7h0zm16.7 6.1v1.3.8c0 .3-.1.5-.3.7-.1.1-.1.3-.1.4l-.2.2c0 .1-.1.2-.2.3s-.1.2-.2.3l-.1.2-.1.1v.1l-.2-.2s-.1 0-.1-.1l-.2.1c-.2 0-.2.1-.2.4l-.2.1v-.3c0-.1 0-.2-.1-.2l-.1-.2h-.2l-.1-.1c-.1-.1-.1-.1-.1-.2v-.1h-.1-.1l-.2.1v.2.1l-.2.2-.1.1-.6.4h-.2l-.1-.1-.1-.3-.4.6-.1-.1v-.3c0-.1-.1-.2-.1-.3v.1h-.2s-.1 0-.1-.1h.2c-.2 0-.3.1-.2.2s0 .3-.2.4h0l-.2-.3-.3.3-.1-.1s0-.1-.1-.2c0-.1-.1-.1-.2-.1v-.2c-.2 0-.4.1-.4.3v.1l-.3-.1s-.1 0-.1-.1h-.1l-.1.2c-.1-.1-.2-.2-.2-.3-.1-.1-.1-.2-.2-.3l-.2.3-.2-.1h-.1l-.3.1-.2-.1-.1-.2v-.1l-.2-.4-.1-.1v-.2c-.1 0-.2-.1-.2-.3v-1-.1l-.2-2.9-.2-3.4-.2-5.1c0-1-.1-2.1-.2-3.2 0-.5 0-1-.1-1.5l-.1-3.9-.1-2.9.1-3.7c0-.7 0-1.4.1-2l.3-2.8c.1-.5-.1-1.5 0-2s.4-.7.8-.4l.1.1c.1-.4.2-.4.4-.2.2.1.2 0 .3 0h.3c.2 0 .4-.1.6-.1s.4 0 .5-.3c0-.1.2.1.3.1.2 0 .4 0 .6-.1.1-.1.3 0 .4.1s.2.1.3-.1h.1.3c.1 0 .2-.2.3 0s.1 0 .1 0c.1 0 .3 0 .4-.1 0 0 .1-.1.1-.2.2.2.4.2.7-.1.1.1.2.4.4 0h.1.1s0-.1.1-.1c.3.3.4-.4.7-.1h.1c.2-.3.3 0 .5.1.1-.3.2-.3.4-.1.3.1.3.1.3.6v1.4c0 1.2.3 2.9.4 4V24l.1 3.8.1 3.6.3 5.1.3 6.4.2 4c-.3.3-.5.8-.7 1.3h0zm35.3-5.2c0 .3-.1.6-.2.8s-.1.3-.1.5c0 .1 0 .2-.1.2-.1.1-.2.3-.3.5 0 .2-.1.4-.1.5l-.6 1.6c-.1.2-.4.4-.6.4l.2.1c-.2.2-.4.4-.7.5-.1 0-.2.2-.4.3s-.2.1-.1.2 0 .1-.1.1-.1.1-.1.1c0 .3-.2.4-.2.7v.1c-.3.1-.1.3-.1.5s.1.1.2.2c-.1.4-.4.7-.7.9-.5.3-1 .6-1.4 1-.2.1-.3.3-.5.4l-.6.3c-.3.2-.6.3-.9.5-.5.2-.9.4-1.4.5h-.2c-.9.2-1.7.3-2.6.4l-1.4.1c-1.6 0-3.2 0-4.9-.1l-2.5-.2c-.5 0-.9-.1-1.4-.2l-.5-.1h-.1c-.2 0-.4 0-.6-.1-.4-.1-.7-.1-1.1-.2l-.1-.1c0-.1.1-.1.1-.2h.2.3c-.1-.2-.1-.4-.4-.3h-.1c-.2-.1-.5-.1-.7 0h-.2-.7c-.3.1-.7 0-1-.2-.5-.2-.9-.3-1.4-.3-.1 0-.2 0-.2-.1s.1-.1.2-.1h.2l-.3-.3c-.2-.1-.3-.4-.4-.6 0-.1-.1-.2-.1-.3-.1-.2-.1-.5 0-.7s0-.3-.2-.4l.3-.1c-.1-.2-.2-.4-.3-.7-.1-.2-.1-.5-.1-.7s0-.4-.1-.7c0-.2-.1-.4-.2-.6s-.1-.4 0-.6v-.1c-.1-.3-.2-.6-.1-1 .1-.3.1-.6.1-.9l.1-1.1V43v-.2c.1-.2.1-.4.1-.5v-.6-.1c-.1-.2-.1-.4 0-.5v-.2c0-.1-.1-.2-.1-.2 0-.5-.1-1-.1-1.4v-.2c.1-.3.1-.6 0-.9 0-.5 0-.9.1-1.4v-.3c0-.4-.1-.7-.1-1.1s-.1-.7-.1-1.1v-.8-1-.5-.5-1.2-.2-1.2-.7-.1c0-.5.1-1.1.1-1.6v-.4c-.1-.2-.1-.5 0-.7v-.2c-.1-1.1-.1-2.3 0-3.4v-1.4V19c0-.6.1-1.2.2-1.8 0-.1.1-.3.1-.4s.2-.2.3-.2c.3-.1.6-.1.9-.1.2 0 .4-.1.6-.2.5-.3 1-.5 1.5-.6.8-.2 1.6-.3 2.4-.4h1.8l2.4.2c.4 0 .9 0 1.3-.1.5 0 1.1-.1 1.6-.1.7-.1 1.5-.1 2.2.1l1.3.3c.7.1 1.4.3 2.1.5.5.3 1 .7 1.5 1.1l1 .6c.1 0 .3.4.4.4.5.5.9.7 1.4 1.3.2.2.3.7.4.9.2.4.4.8.5 1.3a.76.76 0 0 0 .2.4c.1.1.2.3.2.5v.5c0 .2 0 .2-.1.3.3.2.3.3.2.6v.2c.1.4-.1.6-.4.7 0 0 0 .1.1.1s.1.2-.1.3c-.1 0-.1.1-.1.1v.1c.2.1.1.2 0 .3s-.1.2-.2.3c-.1.2-.2.4-.2.6 0 .5-.1 1-.2 1.5-.3.8-.7 1.5-1.2 2.1 0 0-.7.4-.7.5.1.1 1.2.3 1.4.4.3.2.7.3 1 .5s.5.4.8.7c.5.5 1 .9 1.4 1.4.5.6 1 1.3 1.5 2 .2.2.3.4.5.7.4.7.7 1.4 1 2.1v.1l.3 1.7c0 .2.1.4.1.6.1.2.2.5.1.7v.2c.1.3.1.6.1.9-.3-.4-.3-.1-.3.1h0zm7.3-33.4h-.3c-.2 0-.4.1-.5-.3a.76.76 0 0 0-.4.2c-.3.2-.7.2-.9-.1l-.1-.1c-.1-.1-.1-.3-.1-.3.4-.4 0-.7 0-1.1 0-.1-.1-.2-.1-.2.1-.1.1-.2.3-.2 0 0 .1.1.2.1l.3.6c.1.5.6.8 1.1.7.2 0 .5.1.7.2.1.1.1.2.1.3-.1.1-.2.2-.3.2h0zm8.9-5.9c-.2.3-.4.7-.4 1.2V5l-.3.3c-.2.1-.5.3-.5.2-.3-.3-.4.3-.7.1s-.5-.2-.6-.3c-.1-.3-.1-.6-.2-.8l.1-.2c.2 0 .3-.2.5-.3s.3 0 .4 0 .1 0 .1-.1l1.1-.6h.3c.3.2.3.3.2.4zm11.8 50.6c.2 0 .4 0 .4.3 0 .2.1.3.1.5v.4s0 .3-.1.3c-.3.1-.5.1-.8.2 0 0-.1-.2-.1-.3s.1-.3 0-.5c-.2-.3 0-.7.3-.8.1-.1.2-.1.2-.1zm-3.8 2.4c0 .1-.1.2-.2.2 0-.1-.1-.2-.1-.3v-.3-.2c0-.1.1-.2.1-.2l.2.1v.7zm1.2-1.1c-.1.1-.3.1-.5.1s-.3.1-.2-.2c.1-.5-.4-.8-.3-1.3 0-.1-.3-.2-.5-.3-.4-.2-.5-.2-.3-.6a.47.47 0 0 0-.1-.6c-.1-.1-.1-.2-.1-.3s.3-.1.4 0c.3.2.6.4.8.7 0 0 .1.1 0 .1-.3.3 0 .5.1.7.2.3.3.6.3.9 0 .1.1.3.1.4s.5.1.3.4h0zm.1-3.7c-.2.2-.5.4-.7.6h-.2c-.1 0 0-.1 0-.1.2-.3.4-.6.6-.8h.3c.1 0 .1.3 0 .3h0zm1 2.5l-.2.1c-.3 0-.5-.2-.4-.4s.1-.1.2-.2l.4.5zm-2.5-8.3c.1-.2.3-.2.5-.1a1.38 1.38 0 0 1 .4.3l.1.1-.1.1-.4.2c-.1.1-.2.3-.4.1-.3-.2-.3-.5-.1-.7h0zm.4 2c.2 0 .3.2.4-.2.1-.3.2-.5.4-.7s.4-.5.7-.5c.2 0 .4-.1.6-.2 0 .2 0 .5-.1.7-.1.3-.2.6-.1.8v.4c0 .1-.2.1-.3.1s-.1-.1-.1-.2.1-.2.1-.3c.1-.2-.1-.4-.3-.5h0c-.2-.1-.4.1-.4.3s-.3.5 0 .8 0 .8.2 1.1c0 .1-.1.3-.2.3-.6 0-.8.6-1.2.7.1.4.1.5-.2.6-.1 0-.2-.1-.3-.2s.1-.2.1-.2c.1-.1.2-.1.4-.2 0-.2.1-.4.2-.5.2-.5.2-.5-.3-.6l-.2-.1c0-.1.1-.2.2-.2.2-.1.5-.2.8-.3s.3-.3.1-.4l-1.1-.6c-.5-.2-.5-.3-.5-.7 0-.1.1-.2.2-.3.1 0 .2 0 .3.1s.1.2.2.3c-.1.5.1.7.4.7h0zm-1.3-4.2h.1c.1 0 .1 0 .1.1s.1.4.2.5c.2.3.1.5-.1.8h-.1l-.4-.5s0-.1-.1-.1c.4-.3.4-.6.3-.8h0zm0 14c.1-.1.2-.1.4-.1.1 0 .3.1.3.2 0 .3 0 .7.1 1.1 0 0-.1.1-.2 0-.2-.1-.4-.2-.6-.4-.1-.1-.1-.1-.1-.2 0-.3.1-.4.1-.6h0zm-.8 1.4h.2c.1.1.3.2.4.3.4.4.4.4.7 0 .1-.2.2-.2.4-.1.1.1.1.2.1.3 0 0 0 .1-.1.1-.3.1-.6.6-.9.4-.2 0-.4-.1-.6-.1-.3-.1-.4-.4-.2-.7v-.2h0zm-2.3-10.8h.2v.2c-.1.2-.4.3-.7.2l-.2-.1.2-.2c.3 0 .4 0 .5-.1h0zm-1.3-5.1c.2 0 .3.1.4.2.2.4.3.9.5 1.4 0 0 0 .1-.1.1-.2 0-.6.2-.6-.3-.4-.2-.4-.6-.7-.9-.1-.1-.1-.1-.1-.2l.6-.3h0zm.3-39.2c-.4.1-.4.3-.4.7v.4a1.66 1.66 0 0 0 0 2.1c0 .1.1.2.1.3s-.1.1-.1.2h-.1c-.2-.5-.6-.5-1-.4s-.4.1-.4-.3.2-.8.5-1c.1-.1.3-.1.3-.2s.3-.3 0-.6c-.2-.2-.3-.4-.4-.6-.2-.3-.4-.6.1-.8v-.1c.1-.4.2-.4.4-.1.2.2.6.2.9 0 .1-.1.1-.1.1-.2s.1-.2.2-.3h.1c.1 0 .1.1.1.2 0 .2.1.7-.4.7h0zm2.1 33.2c-.1.2-.1.1-.2 0-.4-.3-.5-.8-.6-1.2s.1-.7.2-1.1c0-.1.2-.2.3 0s.3.3.4.5c.3.3.1.6.2 1-.1.2-.2.5-.3.8h0zm.4-29.5l-.4.2c-.3.2-.4.2-.6-.1 0-.1-.3-.4 0-.4s.4-.6.6-.1c0 .1.3.1.4.2v.2h0zm3.2 30s-.2.1-.4.1.1-.2 0-.3-.1-.3-.2-.4c-.1-.2.1-.3.2-.4s.5 0 .6.2v.1c-.1.2-.2.5-.2.7h0zm.7-3.8c-.2 0-.4 0-.5-.1l-.3-.6.1-.2s.4-.1.6 0 .5.3.4.6c0 .1-.1.3-.3.3h0zm6.5-24.7c.1 0 .3-.1.4-.1s.1 0 .2.1c-.1.2-.2.3-.4.5-.1.1-.5-.1-.5-.2l.3-.3h0zm-.9-2.1c0-.1.1-.1.2-.2l.3-.2c.1.1.1.2.2.4.2.4.1.6-.3.6h-.3s-.2-.1-.2-.2c0-.2.1-.3.1-.4h0zm-.2.8c.1.2.2.3.3.5-.1.1-.2.2-.2.1-.1-.1-.2-.1-.2-.3 0 0 .1-.2.1-.3h0zm-.5 7.1c0-.1.1-.3.2-.3.1-.1.2-.1.3 0 .2.2.3.6.1.9-.2.2-.3.5-.3.8 0 .1-.2.2-.4.3 0-.2-.1-.5-.1-.5.3-.3.4-.8.2-1.2h0zm.7 19.2h-.5l-.3.3c-.4.4-.4.4-.1.9 0 .1.1.1.2.1s.1-.1.1-.2c0-.3.1-.5.4-.6.1 0 .2 0 .3.1s.1.1.1.2l-.3.6c-.3.5-.4.5-.8.2-.2-.1-.3-.3-.6-.2-.1 0-.4-.6-.4-.8s.1-.1.1 0c.2.1.4.2.3-.2v-.2c.1-.4.3-.4.7-.3h.3a1.38 1.38 0 0 0 .3-.4c.1-.1.1-.3 0-.4-.3-.2-.2-.4-.2-.7 0-.2-.1-.3-.1-.5 0-.1-.1-.2-.2-.3.3-.2-.1-.5.1-.6.1-.1.2-.2.3-.2.1.1.2.2.2.4.1.7.3 1.4.5 2 .3.5 0 .9-.4.8h0zm.2-8s0 .1 0 0c.1.2.2.4.3.5s.1.3 0 .3h-.4c-.1 0 0-.8.1-.8h0zm1.1-6.4c-.3-.4-.7-.3-1-.2s-.2-.1-.4-.2-.5-.4-.8-.2-.3 0-.4-.2 0-.3.1-.3.4-.4.6-.1c.1.1.2.2.3.2.7-.3 1.1.4 1.8.3.1 0 .2.2.3.3.1.2-.3.5-.5.4h0zm7 2.9l.1.1c-.2.2-.3.5-.6.3h-.3c-.1-.1-.2-.3-.3-.5.1-.1.3-.1.4-.1.4.1.5.3.7.2h0zm-.6-2.3h.2c0 .1 0 .1-.1.2s-.2.3-.3.4l-.2.2c-.1-.1-.2-.2-.1-.2.2-.3.3-.6.5-.6h0zm-3.1 8.6c-.2.1-.2.4-.1.6.1.3-.2.6-.5.8h-.1c-.1 0-.1-.5 0-.6.3-.1.3-.2 0-.4l-.9-.6c.1-.3.3-.6.3-.9s.2-.8.3-1.2c0-.1.1-.1.2-.3l.3.3c.2.3.4.6.3 1-.1.3-.1.6.3.7s.1.4-.1.6h0zm1.1-4.4h0c0-.1.1-.1.1 0 .4.4.4.9.5 1.4 0 .1-.2.3-.3.4s-.4-.1-.4-.3 0-.4-.2-.6-.1-.3-.1-.4c.3-.2.4-.3.4-.5zm-1 .6c.2.1 0 .5.4.6.1 0 .2.2.3.4l-.4.1h-.5c-.1-.1-.2-.2-.2-.3-.1-.2-.1-.4-.1-.5s.1-.2.2-.3c0-.1.2-.1.3 0h0zm-.6-3.5c.2.1.4.1.2.4s-.2.6-.3.9c0 .1-.1.1-.2.1l-.1-.1s-.1-.3-.2-.5l-.3-.5.9-.3zm.5-10.4c-.2 0-.5-.1-.7-.2s.1-.3.1-.4c0-.3.1-.4.5-.2s.6.1.8.4c0 .1 0 .1.1.1-.4.1-.6.2-.8.3h0zm1.6 5.8h-.1l-.1-.1.3-.8h.1l.1.5a1.38 1.38 0 0 1-.3.4h0zm1.4-4.7v-.1l1.1-.5.5.3c.1.1.1.2 0 .3-.2.2-.4.3-.6.4-.3.2-.6.1-.8-.1-.1-.1-.2-.2-.2-.3h0zm.4 4.1c-.1-.1-.2-.2-.1-.4l.1-.1c.3-.1.7-.1.9.1v.1c-.3.3-.6.4-.9.3h0zm2.4-3.1c-.2.1-.3.4-.3.6 0 .1 0 .3-.1.3-.6.1-.3.6-.3.9v.4c-.1.3-.3.3-.5.1-.1-.1-.2-.1-.3-.1-.3 0-.4-.1-.2-.4.1-.1.1-.3 0-.3-.5-.3 0-.6-.1-.9s-.1-.6-.1-.9c0-.1.1-.1.1-.1h.4c.1 0 .2-.1.3-.2.1-.2 0-.4.1-.7 0-.1.1-.2.2-.2l.2.2c.1.1.1.2.2.4 0 .3.1.5.4.5.1 0 .2.1.3.2-.2.1-.2.2-.3.2h0zm-62 15h.3c.8.1 1.5.1 2.3.1.6 0 1.2-.1 1.7-.1.5-.1 1.3-.1 1.8-.3s.7-.7 1-1.2c.1-.1.2-.6.3-.7.1-.5.1-1 0-1.4-.2-.1-.3-.8-.6-.8l-1.1-.8-1.3-.3c-.6-.1-1.2-.1-1.8 0-.9 0-1.7-.1-2.6-.1-.1 0-.2 0-.2.1v.1.5c.1.6.2 1.3.2 2.1v2.8zm13.9 5.4l.1.1V34z" style="&#10;    fill: white;&#10;"/><path d="M140.5 33.6s-.1 0 0 0c-.1.1-.1.2 0 .2h.4c-.1-.2-.2-.2-.4-.2zm-1.3-1l.4.2-.4-.2c.1-.1 0-.1 0 0zm.3-.5l-.3-.1h0c.1.1.2.2.3.1 0 .1-.1.1 0 0h0z"/></svg>
