<svg xmlns="http://www.w3.org/2000/svg" viewBox="0 0 237 237.18" ><path d="M24.08 4.46c-.03.3 1.48.51-.84.78-3.67.5-7.28 1.47-10.41 3.49-3.13 1.98-5.64 4.8-7.21 8.12l.16.78c-1.48 3.05-2 5.65-2.45 8.15-.42 2.49-.64 4.87-.8 7.22-.05 4.32.12 8.41.22 12.4.12 3.96.13 7.84.11 11.83.18-.2.34-.3.39.5.04 3.31-.3 7.91-.49 12.77l.03 2.15c.09.56.26.7.36.8l-.19 6.01c.14 4.05.39 8.14.82 12.28.23 2.01.42 4.48 1.41 7.31.48 1.4 1.26 2.88 2.23 4.16.96 1.29 2.12 2.39 3.34 3.26 2.45 1.76 5.08 2.7 7.61 3.25 1.27.28 2.53.44 3.79.52 1.28.09 2.49.08 3.63.04 1.15-.04 2.26-.12 3.34-.2l.4-.03.15-.02.3-.04.63-.09c.86-.11 1.81-.19 2.83-.11.04.01.13-.02.14.03l.02.13c.01.09.03.18.04.27.02.18.02.37.02.57 0 .39-.05.79-.12 1.22-.07.42-.16.86-.25 1.33l-.55 2.47c-.24 1.12-.4 2.37-.49 3.62-.05 1.25-.04 2.5.12 3.74.29 2.48.95 4.91 2 7.17 1.42 2.85 3.36 5.38 5.7 7.41 1.16 1.03 2.42 1.92 3.72 2.66a23.99 23.99 0 0 0 4.02 1.88c4.02 1.57 8.98 2.24 13.81 1.42 2.41-.42 4.75-1.16 6.88-2.26 2.12-1.09 4.05-2.55 5.46-4.24-.56-.05-.03-1.03.57-2.6.62-1.55 1.33-3.67 1.52-5.75.22-2.07.16-4.02-.14-5.22-.25-1.2-.65-1.64-1.09-.77.03-.6.02-1.25.04-1.91l-.07-2.04-.19-2.06c-.09-.68-.15-1.27-.3-2.15-.52-3.18-1.22-5.73-1.54-6.14-.69-.84-1.52-2.19-2.61-4.78.03-.07.05-.15.11-.21.09-.03.19-.07.28-.11l.65-.22a23.06 23.06 0 0 1 1.65-.45c1.26-.3 2.87-.62 4.91-.94l3.38-.45 1.8-.2.94-.1c.21-.03.42-.06.64-.08 1.74-.23 3.71-.42 5.93-.59 5.37-.29 13.63.44 15.58.25 1.48-.17-.22-.49-2-.8-1.76-.3-3.51-.58-2-.78-4.72-.15-9.37-.18-14.03-.13l-3.49.06-2.51.07-1.53.05-1.67.07-13.53.8 2.43 11.26.5 2.79.25 1.39c.04.25.07.42.11.76l.04.34c.11.81.18 1.6.24 2.37.11 1.54.16 3.05.04 4.42-.09 1.38-.29 2.66-.65 3.74-.34 1.1-.75 2.04-1.33 2.82l-.2.31-.25.27-.47.55c-.33.33-.7.65-1.12.95-1.68 1.21-4.15 2.07-6.57 2.26-2.46.21-5.03-.2-7.25-1.17-2.24-.98-4.01-2.43-5.39-4.41-1.37-1.96-2.21-4.37-2.34-6.66v-.86l.04-.84c.07-.54.14-1.1.31-1.78l.29-1.1.68-2.26c.54-1.78 1.06-3.59 1.34-5.33.14-1.17.31-2.65.21-4.29l-.15-6.06-4.29-.66c-1.49-.21-3.01-.5-4.76-.63-1.74-.12-3.64-.14-5.63-.07l-4.2.18c-1.01.04-2.01.05-2.92.02-.85-.03-1.71-.12-2.54-.29-1.65-.31-3.09-.97-3.78-1.61-.36-.33-.55-.57-.74-.98-.2-.44-.4-1.22-.53-2.32-.14-1.07-.22-2.58-.31-3.97l-.19-4.29c-.19-5.8-.05-11.89.13-18.05l.36-18.51c-.03-6.09-.26-11.74-.07-16.62.09-2.42.29-4.65.65-6.38.18-.83.4-1.58.59-1.96.06-.11.05-.17.16-.34l.28-.45c.19-.28.33-.63.54-.84.71-1.06 1.5-1.61 2.22-2.07.35-.24.75-.37 1.1-.54.4-.1.74-.25 1.12-.29.38-.11.81-.15 1.23-.22.65-.03 1.31-.06 2.08.01.18 0 .39.03.59.05l.65.07.86.1c.45.05.99.06 1.48.09l17.26-.4 15.44-.58 14.91-1.13-6.31-.96c5.08.11 10.15.29 12.1.05 10.83-.37 4.75-1.41.61-2.7-2.99-.59 1.1-1.24-3.59-1.89l8.49.32c.41-.48-10.47-.08-8.09-.79 3.27.27 6.94.09 10.33.25-1.15-.72-11.77-.63-11.23-1.24 1.84-.11 9.53 1.15 10.21.39.14-.16-3.27-.3-4.97-.37 10.48.11 16.29-.36 6.76-1.64 3.33.15 8.01.7 11.52.76 0 0-.02 0-.03-.01-1.75-.11-4.77-.42-6.39-.5l5.98.32c-.31-.13-.66-.25-1.03-.38-1.48-.17-2.98-.32-4.53-.4l3.97.21c-.98-.3-2.11-.61-3.35-.9-4.7-.72-9.21-1.64-11.78-1.74-9.39-.48-18.82-.78-28.24-.92L44.02 4.6l-7.05.05-6.86.09c.41.05-1.13-.16-2.25-.25-1.23-.09-2.5-.14-3.83-.06zM235.1 27.3c-.3-.03-.51 1.48-.78-.84-.5-3.67-1.47-7.28-3.49-10.41-1.98-3.13-4.8-5.64-8.12-7.21l-.78.16c-3.05-1.48-5.65-2-8.15-2.45-2.49-.42-4.87-.64-7.22-.8-4.32-.05-8.41.12-12.4.22-3.96.12-7.84.13-11.83.11.2.18.3.34-.5.39-3.31.04-7.91-.3-12.77-.49l-2.15.03c-.56.09-.7.26-.8.36l-6.01-.19c-4.05.14-8.14.39-12.28.82-2.01.23-4.48.42-7.31 1.41-1.4.48-2.88 1.26-4.16 2.23-1.29.96-2.39 2.12-3.26 3.34-1.76 2.45-2.7 5.08-3.25 7.61-.28 1.27-.44 2.53-.52 3.79-.09 1.28-.08 2.49-.04 3.63.04 1.15.12 2.26.2 3.34l.03.4.02.15.04.3.09.63c.11.86.19 1.81.11 2.83-.01.04.02.13-.03.14l-.13.02c-.09.01-.18.03-.27.04-.18.02-.37.02-.57.02-.39 0-.79-.05-1.22-.12-.42-.07-.86-.16-1.33-.25l-2.47-.55c-1.12-.24-2.37-.4-3.62-.49-1.25-.05-2.5-.04-3.74.12-2.48.29-4.91.95-7.17 2-2.85 1.42-5.38 3.36-7.41 5.7-1.03 1.16-1.92 2.42-2.66 3.72a23.99 23.99 0 0 0-1.88 4.02c-1.57 4.02-2.24 8.98-1.42 13.81.42 2.41 1.16 4.75 2.26 6.88 1.09 2.12 2.55 4.05 4.24 5.46.05-.56 1.03-.03 2.6.57 1.55.62 3.67 1.33 5.75 1.52 2.07.22 4.02.16 5.22-.14 1.2-.25 1.64-.65.77-1.09.6.03 1.25.02 1.91.04l2.04-.07 2.06-.19c.68-.09 1.27-.15 2.15-.3 3.18-.52 5.73-1.22 6.14-1.54.84-.69 2.19-1.52 4.78-2.61.07.03.15.05.21.11.03.09.07.19.11.28l.22.65a23.06 23.06 0 0 1 .45 1.65c.3 1.26.62 2.87.94 4.91l.45 3.38.2 1.8.1.94c.03.21.06.42.08.64.23 1.74.42 3.71.59 5.93.29 5.37-.44 13.63-.25 15.58.17 1.48.49-.22.8-2 .3-1.76.58-3.51.78-2 .15-4.72.18-9.37.13-14.03l-.06-3.49-.07-2.51-.05-1.53-.07-1.67-.8-13.53-11.26 2.43-2.79.5-1.39.25c-.25.04-.42.07-.76.11l-.34.04c-.81.11-1.6.18-2.37.24-1.54.11-3.05.16-4.42.04-1.38-.09-2.66-.29-3.74-.65-1.1-.34-2.04-.75-2.82-1.33l-.31-.2-.27-.25-.55-.47c-.33-.33-.65-.7-.95-1.12-1.21-1.68-2.07-4.15-2.26-6.57-.21-2.46.2-5.03 1.17-7.25.98-2.24 2.43-4.01 4.41-5.39 1.96-1.37 4.37-2.21 6.66-2.34h.86l.84.04c.54.07 1.1.14 1.78.31l1.1.29 2.26.68c1.78.54 3.59 1.06 5.33 1.34 1.17.14 2.65.31 4.29.21l6.06-.15.66-4.29c.21-1.49.5-3.01.63-4.76.12-1.74.14-3.64.07-5.63l-.18-4.2c-.04-1.01-.05-2.01-.02-2.92.03-.85.12-1.71.29-2.54.31-1.65.97-3.09 1.61-3.78.33-.36.57-.55.98-.74.44-.2 1.22-.4 2.32-.53 1.07-.14 2.58-.22 3.97-.31l4.29-.19c5.8-.19 11.89-.05 18.05.13l18.51.36c6.09-.03 11.74-.26 16.62-.07 2.42.09 4.65.29 6.38.65.83.18 1.58.4 1.96.59.11.06.17.05.34.16l.45.28c.28.19.63.33.84.54 1.06.71 1.61 1.5 2.07 2.22.24.35.37.75.54 1.1.1.4.25.74.29 1.12.11.38.15.81.22 1.23.03.65.06 1.31-.01 2.08 0 .18-.03.39-.05.59l-.07.65-.1.86c-.05.45-.06.99-.09 1.48l.4 17.26.58 15.44 1.13 14.91.96-6.31c-.11 5.08-.29 10.15-.05 12.1.37 10.83 1.41 4.75 2.7.61.59-2.99 1.24 1.1 1.89-3.59l-.32 8.49c.48.41.08-10.47.79-8.09-.27 3.27-.09 6.94-.25 10.33.72-1.15.63-11.76 1.24-11.23.11 1.84-1.15 9.53-.39 10.21.16.14.3-3.27.37-4.97-.11 10.48.36 16.29 1.64 6.76-.15 3.33-.7 8.01-.76 11.52 0 0 0-.02.01-.03l.5-6.39-.32 5.98c.13-.31.25-.66.38-1.03.17-1.48.32-2.98.4-4.53l-.21 3.97c.3-.98.61-2.11.9-3.35.72-4.7 1.64-9.21 1.74-11.78.48-9.39.78-18.82.92-28.24l.08-14.12-.05-7.05-.09-6.86c-.05.41.16-1.13.25-2.25.09-1.23.14-2.5.06-3.83zm-22.18 205.42c.03-.3-1.48-.51.84-.78 3.67-.5 7.28-1.47 10.41-3.49 3.13-1.98 5.64-4.8 7.21-8.12l-.16-.78c1.48-3.05 2-5.65 2.45-8.15.42-2.49.64-4.87.8-7.22.05-4.32-.12-8.41-.22-12.4-.12-3.96-.13-7.84-.11-11.83-.18.2-.34.3-.39-.5-.04-3.31.3-7.91.49-12.77l-.03-2.15c-.09-.56-.26-.7-.36-.8l.19-6.01c-.14-4.05-.39-8.14-.82-12.28-.23-2.01-.42-4.48-1.41-7.31-.48-1.4-1.26-2.88-2.23-4.16-.96-1.29-2.12-2.39-3.34-3.26-2.45-1.76-5.08-2.7-7.61-3.25-1.27-.28-2.53-.44-3.79-.52-1.28-.09-2.49-.08-3.63-.04-1.15.04-2.26.12-3.34.2l-.4.03-.15.02-.3.04-.63.09c-.86.11-1.81.19-2.83.11-.04-.01-.13.02-.14-.03l-.02-.13c-.01-.09-.03-.18-.04-.27-.02-.18-.02-.37-.02-.57 0-.39.05-.79.12-1.22.07-.42.16-.86.25-1.33l.55-2.47c.24-1.12.4-2.37.49-3.62.05-1.25.04-2.5-.12-3.74-.29-2.48-.95-4.91-2-7.17-1.42-2.85-3.36-5.38-5.7-7.41-1.16-1.03-2.42-1.92-3.72-2.66a23.99 23.99 0 0 0-4.02-1.88c-4.02-1.57-8.98-2.24-13.81-1.42-2.41.42-4.75 1.16-6.88 2.26-2.12 1.09-4.05 2.55-5.46 4.24.56.05.03 1.03-.57 2.6-.62 1.55-1.33 3.67-1.52 5.75-.22 2.07-.16 4.02.14 5.22.25 1.2.65 1.64 1.09.77-.03.6-.02 1.25-.04 1.91l.07 2.04.19 2.06c.09.68.15 1.27.3 2.15.52 3.18 1.22 5.73 1.54 6.14.69.84 1.52 2.19 2.61 4.78-.03.07-.05.15-.11.21-.09.03-.19.07-.28.11l-.65.22a23.06 23.06 0 0 1-1.65.45c-1.26.3-2.87.62-4.91.94l-3.38.45-1.8.2-.94.1c-.21.03-.42.06-.64.08-1.74.23-3.71.42-5.93.59-5.37.29-13.63-.44-15.58-.25-1.48.17.22.49 2 .8 1.76.3 3.51.58 2 .78 4.72.15 9.37.18 14.03.13l3.49-.06 2.51-.07 1.53-.05 1.67-.07c4.56-.2 9-.53 13.53-.8l-2.43-11.26-.5-2.79-.25-1.39c-.04-.25-.07-.42-.11-.76l-.04-.34c-.11-.81-.18-1.6-.24-2.37-.11-1.54-.16-3.05-.04-4.42.09-1.38.29-2.66.65-3.74.34-1.1.75-2.04 1.33-2.82l.2-.31.25-.27.47-.55c.33-.33.7-.65 1.12-.95 1.68-1.21 4.15-2.07 6.57-2.26 2.46-.21 5.03.2 7.25 1.17 2.24.98 4.01 2.43 5.39 4.41 1.37 1.96 2.21 4.37 2.34 6.66v.86l-.04.84c-.07.54-.14 1.1-.31 1.78l-.29 1.1-.68 2.26c-.54 1.78-1.06 3.59-1.34 5.33-.14 1.17-.31 2.65-.21 4.29l.15 6.06 4.29.66c1.49.21 3.01.5 4.76.63 1.74.12 3.64.14 5.63.07l4.2-.18c1.01-.04 2.01-.05 2.92-.02.85.03 1.71.12 2.54.29 1.65.31 3.09.97 3.78 1.61.36.33.55.57.74.98.2.44.4 1.22.53 2.32.14 1.07.22 2.58.31 3.97l.19 4.29c.19 5.8.05 11.89-.13 18.05l-.36 18.51c.03 6.09.26 11.74.07 16.62-.09 2.42-.29 4.65-.65 6.38-.18.83-.4 1.58-.59 1.96-.06.11-.05.17-.16.34l-.28.45c-.19.28-.33.63-.54.84-.71 1.06-1.5 1.61-2.22 2.07-.35.24-.75.37-1.1.54-.4.1-.74.25-1.12.29-.38.11-.81.15-1.23.22-.65.03-1.31.06-2.08-.01-.18 0-.39-.03-.59-.05l-.65-.07-.86-.1c-.45-.05-.99-.06-1.48-.09l-17.26.4-15.44.58-14.91 1.13 6.31.96c-5.08-.11-10.14-.29-12.1-.05-10.83.37-4.75 1.41-.61 2.7 2.99.59-1.1 1.24 3.59 1.89l-8.49-.32c-.41.48 10.47.08 8.09.79-3.27-.27-6.94-.09-10.33-.25 1.15.72 11.77.63 11.23 1.24-1.84.11-9.53-1.15-10.21-.39-.14.16 3.27.3 4.97.37-10.48-.11-16.29.36-6.76 1.64-3.33-.15-8.01-.7-11.52-.76 0 0 .02 0 .03.01 1.75.11 4.77.42 6.39.5l-5.98-.32c.31.13.66.25 1.03.38 1.48.17 2.98.32 4.53.4l-3.97-.21c.98.3 2.11.61 3.35.9 4.7.72 9.21 1.64 11.78 1.74 9.39.48 18.82.78 28.24.92l14.12.08 7.05-.05 6.86-.09c-.41-.05 1.13.16 2.25.25 1.23.09 2.5.14 3.83.06zM1.91 209.88c.3.03.51-1.48.78.84.5 3.67 1.47 7.28 3.49 10.41 1.98 3.13 4.8 5.64 8.12 7.21l.78-.16c3.05 1.48 5.65 2 8.15 2.45 2.49.42 4.87.64 7.22.8 4.32.05 8.41-.12 12.4-.22 3.96-.12 7.84-.13 11.83-.11-.2-.18-.3-.34.5-.39 3.31-.04 7.91.3 12.77.49l2.15-.03c.56-.09.7-.26.8-.36l6.01.19c4.05-.14 8.14-.39 12.28-.82 2.01-.23 4.48-.42 7.31-1.41 1.4-.48 2.88-1.26 4.16-2.23 1.29-.96 2.39-2.12 3.26-3.34 1.76-2.45 2.7-5.08 3.25-7.61.28-1.27.44-2.53.52-3.79.09-1.28.08-2.49.04-3.63-.04-1.15-.12-2.26-.2-3.34l-.03-.4-.02-.15-.04-.3-.09-.63c-.11-.86-.19-1.81-.11-2.83.01-.04-.02-.13.03-.14l.13-.02c.09-.01.18-.03.27-.04.18-.02.37-.02.57-.02.39 0 .79.05 1.22.12.42.07.86.16 1.33.25l2.47.55c1.12.24 2.37.4 3.62.49 1.25.05 2.5.04 3.74-.12 2.48-.29 4.91-.95 7.17-2 2.85-1.42 5.38-3.36 7.41-5.7 1.03-1.16 1.92-2.42 2.66-3.72a23.99 23.99 0 0 0 1.88-4.02c1.57-4.02 2.24-8.98 1.42-13.81-.42-2.41-1.16-4.75-2.26-6.88-1.09-2.12-2.55-4.05-4.24-5.46-.05.56-1.03.03-2.6-.57-1.55-.62-3.67-1.33-5.75-1.52-2.07-.22-4.02-.16-5.22.14-1.2.25-1.64.65-.77 1.09-.6-.03-1.25-.02-1.91-.04l-2.04.07-2.06.19c-.68.09-1.27.15-2.15.3-3.18.52-5.73 1.22-6.14 1.54-.84.69-2.19 1.52-4.78 2.61-.07-.03-.15-.05-.21-.11-.03-.09-.07-.19-.11-.28l-.22-.65a23.06 23.06 0 0 1-.45-1.65c-.3-1.26-.62-2.87-.94-4.91l-.45-3.38-.2-1.8-.1-.94c-.03-.21-.06-.42-.08-.64-.23-1.74-.42-3.71-.59-5.93-.29-5.37.44-13.63.25-15.58-.17-1.48-.49.22-.8 2-.3 1.76-.58 3.51-.78 2-.15 4.72-.18 9.37-.13 14.03l.06 3.49.07 2.51.05 1.53.07 1.67.8 13.53 11.26-2.43 2.79-.5 1.39-.25c.25-.04.42-.07.76-.11l.34-.04c.81-.11 1.6-.18 2.37-.24 1.54-.11 3.05-.16 4.42-.04 1.38.09 2.66.29 3.74.65 1.1.34 2.04.75 2.82 1.33l.31.2.27.25.55.47c.33.33.65.7.95 1.12 1.21 1.68 2.07 4.15 2.26 6.57.21 2.46-.2 5.03-1.17 7.25-.98 2.24-2.43 4.01-4.41 5.39-1.96 1.37-4.37 2.21-6.66 2.34h-.86l-.84-.04c-.54-.07-1.1-.14-1.78-.31l-1.1-.29-2.26-.68c-1.78-.54-3.59-1.06-5.33-1.34-1.17-.14-2.65-.31-4.29-.21l-6.06.15-.66 4.29c-.21 1.49-.5 3.01-.63 4.76-.12 1.74-.14 3.64-.07 5.63l.18 4.2c.04 1.01.05 2.01.02 2.92-.03.85-.12 1.71-.29 2.54-.31 1.65-.97 3.09-1.61 3.78-.33.36-.57.55-.98.74-.44.2-1.22.4-2.32.53-1.07.14-2.58.22-3.97.31l-4.29.19c-5.8.19-11.89.05-18.05-.13l-18.51-.36c-6.09.03-11.74.26-16.62.07-2.42-.09-4.65-.29-6.38-.65-.83-.18-1.58-.4-1.96-.59-.11-.06-.17-.05-.34-.16l-.45-.28c-.28-.19-.63-.33-.84-.54-1.06-.71-1.61-1.5-2.07-2.22-.24-.35-.37-.75-.54-1.1-.1-.4-.25-.74-.29-1.12-.11-.38-.15-.81-.22-1.23-.03-.65-.06-1.31.01-2.08 0-.18.03-.39.05-.59l.07-.65.1-.86c.05-.45.06-.99.09-1.48l-.4-17.26-.58-15.44-1.13-14.91-.96 6.31c.11-5.08.29-10.15.05-12.1-.37-10.83-1.41-4.75-2.7-.61-.59 2.99-1.24-1.1-1.89 3.59l.32-8.49c-.48-.41-.08 10.47-.79 8.09.27-3.27.09-6.94.25-10.33-.72 1.15-.63 11.76-1.24 11.23-.11-1.84 1.15-9.53.39-10.21-.16-.14-.3 3.27-.37 4.97.11-10.48-.36-16.29-1.64-6.76.15-3.33.7-8.01.76-11.52 0 0 0 .02-.01.03-.11 1.75-.42 4.77-.5 6.39l.32-5.98c-.13.31-.25.66-.38 1.03-.17 1.48-.32 2.98-.4 4.53l.21-3.97c-.3.98-.61 2.11-.9 3.35-.72 4.7-1.64 9.21-1.74 11.78-.48 9.39-.78 18.82-.92 28.24l-.08 14.12.05 7.05.09 6.86c.05-.41-.16 1.13-.25 2.25-.09 1.23-.14 2.5-.06 3.83z"/></svg>