<svg class="icon live" xmlns="http://www.w3.org/2000/svg" viewBox="0 0 150 80">
  <g>
    <rect fill="transparent" width="150" height="80"></rect>
    <g>
      <path fill="white" d="M97.3,41.11c-.07-.47-.16-1-.26-1.47l-.41-2c-.19-.91-.38-1.9-.68-2.88a16.31,16.31,0,0,0-1.14-2.93A12.67,12.67,0,0,0,94,30.43a11.25,11.25,0,0,0-2.28-2.49,7.3,7.3,0,0,0-.72-.52l-.19-.12a1.18,1.18,0,0,0-.18-.13l-.38-.23a12.24,12.24,0,0,0-5.38-1.47c-1,0-2,0-3.08.05-.51,0-1,.05-1.56.09l-1,.07c-2.42.2-4.89.49-7.28.85s-4.7.79-6.84,1.24l-1.3.3-.64.14-.68.17a17.54,17.54,0,0,0-2.43.86,12.8,12.8,0,0,0-3.81,2.53c-.12.13-.25.25-.36.39l-.35.38a8.68,8.68,0,0,0-.61.78,12.68,12.68,0,0,0-1,1.57,13.79,13.79,0,0,0-1.07,2.85,9.69,9.69,0,0,0-.2,1.2,16.9,16.9,0,0,0-.22,2.84,14.74,14.74,0,0,0,.05,1.48,4.74,4.74,0,0,0,.06.75,4.1,4.1,0,0,0,.08.68c.07.6.14,1.19.24,1.79l.15.89.18.89a28.83,28.83,0,0,0,2,6.28A44.29,44.29,0,0,0,58.12,59a22.46,22.46,0,0,1,.21-2.32c.46,1.65,1,3.29,1.53,3.78,1,1.57,1.56,1.76,1.93,1.36a11,11,0,0,0,.93-2.22c.09-.54.45-.58.79-.68a.79.79,0,0,0,.62-.68l.2.07c.24.72.41,1.21.68,2,.27,0-.1-.77-.37-1.45-.09-.19-.15-.38-.21-.54l.44.13a7,7,0,0,0,.34.79,15.75,15.75,0,0,1,.68,1.45c.25-.3,0-1.16-.25-2v-.07l.23,0v.11c.1.68.28,1.31.72,1.24.15,0-.09-.74-.26-1.24h0a6.25,6.25,0,0,0,1.81,2.47c.26.15.47.11.59-.16a3.46,3.46,0,0,0,.11-1.47A18.35,18.35,0,0,0,70,62.93h0c-.19-.47-.41-1.36-.58-1.79.22.54.46,1.07.68,1.61a3.36,3.36,0,0,0,.2-.43A7.17,7.17,0,0,0,69.94,61c.14.36.29.68.45,1.06a10.52,10.52,0,0,0,.34-1.22V59.63q3.28.45,6.6.64l1.8.09h2.29a16.86,16.86,0,0,0,6.37-1l.57-.24.56-.26a9.8,9.8,0,0,0,1.1-.6,13.72,13.72,0,0,0,2-1.47,15.63,15.63,0,0,0,3.15-3.86A17.42,17.42,0,0,0,97,48.21a18.18,18.18,0,0,0,.42-2.54c0-.43.08-.84.09-1.32v-1A16.64,16.64,0,0,0,97.3,41.11Z"></path>
      <path fill='black' d="M65.34,3c.1,0,.2,0,.25,0s-.25.35-.15.55h.16c-.07.15-.16.3-.24.47a5.37,5.37,0,0,0,.09.89h.14a1.51,1.51,0,0,1,0,.47v.08h.12a1,1,0,0,1,0,.22c.28.87.61,1.78.9,2.78a2.17,2.17,0,0,1,.31.63,3.09,3.09,0,0,1-.15.95c.58,0,.78.74,1.36.68,0,.19-.08.48.08.51a1.54,1.54,0,0,1,1.24.87c0,.21-.19.5-.11.58s.38-.21.51-.08A27.92,27.92,0,0,0,70.18,8,11.65,11.65,0,0,1,70,5.67,25.87,25.87,0,0,1,70.11,3V3a3,3,0,0,0-.24-1.52c-.14-.19-.31-.38-.47-.57l-.28.25c0-.2,0-.39-.09-.46-.25-.41-.53-.16-.91,0-.17.11-.43,0-.6.16V.5c-.17,0,.09.39-.18.31.06-.12,0-.26,0-.39-.22,0-.07.44-.29.43,0-.07.29-.37,0-.38C67,.47,67,.59,67,.66c-.09-.39-.36-.59-.64-.23,0-.12.12-.3.08-.43h0c0,.07-.06.18-.06.24V0l-.11,0a.39.39,0,0,0-.06.17V.07a2,2,0,0,0-.25.14c-.17.18-.41.35-.42.45a21.57,21.57,0,0,0-.21,2.26"></path>
      <path fill='black' d="M95.1,18.07C95,18,94.94,18,95,17.87s.47-.08.59-.3l-.09-.13c.18-.07.38-.11.58-.17.26-.23.5-.47.75-.72,0-.05-.08-.09-.06-.13a1.74,1.74,0,0,1,.46-.3l.06-.08a.61.61,0,0,0-.05-.12,1.67,1.67,0,0,1,.23-.12c.64-.85,1.31-1.74,2.09-2.65a3.76,3.76,0,0,1,.44-.68,5.36,5.36,0,0,1,1-.5c-.33-.48.29-1.12-.13-1.55.21-.1.54-.24.48-.39a1.51,1.51,0,0,1,.18-1.59c.2-.17.63-.15.68-.28s-.44-.17-.38-.36A14.69,14.69,0,0,0,99.3,9c-.81.47-1.58,1-2.38,1.49a22.93,22.93,0,0,1-2.24,1.83c-1,.8-2.09,1.66-2.56,2l-.07.07a4.23,4.23,0,0,0-1.24,1.39,7.58,7.58,0,0,0-.21.82,2.67,2.67,0,0,1,.4,0c-.18.16-.36.31-.36.44-.19.53.21.53.62.68.22,0,.27.35.54.33l-.29.25c.1.13.27-.39.38-.12-.15.05-.19.24-.31.34.19.12.44-.31.57-.14s-.51.08-.34.3c0,0,.14-.05.2-.11-.28.39-.28.74.23.68-.11.1-.34.16-.42.29h0a2.07,2.07,0,0,0,.25-.15l-.2.17.11.05a.66.66,0,0,0,.19-.09l-.13.11.27.08a3,3,0,0,0,.68,0c.73-.52,1.45-1,2.13-1.6"></path>
      <path fill='black' d="M106.59,39.39v-.24c.16-.1.3.23.47.14v-.16c.13.06.26.15.4.23a6.16,6.16,0,0,0,.75-.11v-.14a2.49,2.49,0,0,1,.4,0h.07V39l.18,0c.73-.31,1.48-.68,2.28-1.06a2,2,0,0,1,.51-.36,2.64,2.64,0,0,1,.79.06c0-.57.54-.85.42-1.43.16,0,.4,0,.41-.13a1.73,1.73,0,0,1,.58-1.36c.16-.07.41.14.48,0s-.22-.34-.13-.49a24.44,24.44,0,0,0-3.63,0,14,14,0,0,1-4,.25h-.06a2,2,0,0,0-1.21.23c-.16.14-.32.3-.47.45.08.1.14.2.2.28-.16,0-.32,0-.38.08-.34.25-.14.54,0,.92.09.17,0,.43.12.61h-.27c0,.16.33-.08.25.18-.1-.06-.22,0-.32,0,0,.22.37.08.35.3-.06,0-.3-.29-.32,0,0,0,.1.06.16.07-.33.08-.51.34-.21.63-.1,0-.25-.12-.36-.09h0c.06,0,.15.07.2.07h-.18v.12a.35.35,0,0,0,.14.06h-.12a1.3,1.3,0,0,0,.1.25c.14.18.28.43.36.43a10.5,10.5,0,0,0,1.92.24"></path>
      <path fill='black' d="M64.47,40.28v-.13c.16,0,.29.13.46.08v-.08l.41.12a4.74,4.74,0,0,0,.75-.06c.37-.06,0-.06,0-.07a1.28,1.28,0,0,1,.39,0h.07a.09.09,0,0,0,0-.07h.19c.73-.16,1.47-.36,2.28-.56a3,3,0,0,1,.5-.19,5.21,5.21,0,0,1,.79,0c0-.3.55-.44.43-.74.16,0,.39,0,.41-.07a.8.8,0,0,1,.58-.68c.16,0,.41.07.47,0s-.21-.18-.12-.26c-1.22-.1-2.4,0-3.63,0a26.35,26.35,0,0,1-4,.13h-.07a3.51,3.51,0,0,0-1.21.12c-.16.07-.31.16-.46.24l.2.15a.94.94,0,0,0-.38,0c-.34.13-.14.28,0,.48s0,.23.12.31h-.27c0,.09.33,0,.25.1h-.32c0,.12.37,0,.35.16s-.3-.16-.32,0a.44.44,0,0,1,.16,0c-.33,0-.5.18-.21.33a2,2,0,0,0-.36,0h0l.2,0H62v.06h0a.64.64,0,0,0,.1.13c.14.09.29.22.37.22.64.07,1.28.12,1.91.13"></path>
      <path fill='black' d="M81,39.07s0-.1,0-.13.31.1.47,0v-.09l.41.09c.25,0,.49-.09.74-.15s0,0,0-.07a1.27,1.27,0,0,1,.39,0h.06a.09.09,0,0,0,0-.07h.19l2.21-.8A2.73,2.73,0,0,1,86,37.6a5.16,5.16,0,0,1,.79-.05c-.07-.29.49-.5.34-.79.15,0,.39,0,.4-.11a.82.82,0,0,1,.49-.76,1.5,1.5,0,0,1,.48,0c.06,0-.23-.16-.15-.24-1.22,0-2.38.27-3.6.41a26,26,0,0,1-3.93.57h-.07a3.47,3.47,0,0,0-1.19.25c-.14.08-.29.19-.43.28l.21.12c-.16,0-.31,0-.37.09-.32.16-.11.29,0,.47s0,.23.15.3h-.26c0,.09.32-.08.26.07s-.21,0-.32,0c0,.11.36,0,.36.11s-.31-.12-.31,0H79c-.32.08-.48.23-.17.36a1.09,1.09,0,0,0-.36,0h0l0,.05h0l.12.12a1.48,1.48,0,0,0,.39.19A13.5,13.5,0,0,0,81,39"></path>
      <path fill='black' d="M94.35,68.61c.07-.07.09-.18.18-.16.25.09.17.48.42.58l.12-.11c.09.18.18.38.26.58.28.25.57.48.86.73,0,0,.07-.09.12-.08a2.08,2.08,0,0,1,.37.46l.08.06a.34.34,0,0,0,.12-.06c.05.08.1.16.14.24a24.08,24.08,0,0,1,2.89,2.25,3.72,3.72,0,0,1,.68.52,5.19,5.19,0,0,1,.52,1.15c.49-.31,1.14.44,1.58,0,.11.24.24.62.39.58a1.49,1.49,0,0,1,1.61.46c.17.26.12.75.25.82s.2-.47.4-.37a14.88,14.88,0,0,0-1.2-3.09c-.52-1-1.09-1.91-1.7-2.85a8.48,8.48,0,0,1-.85-1c-.39-.46-.87-1-1.36-1.6s-1-1.14-1.53-1.62a7.69,7.69,0,0,0-.68-.63c-.21-.19-.34-.35-.46-.47L97.47,65a6.54,6.54,0,0,0-.89-.68,4.24,4.24,0,0,0-1-.48l-.94-.1a3,3,0,0,1,.12.43c-.22-.17-.44-.34-.58-.31-.63-.11-.5.31-.54.74,0,.23-.27.33-.18.61-.13-.11-.21-.15-.35-.25-.1.12.49.22.25.37-.1-.15-.31-.15-.45-.26-.07.22.45.39.31.56-.1,0-.23-.5-.41-.3,0,0,.1.14.17.19-.48-.21-.85-.13-.62.36-.13-.09-.26-.32-.42-.37h0c.07,0,.15.17.22.22L92,65.59v.12a.5.5,0,0,0,.15.17L92,65.77a1.5,1.5,0,0,0,0,.3c.09.27.12.59.23.68l2.11,1.9"></path>
      <path fill='black' d="M64.45,70.54c.08.07.18.09.19.16s-.38.12-.4.31l.12.11-.42.2a6.24,6.24,0,0,0-.35.68.11.11,0,0,1,.1.09,2.56,2.56,0,0,1-.26.32v.07l.09.1a.86.86,0,0,1-.14.13c-.17.81-.31,1.65-.48,2.55a2.22,2.22,0,0,1,0,.63,2.66,2.66,0,0,1-.51.64c.48.3.38,1,.91,1.18-.1.13-.26.32-.13.42a1.67,1.67,0,0,1,.72,1.31c0,.17-.36.27-.31.38s.41,0,.48.18a27.33,27.33,0,0,0,2.13-3.09,14.46,14.46,0,0,1,2.13-3.51v-.06a2.17,2.17,0,0,0,.53-1.16,4.86,4.86,0,0,0-.1-.68H68.4c.1-.13.21-.25.16-.36,0-.43-.35-.43-.75-.54-.2,0-.33-.27-.56-.25l.17-.21c-.13-.11-.13.32-.3.11.11,0,.09-.21.16-.29-.2-.1-.29.27-.45.13,0-.08.42-.08.21-.25,0,0-.11,0-.14.09.12-.32,0-.62-.4-.53.07-.09.25-.15.28-.26h0s-.14.09-.17.13l.12-.15-.11,0a.29.29,0,0,0-.14.08l.09-.1-.28,0c-.23,0-.52,0-.57.06a11.35,11.35,0,0,0-1.36,1.49"></path>
      <path fill='black' d="M46.36,53c0,.1,0,.2,0,.25-.23.08-.4-.26-.63-.18v.16c-.17-.07-.35-.17-.53-.26a5,5,0,0,0-1,.07v.14a1.66,1.66,0,0,1-.54-.06h-.08a.29.29,0,0,0-.05.13l-.24,0c-1,.27-2,.6-3.13.92a3.32,3.32,0,0,1-.68.34,5.37,5.37,0,0,1-1.06-.11c0,.57-.77.81-.64,1.4-.21,0-.53-.06-.56.11a1.54,1.54,0,0,1-.84,1.29c-.23.07-.56-.16-.64-.06s.27.35.14.5a47.22,47.22,0,0,0,4.9.19,24,24,0,0,1,5.37,0h.09a3.56,3.56,0,0,0,1.65-.16c.21-.12.43-.28.67-.42l-.25-.3c.21,0,.43,0,.51,0,.47-.23.23-.52.06-.92-.11-.18.07-.43-.12-.61l.35,0c0-.16-.44.06-.33-.19.13.06.29,0,.43,0,0-.23-.49-.11-.45-.32.08-.05.38.31.42,0,0-.06-.13-.07-.2-.08.44-.06.68-.3.31-.62.13,0,.33.14.47.11h0a2,2,0,0,1-.26-.08h.25l0-.11a.52.52,0,0,0-.19-.08h.16l-.13-.26c-.19-.18-.37-.44-.48-.45A22.37,22.37,0,0,0,46.44,53"></path>
      <path fill='black'  d="M48.16,22.34c-.08.06-.13.16-.22.12s-.11-.55-.37-.71l-.14.08c-.08-.22-.15-.46-.24-.68a11.16,11.16,0,0,0-.91-.91c0,.05-.07.09-.11.07a2.59,2.59,0,0,1-.42-.52l-.1-.06a.18.18,0,0,0-.12.05,2.35,2.35,0,0,1-.19-.25,29.61,29.61,0,0,0-3.46-1.88A3.83,3.83,0,0,1,41,17.4a7.78,7.78,0,0,1-1-.85c-.31.48-1.21.17-1.4.74-.19-.16-.49-.38-.6-.26a1.57,1.57,0,0,1-1.47.6c-.24-.07-.45-.45-.57-.41s.08.46-.12.51c.68.56,1.42,1.06,2.14,1.56A22.29,22.29,0,0,1,40.1,21a4.19,4.19,0,0,1,.86.58c.38.32.84.73,1.28,1.18a16.15,16.15,0,0,1,2,2.39l.06.08a6.54,6.54,0,0,0,.56.74,2.75,2.75,0,0,0,.68.59,5.84,5.84,0,0,0,.76.34,2.57,2.57,0,0,1,.07-.4c.12.21.24.42.38.44.47.32.57-.08.79-.45.07-.22.4-.18.42-.47.09.14.13.22.21.37.15-.06-.34-.4-.06-.44,0,.17.21.28.3.43.15-.16-.24-.55,0-.64s0,.57.25.46c0,0,0-.18-.07-.25.34.4.68.53.71,0,.08.15.1.42.23.55h0c0-.08-.06-.24-.11-.32l.15.27.07-.1a.62.62,0,0,0-.07-.23l.1.19c0-.09.09-.19.13-.28,0-.3.12-.64.06-.76a17.25,17.25,0,0,0-1.62-2.83"></path>
      <path fill='black' d="M84.44,22c0,.08.39.33-.35.14-1.15-.32-2.18-.68-3.24-1a16.39,16.39,0,0,0-3.4-.61l-.19.14a49.28,49.28,0,0,0-5.7-.36h-.69a2.91,2.91,0,0,0-.78.07c-.51.06-1,.15-1.48.24a21.72,21.72,0,0,0-2.76.78,22.56,22.56,0,0,0-5.1,2.5c.11,0,.18,0-.13.24s-.67.5-1.08.8l-.59.51a8.21,8.21,0,0,0-.6.58,21.73,21.73,0,0,0-2,2.56c-.18.28-.34.55-.51.83a.57.57,0,0,0-.07.36c-.52.83-1,1.59-1.36,2.3s-.55,1.22-.8,1.87c-.12.32-.24.68-.34,1A10.56,10.56,0,0,0,53,36l-.23,1c-.07.32-.13.68-.19,1-.13.68-.2,1.36-.29,2a22,22,0,0,0,0,4.14,18.61,18.61,0,0,0,.89,4.11c.12.33.22.68.37,1l.41,1c.32.62.62,1.25,1,1.84a29.28,29.28,0,0,0,2.34,3.4c.41.54.86,1,1.3,1.57.22.26.45.51.68.77l.34.39.36.37c.25.25.48.51.75.75l.77.73.82.68c.28.22.58.43.87.68A17.41,17.41,0,0,0,66.4,63a23.53,23.53,0,0,0,3.39,1c1.66.4,3.51.74,5.37,1a38.15,38.15,0,0,0,5.44.37c-.25-.29,1.61-.5,3.29-.87s3.16-.88,2.35-1a17.5,17.5,0,0,0,3.28-.82l.68-.27.5-.28a2.88,2.88,0,0,0,.34-.23.64.64,0,0,0,.13-.15,5.24,5.24,0,0,1,1-1.67,41.79,41.79,0,0,0,3-4.46,22.94,22.94,0,0,0,1.54-2.95c.11-.24.18-.47.26-.68s.07-.2.1-.3l.07-.28A2.36,2.36,0,0,0,97.2,51V50.7c0-.31-.06-.28-.12-.1v.15l0,.14c0,.11-.07.22-.12.34a4.63,4.63,0,0,1-.29.64c-.09.14-.14.14-.1-.1a12.85,12.85,0,0,1-1,2.35,18.81,18.81,0,0,1-1.45,2.29,21.27,21.27,0,0,1-1.74,2,13.57,13.57,0,0,1-1.92,1.63l-.47.3-.46.22-.55.22c-.18.07-.4.13-.6.19a19.47,19.47,0,0,1-2.62.59A36.85,36.85,0,0,1,80,62a27,27,0,0,1-2.85-.1l-.68-.07a5.05,5.05,0,0,1-.68-.07l-1.43-.22c-1-.15-1.92-.33-2.85-.54a22,22,0,0,1-2.64-.74,12.5,12.5,0,0,1-2.34-1.1L66.29,59,66,58.83c-.17-.13-.36-.24-.53-.37-.34-.27-.68-.53-1-.84a24.4,24.4,0,0,1-1.95-2c-.31-.37-.62-.73-.93-1.12s-.62-.78-.9-1.17A24.41,24.41,0,0,1,58.8,50.7c-.19-.31-.36-.65-.57-1s-.36-.72-.55-1.11L57.44,48l-.13-.31c0-.11-.07-.22-.11-.32L57,46.67,56.8,46a14.31,14.31,0,0,1-.37-3.06,20,20,0,0,1,.3-3.45c.05-.3.12-.6.18-.91l.1-.46.12-.47.12-.46a4.07,4.07,0,0,1,.13-.45,7.37,7.37,0,0,1,.28-.83,24.21,24.21,0,0,1,1.73-3.5,20.3,20.3,0,0,1,2.23-3.14,2.16,2.16,0,0,1,.29-.31l.29-.28.32-.27.35-.27a15.62,15.62,0,0,1,1.56-1,20,20,0,0,1,3.4-1.45A13.81,13.81,0,0,1,71.14,25h3.45a29.83,29.83,0,0,1,3,.21c.83.1,1.66.25,2.47.43s1.36.36,1.93.53l.8.25.92.31.91.33c.61.24,1.19.49,1.75.76a9.3,9.3,0,0,1,2.81,2,15.87,15.87,0,0,1,3.06,6A26.49,26.49,0,0,1,93,38.75c.08.48.18,1,.25,1.45,0,.25.07.49.09.73l.07.75c0-.47.09-.91.11-1.36l0-.62v-.59c.06.51.08,1,.1,1.51s0,1,0,1.35v2l-.06,1.36a5.09,5.09,0,0,0,0,.79c0,.36.06.43.16.3a5.28,5.28,0,0,0,.38-.84c.16-.39.28-.86.44-1.28.14-.61.23-.49.34-.46s.23,0,.37-1c0,.36,0,.68-.06,1s-.05.56-.08.82l-.11.83-.17,1a7.39,7.39,0,0,0,.34-2c0-.5.08-1,.12-1.26s.07-.39.12-.14a34.06,34.06,0,0,1-.56,4.38,9.48,9.48,0,0,0,.59-2.62l.07-.43,0-.41a4,4,0,0,1,.08-.68c0-.4.07-.64.13-.58a6.58,6.58,0,0,1-.08,1l-.09.68-.12.71c-.07.47-.17.93-.22,1.29a1.56,1.56,0,0,0,0,.68,2.76,2.76,0,0,0,.19-.75l.13-.68.08-.68c-.23,2.25-.64,4-.73,4.66,0,.34,0,.43.14.18s.21-.42.3-.64.26-.68.42-1.21c-.08.36-.2.74-.31,1.15s-.28.83-.42,1.26-.33.84-.48,1.25-.33.79-.47,1.16h0c.15-.36.38-.84.58-1.32s.38-1,.49-1.31c-.28.85-.6,1.67-1,2.48.09-.11.18-.24.28-.38.14-.3.29-.61.4-.92s.26-.63.36-1c-.08.29-.2.56-.29.84s-.2.55-.32.83a15.16,15.16,0,0,0,.76-1.36A22.8,22.8,0,0,0,97,45.43a31.59,31.59,0,0,0,.31-3.5,29.93,29.93,0,0,0-.14-3.54,25.81,25.81,0,0,0-.58-3.5,24.33,24.33,0,0,0-1-3.44,17.46,17.46,0,0,0-1.72-3.36,12.51,12.51,0,0,0-1.23-1.57,12,12,0,0,0-1.49-1.36,16.34,16.34,0,0,0-3.29-2c-.56-.25-1.11-.48-1.65-.68s-1.08-.39-1.62-.57"></path>
      <path fill='black' d="M67.33,50.15s-.1-.13.11-.11.58.11.87.19a3.61,3.61,0,0,0,.81.14l0-.08,1.36.27c.88.07,1.77.11,2.66.1,0,0,0-.06,0-.07h1.65a.16.16,0,0,0,.08-.06h.68c.68-.08,1.3-.18,1.95-.31a12.52,12.52,0,0,0,2-.56,19,19,0,0,0,3.71-1.88l1.42-1.07c.68-.5,1.57-1.09,2.24-1.57-.14-.08.17-.45.43-.81s.49-.68.24-.68c.41-.34,1-.89.93-1a.91.91,0,0,1,0-.61c.07-.28.23-.68.4-1.21.05-.11.09-.22.14-.34s.09-.24.13-.36a1.57,1.57,0,0,0,.08-.31.67.67,0,0,0,0-.2c0-.08,0-.07-.06,0a.69.69,0,0,1-.1.17c0,.07-.13.25-.15.13-.29,1.46-1.68,2.72-3.25,3.91l-1.22.9c-.41.31-.79.57-1.2.83a19.86,19.86,0,0,1-2.58,1.36,12.74,12.74,0,0,1-2,.81l-.39.1-.41.1-.42.07-.47.07c-.64.08-1.33.15-2,.17a32.71,32.71,0,0,1-4.08-.11c-.62-.06-1.19-.13-1.68-.19l-.68-.09-.48-.09-.2,0A12.84,12.84,0,0,1,66,47.16c-.61-.24-1.19-.52-1.67-.76S63.46,46,63,45.72l.43.5a10.84,10.84,0,0,0-1-.72c-.47-.31-.6-.35-.6-.24a2.44,2.44,0,0,0,.26.57c.19.27-.23.1.09.49-.28-.23-.42-.35-.68-.6-.09,0,.89.68.6.64-.25-.25-.58-.46-.85-.68,0,.18.93.86.82.91-.17-.1-.68-.78-.83-.73a3.19,3.19,0,0,0,.38.38,10.45,10.45,0,0,0-1-.68c-.16-.07-.14,0,.19.47-.27-.26-.59-.68-.88-.92h0c.14.13.34.4.47.52-.16-.15-.3-.31-.46-.47l0,.13a3.9,3.9,0,0,0,.33.38l-.3-.32a2,2,0,0,0,.17.36A7.62,7.62,0,0,0,61,46.77a15.75,15.75,0,0,0,2.85,2.1,11.64,11.64,0,0,0,1.63.79c.28.12.57.21.87.32a6.84,6.84,0,0,0,.89.23"></path>
      <path fill='black' d="M65.34,3c.1,0,.2,0,.25,0s-.25.35-.15.55h.16c-.07.15-.16.3-.24.47a5.37,5.37,0,0,0,.09.89h.14a1.51,1.51,0,0,1,0,.47v.08h.12a1,1,0,0,1,0,.22c.28.87.61,1.78.9,2.78a2.17,2.17,0,0,1,.31.63,3.09,3.09,0,0,1-.15.95c.58,0,.78.74,1.36.68,0,.19-.08.48.08.51a1.54,1.54,0,0,1,1.24.87c0,.21-.19.5-.11.58s.38-.21.51-.08A27.92,27.92,0,0,0,70.18,8,11.65,11.65,0,0,1,70,5.67,25.87,25.87,0,0,1,70.11,3V3a3,3,0,0,0-.24-1.52c-.14-.19-.31-.38-.47-.57l-.28.25c0-.2,0-.39-.09-.46-.25-.41-.53-.16-.91,0-.17.11-.43,0-.6.16V.5c-.17,0,.09.39-.18.31.06-.12,0-.26,0-.39-.22,0-.07.44-.29.43,0-.07.29-.37,0-.38C67,.47,67,.59,67,.66c-.09-.39-.36-.59-.64-.23,0-.12.12-.3.08-.43h0c0,.07-.06.18-.06.24V0l-.11,0a.39.39,0,0,0-.06.17V.07a2,2,0,0,0-.25.14c-.17.18-.41.35-.42.45a21.57,21.57,0,0,0-.21,2.26"></path>
      <path fill='black' d="M95.1,18.07C95,18,94.94,18,95,17.87s.47-.08.59-.3l-.09-.13c.18-.07.38-.11.58-.17.26-.23.5-.47.75-.72,0-.05-.08-.09-.06-.13a1.74,1.74,0,0,1,.46-.3l.06-.08a.61.61,0,0,0-.05-.12,1.67,1.67,0,0,1,.23-.12c.64-.85,1.31-1.74,2.09-2.65a3.76,3.76,0,0,1,.44-.68,5.36,5.36,0,0,1,1-.5c-.33-.48.29-1.12-.13-1.55.21-.1.54-.24.48-.39a1.51,1.51,0,0,1,.18-1.59c.2-.17.63-.15.68-.28s-.44-.17-.38-.36A14.69,14.69,0,0,0,99.3,9c-.81.47-1.58,1-2.38,1.49a22.93,22.93,0,0,1-2.24,1.83c-1,.8-2.09,1.66-2.56,2l-.07.07a4.23,4.23,0,0,0-1.24,1.39,7.58,7.58,0,0,0-.21.82,2.67,2.67,0,0,1,.4,0c-.18.16-.36.31-.36.44-.19.53.21.53.62.68.22,0,.27.35.54.33l-.29.25c.1.13.27-.39.38-.12-.15.05-.19.24-.31.34.19.12.44-.31.57-.14s-.51.08-.34.3c0,0,.14-.05.2-.11-.28.39-.28.74.23.68-.11.1-.34.16-.42.29h0a2.07,2.07,0,0,0,.25-.15l-.2.17.11.05a.66.66,0,0,0,.19-.09l-.13.11.27.08a3,3,0,0,0,.68,0c.73-.52,1.45-1,2.13-1.6"></path>
      <path fill='black' d="M106.59,39.39v-.24c.16-.1.3.23.47.14v-.16c.13.06.26.15.4.23a6.16,6.16,0,0,0,.75-.11v-.14a2.49,2.49,0,0,1,.4,0h.07V39l.18,0c.73-.31,1.48-.68,2.28-1.06a2,2,0,0,1,.51-.36,2.64,2.64,0,0,1,.79.06c0-.57.54-.85.42-1.43.16,0,.4,0,.41-.13a1.73,1.73,0,0,1,.58-1.36c.16-.07.41.14.48,0s-.22-.34-.13-.49a24.44,24.44,0,0,0-3.63,0,14,14,0,0,1-4,.25h-.06a2,2,0,0,0-1.21.23c-.16.14-.32.3-.47.45.08.1.14.2.2.28-.16,0-.32,0-.38.08-.34.25-.14.54,0,.92.09.17,0,.43.12.61h-.27c0,.16.33-.08.25.18-.1-.06-.22,0-.32,0,0,.22.37.08.35.3-.06,0-.3-.29-.32,0,0,0,.1.06.16.07-.33.08-.51.34-.21.63-.1,0-.25-.12-.36-.09h0c.06,0,.15.07.2.07h-.18v.12a.35.35,0,0,0,.14.06h-.12a1.3,1.3,0,0,0,.1.25c.14.18.28.43.36.43a10.5,10.5,0,0,0,1.92.24"></path>
      <path fill='black' d="M94.35,68.61c.07-.07.09-.18.18-.16.25.09.17.48.42.58l.12-.11c.09.18.18.38.26.58.28.25.57.48.86.73,0,0,.07-.09.12-.08a2.08,2.08,0,0,1,.37.46l.08.06a.34.34,0,0,0,.12-.06c.05.08.1.16.14.24a24.08,24.08,0,0,1,2.89,2.25,3.72,3.72,0,0,1,.68.52,5.19,5.19,0,0,1,.52,1.15c.49-.31,1.14.44,1.58,0,.11.24.24.62.39.58a1.49,1.49,0,0,1,1.61.46c.17.26.12.75.25.82s.2-.47.4-.37a14.88,14.88,0,0,0-1.2-3.09c-.52-1-1.09-1.91-1.7-2.85a8.48,8.48,0,0,1-.85-1c-.39-.46-.87-1-1.36-1.6s-1-1.14-1.53-1.62a7.69,7.69,0,0,0-.68-.63c-.21-.19-.34-.35-.46-.47L97.47,65a6.54,6.54,0,0,0-.89-.68,4.24,4.24,0,0,0-1-.48l-.94-.1a3,3,0,0,1,.12.43c-.22-.17-.44-.34-.58-.31-.63-.11-.5.31-.54.74,0,.23-.27.33-.18.61-.13-.11-.21-.15-.35-.25-.1.12.49.22.25.37-.1-.15-.31-.15-.45-.26-.07.22.45.39.31.56-.1,0-.23-.5-.41-.3,0,0,.1.14.17.19-.48-.21-.85-.13-.62.36-.13-.09-.26-.32-.42-.37h0c.07,0,.15.17.22.22L92,65.59v.12a.5.5,0,0,0,.15.17L92,65.77a1.5,1.5,0,0,0,0,.3c.09.27.12.59.23.68l2.11,1.9"></path>
      <path fill='black' d="M64.45,70.54c.08.07.18.09.19.16s-.38.12-.4.31l.12.11-.42.2a6.24,6.24,0,0,0-.35.68.11.11,0,0,1,.1.09,2.56,2.56,0,0,1-.26.32v.07l.09.1a.86.86,0,0,1-.14.13c-.17.81-.31,1.65-.48,2.55a2.22,2.22,0,0,1,0,.63,2.66,2.66,0,0,1-.51.64c.48.3.38,1,.91,1.18-.1.13-.26.32-.13.42a1.67,1.67,0,0,1,.72,1.31c0,.17-.36.27-.31.38s.41,0,.48.18a27.33,27.33,0,0,0,2.13-3.09,14.46,14.46,0,0,1,2.13-3.51v-.06a2.17,2.17,0,0,0,.53-1.16,4.86,4.86,0,0,0-.1-.68H68.4c.1-.13.21-.25.16-.36,0-.43-.35-.43-.75-.54-.2,0-.33-.27-.56-.25l.17-.21c-.13-.11-.13.32-.3.11.11,0,.09-.21.16-.29-.2-.1-.29.27-.45.13,0-.08.42-.08.21-.25,0,0-.11,0-.14.09.12-.32,0-.62-.4-.53.07-.09.25-.15.28-.26h0s-.14.09-.17.13l.12-.15-.11,0a.29.29,0,0,0-.14.08l.09-.1-.28,0c-.23,0-.52,0-.57.06a11.35,11.35,0,0,0-1.36,1.49"></path>
      <path fill='black' d="M46.36,53c0,.1,0,.2,0,.25-.23.08-.4-.26-.63-.18v.16c-.17-.07-.35-.17-.53-.26a5,5,0,0,0-1,.07v.14a1.66,1.66,0,0,1-.54-.06h-.08a.29.29,0,0,0-.05.13l-.24,0c-1,.27-2,.6-3.13.92a3.32,3.32,0,0,1-.68.34,5.37,5.37,0,0,1-1.06-.11c0,.57-.77.81-.64,1.4-.21,0-.53-.06-.56.11a1.54,1.54,0,0,1-.84,1.29c-.23.07-.56-.16-.64-.06s.27.35.14.5a47.22,47.22,0,0,0,4.9.19,24,24,0,0,1,5.37,0h.09a3.56,3.56,0,0,0,1.65-.16c.21-.12.43-.28.67-.42l-.25-.3c.21,0,.43,0,.51,0,.47-.23.23-.52.06-.92-.11-.18.07-.43-.12-.61l.35,0c0-.16-.44.06-.33-.19.13.06.29,0,.43,0,0-.23-.49-.11-.45-.32.08-.05.38.31.42,0,0-.06-.13-.07-.2-.08.44-.06.68-.3.31-.62.13,0,.33.14.47.11h0a2,2,0,0,1-.26-.08h.25l0-.11a.52.52,0,0,0-.19-.08h.16l-.13-.26c-.19-.18-.37-.44-.48-.45A22.37,22.37,0,0,0,46.44,53"></path>
      <path fill='black' d="M48.16,22.34c-.08.06-.13.16-.22.12s-.11-.55-.37-.71l-.14.08c-.08-.22-.15-.46-.24-.68a11.16,11.16,0,0,0-.91-.91c0,.05-.07.09-.11.07a2.59,2.59,0,0,1-.42-.52l-.1-.06a.18.18,0,0,0-.12.05,2.35,2.35,0,0,1-.19-.25,29.61,29.61,0,0,0-3.46-1.88A3.83,3.83,0,0,1,41,17.4a7.78,7.78,0,0,1-1-.85c-.31.48-1.21.17-1.4.74-.19-.16-.49-.38-.6-.26a1.57,1.57,0,0,1-1.47.6c-.24-.07-.45-.45-.57-.41s.08.46-.12.51c.68.56,1.42,1.06,2.14,1.56A22.29,22.29,0,0,1,40.1,21a4.19,4.19,0,0,1,.86.58c.38.32.84.73,1.28,1.18a16.15,16.15,0,0,1,2,2.39l.06.08a6.54,6.54,0,0,0,.56.74,2.75,2.75,0,0,0,.68.59,5.84,5.84,0,0,0,.76.34,2.57,2.57,0,0,1,.07-.4c.12.21.24.42.38.44.47.32.57-.08.79-.45.07-.22.4-.18.42-.47.09.14.13.22.21.37.15-.06-.34-.4-.06-.44,0,.17.21.28.3.43.15-.16-.24-.55,0-.64s0,.57.25.46c0,0,0-.18-.07-.25.34.4.68.53.71,0,.08.15.1.42.23.55h0c0-.08-.06-.24-.11-.32l.15.27.07-.1a.62.62,0,0,0-.07-.23l.1.19c0-.09.09-.19.13-.28,0-.3.12-.64.06-.76a17.25,17.25,0,0,0-1.62-2.83"></path>
    </g>
  </g>
</svg>