<svg xmlns="http://www.w3.org/2000/svg" viewBox="0 0 237 237.18" ><path d="M105.1 43.47c.02.29 1.55.18-.7.9l-5.09 1.55-2.42.8-1.2.39-1.16.48-4.64 2.07-4.56 2.81-.17.69-3.58 2.46-3.44 2.78-1.7 1.47-1.61 1.59-3.13 3.34c-7.07 8.84-11.47 19.7-12.66 30.82.19-.27.35-.39.32.72l-.27 3.76c-.07.67-.05 1.37-.07 2.08 0 .71-.04 1.45-.01 2.2.04 3 .33 6.25.89 9.52.23.96.42 1.92.68 2.84.28.71.48.86.61.95.7 2.9 1.55 5.41 2.42 7.71 1.63 3.71 3.64 7.25 5.99 10.54 1.17 1.65 2.43 3.24 3.77 4.75.67.75 1.34 1.52 2.06 2.23l1.94 1.96c4.4 4.41 7.48 10.35 8.54 16.82.15.81.23 1.62.32 2.44.06.83.12 1.6.14 2.59l.19 5.68.19 5.72.05 1.44.02.38.03.48.08.96c.18 1.28.46 2.54.94 3.74 1.81 4.84 6.16 8.58 11.19 9.62.62.16 1.26.21 1.89.29.62.05 1.31.05 1.87.05l2.96-.1 5.97-.2 20.05-1.03 3.74-.04c1.4-.01 3.01-.19 4.49-.66a14.22 14.22 0 0 0 7.49-5.66c.9-1.34 1.55-2.84 1.92-4.4.39-1.53.42-3.26.42-4.47l.07-7.52c-.4.36-.76-.8-1.08-2.68-.31-1.9-.69-4.43-.68-6.92-.06-4.99 1.26-9.66-.34-7.68 1.02-3.13 2.89-6.82 4.78-9.59 1.86-2.79 3.6-4.72 3.6-5.07.03-.53.14-1.19.47-2.06a37.05 37.05 0 0 1 1.58-3.45c1.41-2.94 3.9-7.24 6.12-14.34.92-2.75 1.96-6.29 2.48-9.47.58-3.17.63-5.95.53-6.98-.11-.91-.22-.83-.34-.26-.12.56-.27 1.45-.41 2.39-.35 1.85-.76 3.65-.84 2.06-1.03 10.47-5.64 20.34-12.79 27.82l-1.72 1.87c-.57.69-1.17 1.34-1.69 2.06-1.1 1.4-2.1 2.88-3.03 4.4-1.85 3.06-3.31 6.35-4.38 9.78-1.04 3.44-1.67 7.01-1.83 10.61l-.03 1.35v.67l-.01.56v2.23l.02 4.47.02 4.47v2.24c.02.48-.01.46-.01.65.01.15-.02.29-.04.43-.16 1.11-.77 2.17-1.69 2.88-.46.36-.97.62-1.52.78-.27.09-.56.13-.85.16h-.22c-.1.02-.08.03-.32.03h-1.12l-8.99.04-18.06.06H103h-.28l-.11-.01h-.23c-.16 0-.3-.05-.45-.06-.3-.05-.59-.12-.86-.23a4.69 4.69 0 0 1-2.6-2.41 4 4 0 0 1-.55-1.58c0-.09-.02-.18-.03-.28 0-.07-.02-.05-.02-.19v-.35l-.04-1.49-.06-3.31-.11-7.88c0-.37-.01-.74-.02-1.11l-.04-1.32c-.02-.89-.12-1.79-.19-2.7-.22-1.83-.49-3.71-.97-5.62-.91-3.81-2.4-7.74-4.56-11.51-1.09-1.88-2.33-3.72-3.74-5.49-.72-.87-1.45-1.74-2.25-2.57l-1.91-2.03c-4.69-5.12-8.42-11.65-10.47-18.79-1-3.57-1.59-7.29-1.74-11.01a36.79 36.79 0 0 1 .14-5.56l.23-2.75.5-2.7c.23-1.81.88-3.52 1.33-5.25.2-.88.6-1.68.91-2.51l.96-2.46 1.19-2.32c.41-.76.72-1.56 1.22-2.26l1.35-2.13.66-1.06c.25-.33.51-.65.76-.97A48.63 48.63 0 0 1 93.95 62.6c1.12-.64 2.15-1.35 3.21-1.88l3.04-1.45c.47-.25.96-.42 1.43-.58l1.36-.49c.88-.3 1.67-.66 2.44-.84l2.22-.61c3.34-.91 6.98-1.28 10.67-1.47 3.72-.11 7.49.26 11.12.99a50.6 50.6 0 0 1 10.28 3.26c3.17 1.4 6.02 3.04 8.49 4.7 4.6 2.95 8.83 6.78 12.34 11.25-1.25-2.33-2.54-4.46-3.8-6.21 3.96 4.36 6.75 9.55 7.97 11.45l1.77 3.4 1.04 2.02c.51.91.75.99.82.53.14-.91-.39-3.99-1.03-6.5-.56-1.75-.19-1.59.13-1.68.15-.04.27-.14.22-.57-.07-.42-.26-1.2-.92-2.53.54.91.96 1.74 1.35 2.51.41.76.73 1.49 1.05 2.22.34.72.65 1.46.95 2.27.32.8.66 1.67.98 2.69.3.16-.78-2.95-2.11-5.62-1.28-2.68-2.66-4.97-1.59-3.87 1.91 3.65 3.95 7.83 5.1 11.98.13-.81-.93-4.41-2.32-7.6-.67-1.61-1.44-3.09-1.94-4.18-.55-1.06-.84-1.73-.62-1.67.67.97 1.99 3.75 3 6.43s1.77 5.23 2.26 5.52c.11.05-.19-.95-.6-2.23-.19-.65-.48-1.33-.73-2-.26-.67-.5-1.3-.74-1.8 2.81 6.12 4.04 11.27 4.65 13.21.33.97.54 1.15.58.29.03-.86-.04-2.76-.65-5.88 1.2 4.26 1.68 10.48 1.75 15.09 0 0 0-.02.01-.04.03-2.31-.09-6.31-.43-8.43.36 2.61.56 5.25.57 7.88a26.14 26.14 0 0 0 .28-1.39c.04-.99-.01-1.98-.05-2.99-.03-1.01-.15-2.02-.28-3.05.24 1.75.37 3.51.46 5.27.1-.67.15-1.38.22-2.15s.11-1.58.1-2.43c-.21-6.38-1.56-12.56-2.91-15.82a60.93 60.93 0 0 0-11.25-18.03c-4.79-5.29-10.54-9.73-16.89-13.05-6.35-3.34-13.33-5.48-20.45-6.36-1.78-.24-3.57-.35-5.36-.43l-2.69-.04-2.69.15c-1.79.11-3.59.18-5.36.52l-2.66.43c-.44.08-.89.14-1.33.23l-1.3.34zM89.87 23.28c-.22.18-.36.45-.57.4-.57-.25-.15-1.21-.72-1.46l-.37.27-.38-1.46-1.91-1.71c-.11.13-.22.23-.32.21-.32-.19-.52-.66-.81-1.07l-.21-.12c-.11.02-.24.11-.32.17a2.55 2.55 0 0 1-.32-.54l-7.31-3.87c-.7-.16-1.39-.32-1.9-.62-.67-.51-1.13-1.5-1.62-2.14-1.14 1.15-3.02.19-3.99 1.55-.32-.43-.81-1.07-1.18-.8-1.12.8-2.58 1.52-4.13.99-.51-.29-.63-1.32-.97-1.28-.53.05-.26 1.18-.79 1.23 2.33 3.45 5.37 6.07 8.08 9.22 1.47.6 7.95 7.62 9.31 9.68.05.05.11.1.16.16.81 1.07 1.96 2.22 3.17 2.67.63.14 1.32.24 2 .35.04-.36.09-.7.16-1.02.32.43.65.86 1 .82 1.27.41 1.46-.61 2-1.66.16-.55.99-.71 1.04-1.41.22.28.32.43.54.71.37-.27-.89-.68-.17-.98.09.37.55.48.77.77.39-.5-.63-1.09-.13-1.44.23.05.03 1.3.65.86.12-.09-.09-.37-.2-.52.89.68 1.84.66 1.81-.64.21.28.29.86.61 1.07-.1-.17-.19-.51-.29-.64l.38.5c.06-.09.11-.19.17-.29-.03-.18-.08-.35-.17-.48.08.11.17.22.25.33.12-.24.22-.49.31-.73.05-.69.28-1.52.12-1.74-1.14-1.87-2.36-3.67-3.73-5.34zm71.48 8.02c-.21-.19-.5-.29-.48-.51.16-.6 1.18-.32 1.34-.92l-.32-.33 1.39-.59a25.59 25.59 0 0 0 1.42-2.14c-.14-.09-.26-.19-.25-.29.14-.35.58-.61.94-.96l.09-.22c-.04-.11-.15-.22-.22-.3.16-.16.33-.29.49-.4l2.77-7.8c.06-.71.12-1.42.33-1.97.41-.74 1.32-1.34 1.88-1.91-1.3-.96-.62-2.96-2.11-3.73.38-.38.94-.95.62-1.28-.95-.99-1.88-2.33-1.57-3.95.22-.55 1.21-.82 1.13-1.14-.13-.52-1.2-.09-1.33-.61-3.07 2.8-5.23 6.2-7.96 9.33-.38 1.54-6.39 8.96-8.23 10.61-.04.06-.09.12-.13.18-.94.95-1.91 2.26-2.19 3.52-.05.64-.05 1.34-.05 2.03a17.77 17.77 0 0 1 1.04.01c-.38.38-.75.76-.67 1.11-.22 1.31.81 1.35 1.93 1.74.57.08.85.88 1.54.83l-.63.64c.32.33.54-.98.95-.31-.36.15-.4.62-.65.87.55.31.98-.78 1.41-.34-.02.24-1.28.21-.75.76.11.11.36-.14.48-.27-.54.98-.39 1.91.9 1.7-.24.25-.81.41-.97.76.15-.12.48-.26.59-.38l-.44.45a1.98 1.98 0 0 0 .31.12c.17-.06.33-.13.45-.24a8.07 8.07 0 0 0-.29.3 7.27 7.27 0 0 0 .77.2c.69-.05 1.55.06 1.74-.13 1.68-1.4 3.29-2.87 4.74-4.47zm-34.9-7.64c-.28 0-.57.09-.7-.05-.27-.44.68-.79.41-1.24l-.46-.03.66-1.06a15.44 15.44 0 0 0-.33-2c-.17.02-.32.03-.38-.04-.12-.28.04-.66.09-1.05l-.08-.17c-.1-.04-.26-.06-.36-.06a2.12 2.12 0 0 1 .11-.48l-3-6.04c-.42-.45-.84-.9-1.03-1.34-.17-.64.12-1.47.18-2.1-1.61.1-2.4-1.44-4.03-1.13.03-.42.09-1.05-.37-1.08-1.37-.1-2.95-.42-3.77-1.53-.19-.44.38-1.1.11-1.26-.44-.24-.96.56-1.4.32-.49 3.24.1 6.35.09 9.61.72 1.11 1.03 8.59.71 10.51a.88.88 0 0 0 .02.17c-.09 1.05.03 2.32.65 3.21.38.41.84.82 1.29 1.23a10.68 10.68 0 0 1 .79-.52c-.03.42-.07.84.22 1 .69.89 1.5.39 2.6.04.48-.25 1.22.09 1.71-.3l-.06.7c.46.03-.23-.86.52-.67-.17.27.1.57.08.85.62-.1.23-.97.84-.92.14.15-.83.78-.07.84.15.01.18-.27.19-.41.23.86.96 1.33 1.79.55-.02.27-.35.66-.24.95.04-.14.19-.39.2-.52-.01.16-.03.33-.04.49.11-.03.21-.05.32-.09.09-.12.17-.24.18-.37 0 .11-.02.22-.03.33.25-.08.49-.17.71-.28.49-.39 1.21-.76 1.23-.97.36-1.69.62-3.39.67-5.08zm-24.06 191.33c.05-.28-.08-.58.21-.67.9-.13 1.44.91 2.34.78l.13-.44 1.96.98 3.93.28c0-.17 0-.32.14-.36.55-.04 1.27.24 2.03.4.12 0 .24-.02.35-.03.1-.08.15-.24.18-.33.35.07.65.16.93.25 3.91-.3 7.91-.76 12.22-1.14.94-.28 1.89-.56 2.76-.62 1.28.02 2.84.56 4.05.81.06-1.62 3.16-1.94 2.82-3.65.81.16 2.03.4 2.16-.04.4-1.32 1.27-2.79 3.56-3.27.88-.06 2.09.71 2.43.48.54-.36-.95-1.12-.41-1.48-6.22-1.46-12.37-1.82-18.71-2.81-2.27.37-16.87-1.57-20.56-2.46l-.34-.03c-2.03-.4-4.52-.67-6.34-.33-.85.25-1.73.58-2.59.9.33.32.64.64.9.94-.81-.16-1.62-.32-1.98-.08-1.84.41-.98 1.36-.48 2.55.41.55-.36 1.18.32 1.78l-1.35-.27c-.13.44 1.71.03 1.22.71-.5-.25-1.12-.07-1.66-.18.09.64 1.85.52 1.67 1.11-.31.09-1.4-1.06-1.62-.32-.04.15.5.25.77.31-1.71-.03-2.74.55-1.34 1.6-.53-.1-1.23-.54-1.8-.52.28.08.73.31.99.36l-.95-.19a2.3 2.3 0 0 0 .12.34c.22.13.45.24.7.29l-.63-.13c.12.27.27.53.43.79.68.6 1.29 1.42 1.69 1.51 3.23.87 6.5 1.63 9.78 2.19zm0 18.96c.05-.28-.08-.58.21-.67.9-.13 1.44.91 2.34.78l.13-.44 1.96.98 3.93.28c0-.17 0-.32.14-.36.55-.04 1.27.24 2.03.4.12 0 .24-.02.35-.03.1-.08.15-.24.18-.33.35.07.65.16.93.25 3.91-.3 7.91-.76 12.22-1.14.94-.28 1.89-.56 2.76-.62 1.28.02 2.84.56 4.05.81.06-1.62 3.16-1.94 2.82-3.65.81.16 2.03.4 2.16-.04.4-1.32 1.27-2.79 3.56-3.27.88-.06 2.09.71 2.43.48.54-.36-.95-1.12-.41-1.48-6.22-1.46-12.37-1.82-18.71-2.81-2.27.37-16.87-1.57-20.56-2.46l-.34-.03c-2.03-.4-4.52-.67-6.34-.33-.85.25-1.73.58-2.59.9.33.32.64.64.9.94-.81-.16-1.62-.32-1.98-.08-1.84.41-.98 1.36-.48 2.55.41.55-.36 1.18.32 1.78l-1.35-.27c-.13.44 1.71.03 1.22.71-.5-.25-1.12-.07-1.66-.18.09.64 1.85.52 1.67 1.11-.31.09-1.4-1.06-1.62-.32-.04.15.5.25.77.31-1.71-.03-2.74.55-1.34 1.6-.53-.1-1.23-.54-1.8-.52.28.08.73.31.99.36l-.95-.19a2.3 2.3 0 0 0 .12.34c.22.13.45.24.7.29l-.63-.13c.12.27.27.53.43.79.68.6 1.29 1.42 1.69 1.5 3.23.87 6.5 1.63 9.78 2.19zM97.07 94.2c-.28-.02-.57.09-.69-.11-.13-.31.07-.57.28-.8s.38-.47.32-.76l-.44-.12c.28-.4.61-.78.96-1.12.15-.78.37-1.51.61-2.26-.16-.07-.29-.13-.3-.23.07-.35.44-.66.77-.99l.06-.22c-.05-.11-.16-.22-.23-.29.16-.16.33-.27.48-.38.93-2.36 2.92-4.88 6.28-6.62.67-.53 1.39-1.11 2.16-1.35 1.14-.31 2.65 0 3.77.11-.05-.82.65-1.38 1.35-1.91.7-.55 1.4-1.06 1.19-1.91.85.17 2.11.41 2.26 0 .23-.65.58-1.33 1.22-1.88.64-.56 1.56-.96 2.89-1.02 1.02.07 2.26 1.12 2.68.95.66-.24-.9-1.31-.24-1.56-3.49-1.41-7.22-2.2-11.11-2.28-1.93-.07-3.92.09-5.91.35-2 .33-4.02.77-6.05 1.49-.63.41-2.25 1.17-4.25 2.44-2 1.28-4.31 3.2-6.21 5.59-1.92 2.38-3.3 5.22-4.1 7.7-.82 2.49-1.07 4.61-1.26 5.82v.44c-.29 2.66.17 5.84 1.21 7.76.29.43.59.86.91 1.27.33.4.68.8 1.02 1.18.14-.49.29-.94.45-1.33.22.89.42 1.8.83 2.04 1.28 1.61 1.67.26 2.5-.72.3-.61 1.2-.22 1.44-1.07l.37 1.28c.45-.09-.76-1.47.08-1.35 0 .53.45.98.59 1.47.53-.38-.37-1.77.26-1.88.2.21-.33 1.62.42 1.46.15-.03 0-.52-.06-.76.35.7.79 1.18 1.18 1.27.38.09.68-.19.82-.95.15.44.1 1.17.39 1.59-.07-.24-.08-.7-.16-.91l.28.79.24-.26c0-.23 0-.45-.07-.65l.18.52a5.43 5.43 0 0 0 .48-.7c.2-.78.69-1.56.61-1.87-.26-1.29-.42-2.56-.48-3.78a21.02 21.02 0 0 1 .03-3.47z"/></svg>