<svg xmlns="http://www.w3.org/2000/svg" viewBox="0 0 237 237.18" ><path d="M207.94 4.66l-.09.05-.74.44L194 12.94l-7.4 4.39-.96.57-.55.37-1.05.72-2.14 1.47-4.48 3.07-4.64 3.33-4.7 3.67-2.42 1.88-2.42 1.96-4.76 4.22-2.42 2.15-2.39 2.22-4.67 4.69-4.61 4.84-4.44 5.06-2.19 2.56-2.06 2.66-4.1 5.31-3.76 5.47-1.84 2.72-1.76 2.74-3.27 5.5-1.6 2.7-1.42 2.74-2.77 5.35a177.4 177.4 0 0 0-2.84 6c-1.63-5.44-3.71-10.74-6.26-15.77-.07.23-.16.37-.52-.21-.7-1.21-1.41-2.72-2.26-4.33-.91-1.58-1.82-3.33-2.88-5.04l-1.05-1.43c-.33-.33-.53-.34-.65-.34l-1.4-2.16-1.36-1.9c-6.24-7.6-13.69-14.13-21.94-19.63-8.25-5.52-17.36-9.96-27.15-13.43l-3.28-.95c-1.41-.39-2.75-.81-4.1-1.13-2.7-.73-5.14-1.18-7.53-1.7l-1.55-.35-.82-.18c-.13-.02-.3-.08-.41-.08l-.14.22 1.66 11 .47 2.8c.2 1.01.35 1.6.51 2.33.3 1.4.64 2.74.95 4 .64-.65 2.07 2.53 3.56 5.38 1.47 2.86 2.97 5.4 3.26 3.79l1.02 3.03 1.13 3.02c.77 1.85 1.43 3.25 1.7 3.3.8.16 1.83.79 3.29 2.47 1.48 1.67 3.35 4.4 6.15 8.55.52.83 1.07 1.79 1.65 2.75l.85 1.47.86 1.42c.55.93 1.08 1.77 1.56 2.43.46.67.84 1.17 1.09 1.41.85.79.23-.44-.28-1.57-.54-1.15-1.05-2.3-.27-1.55-5.33-8.01-9.45-16.78-12.69-25.95-1.62-4.59-3.03-9.28-4.28-14.05l-.46-1.79-.42-1.67s-.02 0-.03-.01c-.02 0-.04-.04-.06-.08 0-.03.01-.03.04-.04.02 0 0-.02.12.02l.07.02h.03l.33.14 1.62.63a108.51 108.51 0 0 1 12.7 5.96c2.23 1.07 7.64 3.86 13.96 8.61 3.18 2.34 6.51 5.25 9.83 8.53 3.33 3.27 6.45 7.09 9.31 11.14 2.9 4.03 5.29 8.47 7.32 12.89l1.44 3.32 1.21 3.34c.86 2.18 1.37 4.41 2 6.51.34 1.04.49 2.12.74 3.14l.32 1.46c-2.34-1.95-4.61-4.06-6.76-6.44-.81-.59-3.49-3.33-5.97-6.56-2.51-3.19-4.85-6.78-5.71-8.3l-.18-.26c-.98-1.64-2.25-3.58-3.43-4.77-.59-.52-1.23-1.02-1.86-1.53.03.39.04.76.04 1.09-.37-.68-.74-1.36-1.05-1.52-1.2-1.22-1.2-.15-1.51.77-.04.56-.77.25-.68 1.04l-.61-1.16c-.29.1.92 1.33.33 1.25-.16-.49-.58-.9-.83-1.36-.26.36.76 1.66.38 1.78-.23-.2-.26-1.55-.74-1.39-.1.03.15.5.27.73-.92-1.33-1.78-1.88-1.52-.33-.24-.46-.41-1.19-.74-1.63h0c.12.25.26.71.38.93l-.43-.82c-.04.08-.07.16-.1.24.06.23.13.46.24.67l-.29-.55c-.07.21-.11.44-.15.68.08.79.02 1.64.2 1.99 1.4 2.91 2.91 5.79 4.63 8.54.16-.09.22-.34.44-.16.59.62.46 1.52 1.07 2.13l.28-.11c.26.61.48 1.28.77 1.93.77 1.03 1.53 2.06 2.38 3.03.07-.09.14-.16.25-.08.38.38.72 1.04 1.14 1.67l.24.24c.1.03.2-.01.26-.04.2.28.37.54.51.78 2.73 2.63 5.67 5.13 8.99 7.61.78.44 1.61.84 2.27 1.34.93.8 1.98 1.97 2.83 2.81.55-.88 3.09.55 3.32-.63.29.25.65.58.97.8.33.21.61.34.72.24.13-.11.28-.22.44-.31v.05l.31 2.1c.03.28.03.48.03.67 0 .18.06.39-.18.3l-.19.02c-.16 0-.32-.04-.48-.05-.1-.01-.11 0-.29-.04l-1.55-.25c-1.17-.14-2.34-.45-3.51-.7-1.18-.22-2.32-.6-3.47-.92-4.59-1.35-8.88-3.23-12.38-4.92l-2.45-1.14-2.42-1.27c-.83-.41-1.62-.88-2.41-1.35-.79-.48-1.61-.92-2.38-1.44l3.26 3.48c-3.05-2.26-5.91-4.75-7.16-5.55-3.21-2.51-4.01-3-3.96-2.3.04.33.3.95.68 1.65l1.27 2.23c.69.97.34 1.05.11 1.24-.22.19-.36.52.9 1.89-1.03-.86-1.74-1.56-2.47-2.26-.71-.71-1.48-1.36-2.38-2.36-.13.02.17.4.67.93.52.51 1.25 1.17 1.94 1.8 1.35 1.3 2.68 2.33 1.71 2.02-1.84-1.82-4.13-3.63-5.95-5.62.11.53 1.65 2.31 3.23 3.81 1.52 1.57 3.06 2.86 2.69 2.96-1.3-.78-5.05-5.76-5.89-5.65-.18.03 1.68 2.02 2.7 2.93-3.14-2.79-5.44-5.11-6.49-5.87-1.04-.76-.89.09 1.44 3.26-.94-.98-1.91-2.31-2.95-3.59-1-1.32-1.97-2.69-2.89-3.78.67.88 1.61 2.29 2.41 3.35-.79-.98-1.54-1.99-2.32-2.97.07.26.17.56.28.86.69 1.01 1.36 2.05 2.18 3.02-.71-.82-1.34-1.71-2.01-2.57.31.79.7 1.68 1.18 2.62 2.14 3.29 4.25 6.53 5.81 8.01 6.1 6.13 13.2 11.4 21.14 15.33 3.96 1.98 8.17 3.51 12.49 4.71l3.28.79c1.1.24 2.22.39 3.33.58l1.07.17c.41.08.95.13 1.42.15h.19l-.09.35c-2.04 8.07-3.95 17.1-4.88 25.94-.99 8.82-1.41 17.36-1.2 24.37.02 1.61.16 3.22.25 4.83l.35 4.85 1.07 9.67.14-4.33.26-3.88c.09 6.56.66 13.1 1.16 15.58 1.04 6.91 1.68 8.34 1.95 7.4s.38-4.28.63-6.97c.14-3.84 1.3 1.21 1.26-4.75l.45 5.33.58 5.33c.23.22-.19-3.05-.53-6.02-.28-2.98-.5-5.64 0-4.19.17 4.12.9 8.68 1.49 12.9.1-.39.04-1.5-.1-2.94l-.44-4.92c-.27-3.42-.47-6.57-.15-6.26.18 1.14.19 4.14.38 6.94.09 1.4.2 2.76.34 3.81.16 1.05.34 1.79.55 1.97.09.07-.02-.95-.15-2.25l-.4-3.95c.77 6.51 1.87 11.47 2.48 13.33.66 1.85.75.63.27-5.28l.98 6.97c.38 2.45.85 5.02 1.39 6.95v-.03c-.47-1.95-1.08-5.7-1.39-7.65.41 2.42.9 4.85 1.43 7.17.02-.39.02-.82.02-1.29l-.92-5.48a121.79 121.79 0 0 0 .92 4.77l-.14-4.18c-.57-5.78-.61-11.37-.9-14.48-1.19-12.59-1.38-25.33-.46-37.94.59-8.26 1.61-16.48 3.12-24.59.47-.18.94-.37.72 0 2.01-1.61 3.95-3.26 5.84-4.94.04 0 .08.02.12.03.07.01.15.03.24.04.13.01.28.02.43.04l.82.06 1.8.05c2.44.02 4.84-.11 2.83.38 6.84-.84 13.38-2.56 19.67-4.95 6.27-2.43 12.25-5.57 17.77-9.36 5.53-3.78 10.58-8.2 15.11-13.07 4.51-4.89 8.37-10.28 11.8-15.88 6.69-11.31 11.36-23.58 14.26-36.14 1.47-6.28 2.6-12.63 3.4-19.01l.54-4.8c.19-1.6.38-3.2.45-4.81l.32-4.82.2-2.95c.11-1.46.09-3.04.14-4.57l.05-8.34.06-5.62.04-3.14.02-1.65v-.42-.21c0-.03.01-.09 0-.09zm-11.27 32.42c-.13 1.98-.32 3.96-.48 5.96-.18 1.99-.29 4.01-.6 6-.39 3.39-.63 6.83-1.28 10.16l-.86 5c-.37 1.64-.78 3.25-1.17 4.85-.33 1.18-.61 2.42-1.02 3.64l-1.29 3.75c-.82 2.57-1.96 5.09-3.04 7.63-.28.63-.53 1.27-.83 1.89l-.93 1.83-1.83 3.6c-.62 1.17-1.32 2.27-1.95 3.36-.66 1.08-1.22 2.18-1.9 3.14.53-.09.18 1.06-.61 2.83-.41.87-.86 1.94-1.49 2.99l-1.95 3.28c-.63 1.13-1.37 2.15-1.99 3.1-.63.95-1.17 1.81-1.56 2.49-.81 1.35-1.02 1.99.13 1.42l-3.81 3.77-4.05 3.58-3.3 2.72c-.86.69-1.41 1.15-1.45 1.32-.27.96-1.16 2.6-4.06 5.06-2.89 2.45-7.75 5.93-16.32 9.28-3.38 1.22-7.83 2.29-11.79 2.89a83.2 83.2 0 0 1-5.37.64l-3.6.29h-.06c5.65-5.06 10.85-10.41 16.22-15.98 1.06-1.45 5.71-6.54 10.3-12.15 4.64-5.56 9.12-11.73 10.94-14.28l.31-.48c1.95-2.8 4.1-6.39 5.12-9.17.45-1.27.76-2.65 1.12-3.97a41.83 41.83 0 0 1-1.23 1.29c.32-.6.64-1.21.88-1.73.24-.53.39-.98.41-1.26.8-2.83-.37-1.53-1.47-.84-.61.58-.61-.58-1.4.39l.94-1.98c-.23-.21-.98 2.52-1.17 1.76.45-.72.68-1.65 1.05-2.43-.5.11-1.39 2.68-1.69 2.39.11-.46 1.5-1.99 1.12-2.34-.08-.07-.45.71-.64 1.1.5-1.24.74-2.25.69-2.69-.04-.44-.37-.31-1.06.69.32-.76.95-1.76 1.21-2.6h0c-.18.4-.55 1.06-.71 1.43l.58-1.37c-.09.05-.19.11-.29.17-.19.32-.38.64-.53 1l.38-.9c-.24.17-.49.37-.74.6-.36.48-.75.93-1.08 1.32-.35.39-.64.73-.78 1.02-2.29 4.48-5.02 8.83-7.93 13.08.15.11.46-.01.28.39-.62 1.21-1.72 1.76-2.38 2.95l.18.25c-.71.78-1.48 1.57-2.27 2.37l-3.6 4.98c.12.03.21.07.11.25-.48.71-1.3 1.56-2.11 2.48-.1.15-.21.3-.31.45-.04.15.02.24.05.3-.37.42-.71.77-1.02 1.1-3.46 4.96-7.14 9.95-11.36 15.19-.8 1.2-1.62 2.39-2.5 3.45-1.37 1.5-3.37 3.16-4.83 4.49.95.56-2.24 4.23-.82 4.35-.99.89-2.49 2.2-2.37 2.49.36.86.3 2.32-2.03 5.08-.62.65-1.61 1.33-2.32 1.87a186.37 186.37 0 0 1 2.66-11.97c-.26-.11-.88 1.11-.45-.93.3-1.3.64-2.53 1-3.73h.16l.69.02h.34l.09.01c.04 0 .06 0 .05-.04v-.16c-.06-1.21-.09-2.39-.12-3.57l.5-1.33 1.59-4.18 1.54-4.45c-.08-.19-.16-.4-.25-.59l3.12-7.1 3.57-7.14c1.03-2.25 2.22-4.41 3.32-6.62.57-1.09 1.09-2.21 1.69-3.29l1.86-3.19 1.85-3.19c.61-1.07 1.22-2.14 1.92-3.14l4.06-6.14c-.28.12-.47.13.04-.71.52-.88 1.25-1.74 1.97-2.7l2.35-2.99 2.58-3.24c.93-1.07 1.93-2.14 2.9-3.23l1.66-1.99c.37-.57.37-.8.37-.94.89-.98 1.7-1.95 2.55-2.79l2.48-2.38c9.82-10.6 21-20.21 33.49-28.74l1.22-.87 1.02-.71 2.24-1.53.6-.41.31-.21.15-.1s.12-.1.1-.02l.07 1.11.14 2.47c.15.87-.12 5.98-.22 9.72z" /></svg>