<svg xmlns="http://www.w3.org/2000/svg" viewBox="0 0 237 237.18" ><path d="M110.73 140.32c-.29-.06-.63 1.34-.69-.86-.02-6.92 1.16-12.44 1.14-19.36l-.45-.52 1.3-16.59.44-15.69.2-7.82v-.76l-.03-.91c-.06-.61-.12-1.22-.24-1.82-.25-1.2-.6-2.39-1.14-3.49-1.03-2.23-2.61-4.16-4.55-5.62.28.47.4.66-1.18-.36-1.66-1.05-3.72-1.87-6.01-2.17-.57-.1-1.15-.1-1.74-.13-.35 0-.71 0-1.07-.01-.67 0-1.36-.01-2.06-.02l-4.37-.06H90h-.47c-.35 0-.69.03-1.04.06-.69.06-1.38.18-2.06.34-1.36.33-2.69.86-3.92 1.57-.71.44-1.39.94-2.02 1.49-.6.53-1.26 1.21-1.65 1.72l-.09.13v.02l.02.04c.01.03.02.05.04.07.03.08.08.16.11.21l-2.86 2.39-2.8 2.29-3.83 3.47-1.95 1.77-.37.42-.45.52c-.11.1-.2 0-.28-.04l-.27-.16-.59-.37-.92-.72-1.24-.99-9.92-7.92-.09-.09-.39-.43a13.23 13.23 0 0 0-1.01-.96c-.71-.61-1.49-1.15-2.32-1.59-1.65-.9-3.51-1.42-5.39-1.53-.23-.02-.47-.02-.71-.02h-.35-.22l-.87.03-1.75.06-3.53.12-.89.03-.48.02-.7.05c-.93.07-1.86.26-2.76.54a12.33 12.33 0 0 0-4.82 2.84c-1.36 1.29-2.43 2.89-3.1 4.65-.32.88-.56 1.8-.68 2.73-.04.47-.11.93-.1 1.4 0 .45 0 1 .03 1.23l2.11 30.19 1.84 20.95.35 8.01.07 2.1.04 1.11c.02.45.08.9.16 1.34a10.26 10.26 0 0 0 2.35 4.84c.57.68 1.38 1.32 1.87 1.71l1.66 1.33 3.28 2.62 6.11 4.87c.01-.47 1.07-.33 2.24.93.28.31.56.7.8 1.14.25.45.42.93.61 1.56l1.17 3.74c1.56 5.02 3.05 9.64 3.44 7.13 1.16 6.47 2.91 16.18 3.46 16.6 1.66 1.24 4.18 5.92 8.2 22.93.36 1.67.71 3.58 1.05 5.53l.5 2.94c.03.29.09.49.2.72.21.43.58.77.92.91.17.09.33.12.47.13.07 0 .13.02.19 0 .03 0 .05-.01.08-.02h.03l.02-.01h0 0 0c0 2.65 0-5.94 0 5.95v-6.35h0l-.01-.02-.03-.03s-.09-.05-.13-.1c-.08-.08-.17-.14-.23-.24-.13-.17-.2-.36-.18-.51.02-.14.1-.21.24-.26-.1-.08-.14-.2-.17-.29l-.62-3.51-1.67-9.31-3.37-18.53-3.42-18.44-1.73-9.2-.22-1.15-.11-.57-.09-.43a8.85 8.85 0 0 0-.13-.55 15.66 15.66 0 0 0-1.71-4.2 15.39 15.39 0 0 0-2.85-3.52c-.28-.26-.57-.5-.86-.74l-.52-.41-.92-.72-7.4-5.73-2.95-2.28a.5.5 0 0 1-.16-.26l-.74-17.62-1.48-37.96c-.1-1.24-.21-2.99-.34-5.19l-.1-1.73v-.11-.04s0-.04-.02-.06c.01-.03 0-.07 0-.11.02-.13.03-.31.16-.46.05-.09.12-.16.2-.22a.68.68 0 0 1 .26-.15c.04-.04.1-.02.16-.05.03 0 .06 0 .09-.01-.03 0 .13 0 .23 0h.33l2.71-.03 2.83-.03 1.46-.01h.15.05.11a1.28 1.28 0 0 1 .42.13c.07.03.13.08.19.13.04.04.03.02.11.11l.16.2.46.6 9.98 8.39 2.48 2.09.16.13.28.21.61.46 1.22.93c.87.51 1.49 1.53 2.32 2.15.8.66 1.67 1.06 2.49 1.35.41.15.81.24 1.2.32.34.08.76.13 1.25.11.51-.02.79-.08 1.21-.18.39-.07.81-.23 1.22-.36.84-.34 1.71-.82 2.51-1.55l16.57-14.22.62-.81c.07-.08.07-.09.12-.13.07-.07.15-.13.24-.18.17-.1.36-.18.56-.2.05 0 .1-.01.15-.01h.04.2.41 1.63 3.26c2.95-.02 2.39-.02 2.93.2.36.21.63.58.71.95.11-.36-.04 2.73-.1 4.6l-.22 6.17-.43 11.81-1.43 35.27-.08 2.74-.07 1.55-.03.78-.02.15c-.03.18-.09.37-.19.53a1.95 1.95 0 0 1-.17.23l-.1.1c-.07.06.02-.01-.27.22l-2.59 2.02-5.22 4.11-2.61 2.06-.65.52-.35.28c-.19.16-.39.31-.57.48a14.03 14.03 0 0 0-2.02 2.2c-1.19 1.6-2.03 3.44-2.47 5.35l-.15.72-.07.4-.14.8-.27 1.59-1.02 6.2-1.7 11.3-2.22 19.26 2.3-7.92c-1.23 6.46-2.47 12.92-2.63 15.46-1.85 13.9.41 6.25 2.5 1.16 1.19-3.72.98 1.57 2.59-4.3l-2.06 10.77c.37.58 2.22-13.32 2.43-10.19-.95 4.11-1.52 8.81-2.34 13.11.9-1.37 3-14.88 3.5-14.1-.29 2.35-3.08 11.95-2.47 12.92.12.19.95-4.11 1.36-6.27l-1.33 8.67-.38 3.11c-.03.38-.12.97-.2 1.44-.11.47-.19.88-.3 1.22-.19.68-.33 1.09-.29 1.22.03.13.23-.01.58-.52.33-.5.83-1.4 1.19-2.75.27-.91.6-2.11.99-3.6l-.7 3.42-.13.56-.18.7c-.15.46-.29.93-.5 1.37-.37.91-.9 1.76-1.49 2.55a12.37 12.37 0 0 1-4.51 3.67c-.87.4-1.76.72-2.65.91-.44.11-.89.17-1.33.23-.22.03-.44.04-.65.06l-.32.02h-.16l-.08.01h-.04-.02c0-1.81 0 4.05 0-4.06v4.06h0 0 .04c1.69.03 4.05-.4 6.07-1.54 2.03-1.11 3.61-2.87 4.41-4.24a12.3 12.3 0 0 1-9.67 5.91c.62.06 1.34.08 2.11 0 2.95-.61 5.72-2.35 7.53-4.99-1.54 2.23-3.8 3.94-6.38 4.82 2-.41 4.27-1.47 6.19-3.4.87-.93 1.6-2.01 2.18-3.15.3-.57.53-1.16.75-1.76.19-.58.38-1.32.45-1.56l1.16-4.02c.72-2.53 1.33-4.74 1.63-6.35l7.72-39.11 1.9-9.79.12-.61.06-.27s.03-.07.04-.1c.03-.07.08-.13.13-.18-.43.31 1.54-1.19 2.73-2.11l7.88-6.09.98-.76c.1-.07.51-.41.79-.64.3-.27.59-.53.87-.82 1.12-1.13 2.06-2.45 2.78-3.87s1.21-2.96 1.46-4.54a15.46 15.46 0 0 0 .14-1.19l.04-.6v-.32l.06-1.24zm27.47-.54c-.29-.04-.53 1.39-.75-.81-.53-6.9.24-12.49-.29-19.4l-.49-.48.07-16.64-.71-15.68-.38-7.81c-.01-.22 0-.19 0-.21s0-.04-.01-.06c.01-.04 0-.08 0-.11.02-.07 0-.15.04-.21.04-.15.13-.3.26-.41-.13-.12-.26-.22-.15-.38a1 1 0 0 1 .56-.25c.05-.03.12 0 .18-.02-.01 0 .08 0 .16 0h.25.5l2.06.02 4.37.06h.28c.1 0 .06.01.09.01s.06 0 .1.01c.06 0 .13.03.19.04.12.04.24.1.35.17.07.03.14.06.21.1.08.07.09.02.25.22l.04.02.12.12a2.08 2.08 0 0 0 .21.21 2.63 2.63 0 0 0 .29.26c.45.28.64.33.78.37l3.21 2.79 2.71 2.4 4.03 3.23 2.12 1.7c1.29 1 2.68 1.85 3.87 3.2 1.4 1.2 2.99 1.73 4.24 1.93.35.05.82.05 1.18-.01.33-.05.64-.17 1-.26.69-.24 1.42-.53 2.15-1.02.72-.48 1.44-1.08 2.04-1.86.67-.65 1.41-1.16 2.11-1.75.85-.66 1.07-.9 1.49-1.28l1.17-1.06 10.19-9.23.59-.81a3.11 3.11 0 0 1 .2-.25 2.66 2.66 0 0 1 .47-.41 3.02 3.02 0 0 1 1.18-.49c.05-.01.11-.02.16-.02h.08l.22-.02.87-.03 1.75-.06 3.53-.12.89-.03h.6c.25-.03.5 0 .75.05.49.09.97.32 1.39.65a3.65 3.65 0 0 1 1.02 1.25c.11.25.21.51.27.78.01.14.07.27.07.42 0 .16.04.22.03.6l-.12 30.27.29 21.02-.24 8.01-.08 2.1-.05 1.01c-.01.26-.05.52-.1.77-.21 1.02-.7 1.99-1.4 2.75-.36.41-.69.65-1.33 1.13l-1.7 1.29-3.34 2.54-6.3 4.83c.67.04-.51 1.18-1.39 3.31a9.56 9.56 0 0 0-.54 1.76c-.14.63-.19 1.34-.22 1.94l-.25 3.91c-.34 5.25-.6 10.09.66 7.88-1.23 6.45-3.09 16.15-2.72 16.73 1.11 1.76 1.78 7.03-.56 24.35-.26 1.69-.62 3.59-1 5.54l-.59 2.93a13.85 13.85 0 0 1-1.86 4.7c-1.75 2.83-4.35 4.67-6.64 5.58-1.15.48-2.23.74-3.13.89-.46.07-.87.14-1.23.16-.18.02-.35.03-.51.04-.08 0-.15.01-.23.02h-.11l-.05.01h-.02-.01c0-2.65 0 5.94 0-5.95v6.35h.06l.13.01c.09 0 .18 0 .27.01.37.01.78.04 1.22 0 .89-.04 1.9-.17 2.88-.44 1.99-.49 3.81-1.52 4.74-2.13.48-.29.74-.48.75-.4 0 .07-.26.41-.96.99 2.48-1.78 4.38-4.34 5.43-7.22.26-.72.46-1.46.62-2.2l.24-1.24.45-2.33 1.78-9.29 3.49-18.51 3.41-18.44 1.69-9.21.34-1.88s.02-.08.04-.12.05-.07.08-.11l.02-.02.4-.32.92-.72 7.36-5.79 1.84-1.45.92-.72.77-.63c.28-.26.56-.51.82-.78 2.13-2.15 3.59-4.94 4.17-7.91.14-.74.23-1.49.27-2.25l.04-1.25.08-2.35.15-4.69.31-9.41 1.32-37.97.04-5.2c0-.55.02-1.13.03-1.73v-.76c0-.29-.02-.58-.03-.88-.06-.59-.13-1.2-.25-1.8-.49-2.43-1.61-4.96-3.5-7.07a14.67 14.67 0 0 0-3.32-2.81c-1.26-.8-2.7-1.43-4.24-1.81-.76-.21-1.56-.32-2.36-.41-.4-.03-.8-.04-1.21-.06h-.42-.33l-2.71.03-2.83.03-1.46.01h-.59c-.23.02-.46.03-.68.06-.46.04-.91.1-1.37.18-1.82.33-3.61 1-5.23 2.01a14.24 14.24 0 0 0-2.28 1.75c-.34.31-.72.71-.99 1.01l-.34.4-.02.03-8.82 7.64-2.45 2.12-.23.2-.07.06-.14.13c-.1.08-.18.2-.29.25-.11-.06-.2-.15-.31-.22l-11.85-10-.4-.46c-.29-.32-.66-.71-1.02-1.03a14.64 14.64 0 0 0-2.38-1.76 14.71 14.71 0 0 0-5.57-1.91c-.49-.06-.98-.1-1.48-.11h-.57-.41-1.63l-3.26.01h-1.63c-.35 0-1.59 0-2.5.15a14.39 14.39 0 0 0-5.5 1.95c-3.34 2.01-5.77 5.38-6.62 9.15-.11.47-.2.94-.25 1.42-.06.48-.11.95-.11 1.43-.02 1.14.02 1.42.04 2l.12 3.14.23 6.17.44 11.81 1.18 35.28.12 2.74.05 1.55.03.78c.02.46.06.95.12 1.42.25 1.9.89 3.77 1.88 5.46.5.84 1.08 1.64 1.74 2.37.33.36.68.72 1.05 1.05.33.31.85.71.98.82l2.59 2.02 5.25 4.06 2.64 2.03 1.02.78c.08.06.15.14.22.21a1.48 1.48 0 0 1 .3.55l.58 2.85 1.27 6.15 2.46 11.16 4.83 18.77-.69-8.21c1.16 6.48 2.33 12.95 3.08 15.38 3.25 13.64 2.62 5.69 2.75.19-.22-3.9 1.48 1.11.87-4.95l1.94 10.79c.55.41-2.7-13.23-1.38-10.38.59 4.18 1.73 8.77 2.51 13.08.35-1.61-2.53-14.97-1.79-14.42.57 2.3 1.4 12.26 2.33 12.95.19.14-.59-4.18-.98-6.34l1.86 8.57.76 3.04c.12.49.21.66.29.87.12.19.18.36.29.48.39.5.61.45.58-.02 0-.25-.04-.59-.04-1.11-.07-.95-.19-2.18-.37-3.71l.57 3.44.1.58c.05.14.06.3.12.44.08.3.24.56.4.84a3.69 3.69 0 0 0 1.39 1.27c.28.14.57.26.86.31.14.04.29.05.44.07.07.02.14 0 .22 0h.11.05.03.01 0c0 1.81 0-4.05 0 4.06v-4.06h0 0 0a3.79 3.79 0 0 1-1.9-.63c-.61-.41-1.04-.98-1.28-1.4.6 1.04 1.73 1.76 2.94 1.85-.18-.13-.37-.26-.55-.42-.77-.29-1.43-.82-1.87-1.5.38.57.97 1.03 1.62 1.27-.41-.4-.74-.93-.9-1.47-.11-.22-.16-.47-.19-.69-.02-.11 0-.23-.02-.33.02-.14.04-.11-.01-.59l-.36-4.17c-.23-2.63-.46-4.9-.75-6.52l-6.81-39.27-1.74-9.82-.11-.61-.07-.37-.12-.58c-.18-.77-.42-1.53-.72-2.27-.59-1.47-1.42-2.85-2.43-4.07a14.81 14.81 0 0 0-1.66-1.7c-.73-.62-.93-.75-1.27-1.03l-1.95-1.54-7.82-6.16-.98-.77c-.23-.18-.13-.12-.18-.14 0-.02-.03-.02-.03-.04-.04-.05-.08-.1-.11-.16s-.04-.12-.05-.18l-.06-1.62z"/><path d="M67.77 49.52c0 .25.4.49-.18.63-.92.21-1.76-.02-2.57-.21-.41-.07-.79-.27-1.2-.35-.4-.11-.83-.15-1.27-.23l-.22.36-1.01-.4c-.33-.15-.65-.34-.97-.51-.66-.31-1.26-.77-1.88-1.16-2.44-1.17-4.56-2.97-6.29-5.07-.08.14-.17.25-.38.06-.43-.41-.71-1.05-1.1-1.69-.19-.33-.31-.7-.47-1.07s-.34-.73-.45-1.13l-.32-.66c-.15-.15-.3-.15-.4-.15-.24-.72-.31-1.4-.45-2.01-1.16-3.94-1.25-8.52.49-12.75 1.67-4.23 5-8.18 9.66-10.55 1.88-1.21 4.06-2 6.25-2.35 3.28-.42 7.49.51 10.31 1.93.03-.38.51-.5 1.24-.47.36.02.79.04 1.22.14l1.35.35c.94.21 1.76.59 2.41.68.63.1 1.02 0 .89-.55 1.94 1.53 4.27 4.39 4.65 4.35.33-.07.72-.07 1.21.05.49.11 1.05.37 1.67.85a9.69 9.69 0 0 1 2.14 2.16c.8.99 1.56 2.33 2.31 4.06.23.7.44 1.5.62 2.34.14.84.22 1.71.3 2.51.12 1.61.04 2.98.21 3.49.1.33.2.31.31.1.1-.21.19-.72.27-1.2.17-.97.32-1.97.57-1.15 0-.71-.1-1.41-.2-2.11-.11-.7-.17-1.41-.33-2.09-.32-1.38-.64-2.76-1.15-4.07-.43-1.35-1.08-2.6-1.69-3.87-.34-.61-.71-1.21-1.07-1.82-.35-.61-.76-1.18-1.18-1.74C87.79 9.66 83.18 6.15 78 4.05c-2.6-1.04-5.35-1.68-8.12-1.99-2.78-.21-5.58-.22-8.34.32l-1.04.17-1.02.26c-.68.18-1.36.35-2.03.56-1.32.49-2.66.93-3.91 1.59-1.29.58-2.48 1.34-3.68 2.08-.59.39-1.14.83-1.71 1.25-.28.21-.57.42-.84.65l-.79.71c-1.35 1.35-4.72 4.79-7.15 10.44-1.18 2.82-2.08 6.16-2.32 9.75-.25 3.58.14 7.42 1.32 11.09a29.67 29.67 0 0 0 5.49 10c2.4 2.89 5.28 5.2 8.22 6.84 2.94 1.66 5.9 2.65 8.49 3.24 1.31.21 2.52.47 3.61.53s2.05.17 2.87.14l1.19-.07c3.56-.14 7.51-1.1 10.92-2.83 3.43-1.7 6.26-4.13 8.13-6.44 1.67-2.18 2.9-4.68 3.82-7.18-.81.96-1.59 1.8-2.33 2.46 1.51-2.14 2.67-4.54 2.76-5.58.34-1.36.47-2.19.39-2.67-.05-.48-.21-.57-.44-.46-.23.12-.51.45-.85.85-.37.38-.77.83-1.17 1.2-.44.58-.65.36-.89.23-.25-.13-.49-.14-1.15.69.35-.65.54-1.18.74-1.7.19-.53.44-1.03.61-1.76-.09-.07-.19.18-.3.57l-.49 1.38c-.3 1-.8 1.79-.85 1.2.74-1.22 1.02-2.81 1.36-4.21-.35.18-.63 1.39-1.13 2.44-.4 1.08-.97 1.99-1.15 1.77.31-.65 2.14-3.48 1.5-3.95-.12-.08-.46 1.28-.76 1.91.65-2.06.67-3.76.48-4.41-.19-.66-.56-.28-1.26 1.43.17-.61.31-1.36.51-2.12a15.24 15.24 0 0 0 .2-2.24c-.1.69-.22 1.84-.35 2.45.13-.75.12-1.52.19-2.28-.1.12-.2.25-.31.39-.13.56-.18 1.12-.27 1.69.08-.49.07-.99.12-1.48a12.23 12.23 0 0 0-.69 1.2c-.67 1.67-1.64 3.01-1.96 3.81-1.28 3.27-3.51 6.15-6.32 8.16-1.38 1.05-2.94 1.81-4.54 2.39-1.6.62-3.29.9-4.99 1.02zm97.74 12.79c.04-.25-.56-.54.4-.6 2.97-.05 5.5.53 8.48-.36l.12-.45 1.75-.31 1.76-.46c1.2-.29 2.35-.77 3.54-1.23 4.13-2.19 7.6-5.43 10.19-9.19-.19 0-.33-.03-.11-.42.55-.76 1.07-1.76 1.75-2.78.32-.52.59-1.1.9-1.68.3-.58.62-1.18.84-1.82.12-.38.23-.77.34-1.15.02-.32-.09-.44-.15-.51.41-1.14.66-2.19.96-3.14.46-3.27.36-6.57-.26-9.77-.19-.8-.32-1.6-.57-2.38l-.77-2.32-.99-2.24c-.35-.74-.79-1.43-1.18-2.14-3.38-5.57-8.74-9.91-15.04-11.93-2.72-.74-5.5-.86-8.07-.9-.96-.01-1.98-.07-3.03.02-.53.03-1.06.03-1.6.09l-1.61.21-.81.11-.79.18-1.56.36c-.99.33-1.97.62-2.83.99.27.27-.02.76-.54 1.33-.26.3-.59.58-.91.93l-.98 1.07a8.11 8.11 0 0 0-1.42 2.02c-.25.55-.2.91.35.96-1.73 1.3-3.88 3.78-3.59 4.19.17.28.31.63.39 1.05.07.41.1.92.09 1.55-.02.62-.16 1.32-.26 2.2-.17.85-.3 1.88-.5 3.06-.07.47-.2.98-.36 1.49l-.35 1.58c-.2 1.02-.25 1.93-.17 2.26.1.33.2.31.31.1s.24-.47.36-.77c.25-.58.48-1.13.66-.63 0-.41.1-.81.18-1.21.09-.4.11-.8.23-1.19.23-.77.41-1.56.74-2.29.24-.77.67-1.45.99-2.18l.63-1.02c.19-.35.43-.67.68-.98 1.87-2.59 4.48-4.6 7.39-5.85 1.47-.62 3.02-1 4.6-1.23 1.59-.13 3.23-.22 4.82.09l.6.08.59.15c.39.1.79.18 1.18.29.75.29 1.54.5 2.26.89.76.31 1.44.77 2.15 1.18.34.22.66.49.99.73l.5.37.45.42c.96.58 3.11 2.48 4.75 5.79.78 1.66 1.4 3.64 1.62 5.84.23 2.19.05 4.57-.63 6.83a17.88 17.88 0 0 1-3.3 6.21 17.67 17.67 0 0 1-5.08 4.27c-1.82 1.02-3.66 1.61-5.26 1.96-.82.09-1.56.26-2.24.27-.68 0-1.28.08-1.78.01l-.73-.02c-2.2-.15-4.58-.72-6.74-1.66-2.17-.92-4.1-2.21-5.64-3.39-1.49-1.02-2.88-2.3-4.15-3.76.23.87.44 1.72.67 2.45-1.1-1.67-1.93-3.48-2.42-4.11-.51-.95-.9-1.52-1.13-1.83-.25-.3-.44-.31-.58-.12s-.26.58-.35 1.05l-.17 1.53c.03.7-.26.7-.52.78-.25.08-.52.26-.23 1.34-.36-.71-.54-1.28-.74-1.84-.19-.57-.43-1.11-.59-1.9-.11-.02-.08.27.02.69.14.41.36.96.56 1.48.36 1.05.87 1.92.3 1.57-.51-1.47-1.31-3.03-1.66-4.63-.18.33.04 1.75.5 2.99.36 1.28.91 2.38.6 2.39-.13-.19-.28-.57-.44-1.03-.13-.47-.25-1.03-.38-1.57-.3-1.05-.44-2.06-.83-2.13-.15-.03.23 1.61.56 2.38-.99-2.39-1.49-4.36-1.87-5.1-.37-.74-.72-.25-.61 2.29-.2-.85-.23-1.91-.34-2.95-.04-1.06-.01-2.12-.11-3.03.03.91-.1 2.5.04 3.34-.14-1.03-.12-2.08-.17-3.11-.09.16-.17.35-.26.55-.03.78-.1 1.58 0 2.4-.09-.69-.08-1.4-.12-2.1a14.93 14.93 0 0 0-.53 1.85c-.13 2.57-.15 5.21.34 6.58 1.71 5.55 5.13 10.62 9.74 14.27 2.27 1.87 4.89 3.33 7.63 4.41 2.74 1.12 5.68 1.73 8.61 1.95z" /></svg>