<svg xmlns="http://www.w3.org/2000/svg" viewBox="0 0 237 237.18" ><path d="M48.59 76.83c.03-.24-.53-.51.38-.58 2.8-.05 5.18.51 7.98-.33l.11-.43 1.65-.29 1.66-.43c1.13-.27 2.22-.72 3.33-1.16 3.89-2.06 7.16-5.12 9.59-8.66-.18 0-.32-.03-.11-.4.52-.72 1.01-1.65 1.64-2.62.31-.49.56-1.04.85-1.58.28-.55.58-1.11.79-1.71l.32-1.08c.02-.3-.09-.41-.15-.48.39-1.07.62-2.06.9-2.96a27.77 27.77 0 0 0-.26-9.19c-.18-.75-.31-1.5-.54-2.24L76 40.51l-.94-2.1c-.33-.69-.74-1.34-1.11-2.01-3.18-5.23-8.23-9.3-14.15-11.19-2.55-.69-5.17-.8-7.58-.83-.9-.01-1.86-.06-2.84.02-.49.03-1 .03-1.5.08l-1.51.2-.76.1-.74.17-1.46.33c-.93.3-1.85.58-2.66.93.26.26-.01.72-.5 1.27-.24.28-.55.55-.85.88l-.92 1.01a7.38 7.38 0 0 0-1.32 1.9c-.23.52-.18.86.34.91-1.62 1.21-3.63 3.53-3.35 3.92a3.1 3.1 0 0 1 .38.99c.07.39.11.87.1 1.46-.01.58-.13 1.24-.22 2.06-.15.79-.26 1.75-.45 2.85a8.01 8.01 0 0 1-.34 1.39l-.33 1.47c-.19.95-.24 1.79-.16 2.1.09.31.19.29.29.09.1-.19.23-.44.35-.72.24-.54.46-1.05.63-.58.18-1.5.49-2.98 1.07-4.35.22-.71.62-1.35.92-2.02l.58-.94c.18-.33.4-.62.63-.91 1.74-2.4 4.15-4.26 6.85-5.43 1.36-.57 2.8-.93 4.27-1.15 1.48-.12 3-.21 4.47.08l.56.07.54.14 1.09.27c.7.27 1.43.46 2.1.83.7.29 1.33.71 1.99 1.09.32.21.61.46.92.68l.46.34.42.39c.9.53 2.9 2.3 4.42 5.37.73 1.54 1.31 3.38 1.51 5.42.21 2.04.05 4.25-.58 6.34a16.62 16.62 0 0 1-3.06 5.77c-1.37 1.68-3.03 3.03-4.73 3.97-1.69.95-3.4 1.49-4.89 1.82-.76.08-1.45.24-2.08.25-.63 0-1.18.07-1.65.01l-.68-.02c-2.05-.14-4.25-.67-6.26-1.54-2.02-.86-3.81-2.05-5.25-3.14-1.39-.94-2.69-2.13-3.89-3.49.2.82.4 1.61.61 2.3-1.03-1.56-1.8-3.24-2.26-3.83-.48-.88-.85-1.42-1.06-1.71-.24-.28-.42-.28-.56-.1s-.26.54-.34.99l-.18 1.44c.02.66-.26.66-.51.73-.24.08-.5.25-.24 1.26-.34-.67-.51-1.2-.69-1.73-.17-.53-.4-1.05-.56-1.78-.1-.02-.07.25.02.65.13.39.33.9.52 1.39.34.99.82 1.8.27 1.48-.47-1.38-1.23-2.84-1.56-4.34-.18.31.03 1.64.46 2.81.34 1.2.85 2.23.56 2.24-.12-.18-.26-.53-.41-.97-.12-.44-.23-.97-.36-1.47-.28-.99-.41-1.93-.78-1.99-.14-.03.21 1.51.52 2.24-.94-2.24-1.41-4.09-1.77-4.79-.36-.69-.69-.23-.6 2.15-.19-.79-.22-1.79-.32-2.77-.04-.99-.01-1.99-.1-2.84.02.86-.1 2.35.03 3.14-.13-.97-.11-1.95-.16-2.92a6.39 6.39 0 0 0-.25.52c-.03.74-.1 1.49 0 2.26-.08-.65-.07-1.31-.11-1.97a13.5 13.5 0 0 0-.52 1.74c-.14 2.42-.16 4.91.3 6.2 1.6 5.23 4.82 10 9.16 13.44 2.14 1.76 4.6 3.13 7.18 4.16 2.58 1.06 5.35 1.63 8.11 1.84zm-25.96 57.12c-.28-.05-.5 1.64-.72-.96-.57-8.21.12-14.84-.45-23.05l-.47-.58-.04-9.73-.01-4.99v-2.52c.04-.09.07-.13.11-.17.01-.1.11-.24.22-.31a.67.67 0 0 1 .17-.07h.03.02l.17-.01h.74l1.49-.02 4.87-.04c.08 0 .16.02.23.06.04.01.07.04.11.06.03.03 0 0 .08.07l.59.76 10.87 9.07c-.14-.33-.15-.55.82.2l.29.23.07.06.14.1.28.21 1.15.87 1.2.91c.19.19.36.42.54.63.19.21.4.38.6.57.82.74 1.75 1.23 2.65 1.55.94.3 1.66.52 2.78.4.83-.13 1.82-.37 2.83-.92.5-.28 1.02-.61 1.49-1.06.24-.22.49-.42.7-.7l.33-.39c.12-.11.25-.2.38-.3l1.55-1.18.78-.59c.16-.12.18-.14.26-.21l.21-.17 1.66-1.38 3.4-2.84 2.42-2.17c.57-.62.64-.88.68-1.04l2.91-2.45c.15-.2.31-.4.46-.59l.14-.17c.06-.06.08-.08.13-.11.08-.06.16-.11.24-.16.17-.08.34-.13.51-.14.04-.02.09-.02.13-.03.08 0-.01-.02.33-.02l1.54-.04-.24-4.75a2.41 2.41 0 0 1-.38 1.1c-.21.51-.49 1.05-.83 1.51-.08.12-.17.23-.26.34-.09.12-.2.31-.31.46l-.33.47-.15.21h0s-.01-.03.05.02c.16.13.42.36.71.67.58.6 1.23 1.39 1.86 2.22 1.28 1.65 2.55 3.52 3.81 5.42a199.73 199.73 0 0 1 3.76 5.97l.94 1.56.48.8.82 1.43 3.23 5.82 1.57.68.68.32c.26.1.62.19.93.25 1.29.28 2.65.31 3.95.08a10.29 10.29 0 0 0 3.66-1.39c1.04-.69 2.16-1.59 3.11-2.79l2.62-3.13 1.7-2.08 3.45-4.2 3.52-4.28 1.79-2.17.8-.98.33-.44.34-.45c.14-.13.3-.25.49-.29.37-.11.76-.07 1.14 0 .38.08.77.23 1.12.4.5.25 1.19.72 1.48.98l.21.2 1.62 1.34.41.34.21.16.38.29c.54.36.96.95 1.07 1.63a2.47 2.47 0 0 1-.5 1.98l-.77.88-1.56 1.7-12.9 14.09-8.32 9.48-2.08 2.34c-.51.57-.91 1.1-1.44 1.61-.59.43-1.35.42-2.04.34-.35-.04-.7-.12-1.05-.21a13.27 13.27 0 0 1-1.14-.35c-.06-.02-.13-.05-.21-.07l.9.66-2.91-3.6-3.52-4.42c-1.31-1.64-2.64-3.45-4-4.8-.67-.65-1.33-1.21-1.93-1.72l-.89-.75c-.16-.11-.27-.26-.46-.35-.22-.06-.44-.11-.68-.12-.94-.08-1.97.31-2.58.95-.32.32-.51.67-.63 1.02l-.44 1.09c-.59 1.47-1.24 3.28-1.55 5.43l-1.88 10.62c1.88-1.5-2.16 26.8.39 21.45-1.35 7.69-3.37 19.25-3.03 19.92 1.03 2.02 1.56 8.21-1.13 28.8-1.18 8.04-3.84 20.24-4.05 23.11-.33 4.52 2.71-10.22 2.38-5.7l10.82-62.3 4.72-28.05c-.02.02-.04-.04-.02-.06h.04l4.17 5.21 1.28 1.59 1.8.64 1 .36c.52.18 1.04.34 1.56.49 1.05.28 2.11.5 3.17.58 2.11.18 4.26-.15 6.09-1.16.46-.22.86-.55 1.28-.87.43-.3.82-.66 1.2-1.07l1.91-1.99 2.29-2.38 9.18-9.56 9.24-9.6 4.64-4.81.94-1c.39-.39.81-.76 1.15-1.19.68-.84 1.29-1.7 1.73-2.66.92-1.89 1.32-4.02 1.21-6.11-.17-1.79-.71-4.14-2.39-6.39-.39-.56-.89-1.1-1.44-1.64-.58-.52-1.21-1.04-1.84-1.6l-2.15-1.82.36.33c-.89-.87-1.71-1.48-2.57-2.06a22.87 22.87 0 0 1-.64-.41c-.24-.15-.39-.22-.73-.42-.62-.34-1.21-.62-1.84-.9-2.52-1.06-5.39-1.75-8.25-1.15-.72.13-1.42.36-2.1.67-.32.17-.67.32-.98.52l-.89.68c-.61.41-1.17 1-1.69 1.64l-1.54 1.8-3.51 4.13-7.78 9.11-.49.57-.05.06-.09.13c-.07.08-.12.18-.21.25-.16.12-.51.2-.57-.08l-.19-.3-.05-.08-.22-.39-.89-1.56c-1.2-2.08-2.44-4.18-3.76-6.3s-2.7-4.27-4.27-6.45c-.8-1.1-1.63-2.21-2.66-3.39-.25-.29-.52-.59-.83-.91l-.46-.47-.55-.51-.28-.25-.37-.29c-.27-.2-.46-.37-.8-.59a11.98 11.98 0 0 0-1.16-.66 10.02 10.02 0 0 0-1.98-.67l-.53-.12h-.67-1.1-.55l-.91.03a13.78 13.78 0 0 0-3.96.83c-1.27.47-2.47 1.13-3.56 1.95-.54.42-1.05.86-1.53 1.35-.26.26-.44.47-.62.68l-.13.15h-.01l-.02.04-8.66 7.43-2.34 2.02-.15.13s-.1.12-.17.08l-.31-.25-11-9.34c.12.15-.46-.57-1.01-1.11-.57-.54-1.17-1.04-1.81-1.48-1.29-.88-2.72-1.54-4.22-1.93-.75-.2-1.51-.34-2.28-.4-.38-.04-.77-.05-1.15-.06h-.67-2.5-2.48-1.23-.31l-.5.02c-.37.02-.74.03-1.11.07-2.95.34-5.76 1.65-7.84 3.64-2.11 1.96-3.53 4.6-4.06 7.37-.12.69-.22 1.39-.23 2.08v1.02l.01.57.08 2.25.31 8.6.86 26.21.14 3.25.54 15.26.08 1.96.02.53c.02.3.03.6.07.9.07.6.17 1.2.32 1.79.58 2.35 1.79 4.55 3.49 6.29.42.44.88.84 1.35 1.22l.82.63 1.56 1.2 3.12 2.39 5.63 4.29a1.26 1.26 0 0 1 .4.56c.01.03.02.06.03.08v.04s.02.02.04.12l.18.91.37 1.8 2.84 13.29 5.44 22.37-1-9.73c1.39 7.7 2.78 15.39 3.61 18.29 3.7 16.25 2.77 6.83 2.67.33-.37-4.62 1.48 1.38.64-5.81l2.32 12.82c.55.5-3.15-15.74-1.76-12.32.37 2.48.88 5.09 1.41 7.72l.8 3.94.39 1.93c.1.53.3 1.03.53 1.5-.01-.2-.12-.55-.21-1.02-.05-.26-.07-.47-.13-.85l-.18-1.23-.98-5.95c-.71-4.12-1.36-7.93-.99-7.59.32 1.37.79 5 1.29 8.4.25 1.7.51 3.34.76 4.61.13.63.25 1.18.37 1.59.12.45.24.55.35.64.02.01.03-.03.02-.12 0-.1-.02-.19-.06-.47a91.19 91.19 0 0 0-.31-1.99l-.85-4.79 1.14 5.53.27 1.26c.05.24.08.3.12.45a2.43 2.43 0 0 0 .13.38 4.83 4.83 0 0 0 .74 1.28c.6.72 1.31 1.14 1.92 1.37.62.22 1.14.25 1.5.2.73-.1.81-.3.29-.49-.25-.11-.65-.24-1.13-.54-.47-.29-1.03-.76-1.42-1.5.6.96 1.96 1.79 3.45 1.55.72-.09 1.42-.46 1.93-.98.53-.51.82-1.18.92-1.82l-.02.02a3.47 3.47 0 0 1-1.23 1.95c-.66.54-1.48.73-2.03.76.69-.05 1.36-.3 1.9-.74s.94-1.04 1.14-1.71c-.18.18-.34.37-.55.53-.51.8-1.38 1.31-2.29 1.44.78-.1 1.52-.56 1.98-1.22-.54.36-1.21.56-1.82.5-1.17.08-1.91-.85-1.93-1.5-.02-.18 0-.27 0-.49l-.24-2.06c-.16-1.3-.33-2.46-.5-3.42l-8.19-46.67-.52-2.92-.26-1.46-.07-.36-.12-.62a13.26 13.26 0 0 0-.38-1.37c-.59-1.81-1.55-3.49-2.79-4.93-.61-.71-1.35-1.4-2.04-1.94l-1.16-.92-9.3-7.34-.29-.23c-.05-.04-.02-.02-.04-.03 0-.01-.02-.02-.03-.03-.02-.02-.04-.05-.05-.07-.03-.05-.05-.11-.05-.17l-.17-4.97-.41-11.82zm206.57 85.6v-.02l-2.23-2.35 2.18 2.09c-.04-.19-.1-.38-.17-.59l-1.56-1.7 1.45 1.39c-.2-.52-.46-1.09-.77-1.68l-3.53-4.95-6.51-6.47-3.27-3.22-2.02-1.96-3.27-3.11-15.68-.16c-.02.28.54.56-.33.69-2.72.27-4.9-.67-7.61-.41l-.2.45-6.53-.66-12.29.32c.11.16.16.32-.25.38a18.17 18.17 0 0 1-1.69.04l.45-9.95c-.28 0-.56.22-.69-.13-.27-1.1.67-1.99.41-3.09l-.45-.08.66-2.65-.32-4.99c-.16.04-.32.06-.38-.1-.12-.69.04-1.64.09-2.63l-.08-.44c-.1-.11-.26-.14-.35-.16l.11-1.21-2.97-15.11c-.42-1.13-.83-2.26-1.02-3.35-.17-1.61.12-3.67.17-5.24-1.6.24-2.38-3.59-3.99-2.82.03-.77.06-1.81-.1-2.35l22.97.27 18.76.14h2.34l1.17.02h.59.32l.43-.02c1.13-.06 2.27-.09 3.39-.33l1.67-.33 1.62-.49c4.33-1.38 7.94-4.08 10.73-7.2-.19-.23-1.54.9.16-1.23 2.55-3.39 4.33-6.71 5.56-10.22.34-.87.56-1.77.79-2.68.26-.9.39-1.83.53-2.77.17-.94.19-1.9.24-2.88.05-1.07.01-1.72-.02-2.57-.15-.15-.3-.31-.45-.47l.66-15.64-.32-29.46c-.16.25-.32.38-.38-.6-.12-4.07.04-9.7.09-15.53l-.08-2.57c-.1-.66-.26-.83-.35-.94l.11-7.16-.17-5.38-.09-2.69-.04-1.35c-.01-.45-.06-1.07-.1-1.59-.11-2.18-.55-4.35-1.11-6.48-.66-2.11-1.42-4.2-2.54-6.14-.5-1-1.16-1.92-1.78-2.85-.33-.46-.7-.89-1.05-1.34s-.71-.88-1.12-1.28c-1.52-1.7-3.4-3.13-5.4-4.34-2.01-1.22-4.32-2.04-6.66-2.53l-1.79-.28c-.6-.06-1.2-.06-1.8-.09-.29 0-.63-.02-.88-.02l-.69.02-1.39.05-45.71 1.54-19.76 1.02c-9.52.17-21.66-.12-30.94-.17.36.4-.79.75-2.64 1.07-.93.16-2.03.32-3.2.47-1.22.16-2.56.46-3.69 1.05-1.13.58-2.09 1.36-2.83 2.14-.71.81-1.23 1.59-1.51 2.25-.31.64-.39 1.15-.33 1.38.06.24.3.22.73-.09-.76 1.11-1.41 2.53-1.77 4.04a15.13 15.13 0 0 0-.36 2.29l-.04 1.14.01 1.21c.04 3.16.14 5.6.36 5.84 1.35 1.44 2.91 6.2 3.73 22.63.19 6.43-.38 16.3-.1 18.57.43 3.57.95-8.33 1.39-4.77l.19-35.57V26v-2.21-1.1-.26-.15l.02-.3c.05-.8.18-1.59.43-2.3.25-.7.59-1.34.98-1.85s.81-.89 1.2-1.13.72-.34 1.06-.38h.13.06s.17-.02.25-.02h1.1l2.2-.01h4.4l71.08-.24c2.05-.09 5.56-.17 10.21-.25l7.77-.11 4.44-.05 2.34-.02h.6c.2 0 .43-.01.51 0 .23.02.47.03.7.03.24-.02.47.05.71.09.23.05.48.05.72.13.47.16.96.25 1.43.49.49.16.95.48 1.44.73.24.14.46.33.7.49l.36.24.33.3c1.84 1.52 3.38 3.84 4.38 6.52.44 1.37.83 2.79.97 4.3.07.37.06.75.09 1.13l.03.57c0 .2.03.35.02.63l.02 3.03.05 12.34.09 48.19-.03 19.77c-.04 4.51-1.47 7.95-2.87 10.04-.29.55-.7.99-1.04 1.5-.88 1.02-1.87 1.93-2.96 2.65-1.1.69-2.27 1.16-3.47 1.41-.61.16-1.19.15-1.86.21l-3.13.02-6.24.06-22.8.58-18.2 1.27 7.72.79c-6.19-.03-12.38-.07-14.76.22-13.18.68-5.72 1.48-.64 2.57 3.65.48-1.28 1.2 4.43 1.69l-10.32-.06c-.47.45 12.71-.23 9.84.51-3.97-.17-8.41.1-12.53.08 1.43.61 14.28.23 13.65.83-2.23.14-11.59-.82-12.38-.07-.16.15 3.97.17 6.03.19-12.7.23-19.69.95-8.1 1.77-4.02-.02-9.71-.34-13.97-.24 0 0 .02 0 .03.01l7.75.19-7.24-.04c.38.11.81.21 1.27.31 1.8.09 3.62.17 5.5.18-1.6 0-3.2-.02-4.81-.03a78.15 78.15 0 0 0 4.1.7c5.72.49 11.19 1.2 14.28 1.21l9.07.11c-.02 5.84.28 11.61.27 17.57.71 2.77 1.02 21.47.71 26.28 0 .15.01.29.02.44-.09 2.62.03 5.8.64 8.02.29.8.64 1.61.99 2.42l-35.18 2.8c-2.78.42-5.56.83-8.25 1.02-3.97.17-9.04-.12-12.91-.17.16.42-.39.79-1.25 1.13-.95.34-2.21.65-3.16.97-.58.96-1.02 1.78-1.16 2.35-.15.57.01.88.51.93l-1.47 1.4-1.5 1.49c-.92.95-1.58 1.73-1.49 1.96.51 1.39.18 3.89-4.16 9.26-1.79 2.01-5.14 4.47-5.62 5.33-.76 1.35 3.16-1.74 2.39-.39l8.93-8.44 4.38-4.24 2.17-2.13.08-.08h0-.02-.02s-.04 0 .04 0h.27l1.08-.01 4.31-.04 8.65-.09 17.47-.1c6.83-.71 52.92-1.02 64.76-.71l1.08-.02h6.58l3.38-.06h.42c.1-.02.06-.02.1-.02l.12-.03.25-.07.24.1.13.05h.03a1.1 1.1 0 0 0 .14.12l.32.26c.85.69 1.67 1.33 2.45 1.91 2.09 1.44 4.26 2.84 6.42 4.25a90.47 90.47 0 0 1-1.82-2.77c1.87 1.79 3.73 3.58 4.65 4.04 4.49 3.25 2.75.54 1.95-1.69-.79-1.39 1.21-.51-.2-2.5l3.11 2.98c.45-.2-4.03-3.45-2.65-3.17 1.09 1.26 2.64 2.32 3.88 3.51-.02-.85-4.2-4.23-3.59-4.49.77.53 2.97 3.9 3.73 3.58.15-.07-1.09-1.26-1.71-1.85 4.03 3.45 6.65 4.91 3.68 1.01 1.21 1.16 2.73 3.01 4.1 4.15zm-74.52-22.17c0 .19-.01.38-.02.56-.12 0-.24.02-.36.03a10.14 10.14 0 0 1 .37-.59z"/></svg>