<svg xmlns="http://www.w3.org/2000/svg" viewBox="0 0 237 237.18" ><path d="M63.31 150.79c-.17-.26-1.59.73.18-1.23 5.67-6.07 11.1-10.07 16.77-16.15.03-.25.05-.51.08-.77l14.61-13.61 26.33-26.82c-.36.1-.58.1.25-.83 3.57-3.76 8.78-8.72 14.08-13.94l2.26-2.38c.52-.67.56-.95.58-1.12l6.54-6.37L148 64.4l1.52-1.6.09-.1v-.02l.04-.04.06-.08.13-.17.58-.75.34-.42.18-.22c.06-.05.14-.23.16-.1.17.3.37.63.61 1l.39.57.11.15s.03.04.02.02c0 0-.03-.06 0 0l.22.35.88 1.38c2.4 3.65 5.21 7.12 8.43 10.26 3.22 3.15 6.83 5.97 10.77 8.39.48.32.99.59 1.49.88l1.41.79a34.55 34.55 0 0 0 1.07.47 41.32 41.32 0 0 0 2.52.94l.14.05s-.04.06-.05.09l-.15.18-.31.37-.67.79-1.49 1.73-7.64 8.13-16.49 17.46-17.04 18.61c-8.45 8.72-19.63 19.44-28.04 27.77 2.51-.06-17.3 20.94-11.99 18.11-5.6 5.55-14.02 13.89-14.11 14.67-.26 2.33-3.36 7.82-17.55 23.27-5.65 5.95-14.99 14.41-16.83 16.67-2.89 3.55 8.25-6.79 5.36-3.23l127.93-128.05 2.08-2.2 3.1-3.22 14.82-15.08-9.45-3.82-2.5-1.03-2.4-1.12-2.44-1.14c-.41-.19-.82-.38-1.21-.6l-.88-.51c-2.85-1.62-5.71-3.62-8.42-6.05s-5.26-5.31-7.52-8.61l-.85-1.25-.79-1.31-.54-.88c-.29-.5-.52-.99-.77-1.51l-1.47-3.08-.74-1.55c-.24-.53-.46-1.1-.69-1.64l-1.38-3.33-2.71-6.55-60.18 60.41-39.1 38.92-2.31 2.34c-14.03 13.89-30.89 30.94-42.24 43.22l-3.85 4.31-.48.54-.83.89-1.7 1.82-1.65 1.81-.82.9c-.06.08-.16.14-.18.23l.09.3.17.6 1.36 4.76c.21.77.5 1.57.73 2.23l.56 1.49c.82 1.97 1.68 3.93 2.73 5.81-.77-1.85-1.27-3.69-1.78-5.41l-.6-2.63c-.3-1.11-.46-2.25-.66-3.29l.53 2.15c.18.68.44 1.47.57 1.89.3 1 .61 1.99 1 2.95.68 1.93 1.55 3.71 2.34 5.35.91 1.58 1.69 3.04 2.55 4.17l1.13 1.56 1 1.11c2.99 3.52 5.31 5.15 6.54 5.96 1.29.76 1.57.7 1.26.17-.7-.99-3.48-4.23-5.09-7.18-1.27-2.03-.73-1.88-.42-2.02.32-.13.37-.5-1.32-3.64.66 1.1 1.3 2.02 1.88 2.89l1.82 2.34 2.01 2.19c.78.7 1.56 1.51 2.56 2.32.35.04-2.7-2.47-4.97-5.23-.55-.71-1.11-1.37-1.55-2.01l-1.05-1.66c-.53-.88-.59-1.25.03-.6 2.44 4.25 6.39 8.2 10.59 10.98-.57-.72-4.04-3.35-6.59-6.46-2.6-3.06-4.3-6.38-3.83-6.2.67 1.15 2.39 4.18 4.5 6.69 1.02 1.29 2.2 2.35 3.11 3.19.98.76 1.74 1.23 2.04 1.22.13-.02-.8-.76-1.93-1.75l-1.74-1.65-1.47-1.61c2.56 2.77 5.25 4.82 7.6 6.12.56.36 1.13.65 1.66.89l1.46.7c.9.39 1.66.62 2.2.79 1.08.32 1.34.24.6-.33-.37-.28-.99-.69-1.88-1.22-.44-.28-.91-.63-1.47-1s-1.18-.77-1.82-1.3c3.7 2.63 9.89 5.29 14.89 6.23 0 0-.02-.01-.03-.02-1.21-.34-2.9-.71-4.46-1.3-1.61-.5-3.09-1.17-4.15-1.58 1.31.5 2.59 1.05 3.96 1.44 1.33.46 2.73.79 4.11 1.14-.41-.22-.88-.45-1.37-.69-1.03-.27-2.01-.66-3.01-1-1.02-.32-1.98-.76-2.99-1.14 1.69.71 3.46 1.27 5.26 1.8-.65-.3-1.31-.68-2.03-1.02-.36-.17-.72-.35-1.1-.54l-1.11-.63c-2.93-1.38-5.53-3.09-7.52-4.82-.53-.4-.99-.84-1.42-1.26s-.88-.79-1.25-1.19c-.72-.82-1.45-1.44-1.96-2.07-2.22-2.37-4.05-5.09-5.52-8.09l-1.03-2.3-.89-2.4c-.15-.4-.25-.82-.38-1.24l-.25-.84c-.02-.1-.02-.15-.03-.22-.03-.07.03-.12.09-.16l.08-.06.04-.03s-.05.06.2-.19l4.27-4.19 8.53-8.39 33.98-33.65zm52.09-44.81c.2.23.79.07.31.75-1.63 2.04-3.82 2.79-5.45 4.83l.21.48-4.91 3.9-8.05 8.55c.2.05.35.14.12.46-1.05 1.24-2.76 2.7-4.44 4.31l-.66.78c-.11.26-.04.43 0 .54a53.97 53.97 0 0 1-2.1 1.93l-22.86 27.41-4.78 6.35c-2.55 2.81-6.19 6.01-8.85 8.58 1.62.82-4.15 7.79-1.64 7.76-1.77 1.71-4.42 4.29-4.21 4.77.63 1.44.49 3.98-3.51 9.23-1.66 1.96-4.88 4.3-5.31 5.15-.67 1.34 3.08-1.62 2.41-.28 13.83-13.08 26.34-26.49 39.9-40.03 4.07-5.15 34.94-36.5 43.17-44.25l.71-.74c4.43-4.29 9.63-9.68 12.85-13.83 1.4-1.98 2.77-4.05 4.15-6.1-1 .6-1.94 1.13-2.78 1.57 1.77-1.72 3.54-3.43 3.99-4.32 3.19-4.24.47-2.74-1.79-2.15-1.39.66-.56-1.28-2.54-.05l2.95-2.86c-.21-.48-3.4 3.75-3.16 2.38 1.25-.98 2.29-2.45 3.47-3.59-.87-.07-4.2 3.84-4.48 3.2.52-.73 3.89-2.63 3.54-3.43-.07-.16-1.25.98-1.84 1.56 3.4-3.75 4.82-6.27.93-3.64 1.15-1.12 3-2.47 4.12-3.75h-.02c-.62.58-1.77 1.49-2.33 2.03l2.07-2.01a7.95 7.95 0 0 0-.6.12c-.58.44-1.15.89-1.68 1.41l1.38-1.33c-.53.15-1.1.36-1.69.61-1.98 1.24-4.07 2.23-4.95 3.09-7.31 6.76-14.56 13.63-21.63 20.61zm119.62-95.72c-.12-.25-.34-.2-.47-.17a15.68 15.68 0 0 0-.03-2.89c-.08-.3-.17-.54-.27-.75l-.28-.68c-.09-.24-.18-.4-.28-.61a5.01 5.01 0 0 0-.56-.83c-.52-.65-1.36-1.32-2.03-1.57-.34-.14-.56-.15-.81-.18-.23-.03-.55-.04-.82-.06l-.85-.04-1.01.03-.51.02-.59.07c-.41.06-.75.07-1.22.18-.87.17-1.81.41-2.88.88l-.81.36-.84.43-1.66.85-6.42 3.33-3.08 1.61-.35.19-.24.14-.48.27-.96.54-7.83 4.43-6.5 4.13c-3.27 1.67-7.68 3.3-10.96 4.71 1.21 1.35-6.4 5.69-4.1 6.58-2.19.94-5.48 2.35-5.45 2.88.09 1.57-.89 3.86-6.31 7.26-2.18 1.2-5.9 2.2-6.58 2.83-1.06.99 3.36-.37 2.29.62 7.17-2.97 14.14-6.08 21.08-9.25.18.85.39 1.69.72 2.54.28-.1.52-.34.73-.19.51.52-.25 1.42.34 1.95l.47-.16c.04.57.05 1.2.1 1.83.59.92 1.25 1.8 2 2.6.13-.12.26-.23.37-.18.37.28.6.88.95 1.43l.24.17c.13 0 .27-.1.36-.16.18.23.32.45.44.66 2.81 1.74 5.98 2.71 9.13 3.04.77-.13 1.5-.29 2.11-.24.45.05.91.28 1.36.52-1.34 3.13-2.55 6.21-3.36 8.79-.61 2.27-1.15 4.62-1.7 6.95.72-.87 1.4-1.67 2.02-2.34-1.04 2.15-2.08 4.3-2.18 5.26-1.47 4.92.53 2.67 2.42 1.4 1.06-1.06.98 1 2.38-.78l-1.73 3.58c.37.37 1.83-4.55 2.1-3.21-.81 1.31-1.26 2.99-1.95 4.42.83-.22 2.54-4.89 3.03-4.39-.22.84-2.69 3.68-2.08 4.3.12.12.81-1.31 1.16-2.02-1.83 4.55-2.26 7.32.43 3.64-.67 1.4-1.91 3.24-2.5 4.78h.02c.37-.73 1.12-1.94 1.44-2.62l-1.21 2.52c.17-.08.34-.19.51-.3.38-.59.75-1.19 1.07-1.84l-.81 1.67a13.87 13.87 0 0 0 1.36-1.11c1.4-1.78 2.99-3.37 3.51-4.44 4.4-8.57 8.72-17.23 12.81-25.93-.27-.14-.76.19-.55-.59.79-2.4 2.56-3.8 3.36-6.2l-.37-.37 3.18-5.17 5.75-13.25c-.27.17-.49.23-.26-.41.89-2.18 2.32-5.04 3.86-8.19.24-.64.59-1.35.67-1.92l.1-.7c.03-.23 0-.41 0-.61zm-19.07 9.92l-.07.24-.2.55-.21.52-.11.27-.06.14-.22.48-3.4 7.36-4.92 10.33c-1.37-.31-2.63-.67-3.71-1.35-.3.08-.76-.1-1.4-.37-.29-.16-.59-.37-.93-.59-.32-.24-.61-.54-.94-.82a20.18 20.18 0 0 1-.84-1l-.68-1.07c-.35-.75-.63-1.38-.68-1.82l-.07-.13a4.49 4.49 0 0 0-.24-.67c-.09-.23-.18-.48-.3-.71-.24-.46-.59-.87-.98-1.23-.2-.12-.42-.24-.64-.37l16.67-7.62c.37-.22.89-.51 1.54-.85.16-.09.33-.17.51-.27.11-.06.04-.04.07-.07.01-.03.03-.06.06-.1.1-.14.29-.31.57-.51.14-.1.31-.21.49-.33.1-.06.19-.12.29-.18.09-.07.23-.11.32-.06.1.05.1.15.07.21z"/></svg>