<svg xmlns="http://www.w3.org/2000/svg" viewBox="0 0 237 237.18"><path d="M220.5 65.99l-.04-14.36v-3.59-1.35l-.03-.64c-.03-.92-.09-1.84-.26-2.75-.55-3.67-2.18-7.15-4.49-10.02-2.35-2.83-5.42-5.1-8.91-6.38-1.73-.68-3.57-1.04-5.4-1.25l-1.38-.08-.68-.02h-2.26l-14.42.04-54.94.08a19.86 19.86 0 0 0 .11-1.33c-.39 0-.77.09-.95-.05-.37-.44.93-.8.56-1.25l-.62-.03c.27-.34.61-.7.91-1.07-.09-.67-.24-1.34-.45-2.01-.23.02-.44.03-.52-.04-.17-.28.05-.66.12-1.06-.04-.06-.07-.12-.11-.18-.14-.05-.35-.06-.49-.06.02-.18.08-.34.15-.49-1.23-1.96-2.67-3.94-4.1-6.1-.57-.46-1.15-.91-1.41-1.35-.24-.65.17-1.48.24-2.11-2.2.1-3.28-1.45-5.51-1.14.05-.42.12-1.06-.5-1.09-1.87-.1-4.03-.42-5.15-1.55-.26-.44.52-1.11.15-1.27-.6-.24-1.32.57-1.92.33-.68 3.26.13 6.41.12 9.69.98 1.12 1.41 8.66.97 10.6 0 .06.02.12.03.18-.06.51-.05 1.07.07 1.62l-29.24.23-35.28.16-4.78.02h-2.41-.6c-.22 0-.36 0-.71.02-.59.02-1.19.06-1.79.1a20.45 20.45 0 0 0-12.74 6.4c-3.33 3.57-5.34 8.47-5.37 13.42l.02 10.22.09 78.49-.03 32.21v.44l.02.63.07 1.26c.1.84.21 1.67.38 2.49.21.8.38 1.61.68 2.37l.43 1.13a26.65 26.65 0 0 0 .51 1.09c1.39 2.85 3.38 5.19 5.63 6.94 2.24 1.76 4.71 2.93 7.13 3.59 1.2.35 2.41.54 3.57.65l1.69.09h1.12l4.2-.02 24.18.02c-.09.07-.16.14-.25.21-.11.15-.22.31-.33.45 0 .2.11.38.19.5a14.31 14.31 0 0 1-1.2.94l-10.93 16.02c-.63 1.39-1.27 2.78-2.07 3.91-1.31 1.57-3.46 3.04-4.94 4.35 1.74 1.39-1 5.48 1.22 6.43-.98.87-2.47 2.17-2.11 2.7 1.06 1.57 1.82 3.83.06 7.04-.81 1.13-2.88 2.01-2.96 2.61-.13.96 2.19-.26 2.06.7 7.83-6.49 14.37-13.8 21.79-20.82 1.85-3.1 18.58-19.55 23.25-23.38l.37-.39c.51-.45 1.03-.93 1.55-1.43l27.3-.52 29.65-1.32-12.58-.81 13.93.02c.28.41.58.82.89 1.23.32-.23.45-.69.86-.44 1.13.87.77 2.54 1.9 3.41a27.32 27.32 0 0 0 .55-.3c.44 1.01.84 2.1 1.3 3.19 1.35 1.61 2.73 3.17 4.16 4.69.15-.18.31-.32.5-.21.65.58 1.2 1.66 1.91 2.69l.41.37c.19.03.39-.08.52-.14.32.46.57.89.8 1.3l14.77 12.57c1.32.77 2.64 1.55 3.68 2.47 1.41 1.46 2.66 3.76 3.79 5.37 1.57-1.58 5.34 1.58 6.54-.54.76 1.07 1.89 2.69 2.46 2.38 1.66-.89 4-1.4 7.01.69 1.04.93 1.69 3.07 2.28 3.22.94.24-.03-2.21.91-1.97-5.63-8.47-12.21-15.74-18.4-23.87-1.94-1.45-9.15-10.2-14.67-17.32h0s-.07-.09-.09-.11l-2.52-3.3h1.2c.13-.08-.38-.12-1.31-.15h0c-.11-.14-.21-.28-.31-.41l6.01-.05c-.72-.19-3.22-.29-6.31-.34l-.11-.14c2.27 0 3.96-.06 4.35-.3.15-.1-2.11-.14-4.69-.17h0l-.06-.09c17.34-.3 25.41-.99 8.13-1.77l22.76.25s-.04 0-.06-.02l-12.62-.19 11.8.04a51.1 51.1 0 0 0-2.06-.32l-8.96-.18 7.84.03c-1.95-.26-4.21-.51-6.67-.74l-23.19-1.25h-.08l-22.42-.19-43.75-.3-19.83-.1-36.17-.11c-.08.29 2.09.58-1.28.72l-3.88.05h-.95-.44l-.25-.02-.49-.04-.47-.1c-1.23-.24-2.31-.9-3.17-1.72-.85-.85-1.48-1.88-1.81-3.01-.12-.28-.12-.58-.22-.86 0-.31-.11-.59-.1-.9l-.04-.51v-.97l-.04-1.96-.47-.76.68-25.48-.33-48c-.17.42-.33.61-.39-.97-.12-6.62.04-15.8.09-25.3l-.08-4.2c-.11-1.08-.27-1.36-.37-1.53l.11-11.66v-.65c0-.21.03-.4.06-.59.02-.4.13-.78.21-1.17.21-.76.57-1.49 1.02-2.16.88-1.37 2.27-2.38 3.81-2.94.4-.11.79-.24 1.2-.3.2-.06.41-.07.62-.08.24-.02.33-.06.77-.06l4.41-.09 8.84-.19 35.76-.76 74.47-1.59 32.19-1.06 5.99-.05h.76l.65.04c.45 0 .88.09 1.32.14s.86.21 1.3.31a19.08 19.08 0 0 1 1.26.47c1.64.74 3.15 1.86 4.32 3.29 1.15 1.44 1.96 3.15 2.33 4.96.06.46.15.91.18 1.37 0 .49.05.87.04 1.46l-.03 3.27-.05 6.43-.08 12.07c1.65-2.32 2.46 34.52 4.13 27.17-.04 10.07-.09 25.2.38 25.99 1.4 2.33 3.01 10.09 3.86 36.86l.03 8.62c0 .15-.02.51-.03.76l-.05.82c-.02.54-.11 1.09-.2 1.63s-.18 1.09-.33 1.62-.26 1.07-.47 1.58c-.7 2.08-1.78 3.99-3.05 5.62-2.55 3.3-5.94 5.4-8.88 6.44-2.95 1.08-5.42 1.17-6.72 1.28-1.45.11-1.34.23-.42.35.11 0 .24.03.37.04.15.02.4.02.62.03.46 0 .97.02 1.52 0a41.16 41.16 0 0 0 1.75-.17c.6-.08 1.22-.22 1.84-.34 2.48-.57 4.77-1.75 5.97-2.42 1.16-.74 1.43-.71-.35.64 1.58-1.01 3.04-2.2 4.28-3.59 1.27-1.37 2.33-2.92 3.19-4.59.88-1.65 1.45-3.46 1.88-5.29.13-.92.34-1.84.37-2.77l.07-1.4v-.94l.07-14.51.06-28.87-.06-57.44zM95.1 107.55c-.08-.12-.29-.14-.39-.21-.05-.04-.08-.09-.05-.18 0-.07.17-.26.12-.27.04-.18.21-.19.32-.11.12.08.18.26.21.27.01.03.03.03.06 0l.12-.56c.07.22.1.42.09.58 0 .08-.02.15-.04.21-.02-.02.05.08.09.13l.14.18.28.36.56.72 9.39 9.47c.05-.2.12-.35.47-.07 1.35 1.25 2.98 3.22 4.76 5.18l.86.79c.28.15.45.09.56.06l2.14 2.43 2.04 1.87 1.03.95 1.75 1.71 7.24 7.08 8.69-8.31 5.13-5.23 10.48-10.67 6.04-6.68c3.13-2.97 7.47-6.35 10.67-9.07-1.57-.82 5.61-8.16 2.97-8.08 2.13-1.81 5.33-4.53 5.19-5.03-.43-1.48.13-4.12 5.17-9.64 2.06-2.06 5.82-4.55 6.4-5.44.92-1.4-3.49 1.73-2.57.33-16.62 13.83-31.91 27.98-48.32 42.28-.86.91-2.64 2.61-5.04 4.84l-1.92 1.77-1.04.95-.54.49c-.04.04-.03.04-.05.07a9.79 9.79 0 0 1-.44.54c-.14-.1-.29-.23-.46-.37l-.07-.06-.03-.03s.03.03-.1-.1l-1.05-1.09-2.12-2.21-8.57-8.96-8.03-8.48-10.79-11.51-8.15 6.67-1.67 1.42-2.21 1.81-2.14 1.78-4.29 3.68c-2.81 2.47-5.47 4.92-7.54 7.06-1.84 2.04-3.66 4.17-5.49 6.28 1.16-.61 2.24-1.16 3.2-1.61-2.18 1.77-4.35 3.53-4.99 4.45-4.13 4.36-1.01 2.83 1.48 2.23 1.58-.68.35 1.33 2.66.06l-3.63 2.94c.14.5 4.27-3.86 3.76-2.44-1.49 1.01-2.86 2.52-4.31 3.69.9.08 5.12-3.95 5.3-3.29-.68.76-4.57 2.7-4.35 3.53.05.17 1.49-1.01 2.22-1.6-4.26 3.86-6.22 6.46-1.65 3.75-1.41 1.15-3.6 2.54-5.02 3.85h.02c.76-.59 2.13-1.53 2.82-2.09l-2.55 2.06a10.23 10.23 0 0 0 .65-.12c.69-.45 1.37-.91 2.03-1.45l-1.69 1.37c.58-.15 1.22-.36 1.89-.63 2.31-1.27 4.68-2.29 5.77-3.17l26.52-21.19z"/></svg>