<svg width="40" height="40" viewBox="0 0 40 40" xmlns="http://www.w3.org/2000/svg">
<path d="M20 0C8.99999 0 0 8.75089 0 19.5287C0 29.2736 7.31999 37.3618 16.88 38.8235V25.1807H11.8V19.5287H16.88V15.2215C16.88 10.3296 19.86 7.63997 24.44 7.63997C26.62 7.63997 28.9 8.01028 28.9 8.01028V12.8242H26.38C23.9 12.8242 23.12 14.3249 23.12 15.8646V19.5287H28.68L27.78 25.1807H23.12V38.8235C27.8329 38.0982 32.1244 35.7549 35.2198 32.2166C38.3153 28.6784 40.0106 24.1783 39.9999 19.5287C39.9999 8.75089 31 0 20 0Z" />
</svg>
