<svg width="40" height="40" viewBox="0 0 40 40" xmlns="http://www.w3.org/2000/svg">
  <g clip-path="url(#clip0_1060_19665)">
    <mask id="mask0_1060_19665" style="mask-type:luminance" maskUnits="userSpaceOnUse" x="0" y="0" width="41" height="40">
      <path fill="white" d="M40.0898 0H0.0898438V40H40.0898V0Z" />
    </mask>
    <g mask="url(#mask0_1060_19665)">
      <path d="M23.2956 19.6658L18.8036 17.5698C18.4116 17.3878 18.0896 17.5918 18.0896 18.0258V21.9738C18.0896 22.4078 18.4116 22.6118 18.8036 22.4298L23.2936 20.3338C23.6876 20.1498 23.6876 19.8498 23.2956 19.6658ZM20.0896 0.799805C9.48565 0.799805 0.889648 9.39581 0.889648 19.9998C0.889648 30.6038 9.48565 39.1998 20.0896 39.1998C30.6936 39.1998 39.2896 30.6038 39.2896 19.9998C39.2896 9.39581 30.6936 0.799805 20.0896 0.799805ZM20.0896 27.7998C10.2616 27.7998 10.0896 26.9138 10.0896 19.9998C10.0896 13.0858 10.2616 12.1998 20.0896 12.1998C29.9176 12.1998 30.0896 13.0858 30.0896 19.9998C30.0896 26.9138 29.9176 27.7998 20.0896 27.7998Z"/>
    </g>
  </g>
  <defs>
    <clipPath id="clip0_1060_19665">
      <rect width="40" height="40" />
    </clipPath>
  </defs>
</svg>
