<svg xmlns="http://www.w3.org/2000/svg" xmlns:xlink="http://www.w3.org/1999/xlink" viewBox="0 0 237 237.18" >
<g ><use xlink:href="#B"/>
<use xlink:href="#C"/><use xlink:href="#D"/>
<path d="M89.76 119.36c0-.15-.09-.29.06-.37.45-.14.82.36 1.27.21 0-.08.02-.16.03-.24l1.09.35 2.05-.17c-.02-.08-.02-.16.05-.2.28-.06.68.02 1.08.05.06-.02.12-.03.18-.05.05-.05.06-.14.07-.19.18.01.34.03.5.06l6.23-1.57c.46-.22.93-.44 1.37-.54.66-.09 1.51.07 2.16.1-.1-.85 1.48-1.26 1.17-2.11.43.02 1.08.05 1.11-.2.1-.72.43-1.54 1.58-1.97.45-.1 1.14.2 1.3.06.25-.23-.58-.51-.33-.74-3.33-.26-6.54.05-9.9.05-1.14.38-8.85.54-10.83.38h-.18c-1.08-.05-2.39.02-3.3.34-.42.2-.85.44-1.27.67a6.35 6.35 0 0 1 .54.42c-.43-.02-.86-.03-1.03.12-.92.36-.4.78-.05 1.36.25.25-.09.64.3.9l-.72-.03c-.03.24.88-.12.69.27-.28-.09-.59.06-.88.05.1.32 1 .12.95.44-.15.07-.81-.43-.86-.04-.01.08.28.1.42.1-.88.12-1.37.5-.57.94-.28-.01-.68-.18-.97-.12h0c.15.02.41.1.54.11-.17 0-.34-.02-.51-.02.03.06.06.11.09.17a1.24 1.24 0 0 0 .38.09c-.11 0-.23 0-.34-.01a2.48 2.48 0 0 0 .29.37c.4.26.78.63 1 .64 1.74.19 3.49.32 5.23.35m45.16-3.45c-.01-.15-.12-.29.02-.37.43-.19.85.26 1.28.07l.01-.24 1.12.22 2.02-.41c-.03-.08-.05-.16.02-.2.28-.1.68-.06 1.08-.08l.17-.06c.04-.06.05-.15.05-.2.19-.01.35 0 .5 0l6.02-2.27c.44-.27.87-.55 1.31-.69.65-.17 1.5-.11 2.15-.16-.19-.83 1.34-1.42.94-2.23.43-.03 1.08-.08 1.08-.32.02-.73.26-1.58 1.36-2.15.44-.15 1.16.07 1.3-.09.22-.26-.63-.43-.41-.69-3.34.12-6.49.79-9.83 1.17-1.1.5-8.73 1.54-10.72 1.6l-.18.03c-1.08.08-2.37.29-3.25.71-.39.25-.79.54-1.19.82.21.12.41.24.58.36-.43.03-.86.06-1.01.23-.87.46-.32.82.1 1.36.28.22-.02.64.41.85l-.72.05c0 .24.87-.22.71.19-.28-.06-.57.12-.86.14.14.31 1 .01.99.33-.15.09-.85-.34-.86.06 0 .08.29.06.43.05-.87.22-1.31.65-.46.99-.28.02-.69-.1-.98-.01h0c.15 0 .42.05.55.05l-.51.03c.03.05.07.11.11.16.13.03.26.06.39.05-.11 0-.22.01-.33.02.1.12.2.23.32.34.42.21.85.54 1.06.52 1.75-.01 3.51-.08 5.24-.25"/><use xlink:href="#E"/>
<use xlink:href="#F"/><use xlink:href="#G"/><use xlink:href="#H"/>
<path d="M144.26 67.55c-.13.25 1.05.95-.96.41l-8.84-2.73c-2.9-.84-5.89-1.53-9.22-1.74l-.52.41c-5.09-.7-10.35-.97-15.55-1.03l-.9.03-.46.02-.54.04c-.71.06-1.45.09-2.12.19-1.39.16-2.73.41-4.04.68-2.62.56-5.1 1.32-7.53 2.2-4.86 1.77-9.47 4.04-13.91 7.07.32-.02.51.03-.34.7-.9.64-1.89 1.42-2.94 2.28-.52.46-1.07.91-1.62 1.43-.54.53-1.14 1.09-1.63 1.65-2.07 2.25-3.91 4.69-5.61 7.26-.48.77-.92 1.56-1.37 2.33-.28.65-.23.88-.2 1.03-1.41 2.36-2.59 4.47-3.62 6.5a69.34 69.34 0 0 0-2.16 5.28 51.36 51.36 0 0 0-.95 2.81c-.29.98-.59 2.03-.76 2.9l-.61 2.74c-.21.91-.35 1.86-.52 2.78-.37 1.85-.56 3.78-.8 5.67-.35 3.85-.43 7.78-.09 11.73.37 3.95 1.21 7.88 2.43 11.65.33.94.6 1.89.99 2.8l1.13 2.73c.85 1.76 1.68 3.54 2.67 5.21 1.91 3.38 4.06 6.58 6.38 9.6 1.14 1.54 2.35 2.98 3.54 4.46.6.74 1.25 1.45 1.87 2.18l.94 1.09.99 1.07c.67.7 1.31 1.43 2.02 2.12l2.11 2.06 2.25 1.96c.76.64 1.58 1.23 2.37 1.85a46.68 46.68 0 0 0 8.9 4.78c3.08 1.26 6.19 2.08 9.22 2.83 4.5 1.12 9.55 2.09 14.65 2.93 5.18.81 10.32 1.06 14.79 1.07-.69-.81 4.38-1.41 8.96-2.47 4.6-1.02 8.62-2.47 6.42-2.9 2.82-.46 6.31-1.26 8.96-2.31.65-.28 1.28-.53 1.82-.79l1.37-.79c.39-.21.69-.47.9-.66s.33-.33.35-.4c.18-.93.93-2.24 2.7-4.73 1.75-2.5 4.65-6.24 8.16-12.61 1.42-2.45 3.13-5.59 4.22-8.34.29-.69.47-1.34.7-1.96.12-.32.19-.6.25-.87l.2-.79c.15-.51.17-.91.21-1.26.03-.34.06-.63.05-.82-.04-.88-.16-.81-.31-.28l-.06.22c-.02.07-.05.12-.07.19a6.15 6.15 0 0 0-.15.41c-.11.3-.19.62-.31.96-.31.73-.54 1.43-.8 1.81-.24.38-.37.4-.25-.29-.64 2.16-1.65 4.44-2.78 6.66-1.13 2.24-2.54 4.39-3.98 6.47-1.46 2.09-3.08 4.01-4.74 5.83-1.69 1.77-3.47 3.35-5.24 4.59l-1.31.85c-.42.2-.83.42-1.24.64-.46.21-1 .41-1.5.61-.5.21-1.08.37-1.62.56a52.18 52.18 0 0 1-7.14 1.65c-4.99.81-10.23 1.18-15.43 1.17-2.6 0-5.21-.08-7.77-.3-.65-.04-1.28-.11-1.9-.17-.64-.07-1.27-.13-1.88-.22-1.19-.15-2.56-.39-3.88-.61a138.08 138.08 0 0 1-7.8-1.52c-2.49-.63-4.96-1.25-7.21-2.12-2.27-.86-4.41-1.83-6.38-3.09l-.76-.45-.73-.51c-.48-.36-.97-.67-1.45-1.04-.93-.77-1.89-1.5-2.78-2.38-1.84-1.65-3.58-3.61-5.32-5.61l-2.54-3.16-2.47-3.3c-1.12-1.45-3.09-3.98-5.14-7.49-.54-.87-1-1.83-1.55-2.81-.52-.99-.97-2.06-1.5-3.16l-.67-1.72-.35-.88c-.11-.3-.2-.61-.3-.91l-.6-1.88-.48-1.97c-.57-2.68-1.03-5.55-1.03-8.65a56.04 56.04 0 0 1 .81-9.77c.14-.85.34-1.71.51-2.58l.26-1.31.33-1.31.33-1.32c.11-.42.22-.92.33-1.27.21-.74.49-1.54.78-2.34 1.22-3.25 2.87-6.64 4.7-9.88 1.84-3.22 3.92-6.42 6.09-8.91.26-.29.54-.64.79-.88.27-.25.49-.52.8-.78l.88-.77.96-.75c1.33-.98 2.74-1.93 4.25-2.76 2.99-1.7 6.2-3.05 9.34-4.11 3.14-1.01 6.31-1.74 9.03-1.9l.51-.03.61-.02 1.23-.04 2.42-.05c1.59-.02 3.13-.02 4.6.02 2.96.07 5.69.26 8.17.59 2.49.32 4.73.76 6.74 1.23 2.01.51 3.78 1 5.27 1.5a46.07 46.07 0 0 1 2.19.69c.82.27 1.65.57 2.49.88l2.5.95a51.62 51.62 0 0 1 4.76 2.14c3.04 1.57 5.66 3.41 7.68 5.7 4.16 4.64 6.71 11.47 8.32 17.11.83 2.57 1.45 5.25 2.01 7.97.23 1.36.51 2.74.66 4.12.08.69.2 1.39.25 2.09l.19 2.1c.11-1.31.25-2.57.29-3.77l.1-1.76.04-1.65c.16 1.43.2 2.87.27 4.26.04 1.39.05 2.72.05 3.94-.04 1.22-.02 2.33-.06 3.27s-.05 1.72-.02 2.28l-.17 3.77c-.07.98-.1 1.71-.09 2.23.03 1.04.16 1.21.46.85.26-.36.63-1.26 1.04-2.36.43-1.1.78-2.43 1.21-3.62.38-1.74.64-1.41.94-1.32.27.08.63-.07 1.01-2.88-.02 1.02-.13 1.9-.19 2.73s-.12 1.59-.23 2.35l-.29 2.34-.45 2.71c.17.28.67-2.84.93-5.69.12-1.42.2-2.77.32-3.58.08-.82.17-1.1.34-.38-.37 3.93-.65 8.37-1.53 12.39.44-.63 1.22-4.12 1.61-7.43l.16-1.22.11-1.17.21-1.99c.11-1.14.21-1.83.36-1.66.02.56-.04 1.58-.2 2.78l-.24 1.93-.33 2.02c-.2 1.35-.47 2.65-.62 3.66-.13 1.02-.21 1.76-.07 1.99.06.1.31-.87.52-2.14l.35-2.01.23-1.84c-.61 6.39-1.74 11.27-1.99 13.2-.13.96-.02 1.2.38.5.2-.36.49-.94.82-1.8.3-.86.72-1.99 1.14-3.43-.21 1.01-.55 2.11-.86 3.27-.33 1.16-.76 2.34-1.14 3.55l-1.3 3.54-1.3 3.26c.01 0 .02-.02.03-.02l1.57-3.74c.52-1.37 1.06-2.73 1.33-3.7-.74 2.38-1.61 4.72-2.57 7.02a27.36 27.36 0 0 0 .77-1.09c.39-.85.78-1.7 1.1-2.59.33-.89.7-1.78.97-2.72-.23.8-.54 1.57-.81 2.36-.28.78-.55 1.57-.87 2.34.7-1.06 1.35-2.36 2.08-3.78 2.31-5.53 4.01-11.15 4.45-14.41.48-3.29.73-6.6.84-9.93.04-3.33-.01-6.67-.36-10-.33-3.32-.82-6.64-1.57-9.92-.73-3.28-1.64-6.5-2.85-9.73-1.21-3.22-2.72-6.44-4.69-9.52-.99-1.53-2.11-3.03-3.36-4.45s-2.63-2.74-4.06-3.9c-2.87-2.34-5.95-4.11-8.97-5.55-1.51-.72-3.02-1.35-4.5-1.94-1.49-.58-2.93-1.1-4.42-1.62m-46.67 79.76c.04-.14-.27-.37.28-.31.86.15 1.62.33 2.39.55.71.19 1.39.37 2.19.39l.14-.23 3.76.77 7.25.29c-.06-.08-.08-.17.15-.19l3.85.06.64-.06c.16-.06.2-.14.23-.2l1.78-.02 5.32-.87c1.83-.37 3.67-.91 5.43-1.58 3.53-1.34 6.87-3.16 10.13-5.33 1.33-1.01 2.61-2.07 3.86-3.04 1.89-1.41 4.3-3.05 6.12-4.42-.39-.24.46-1.27 1.18-2.29.73-1.01 1.32-1.98.65-1.94 1.12-.95 2.64-2.54 2.52-2.8-.15-.37-.17-.88.02-1.7.21-.81.63-1.92 1.12-3.45.12-.29.23-.62.36-.95.15-.33.25-.68.35-1 .12-.32.18-.63.22-.89.05-.25.07-.46.05-.56-.03-.23-.1-.21-.16-.08-.07.13-.17.29-.26.48-.17.36-.34.7-.41.37-.8 4.12-4.59 7.69-8.89 11.06l-3.32 2.56c-1.08.81-2.16 1.59-3.28 2.33-2.24 1.47-4.6 2.8-7.05 3.9-.79.45-2.82 1.45-5.55 2.28l-1.05.3c-.36.09-.73.17-1.11.26l-1.16.22c-.4.07-.85.12-1.28.19-1.75.24-3.61.41-5.51.48-3.79.17-7.71 0-11.1-.33-1.69-.16-3.25-.34-4.59-.52l-1.82-.26-1.29-.25-.53-.11c-1.59-.38-3.33-.95-4.99-1.64-1.66-.68-3.23-1.48-4.54-2.15a44.58 44.58 0 0 1-3.71-1.88l1.17 1.43c-1.14-.87-2.24-1.8-2.74-2.06-1.28-.86-1.63-.99-1.63-.67s.39 1 .68 1.61c.51.77-.64.29.26 1.39-.76-.66-1.14-.99-1.87-1.69-.26.12 2.4 1.97 1.64 1.8-.69-.7-1.6-1.31-2.33-2.02.03.5 2.54 2.45 2.25 2.57-.49-.28-1.89-2.21-2.28-2.06-.07.03.65.74 1.05 1.08-1.22-.99-2.18-1.76-2.62-1.98-.44-.21-.38.14.52 1.32-.73-.71-1.62-1.85-2.39-2.6h0c.36.41.94 1.14 1.28 1.49-.43-.43-.83-.88-1.25-1.33.03.11.06.23.1.35.29.36.57.73.9 1.07l-.83-.89c.12.31.28.65.46 1.01.85 1.22 1.64 2.46 2.24 3 2.34 2.21 4.92 4.25 7.76 5.93 1.43.84 2.9 1.62 4.45 2.24.76.34 1.57.6 2.35.88.81.24 1.61.5 2.43.67"/>
<use xlink:href="#B"/><use xlink:href="#C"/><use xlink:href="#D"/><use xlink:href="#E"/><use xlink:href="#F"/>
<use xlink:href="#G"/><use xlink:href="#H"/></g><defs >
<path id="B" d="M92.16 13.77c.27 0 .55-.11.67.07.26.56-.66 1-.41 1.56l.44.05-.66 1.32.26 2.52c.16-.02.31-.02.37.06.11.36-.06.83-.12 1.32l.07.23c.09.06.24.08.34.1a2.53 2.53 0 0 1-.13.6l2.45 7.86c.36.61.72 1.23.86 1.8.1.85-.29 1.87-.41 2.67 1.57.03 2.12 2.1 3.73 1.88-.08.55-.23 1.36.2 1.45 1.3.28 2.77.88 3.39 2.46.11.6-.55 1.41-.3 1.66.38.38 1.01-.63 1.39-.25 1.01-4.27.85-8.51 1.15-12.88-.29-.77-.35-3.66-.37-6.68 0-3.02.02-6.16.19-7.46l-.02-.23c.1-1.4-.04-3.12-.65-4.29-.38-.54-.83-1.08-1.28-1.62-.25.26-.5.5-.75.72.02-.56.05-1.12-.24-1.32-.7-1.16-1.46-.47-2.51.01-.46.33-1.18-.08-1.64.43l.03-.91c-.45-.03.25 1.11-.47.88.16-.36-.12-.73-.11-1.09-.59.14-.19 1.25-.78 1.21-.14-.19.77-1.03.04-1.08-.15 0-.16.36-.17.54-.26-1.1-.97-1.68-1.75-.65.01-.35.31-.85.2-1.21h-.01c-.02.19-.16.51-.17.68l.02-.63c-.1.03-.2.08-.3.12-.08.16-.15.32-.16.48v-.41a6.38 6.38 0 0 0-.67.38c-.46.51-1.14 1-1.14 1.26-.3 2.14-.51 4.28-.57 6.4"/>
<path id="C" d="M173.36 56.51c-.17-.22-.45-.35-.38-.59.32-.63 1.3-.22 1.61-.84l-.24-.38 1.58-.46 2.05-2.05c-.12-.12-.21-.24-.17-.34.24-.34.77-.55 1.25-.86l.16-.21c0-.12-.08-.26-.13-.34.21-.14.43-.24.63-.33l5.71-7.51c.36-.71.73-1.43 1.19-1.93.74-.65 1.94-1 2.78-1.43-.88-1.34.79-3.17-.34-4.39.57-.29 1.45-.68 1.3-1.12-.47-1.28-.73-2.95.51-4.49.54-.48 1.72-.43 1.83-.79.16-.57-1.2-.47-1.04-1.04-2.44.91-4.68 2.15-6.87 3.48l-6.5 4.23c-.56.79-3.3 2.91-6.11 5.18l-6.97 5.58-.2.2c-1.33 1.04-2.77 2.52-3.4 3.95l-.57 2.32c.39-.02.77-.02 1.12 0-.5.43-1 .87-.99 1.26-.53 1.5.58 1.51 1.68 1.93.59.08.72.97 1.47.92l-.79.71c.27.36.77-1.1 1.06-.34-.41.16-.54.69-.85.97.52.34 1.18-.87 1.55-.38-.07.25-1.39.24-.94.84.09.12.4-.16.56-.3-.76 1.09-.76 2.1.62 1.87-.3.27-.92.45-1.15.82h.01c.17-.12.54-.28.68-.41l-.54.48.3.14c.19-.06.37-.14.51-.26l-.36.32c.25.09.51.16.77.22.73-.06 1.59.08 1.81-.12l5.8-4.5"/>
<path id="D" d="M204.69 116.84c0-.28-.09-.57.06-.7.45-.26.82.68 1.27.41 0-.15.02-.3.03-.46l1.09.66c.69-.07 1.37-.17 2.05-.33-.02-.17-.02-.32.05-.38.28-.12.68.04 1.08.08.06-.02.12-.05.18-.08.05-.1.06-.26.07-.36.18.01.34.06.5.11l6.23-3.01c.46-.42.93-.84 1.37-1.03.66-.17 1.51.12 2.16.17-.1-1.62 1.48-2.41 1.17-4.04.43.03 1.08.08 1.11-.37.1-1.37.43-2.95 1.58-3.78.45-.2 1.14.38 1.3.11.25-.44-.58-.97-.33-1.41-3.33-.5-6.54.1-9.9.08-1.14.72-8.85 1.03-10.83.72-.06 0-.12.01-.18.02-1.08-.08-2.39.04-3.3.65-.42.38-.85.84-1.27 1.29.2.26.38.53.54.79-.43-.04-.86-.07-1.03.22-.92.69-.4 1.5-.05 2.6.25.48-.09 1.22.3 1.71l-.72-.06c-.03.46.88-.24.69.51-.28-.17-.59.11-.88.08.1.62 1 .23.95.85-.15.14-.81-.83-.86-.07-.01.15.28.17.42.19-.88.24-1.37.96-.57 1.79-.28-.02-.68-.34-.97-.24h0c.15.03.41.19.54.2-.17-.01-.34-.03-.51-.04l.09.32c.12.1.25.17.38.18-.11 0-.23-.02-.34-.02.08.25.18.48.29.71.4.49.78 1.21 1 1.23 1.74.37 3.49.62 5.23.67"/><path id="E" d="M171.29 199.56c.18-.21.26-.52.5-.47.69.25.46 1.36 1.13 1.63l.34-.3.73 1.64 2.33 2.05c.1-.13.2-.25.32-.21.37.25.66.8 1.02 1.3l.23.16c.12 0 .24-.1.32-.15.17.23.29.46.4.67 2.58 1.82 5.25 3.81 7.89 6.36.71.45 1.43.9 1.95 1.45.66.88 1.01 2.28 1.43 3.26 1.33-.87 3.1 1.26 4.33.11.29.69.64 1.78 1.07 1.66 1.27-.35 2.94-.42 4.39 1.31.45.73.33 2.12.67 2.32.55.3.54-1.33 1.09-1.03-.73-3.09-1.93-5.97-3.27-8.75-1.41-2.75-2.98-5.4-4.64-8.06-.41-.37-1.27-1.35-2.3-2.69l-3.79-4.55c-1.4-1.61-2.87-3.21-4.18-4.55-.64-.69-1.26-1.28-1.78-1.81-.52-.52-.94-.98-1.25-1.31l-.26-.2c-.72-.68-1.54-1.42-2.41-2.02-.88-.59-1.78-1.08-2.61-1.34-.83-.15-1.71-.22-2.56-.3a12.04 12.04 0 0 1 .34 1.22c-.6-.47-1.19-.96-1.59-.88-1.71-.31-1.36.88-1.45 2.12.1.64-.77.92-.5 1.72-.36-.3-.56-.43-.95-.72-.28.34 1.34.61.66 1.06-.27-.42-.85-.45-1.23-.73-.19.61 1.23 1.09.83 1.57-.26-.04-.64-1.43-1.11-.84-.1.12.28.39.46.53-1.32-.59-2.32-.39-1.68 1.01-.36-.26-.71-.87-1.15-1.04h0c.18.16.43.52.61.64l-.64-.47c-.02.11-.03.23-.05.34.12.19.24.36.41.48l-.42-.31a6.03 6.03 0 0 0 .01.85c.26.76.36 1.67.62 1.87l5.76 5.39"/>
<path id="F" d="M89.71 205.02c.22.16.5.24.52.45-.06.55-1.02.33-1.08.88l.34.29-1.17.58a16.48 16.48 0 0 0-.95 1.99c.14.08.26.16.28.25-.07.32-.43.57-.71.91a1.17 1.17 0 0 1-.05.2c.06.1.17.2.25.26-.12.15-.25.27-.38.38l-1.3 7.2c.06.65.11 1.3 0 1.8-.26.69-.99 1.26-1.42 1.8 1.34.83 1.03 2.68 2.51 3.33-.28.36-.71.9-.37 1.19 1.03.87 2.08 2.07 2.06 3.55-.11.51-.97.78-.85 1.08.2.47 1.11.04 1.31.51 2.36-2.65 3.79-5.82 5.78-8.76.11-1.41 4.41-8.37 5.83-9.93.03-.06.06-.11.09-.17.7-.9 1.39-2.12 1.44-3.28-.05-.59-.17-1.23-.27-1.85a10.18 10.18 0 0 1-.95.02c.28-.36.56-.72.43-1.03 0-1.21-.95-1.21-2.03-1.53-.54-.05-.91-.78-1.54-.7l.47-.6c-.34-.29-.34.92-.82.31.3-.14.26-.57.45-.81-.55-.27-.77.74-1.23.36-.02-.22 1.14-.24.57-.72-.12-.1-.3.14-.4.26.34-.91.05-1.75-1.08-1.52.19-.23.67-.39.77-.72q0 0-.01 0c-.11.11-.38.25-.47.37l.33-.42c-.1-.04-.2-.07-.3-.11-.15.06-.28.13-.37.24l.22-.28a4.73 4.73 0 0 0-.73-.15c-.62.07-1.42 0-1.56.17-1.31 1.32-2.55 2.72-3.62 4.22"/>
<path id="G" d="M40.36 155.48c-.02.28.1.57-.1.69-.63.24-1.08-.73-1.7-.49l-.07.46-1.44-.73c-.94.02-1.87.08-2.79.2.02.17.02.32-.07.38-.39.11-.91-.08-1.46-.15l-.25.07c-.07.1-.09.25-.1.36-.25-.03-.47-.08-.67-.14l-8.54 2.61c-.64.39-1.29.78-1.9.95-.9.14-2.03-.22-2.91-.31.07 1.62-2.1 2.31-1.75 3.97-.58-.06-1.45-.16-1.52.3-.2 1.36-.71 2.92-2.29 3.67-.61.16-1.52-.46-1.75-.19-.36.42.74 1 .39 1.43 4.48.7 8.84.31 13.37.53 1.57-.64 12-.47 14.66-.03.08 0 .16 0 .24-.01 1.45.16 3.23.12 4.49-.44.58-.36 1.18-.79 1.77-1.21a12.11 12.11 0 0 1-.69-.83c.58.07 1.17.13 1.4-.15 1.27-.64.6-1.48.17-2.6-.32-.5.17-1.21-.34-1.73l.97.11c.07-.46-1.21.17-.9-.56.37.19.79-.07 1.18-.03-.11-.63-1.34-.3-1.25-.9.21-.14 1.05.88 1.17.12.02-.15-.37-.19-.56-.21 1.21-.18 1.9-.87.84-1.76.38.05.9.39 1.31.3h0c-.2-.05-.54-.22-.72-.24a15.66 15.66 0 0 0 .68.07c-.03-.11-.06-.21-.1-.32-.17-.1-.34-.19-.51-.2.15.02.3.03.45.05-.1-.25-.22-.5-.35-.73-.52-.52-1-1.26-1.29-1.3-2.34-.47-4.69-.83-7.04-.99"/>
<path id="H" d="M45.27 68.6c-.23.16-.35.46-.59.34-.66-.48-.32-1.56-1-2.03l-.38.23-.65-1.92-2.5-2.56c-.1.14-.2.25-.32.2-.41-.29-.73-.92-1.15-1.48l-.26-.18c-.12 0-.25.1-.33.16-.2-.25-.36-.48-.5-.72-2.94-1.94-6.07-3.64-9.45-5.3-.85-.19-1.68-.37-2.36-.71-.93-.58-1.84-1.68-2.63-2.4-.83 1.37-3.3.46-3.82 2.09-.51-.45-1.32-1.08-1.61-.74-.89 1.04-2.17 2.01-4.03 1.72-.66-.21-1.21-1.28-1.56-1.18-.54.16.23 1.3-.32 1.47 1.93 1.56 3.88 2.98 5.84 4.41 1.93 1.46 3.88 2.94 5.69 4.67.44.15 1.27.78 2.33 1.65 1.04.9 2.29 2.06 3.49 3.33 2.42 2.52 4.62 5.47 5.38 6.77l.17.21c.43.7.97 1.43 1.53 2.1.55.68 1.17 1.28 1.79 1.7.64.34 1.36.64 2.07.97.06-.4.12-.79.21-1.14.33.59.65 1.18 1.03 1.26 1.28.9 1.55-.23 2.17-1.3.19-.61 1.09-.52 1.15-1.33.23.41.33.63.55 1.05.41-.19-.92-1.14-.15-1.25.1.48.57.79.79 1.21.43-.47-.63-1.56-.1-1.81.26.15-.01 1.59.66 1.28.14-.06-.08-.5-.19-.71.92 1.16 1.94 1.52 1.95-.1.22.43.29 1.17.63 1.56h0c-.1-.24-.19-.7-.29-.91l.39.77c.07-.09.13-.19.19-.29-.03-.24-.07-.46-.17-.66l.26.51a5.46 5.46 0 0 0 .35-.78c.07-.85.34-1.79.16-2.13-1.25-2.8-2.69-5.53-4.43-8.03"/></defs>
</svg>