<svg width="367" height="347" viewBox="0 0 367 347" fill="none" xmlns="http://www.w3.org/2000/svg">
<g clip-path="url(#clip0_1148_20319)">
<path d="M1.21072 205.91L32.5966 222.212C31.6738 246.648 33.1895 269.899 36.1775 289.818C39.596 312.606 45.3189 333.632 53.2251 346.821L80.4955 334.634C80.9252 336.753 81.4047 338.826 81.9364 340.849L127.113 333.99L127.113 333.992C127.113 333.98 127.11 333.882 127.113 333.684C127.116 333.457 127.127 333.14 127.151 332.723C127.2 331.88 127.297 330.77 127.461 329.367C127.669 327.588 127.967 325.492 128.364 323.082L160.415 314.798L190.758 330.87C203.029 307.703 211.578 287.863 218.068 270.884C218.577 272.182 219.104 273.467 219.648 274.738C233.083 306.132 256.399 328.327 274.58 339.629L300.26 301.559C296.859 299.076 294.066 295.518 292.221 290.187L310.863 287.325C308.698 273.219 309.275 251.113 317.435 232.022C325.068 214.164 339.182 198.779 366.703 193.802L358.525 148.582C347.689 150.542 337.966 153.624 329.27 157.596C333.206 150.541 337.08 144.049 340.699 138.346L309.045 116.375C310.464 113.224 311.946 110.269 313.478 107.552C317.914 99.6788 321.995 95.1791 324.949 93.0924L301.12 53.9252C300.197 54.4038 299.278 54.8898 298.364 55.3829L299.102 35.6167L263.708 15.4363C258.016 19.0988 252.497 23.2717 247.154 27.8659L219.368 0C208.04 9.68505 197.348 22.7342 187.372 37.6625L168.212 14.792C150.086 25.1136 134.528 38.4282 121.199 53.6781L108.612 42.2217C96.8413 51.5626 86.7607 62.2527 78.1587 73.8745L61.2663 59.3395L0 130.543L23.3642 150.646L1.21072 205.91Z" fill="white"/>
</g>
<defs>
<clipPath id="clip0_1148_20319">
<rect width="366.703" height="346.821" fill="white"/>
</clipPath>
</defs>
</svg>
