<svg xmlns="http://www.w3.org/2000/svg" width="374" height="333" fill="none" ><g clip-path="url(#A)"><path fill-rule="evenodd" d="M13.367 217.801l40.649 22.463 7.151-9.839a227.66 227.66 0 0 0 3.173 14.722l-1.684 2.317-50.084-27.677.796-1.986zm76.774 80.48a165.93 165.93 0 0 0 4.936 8.855l9.974-4.458a160.46 160.46 0 0 1-1.952-10.188l-12.958 5.791zm22.904 8.599a154.63 154.63 0 0 0 1.921 8.22l34.336-5.213a221.68 221.68 0 0 1-1.885-8.226l-34.372 5.219zm46.86 17.548a224.13 224.13 0 0 0 2.691 8.737l55.707-14.398c-1.046-5.532-1.413-13.069-.868-22.129l52.31-5.538 3.197-19.043-5.325.264c-.373-7.494-.192-15.771.492-24.515-3.023 11.314-4.994 23.187-7.004 36.094l-52.31 5.538c-.545 9.06-.178 16.597.868 22.129l-49.758 12.861zm116.162-52.527c.004 2.617.067 5.161.189 7.62l57.592-2.861c-.858-17.273 2.858-45.173 11.129-71.828 4.07-13.116 8.974-25.037 14.369-34.61 5.568-9.88 10.688-15.526 14.394-18.145l-29.9-49.147-3.23 1.691 24.491 40.257c-3.707 2.618-8.827 8.264-14.394 18.144-5.395 9.573-10.3 21.494-14.37 34.61-8.271 26.655-11.986 54.555-11.128 71.828l-49.142 2.441zm51.297-172.005l-29.557-41.414-2.391 1.556 27.21 38.126c-2.626 2.071-6.405 5.73-10.865 10.72 4.969-3.027 10.167-6.023 15.603-8.987zm-64.433-29.473l-5.807-5.824c2.729-3.509 5.352-6.77 7.837-9.759l-36.434-43.49-1.762 1.01 29.557 35.28a381.86 381.86 0 0 0-7.838 9.759l13.647 13.685.8-.661zm-89.034-35.077l-15.949-15.286-.616.49 15.953 15.292.612-.495zM102.53 48.431l-14.6-12.563-.116.134 14.207 12.225.509.204z" fill="#fff200"/></g><defs><clipPath id="A"><path fill="#fff" d="M0 0h374v333H0z"/></clipPath></defs></svg>