<svg width="365" height="346" viewBox="0 0 365 346" fill="none" xmlns="http://www.w3.org/2000/svg">
<g clip-path="url(#clip0_1149_20322)">
<path fill-rule="evenodd" clip-rule="evenodd" d="M50.0157 247.264L-0.068563 219.587L27.7298 150.24L-1.58779 125.014L75.2896 35.6682L98.0209 55.2271L105.508 58.2285C116.623 45.0237 129.804 32.1624 145.309 19.858L169.285 42.8399C182.997 31.6983 198.468 21.0684 215.887 11.1493L252.321 54.6393C249.836 57.6276 247.213 60.8889 244.484 64.3979L258.13 78.0833C266.581 71.0784 275.586 64.4467 285.167 58.2813L318.626 105.163C316 107.234 312.221 110.892 307.761 115.883C315.069 111.431 322.871 107.046 331.2 102.73L361.1 151.877C357.394 154.496 352.274 160.142 346.707 170.021C341.312 179.595 336.407 191.516 332.337 204.632C324.066 231.287 320.35 259.187 321.209 276.46L263.616 279.321C263.244 271.827 263.424 263.55 264.109 254.806C261.086 266.12 259.114 277.993 257.105 290.9L204.795 296.438C204.25 305.498 204.617 313.035 205.663 318.567L149.956 332.965C147.258 324.796 145.095 316.689 143.417 308.661L102.326 314.9C100.989 309.814 99.9204 304.673 99.0992 299.49L82.4369 306.936C72.201 289.86 62.2899 265.709 57.1663 237.425L50.0157 247.264Z" fill="white"/>
</g>
<defs>
<clipPath id="clip0_1149_20322">
<rect width="365" height="346" fill="white"/>
</clipPath>
</defs>
</svg>
