<svg xmlns="http://www.w3.org/2000/svg" viewBox="0 0 237 237.18"><path d="M73.92 216.49c-.26.22 1.82 1.38-1.72.11l-1.63-.62-.55-.21s-.08-.03-.11-.05c-.16-.07-.21-.25-.18-.41l1.19-6.52 1.32-6.92.65-3.47.32-1.75.6-3.6c.23-1.35.2-2.68-.06-3.87a8.59 8.59 0 0 0-.62-1.83c-.3-.59-.57-1.12-1.04-1.6l-1.37-1.44c-.47-.48-1.12-.86-1.67-1.3l-1.58-1.18-.81-.61-1.06-.23-5.01-4.75-2.4-2.62-1.18-1.38-.89-1.07-1.22-1.52c-.46-.64-1.04-1.03-1.57-1.53l-.81-.72a6.6 6.6 0 0 0-.9-.52c-.63-.32-1.36-.57-2.03-.7-.67-.14-1.39-.19-2.14-.18s-1.53.15-2.32.29l-2.37.41-2.53.41-9.93 1.62-8.18 1.54-1.02.19c-.12.02-.05 0-.08.01h0s-.02-.06.01.17l.1.81.05.76.01.67v.55l-.1.88c-.07.42-.18.63-.18.63.01-.02.02-.04.03-.05 0 0 .06-.09.09-.12l.15-.18c.07-.08.12-.12.22-.22.19-.19.39-.34.7-.58l1.04-.68c.4-.24.95-.55 1.39-.74v-.02s-.01 0-.05-.09l-.37-.85-5.92-13.57-1.48-3.39-.45-1.03s-.03-.06-.02-.1c0-.03.02-.06.04-.09l.03-.04h0l.15-.12.37-.27 2.95-2.17 11.8-8.72c-.26.08-.46.12-.41 0 .01-.03.04-.07.09-.13l.09-.09.06-.06s.09-.08.14-.12l1.82-1.4.6-.44a10.74 10.74 0 0 0 1.75-1.6 8.54 8.54 0 0 0 1.29-1.91c.35-.74.58-1.52.68-2.3l.04-2.54-.39-2.74-.2-1.69-.24-2.86a80.22 80.22 0 0 1-.14-6.07l.12-3.17.11-1.61.12-1.42.17-1.67c.11-.74 0-1.4-.05-2.08l-.08-1.02c-.03-.34-.13-.64-.23-.96-.2-.64-.53-1.29-.9-1.83s-.8-1.05-1.31-1.54-1.1-.93-1.72-1.35l-1.84-1.27-1.99-1.38-4.35-2.88c-1.18-.68-1.58-.75-1.84-.8l-6.27-4.36-1.47-1.03-.72-.5-.14-.12c-.15-.13-.24-.33-.2-.52 0-.08.02-.16.04-.24v-.03s.02-.02.04-.09l.12-.31.24-.62.94-2.5 1.91-5.04 1.93-5.11.98-2.59.46-1.21c.04-.11.08-.22.14-.32.11-.21.34-.34.57-.36h.37l1.53.22 6.21.89L44 73.22c.84.13 1.68.15 2.45.08.77-.06 1.52-.21 2.27-.57.74-.35 1.32-.8 1.88-1.42l.86-.86c.3-.27.52-.67.79-1l.77-1.04.7-.93.86-1.12a72.55 72.55 0 0 1 1.8-2.21l3.99-4.35 2.21-2.14 1.17-1.06c.12-.12.57-.51.93-.8l1.12-.94c.29-.23.53-.47.75-.73l.69-.76c.49-.5.86-1.01 1.14-1.64.59-1.29.62-2.59.49-3.99-.07-.7-.23-1.41-.36-2.12l-.36-1.89-.5-2.54-2.02-10.25-1.02-5.19-.11-.55-.05-.24-.11-.49c-.08-.32-.15-.67-.08-1.01.05-.34.26-.64.54-.83.28-.2.6-.32.91-.48l.56-.26 1.14-.52 2.29-1.04 9.3-4.22 4.48-2.02c.38-.15.82-.24 1.22-.1s.69.44.97.79l13.61 18.1c.42.56.88 1.1 1.37 1.55.48.46.98.88 1.63 1.16a4.36 4.36 0 0 0 2.02.28c.71-.05 1.39 0 2.14-.16l2.23-.34 1.44-.19a67.32 67.32 0 0 1 2.96-.3 77.28 77.28 0 0 1 6.18-.27l3.22.05 1.64.07c.21 0 .73.04 1.12.07l1.25.1c.49.05.95 0 1.43 0 .48-.02.98.01 1.45-.08a3.75 3.75 0 0 0 1.4-.53c.43-.28.77-.64 1.12-1.02.71-.75 1.32-1.73 1.96-2.66l1.45-2.16 5.88-9.1 2.96-4.56 1.48-2.28c.33-.51.67-1.03 1.17-1.4.49-.39 1.14-.45 1.73-.33.3.06.59.14.88.24l.22.08.3.11.6.23 4.82 1.84 9.6 3.72 3.45 1.38.78.32a7.83 7.83 0 0 1 .65.32c.42.23.81.55 1.05.98.23.44.29.94.27 1.43-.02.53-.08.89-.2 1.64l-.64 4.05-2.79 17.22a17.75 17.75 0 0 0-.21 2.02c-.03.65-.02 1.31.26 1.93.28.63.76 1.07 1.29 1.45l1.64 1.17.87.56.43.29.36.26 1.2.9 2.28 1.94c1.47 1.35 2.84 2.81 4.14 4.31l1.9 2.29.91 1.16 1.17 1.54c.8.92 1.47 1.94 2.5 2.51 1.07.6 2.25.46 3.38.33l1.74-.29 1.58-.29 2.48-.45c-.82-.29 1.57-1.12 5.57-2.22l6.98-1.81 3.99-.99c1.37-.31 2.68-.8 4.02-.43.65.18 1.21.59 1.61 1.1.42.51.72 1.09 1.01 1.67l1.71 3.38 2.92 5.56c1.63 2.94 2.53 4.1 1.88 1.49l2.26 5.33 1.19 2.8c.38.96.87 1.82 1.13 3.05.27 1.14.21 2.4-.37 3.45a6.29 6.29 0 0 1-1.04 1.4c-.4.4-.88.84-1.26 1.09l-4.62 3.39c-5.87 4.33-10.38 7.75-10.68 8.27-.21.36-.51.79-.92 1.31-.53.6-.7.95-1.01 1.39l-.51.74c-.18.24-.33.59-.2 1.01.12.4.31.8.46 1.21l.12.3.06.15s.02.07.03.06c0 .01.03.11.04.16l.32 1.53c.41 2.13.79 4.59 1.01 7.45.12 1.43.19 2.96.22 4.58.02.81.01 1.65 0 2.52l-.02.65v.33c-.01.11-.02.25 0 .21 0 .12.02.24.03.37.02.21.02.41.05.61.04.22.28.33.49.43.19.09.39.19.59.29l2.34 1.52 10.96 7.26 5.17 3.57.68.47.34.24a2.16 2.16 0 0 1 .4.33 11 11 0 0 1 1.69 1.99c.97 1.43 1.53 3.24 1.51 5a11.07 11.07 0 0 1-.33 2.66c-.21.64-.43 1.1-.64 1.66l-1.29 3.2-2.52 6.24-4.36 10.84-.44 1.11c-.16.41-.45 1.08-.77 1.65-.63 1.18-1.71 2.53-3.08 3.46-1.36.94-2.76 1.36-3.76 1.56-1.03.19-1.76.21-2.35.23-2.01.08-1.85.21-.59.36l.52.06c.06.01.34.02.51.02h.64c.9-.03 2.11-.15 3.55-.7 1.44-.53 2.98-1.64 3.99-2.82s1.6-2.32 2.03-3.27c2.14-4.76 4.27-9.49 2.88-5.29l5.43-13.73 1.35-3.43.34-.86c.11-.44.22-1.01.26-1.5.12-1.02.1-2.04-.05-3.05-.32-2.05-1.26-3.95-2.61-5.48a5.68 5.68 0 0 0-.53-.57c-.17-.16-.41-.43-.51-.47l-.75-.53-1.51-1.06-12.03-8.5-5.31-3.75s.04.02.04.04h0v.05l.01-.21.11-1.72c.07-1.15.11-2.3.13-3.46.04-2.31 0-4.62-.14-6.93-.07-1.15-.16-2.31-.27-3.46l-.19-1.72-.05-.43c0-.08-.02-.17-.01-.09h0c.01.04 0 .07-.02.08l18.33-13.51.62-.46.15-.11c.06-.05.15-.15.22-.22l.45-.48c.56-.66 1.07-1.35 1.49-2.09a10.77 10.77 0 0 0 1.38-4.92 13.03 13.03 0 0 0-.18-2.56c-.16-1-.41-1.34-.62-1.89l-1.32-3.09-5.3-12.36-2.65-6.18-.66-1.54-.33-.77-.17-.39c-.07-.14-.07-.22-.22-.43-.96-1.45-2.15-2.68-3.63-3.58-1.48-.91-3.14-1.43-4.84-1.58-.43-.03-.86-.06-1.3-.05h-.33c-.1 0-.14.02-.21.03l-.38.07-1.51.27-6.04 1.09-12.08 2.17-3.02.54c-.74.13-.42.08-.47.09h.02c.01 0 .02.01.02.02h0l.02.03-.13-.16-1.06-1.32a76.14 76.14 0 0 0-2.23-2.64c-1.55-1.75-3.21-3.49-5.06-5.13-.92-.82-1.87-1.63-2.88-2.39-.5-.39-1.01-.76-1.53-1.12-.07-.05-.02 0-.04-.02l3.29-21.72.06-.37c.02-.12.04-.22.04-.47 0-.43.03-.87 0-1.29-.04-.85-.18-1.68-.4-2.48-.42-1.6-1.28-3.15-2.42-4.35-.57-.61-1.19-1.16-1.9-1.64-.34-.25-.72-.47-1.09-.69-.22-.14-.29-.14-.43-.2l-.38-.15-3.01-1.23-12.06-4.92-6.03-2.46-1.51-.62-.75-.31-.39-.15-.63-.16c-1.69-.41-3.35-.48-5-.15-1.66.33-3.21 1.07-4.51 2.11-.67.5-1.27 1.13-1.85 1.78-.18.19-.2.25-.28.36l-.21.31-.43.62-3.42 4.92-9.26 13.23-1.82-.11c-1.13-.06-2.26-.1-3.4-.12a92.46 92.46 0 0 0-6.86.13 100.11 100.11 0 0 0-3.45.27l-1.73.19-.69.09c-.05.02-.11.02-.13-.04l-9.28-12.53-3.13-4.1-1.93-2.54c-1.22-1.24-2.94-2.37-4.93-2.9a10.86 10.86 0 0 0-3.13-.34c-.53.02-1.07.09-1.62.18l-.82.18-.48.21-4.01 1.73-8.96 3.85-4.92 2.11-2.59 1.11c-1.46.67-3.06 1.24-4.39 2.11-1.33.85-2.46 1.93-3.34 3.27-.88 1.35-1.42 2.91-1.61 4.51-.09.81-.11 1.63-.04 2.49.06.86.24 1.74.4 2.61l.64 3.47 2.15 11.63.98 5.31c.02.08.05.19.05.28-.01.11-.12.15-.19.22l-1.39 1.22c-.82.73-1.62 1.48-2.42 2.25a89.72 89.72 0 0 0-4.66 4.86 112.32 112.32 0 0 0-2.22 2.6l-1.08 1.34-.53.68-.05.07c-.07.09-.12.19-.2.27-.09.08-.22.01-.33.01L22.2 57.07l-1.45-.22-.36-.06c-.07 0-.11-.02-.19-.03h-.3c-.41-.02-.81 0-1.2.03a10.23 10.23 0 0 0-4.5 1.34c-1.39.81-2.5 1.94-3.4 3.28-.21.32-.46.72-.6 1.01l-.3.75-.59 1.5-4.79 12.09-2.42 6.1-1.21 3.06-.3.77c-.1.27-.21.44-.29.91a11.84 11.84 0 0 0-.28 2.43C0 91.64.4 93.3 1.19 94.72c.38.72.87 1.37 1.41 1.98.27.31.56.6.87.89.17.18.24.18.35.28l.32.22 5.07 3.51 10.17 7.05 3.76 2.6c.09.07.22.12.29.23.04.12 0 .24 0 .36l-.13 1.96c-.07 1.14-.1 2.27-.12 3.41-.04 2.27 0 4.55.14 6.82l.26 3.4c.09 1.01.3 2.7.27 2.4.01.14.06.28.05.42-.04.14-.2.19-.3.29l-9.2 6.79-5.22 3.85-2.59 1.91-1.29.95c-.45.35-.79.5-1.45 1.25-1.12 1.27-1.97 2.74-2.36 4.39-.4 1.65-.32 3.33.08 4.97.81 2.03 1.63 3.89 2.44 5.83l4.8 11.37 2.35 5.57.3.7c.17.38.33.74.56 1.15.44.8 1.01 1.69 1.91 2.61.88.91 2.13 1.78 3.46 2.29 1.32.52 2.62.69 3.65.7 1.04.01 1.93-.11 2.66-.24l1.32-.24 2.62-.48 5.17-.95 10.05-1.85 2.69-.49c.11-.01.23-.07.32.01.08.08.14.17.21.25l.3.36c.4.47.81.93 1.22 1.38.81.91 1.64 1.79 2.47 2.64 1.66 1.71 3.36 3.3 5.06 4.8a84.46 84.46 0 0 0 2.57 2.17l1.41 1.12c.1.09.23.14.29.26.03.13-.02.26-.04.38l-2.27 14.62-1.07 6.89-.25 1.59-.06.39c-.01.15-.06.21-.04.45 0 .42.02.82.07 1.22.17 1.59.68 3.08 1.51 4.35.94 1.43 2.24 2.52 3.73 3.38l3.21 1.27 14.83 5.94 3.8 1.52 1.91.76.96.38.48.19c.19.06.49.1.72.15 2 .37 4.09.18 5.98-.66a10.94 10.94 0 0 0 2.56-1.64c.19-.17.39-.33.57-.52.17-.18.41-.39.46-.5l.55-.79 8.85-12.77 4.23-6.13.25-.38c.11-.14.29-.05.44-.06l2.07.12a101.66 101.66 0 0 0 3.49.11c2.32.03 4.63-.05 6.91-.21 1.14-.08 2.28-.18 3.4-.31l1.68-.2.33-.04s.03 0 .05-.01l.12-.02c.16-.02.32-.1.48-.07.16.06.23.21.34.33l8.06 10.62 4.22 5.55 2.04 2.66c1.14 1.17 2.58 2.15 4.16 2.63 1.37.42 2.81.49 4.2.25.35-.05.69-.13 1.04-.22.2-.04.28-.09.39-.14l.32-.14 1.27-.58 5.09-2.31 10.14-4.62 5.05-2.31c.65-.32 2.12-.86 3.56-2.09a8.36 8.36 0 0 0 2.03-2.54c.54-1.03.81-2.14.9-3.08a10.09 10.09 0 0 0-.06-2.44c-.04-.35-.11-.69-.17-.97l-.14-.63-.55-2.52-1.11-5.03.64 4.65.31 2.25c.09.78.21 1.31.31 2.58.07 1.12.02 2.64-.7 4.19-.7 1.58-1.99 2.7-2.99 3.3-.52.32-1.01.55-1.46.73-.26.11-.4.16-.57.22l-.5.18-1.94.71 2.55-1.07c.98-.42 2.4-1.08 3.63-2.54a7 7 0 0 0 1.34-2.56c.25-.9.3-1.72.28-2.43-.01-.71-.12-1.35-.21-1.87l-.23-1.24-1.74-9.37-1.51-7.77-.33-1.6c-.05-.25-.11-.5-.16-.74l-.12-.55a20.33 20.33 0 0 0-.33-1.22c-.06-.28-.15-.55-.16-.82a.89.89 0 0 1 .29-.67c.35-.3.68-.55.91-.77l.84-.71c.45-.37.88-.74 1.28-1.09.8-.7 1.5-1.35 2.1-1.94 1.21-1.18 2.05-2.13 2.62-2.83 1.13-1.41 1.19-1.78.63-1.43-.58.34-1.82 1.39-3.49 2.63-.83.62-1.77 1.3-2.77 1.98l-1.54 1.02c-.28.18-.48.31-.71.44l-.68.4-1.46.83c-.51.26-.94.71-.97 1.24.11 1.76.17 2.54.05 2.84-.1.3-.3.12-.48.06s-.33.01-.31.98c0 .91.17 2.63.63 5.82l-1.24-6.86-.32-1.88c-.07-.62-.22-1.23-.11-1.86.11-.64.58-1.11 1.07-1.48l1.5-1.15a61.63 61.63 0 0 0 3.86-3.02c1.19-1.01 2.35-2.07 3.45-3.18.07-.23-.68.5-1.98 1.67-.65.58-1.44 1.27-2.33 2.01l-1.41 1.13-.81.63-.9.67c-.44.32-.85.66-1.27.99-.43.33-.85.65-1.11 1.13-.27.48-.27 1.04-.2 1.55a26.27 26.27 0 0 0 .22 1.55l.91 5.09c.45 2.65.57 3.9 0 2.06l-.51-3.03-.6-3.35a23.94 23.94 0 0 1-.29-1.83c-.06-.6-.17-1.2.02-1.81s.64-1.04 1.12-1.42c.49-.39.94-.79 1.46-1.17l.93-.69.84-.66c.51-.39.99-.81 1.49-1.22.97-.84 1.93-1.68 2.84-2.57 1.83-1.77 3.51-3.65 5-5.59-.56.48-1.9 2.06-3.85 3.98-.98.95-2.11 1.99-3.35 3.04a81.64 81.64 0 0 1-1.93 1.56l-1.05.8-1.33.97c-.52.37-.96.77-1.44 1.15s-.9.78-1.17 1.33c-.26.55-.27 1.15-.23 1.71.03.57.1 1.15.19 1.72l.93 5.46c.46 2.84.68 4.61.44 4.27-.26-1.22-.64-3.45-1.06-6.12l-.39-2.39c-.16-.93-.32-1.89-.35-2.8-.02-.46-.03-.91.07-1.37a2.69 2.69 0 0 1 .67-1.24c.3-.35.7-.63 1.07-.93s.73-.61 1.14-.89c1.78-1.24 2.71-1.97 3.82-2.87 1.06-.86 2-1.72 2.8-2.49 1.58-1.56 2.55-2.82 2.68-3.28.05-.17-1.21 1.24-3.03 2.97-.92.86-1.97 1.8-3.04 2.68l-1.6 1.27-.93.71-1.01.73c-.35.25-.61.47-.84.68.26-.24.55-.47.84-.68.37-.27.73-.55 1.09-.82l.91-.71c.51-.4.99-.81 1.48-1.21.95-.82 1.86-1.63 2.7-2.46a42.77 42.77 0 0 0 4.33-4.9c.31-.39.59-.8.86-1.19.3-.41.47-.7.89-1.33.72-1.12 1.35-2.27 2.07-3.1.35-.46.66-.88 1.13-1.15.47-.29.99-.37 1.46-.41.94-.07 1.91-.03 2.8.09l1.67.21 1.35.16 1.69.15c.93.07 1.46.06 1.53-.01.08-.08-.3-.23-1.16-.47a40.69 40.69 0 0 0-1.68-.42l-.54-.13-.89-.18-2.06-.41c-.75-.15-1.56-.25-2.37-.24-.8 0-1.66.04-2.52.52-.41.23-.74.51-1.07.89l-1.04 1.1c-.64.91-1.29 1.94-2.03 2.95.52-.74 1.04-1.58 1.57-2.39.14-.2.26-.42.41-.61l.46-.51.94-1.02c.32-.29.72-.57 1.18-.76s.93-.27 1.39-.31c.93-.09 1.98-.05 3.05.14l13 2.26 11.43 1.83s-.05-.02-.07-.02l-17.19-2.95 16.1 2.61-2.76-.78-12.19-2.14 10.69 1.74-8.99-2.2-4.39-.9-2.16-.45-3.62-.69c-1.04-.2-2.07-.26-3-.18-.91.06-1.84.28-2.7.76-.81.4-1.4 1.15-2.09 1.76-.36.27-.62.73-.91 1.14l-.85 1.25-.85 1.22-.16.22-.11.14-.21.27c-.3.35-.58.71-.88 1.04a42.05 42.05 0 0 1-1.79 1.93c-2.41 2.43-4.81 4.32-6.72 5.79l-.39.3c-.26.21-.48.36-.73.54l-1.46 1.05c-.76.49-1.23 1.12-1.82 1.69-.62.57-1.04 1.18-1.4 1.91-.74 1.52-.93 2.99-.81 4.69.07.84.27 1.71.41 2.58l.41 2.26.48 2.7 1.92 10.82.96 5.41.24 1.35.1.59v.08h0 0 .08c1.6-.15 2.73-.08 3.36.05.64.12.79.28.59.14s-.71-.6-1.33-1.54c-.18-.26-.35-.53-.5-.8-.17-.28-.41-.7-.54-.97.02 0-.01 0-.03 0l-.12.05-2.26.95-4.52 1.9-9.03 3.79-2.25.95-.56.24-.24.1h-.02s-.05.02-.08.02c-.05 0-.1-.02-.14-.06-.02-.02-.03-.04-.05-.06l-.56-.78-12.41-17.26c-.6-.84-1.29-1.58-2.03-2.17-.72-.58-1.54-1.07-2.46-1.42-.93-.34-1.79-.55-2.79-.5l-1.47-.02c-.48-.02-1.02.12-1.52.18l-1.54.22-1.04.13-1.42.15c-.95.09-1.9.16-2.85.22-1.9.11-3.81.14-5.73.09a68.83 68.83 0 0 1-2.87-.12l-1.43-.1-.71-.06-.78-.08-1.55-.16c-.27-.02-.55-.05-.82-.06l-.77.07-1.54.14c-.97.13-1.96.55-2.84 1.07-.85.52-1.6 1.17-2.31 1.99-.69.82-1.28 1.79-1.92 2.69l-3.76 5.45-6.73 9.77-.84 1.22-.31.44h-.01s-.03.03-.05.03l-3.51-1.41-9.71-3.9z"/><path d="M120.27 152.3c0 .3.73.57-.37.76l-1.27.12-.62.03-.61-.07-2.36-.35c-.39-.04-.77-.15-1.15-.26l-1.15-.28-2.42-.45-.35.41-1.93-.66-1.88-.88c-1.28-.52-2.45-1.34-3.67-2.02-4.64-2.31-8.66-5.78-11.86-9.85-.06.21-.16.36-.52-.02-.17-.21-.36-.43-.55-.66l-.49-.79-1.04-1.75c-.36-.61-.6-1.32-.93-2-.31-.69-.66-1.38-.88-2.13l-.55-1.26c-.22-.3-.42-.33-.54-.35-.28-.66-.36-1.34-.52-1.96l-.39-1.8c-.99-3.74-1.39-7.71-1.15-11.71.11-.99.12-2.01.31-3l.57-3 .87-2.95c.31-.99.76-1.92 1.13-2.9 3.34-7.64 9.63-14.54 18.09-18.53l2.67-1.33 2.8-1.04c.93-.39 1.91-.54 2.87-.79l1.45-.33c.48-.12.97-.13 1.46-.19l2.24-.16c.77-.09 1.55.04 2.35.06.8.06 1.61.06 2.42.17l2.42.42 1.21.21 1.17.33 2.3.65c.74.26 1.45.56 2.15.83.69.29 1.4.48 2.01.83-.02-.49.76-.53 1.95-.34.59.11 1.31.22 2.03.46l2.23.79 1.12.4 1.02.45c.65.28 1.25.52 1.75.67.98.3 1.54.24 1.21-.56.83.62 1.64 1.48 2.52 2.25.9.76 1.67 1.65 2.4 2.43 1.51 1.5 2.51 2.81 2.81 2.78.44-.02.98.06 1.66.35.34.15.73.33 1.14.6.39.28.82.63 1.29 1.05.93.86 2.1 2 3.2 3.73 1.22 1.67 2.36 3.9 3.51 6.73.35 1.14.69 2.46 1.01 3.81.24 1.36.38 2.78.53 4.09.03.33.08.65.1.96a27.05 27.05 0 0 0 .02.92l.05 1.64c.04.99.09 1.76.18 2.18.12.57.24.53.37.17s.21-1.18.3-1.96c.18-1.57.35-3.18.66-1.84 0-1.14-.17-2.27-.33-3.4-.18-1.13-.27-2.27-.54-3.37l-.82-3.32-.21-.83-.28-.8-.57-1.61c-.69-2.17-1.76-4.18-2.73-6.23-.55-.99-1.15-1.95-1.73-2.92-.3-.48-.57-.98-.9-1.44l-1-1.36c-5.28-7.34-12.69-13.01-21.03-16.42l-3.18-1.15c-.53-.21-1.07-.35-1.62-.49l-1.64-.42c-2.17-.64-4.42-.86-6.65-1.2-1.12-.12-2.25-.13-3.37-.19l-1.69-.07c-.56-.01-1.12.04-1.69.06l-3.37.19c-1.12.14-2.23.33-3.35.5l-1.67.27-1.64.42c-1.09.29-2.2.55-3.28.89-2.12.79-4.29 1.49-6.3 2.56-2.08.92-4 2.16-5.94 3.35-.95.63-1.84 1.34-2.76 2.02-.45.35-.92.68-1.36 1.04l-1.28 1.15c-.54.57-1.32 1.29-2.21 2.24l-2.99 3.51-1.63 2.27-.88 1.23-.81 1.36-1.68 2.9-1.52 3.26c-1.93 4.55-3.42 9.96-3.83 15.79-.43 5.81.19 12.06 2.09 18.01a48.42 48.42 0 0 0 8.89 16.24c3.89 4.7 8.57 8.46 13.33 11.14 4.76 2.69 9.57 4.32 13.79 5.28 1.06.2 2.09.35 3.06.51.98.15 1.91.33 2.79.35l2.5.15c.78.04 1.5.11 2.17.06l1.93-.12c5.8-.24 12.2-1.8 17.74-4.59 5.58-2.74 10.22-6.62 13.36-10.3 2.83-3.45 5-7.43 6.69-11.47-.58.84-1.26 1.57-1.84 2.29-.62.7-1.13 1.4-1.75 1.94 2.51-3.56 4.43-7.54 4.69-9.22.64-2.23.93-3.6.88-4.39 0-.78-.19-.92-.49-.7s-.68.82-1.16 1.51c-.52.68-1.11 1.48-1.67 2.15-.65 1.03-.88.7-1.17.54-.3-.17-.59-.14-1.63 1.36.28-.58.56-1.08.75-1.57l.53-1.4c.32-.92.76-1.8 1.05-3.07-.1-.1-.26.33-.45 1.01-.25.66-.56 1.55-.86 2.41l-.44 1.21c-.16.36-.33.66-.46.88-.27.45-.44.56-.43.07.68-1.05 1.02-2.33 1.45-3.57.47-1.23.63-2.57.99-3.79-.47.34-.94 2.49-1.79 4.34-.68 1.91-1.66 3.52-1.85 3.21.11-.32.41-.85.79-1.48.33-.65.69-1.42 1.05-2.18.77-1.49 1.11-3.02.8-3.35-.07-.07-.26.5-.48 1.24-.05.18-.11.38-.17.57-.08.19-.15.38-.23.57l-.4 1.03c.68-1.79.88-3.5 1.14-4.83a11.47 11.47 0 0 0 .06-2.95c-.19-1.16-.63-.48-1.68 2.68.18-.55.27-1.18.41-1.83l.43-2.04c.21-1.4.29-2.84.32-4.07 0 0 0 .01-.01.02-.05.61-.14 1.44-.23 2.26-.08.82-.15 1.62-.28 2.17.15-.68.15-1.37.2-2.07l.13-2.08c-.13.22-.25.46-.38.72-.18 1.02-.24 2.05-.39 3.1.15-.89.13-1.81.21-2.72-.3.67-.59 1.43-.88 2.24-.94 3.11-2.37 5.75-2.97 7.28-2.33 6.23-6.5 11.76-11.83 15.67-2.61 2.03-5.58 3.53-8.64 4.67-.78.25-1.52.6-2.32.78l-2.37.59c-.79.2-1.61.25-2.41.39l-1.21.19c-.41.03-.82.03-1.22.06z"/></svg>