<svg width="41" height="31" viewBox="0 0 41 31" xmlns="http://www.w3.org/2000/svg">
<path d="M20.2206 0.740108C23.1966 0.740108 26.1764 1.91576 28.4476 4.27839C30.3753 6.28377 31.4854 8.81653 31.7761 11.4304C36.5147 11.8784 40.2207 16.0158 40.2207 21.0623C40.2207 26.4076 36.0565 30.7396 30.9184 30.7396H8.12768C3.74721 30.7396 0.220703 27.0709 0.220703 22.5139C0.220703 17.9568 3.74721 14.2881 8.12768 14.2881H8.68001C8.2694 10.7291 9.38312 7.00933 12.0085 4.2779C14.2795 1.91528 17.2448 0.739624 20.2206 0.739624L20.2206 0.740108ZM20.2206 10.9013C19.9735 10.8994 19.8009 10.9486 19.5956 11.1433L14.4793 15.9819C14.1159 16.3221 14.0487 16.9856 14.4066 17.3579C14.7518 17.7171 15.3678 17.7605 15.7293 17.4184L19.2904 14.0465V24.4496C19.2904 24.9845 19.7064 25.4173 20.2206 25.4173C20.7348 25.4173 21.1508 24.9845 21.1508 24.4496V14.0465L24.7118 17.4184C25.0734 17.7605 25.7057 17.736 26.0345 17.3579C26.3634 16.9799 26.3434 16.3278 25.9619 15.9819L20.8456 11.1433C20.713 11.0166 20.4695 10.907 20.2206 10.9013H20.2206Z" />
</svg>
