<svg xmlns="http://www.w3.org/2000/svg" viewBox="0 0 237 237.18" >
<path d="M230.97 80.66l.04-19.8v-.73l-.03-.76-.18-1.51c-.18-1-.45-1.97-.85-2.89-.77-1.86-1.99-3.51-3.5-4.82-1.51-1.32-3.33-2.26-5.28-2.78a15.52 15.52 0 0 0-1.48-.3 25.24 25.24 0 0 0-1.52-.13l-.76-.02h-.54-.76-12.16l-24.3.05-14.49.03v-.02c-.48-2.06-.99-3.59-1.64-2.57.03-3.32.08-8.31-.35-8.56-.01 0-.02-.02-.03-.02v-.22a28.17 28.17 0 0 0-.06-1.34l-.14-1.48-.25-1.47-.39-1.45a19.91 19.91 0 0 0-2.6-5.37c-2.15-3.04-5.15-5.49-8.67-6.89.28 0 .56 0 .82-.02 0 0-.01 0-.02-.01-.28 0-.61-.02-.97-.04l-.3-.12h1c-.2-.1-.44-.2-.68-.3-.64-.06-1.29-.1-1.94-.13-.04 0-.1-.02-.15-.03l1.72.02c-.65-.24-1.39-.46-2.2-.68-3.07-.47-6.01-1.15-7.67-1.17l-40.27-.63c-.02.27.69.54-.42.66-.87.06-1.7.06-2.51.01l-.6-.04-.31-.02h-.44c-.58-.01-1.16-.04-1.74-.01-2.32.09-4.72.62-6.98 1.94-.04.18-.08.37-.13.55-3.53 1.75-6.8 4.63-8.82 8.5-.84 1.81-1.42 3.75-1.66 5.72-.08.49-.13.98-.14 1.48l-.04 1.44.04 1.98.19 7.89c.16-.14.3-.2.36.32 0 .26.02.53.03.81l.01 1.51v.03l-44.89.41-9.15.05-2.35.01h-1.19-.6c-.37 0-.75 0-1.12.02-3 .1-5.93 1.33-8.1 3.41-2.17 2.07-3.58 4.98-3.77 8.07-.07.72-.04 1.73-.04 1.97v1.24l.01 2.5.04 10.13.04 19.79.08 82.89v19.01 8.75 4.16c-.02 1.26.08 2.52.38 3.72.3 1.19.79 2.32 1.41 3.35 1.23 2.06 3.08 3.66 5.16 4.65 1.04.49 2.14.84 3.26 1.02.56.09 1.13.13 1.69.16.28.01.56.02.85.01h.51l6.83.02 11.34.05 4.68-.02 86.09-.62 33.07-1.22-14.03-.75 26.82-.21c23.95-.66 10.39-1.42 1.17-2.47-6.63-.46 2.33-1.16-8.04-1.62l18.74.06c.86-.43-23.09.22-17.88-.49 7.21.17 15.29-.1 22.78-.08-2.59-.59-25.95-.22-24.8-.8 4.04-.13 21.05.79 22.5.07.29-.14-7.21-.17-10.96-.18 23.07-.22 35.78-.91 14.72-1.7l25.38.23s-.04 0-.06-.01l-14.08-.18 13.16.04-2.3-.3-9.99-.17 8.74.03c-2.18-.24-4.69-.46-7.45-.68l-25.95-1.17-136.28-.63c-.08.27 2.33.54-1.42.66-5.91.13-11.24-.03-16.58-.2l-4.01-.12-2.02-.05h-.51l-.06-.01h0l-.06-.02c-.13-.07-.2-.15-.29-.29-.14 0-.29 0-.43-.03l.63-28.15-.31-53.54c-.16.46-.3.68-.36-1.09l-.03-2.39 40.07 12.18 33.13 10.2 3.41 1.02 7.78 2.39-.05 2.04v.62 2.91.75l.02.42.04.65c.06.86.25 1.72.52 2.54.56 1.63 1.53 3.06 2.67 4.13 1.15 1.08 2.48 1.79 3.73 2.17a9.26 9.26 0 0 0 3.54.29c.33-.02.47-.07.66-.11l.55-.12 1.1-.24a33.05 33.05 0 0 1-1.86-.57c1.49.03 2.98.05 3.56-.16 3.18-.49 1.38-1.07.15-1.86-.88-.34.31-.87-1.07-1.22l2.49.04c.11-.33-3.06.17-2.37-.37.96.13 2.03-.07 3.02-.06-.34-.44-3.44-.17-3.29-.6.54-.1 2.79.6 2.98.05.04-.11-.96-.13-1.45-.13 3.06-.17 4.74-.69 1.95-1.28.97.02 2.34.25 3.36.17-.51-.02-1.39-.13-1.87-.14l1.75.03c-.09-.08-.2-.15-.3-.23a9.52 9.52 0 0 0-1.32-.13c.39 0 .77.01 1.16.02-.29-.18-.62-.35-.99-.51-1.38-.35-2.7-.87-3.44-.88l-4.47-.18a1.36 1.36 0 0 1-.82-.47c-.2-.24-.31-.52-.31-.79l.04-3.93c-.2-.01-.41.31-.5-.19-.19-1.57.49-2.83.29-4.4l-.33-.11.48-3.77-.09-3.56-.13-3.41c-.12.01-.23.02-.27-.05-.08-.28.13-.62.38-.88 0-.06.04-.11.06-.16-.02-.08-.1-.17-.14-.23.16-.12.31-.21.46-.25a1.8 1.8 0 0 1 .69-.47c.09-.02.11-.05.26-.07l.65-.06 1.31-.13 5.29-.53 1.34-.14.67-.07.26-.03.17-.03c.46-.06.96-.02 1.44.16a3.65 3.65 0 0 1 2.24 2.35c.06.12.12.24.15.38.04.13.09.24.13.47l.21 1.2c.13.8.24 1.59.31 2.36.12 2.29-.09 5.22-.13 7.45 1.16-.34 1.72 5.11 2.89 4.02-.02 1.49-.06 3.73.26 3.84.25.07.5.25.73.56.25.31.45.75.58 1.4.1.64.12 1.5-.18 2.55-.29 1.04-.88 2.28-2.03 3.49-.92.92-2.42 1.72-3.82 2.06-1.39.38-2.61.32-3.05.44-.21.08-.2.16-.06.25.04.04.25.08.43.11.19.03.41.07.63.09.88.08 1.82.05 1.08.36 2.6-.44 5.02-1.81 6.72-3.8a11.53 11.53 0 0 0 2.74-7.22v-2.21-2.12l-.02-2.83 7.12-2.25 19.18-6.3 23.66-8.48-10.4 2.38 19.41-6.13c17.21-5.92 7.13-3.66.13-2.62-4.95 1.03 1.36-1.62-6.31.23l13.63-4.09c.5-.61-16.7 5.32-13.13 3.49 5.28-1.44 11.07-3.48 16.52-5.11-2.05 0-18.91 5.52-18.24 4.72 2.9-1.02 15.52-3.9 16.36-4.91.17-.2-5.28 1.43-8.01 2.25 16.69-5.31 25.72-8.78 10.2-4.88l18.5-5.39h-.05l-10.27 2.94 9.57-2.87-1.76.22-7.3 2.04 6.36-1.91c-1.65.26-3.54.59-5.6 1-7.68 1.85-15.1 3.4-19.19 4.62l-39.31 11.6-21.25 6.34c-.02-.25-.04-.51-.08-.76-.09-.64-.26-1.28-.46-1.9-.82-2.49-2.54-4.64-4.76-6.04-.78-.42-2.19-1.13-4.18-1.4-.5-.08-1.02-.11-1.57-.11-.33 0-.41 0-.59.01-.16 0-.33.01-.5.02l-2.22.07-5.22.12-.71.01h-.36l-.2.01h-.31c-.42.03-.83.06-1.25.14-.42.06-.83.15-1.24.27-1.64.45-3.19 1.32-4.45 2.5-1.27 1.17-2.25 2.66-2.83 4.29-.3.81-.47 1.66-.57 2.51-.01.1-.01.19-.02.29l-3.11-.95c-.14.24 1.54 1.03-1.23.32-8.66-2.37-15.3-5.33-23.97-7.7-.24.07-.49.15-.74.23l-20.46-6.89-19.52-5.81-9.73-2.87-4.86-1.43-.09-.03h0-.06l-.09-.02-.18-.03c-.1.1-.18.19-.32.23-.02 0-.04-.01-.05-.04v-.05l.09-13.13-.02-1.51.02-2.83-.08-3.55c-.09-.85-.22-1.11-.32-1.26l.08-9.55v-.36-.08-.25l-.32-18.73c-.04-.68.57-1.35 1.33-1.35l9.64-.17 39.89-.71 8.61-.15v.7h.9l2.67-.08c.74-.09 1.01-.25 1.17-.34l7.02.1 1.31-.04.72-.04 1.44-.08 2.89-.16 5.82-.34 3.66-.22 46.85-.83 28.07-.83 2.47.01c-.03-.02-.04-.04-.06-.06l5.43-.11h28.28 1.7c.43.01.86.05 1.28.17.83.22 1.59.7 2.14 1.34.56.64.92 1.44 1.03 2.27.04.21.03.42.04.62v.68l-.02 1.77-.07 13.47c1.53-2.59 2.28 38.52 3.83 30.32-.03 11.24-.08 28.12.35 28.98 1.3 2.61 2.8 11.26 3.58 41.11.18 11.68-.36 29.63-.1 33.74.42 6.49.92-15.14 1.33-8.66l.14-121.09zm-72.76-34.83s.04.02.04.03h0l-.08.01v-.02c0-.01.02-.02.02-.02zm-4.06-16.03c.51.84.9 1.9 1.09 2.98.06.27.06.55.1.82.03.27.06.54.05.8v.78c0 .29-.01.57-.02.84 1.14-.29 1.77 3.75 2.8 4.05v3.64 2.17h-.08-.31l-2.46.02-9.88.07-19.96.08c-2.32.18-8.16.33-15.78.45l-12.55.16-6.87.06-1.04.05-.03-.82-.02-5.7v-3.03-1.49-.74-.36l.02-.2a7.3 7.3 0 0 1 4.65-6.6c.73-.31 1.46-.39 2.1-.46.34 0 .55-.03 1.18-.01h.56c4.5.19 9 .32 13.48.35 0-.13-.09-.27-.09-.37l2.31-.04c.72.14 1.45.3 2.25.19l.07-.24c.25 0 .5-.01.75-.02l2.97.43a198.64 198.64 0 0 0 6.93-.27c-.06-.13-.09-.26.14-.31.96-.1 2.28.03 3.65.07l.61-.06c.16-.08.2-.21.22-.29a26.27 26.27 0 0 1 1.68.09l10.24-1.17.65-.08.57-.06c.32-.02.65-.1.98-.09a10.55 10.55 0 0 1 2.01.13c1.35.23 2.73.77 3.98 1.62 1.17.59 2.29 1.46 3.05 2.55z" />
</svg>