<svg xmlns="http://www.w3.org/2000/svg" viewBox="0 0 1280 71" ><path d="M1272.4 50.4c-4.4 1-8.8 1-13.3.2-4.4-.8-4.5-.7-8 .2-2.1.5-4.1 1.2-6.3 1.6-1 .2-2.3.2-3.3-.1-2.2-.5-4.3-.6-6.5-.1-2.8.7-5.6.5-8.2-.2-4.3-1.2-8.8-1.2-13.3-1-2.8.2-5.4.9-8.2 1.2s-5.7 0-8.3.8c-2.5.8-4.1.2-5.6-1-.8-.7-1.8-.6-3.1-.2-3.2 1.1-6.5 1-9.7-.1-1.1-.4-2.1-.4-3.2 0-.5.2-1 .3-1.4.6-4.7 2.6-10.3 2.6-16 1.8-1-.1-2-.7-2.6-1.2-.6-.6-.6-1.3-1-2-.7-1.4-1.5-1.7-3.5-1.3-2.2.4-4.4.6-6.7.7-3.8.1-3.7.2-4.9 2.9-.1.3-.6.5-1.1.6-3.2.8-6.7.3-9.9 1.2-4.6 1.2-10.1 1-14.3 3.1-1.7.2-3.3.4-5 .4l-25.5-.4c-2.3 0-4.5.3-6.4 1.1-1 .4-1.9.8-2.8 1.2-.5.2-.9.4-1.4.6-2.1.7-4.3.9-6.5.3l-1.6-.3c-2.8-.6-5.5-.6-8.2.1-1.6.5-3.3.4-4.9-.1-1.7-.4-3.3-.5-4.9 0-2.8.8-5.5.7-8.3.2-1.2-.2-2.2-.1-3.3.2-1.6.4-3.2.5-5 .5l-39.1-.3c-1.1 0-2.3 0-3.4.1-2.3.1-4.5.4-6.6 1-1.1.3-2.1.4-3.3.1-3.2-.7-6.4-1.4-9.9-1.4-4.5.1-9.1.4-13.6.3s-9.1-.5-13.6-.3c-4.3.2-7.7-.8-10.5-2.7-1.2-.8-2.3-.7-4 .8-1.1.9-2.4 1.5-4.1 1.6-2.8.2-5.7.1-8.5.1-1.8 0-2.8-.7-2.8-1.9 0-1.3-.8-1.9-2.8-1.9-1.7-.1-3.3 0-4.6.9-3.7 2.8-3.9 2.9-8.1 2.9h-1.7c-4.2.2-7.8-.5-10.9-2.3-1.2-.7-2.7-1.1-4.6-.6-1.5.4-3.3.8-4.9.7-3.6-.1-6.6.7-9.7 1.6-1.5.4-3.2.4-4.9-.2-2-.7-4.1-1.2-6.1-1.8-2.5-.8-4-.1-5.5 1.1-1 .8-2.7 1.3-4.4 1.3-2.8.1-5.6.1-8.4.1-.9.8-2.1 1.4-3.7 1.5-2.8.1-5.6 0-8.4 0-2.5 0-4.1-.8-5.4-2-.8-.7-1.8-.9-2.8-.4-3.5 1.9-7.6 2.7-12.3 2.6l-15.1-.1c-3 0-5.3-.7-7-2.3-.9-.9-2.3-1.5-4.1-1.6-4.5-.2-8.7-1-12.9-2-1-.2-2.1-.1-3.2-.2-.8.8-2 1.4-3.5 1.5-2.7.2-5.4.2-8.1.2-2.2 0-3.9-.6-4.9-1.8 1.5-.1 3-.2 4.3-.7 1.1-.4 1.4-1.1 1.1-1.8-.3-.6-1-1.3-2.1-1.4-2.2-.2-4.4-.2-6.6-.2-3 0-5.3-.6-7.1-2.1-1.3-1.1-1.9-1.1-4.2-.7a36.01 36.01 0 0 1-6.6.6c-9.9 0-19.7 0-29.6-.1.6.9 1.1 1.8 1.7 2.7 1.3 2 1.5 4-.7 5.9l-.9.9c-1.8 2-2.4 2.1-4.5.6-1.6-1.2-3.4-1.8-5.7-1.8-4.5-.1-9 0-13.6 0-2.9 0-5.6-.4-8.1-1.3-1.6-.6-3.2-.6-4.8-.3-2.1.5-4.2 1-6.5 1.1l-27.1.1c-2.2 0-4.5-.2-6.7-.6s-4.3-.6-6.6-.2c-1.6.3-3.4.2-4.9-.3-1.1-.3-2.2-.5-3.2-.3-2.7.6-5.4.8-8.2 0-1.5-.4-3.2-.8-4.8-.8l-22-.3c-1.7 0-3.4 0-4.9.6-5.9 2.1-12.1 1.6-18 .4-3.3-.7-6.4-1.2-9.9-1.2s-6.6-.7-9.8-1.5c-3.8-.9-7.8-.8-11.5.4-2.9 1-5.3.7-7.9-.3-.5-.2-1-.3-1.5-.4-1.1-.2-2.2-.1-3.3.1-3 .6-3.1.6-5.1-1.3-.9-.9-1.9-1.7-3.4-2.2-.5-.2-1.1-.4-1.5-.3-2.7.6-5.3 1.2-7.9 1.9-3.9 1-7.6 1.1-11.3-.3-1.5-.5-3.2-.5-4.9 0-.5.1-1.1.2-1.6.4-1.6.5-3.3.6-4.9.2-3.2-.7-6.3-1.5-9.8-1.4-2.8 0-5.7-.1-8.5-.2-2.3-.1-4.5-.3-6.5-1-3.2-1-6.4-1-9.8-.2-1.6.4-3.3.4-4.9 0-3.2-.7-6.5-1.1-10-1H400c-2.9 0-5.6.4-8.3 1-1.6.4-3.4.5-5 .2a153.98 153.98 0 0 0-9.8-1.5c-3.3-.3-6.4-1.4-9.7-1.8-2.8-.3-5.4-.9-7.9-1.7-1.5-.5-3.3-.5-4.9-.2s-3.1.8-4.7 1.1c-2.1.5-3.9-.2-5-1.6 1.9-.5 3.4-1.4 4.9-2.2 3.5-1.9 10.2-2.1 14-1.1.5.1 1 .3 1.5.4 3.3.9 4.2.8 6.6-.9 2.2-.1 4.5-.1 6.7-.2 1.2-.1 2.2-.7 2-1.3-.5-1.7-1.9-3.2-3.6-4.6-1.4-1.1-3.3-1.9-5.6-2.1-2.8-.2-5.6-.2-8.4-.2a37.7 37.7 0 0 1-8.3-.9c-1-.2-2.2 0-2.9.7-2.3 2-5.5 2.2-9 1.8-1.1-.1-2.2-.2-3.3-.5-3.7-.9-7.5-1.5-11.5-1.3s-7.8-.4-11.5-1.4c-1-.3-2.2-.5-3.3-.5l-18.6-.4c-2.3 0-4.5.2-6.6.8-3.8 1.1-7.6 1.1-11.5.2-1.1-.3-2.2-.2-3.3.1-2.2.5-4.3.6-6.5-.1-1.1-.3-2.2-.4-3.3-.2-4.9 1.1-9.9 1.3-15 1.3l-23.7-.6c-4-.2-7.8-.7-11.5-1.5-2.7-.6-5.5-.6-8.2.3-2.1.7-4.3.7-6.5.2-2.1-.5-4.2-.8-6.5-.2-2.7.7-5.4.8-8.1-.1-2-.7-4.2-1-6.5-1h-8.5c-2.9 0-5.6-.3-8.2-1-1.1-.3-2.1-.2-3.2 0-2.1.5-4.3.7-6.6.7-5.6 0-11.3-.4-16.9.2-1 .1-2 .6-2.6 1.2-.7.6-.3 1.4.6 1.9.8.5 1.7.9 2.4 1.4.4.2.8.6.7.9 0 .2-.8.4-1.3.5-3.9.7-7.9-.1-11.8.3-3.5-.4-6.7.3-9.7 1.3-.5.1-1.1.3-1.6.4-7.3.1-14.6.3-21.9-.7-1.2-.2-2-.7-2.3-1.4l-.6-1.8c-2.1 0-4.3.1-6.3.7-3.8 1.1-7.7 1-11.5-.1-1.6-.5-3.3-.6-4.9-.2-4.9 1.3-10 1.2-15.1.8-1.1-.1-2.2-.4-3.1-.7L36.6 29c-1-.4-1.3-1.1-1.1-1.8.3-.9 1.1-1.2 2.5-.8 1.3.4 2.3.2 2.7-.5s.3-1.3-.4-1.9c-1.6-1.5-3.8-2.7-6.8-2.8-4-.1-7.9-.1-11.9-.1-3.7 0-6.7.8-7.4 3.3-.2.7-.7 1.3-1.5 1.8-.4.2-.9.5-1.4.6-3.4.5-6.8.5-10.1 0-.5-.1-.9-.2-1.3-.3v34.6c.9.1 1.7.5 2.3 1h0c0 .3.2.8-.1 1-.7.4-1.4.9-2.2 1V72h1280V61.3c-.8 0-1.7-.1-2.5-.2-1.4-.2-2-.7-1.8-1.3.1-.3.3-.7.7-.9.9-.7 2.2-1.1 3.6-1.3V51c-.4-.1-.8-.2-1.2-.4-2-.8-4.1-.8-6.3-.2zM371.5 39.3c-.4-.1-.7-.1-1-.2-.2-.1-.3-.4-.4-.6.6-.1 1.1.2 1.4.8zM23.1 25.8c-.4.2-.7.5-1.1.6-1.1.2-2.5 0-2.5-.6s1.4-.8 2.5-.6c.4.1.7.4 1.1.6h0zm130.3 9.7c-.5 0-1.1.1-1.6.1-1.1 0-2.2.1-4 .1-.9 0-2.6-.1-4.1-.2-1.1-.1-1.8-.7-2.2-1.3-.5-.8-.2-1.3 1-1.7a8.95 8.95 0 0 1 4.6-.3c2.6.5 4.9 1.4 7.1 2.3 1.4.4 1 .9-.8 1zm91.6-.6c1.1-.3 2-.1 2.6.5-.3.2-.6.6-1 .7-1.1.3-2 .1-2.6-.6 0-.1.6-.5 1-.6zM229.4 42c-.1.2-1 .3-1.6.3h-1.7-3.4 0-5.1c-.6 0-1.1 0-1.7-.1-1.4-.1-2.2-.5-2-.9.1-.3.7-.6 1.2-.7 1.6-.3 3.4-.3 4.9-.8 3-.9 5.4-.3 7.9.6 1.2.5 1.9 1 1.5 1.6zm22 1.3c-.5.7-1.5.9-2.6.9-1.7-.1-3.1-.5-4.5-1-1.3-.5-2.8-.8-3-1.9a6.35 6.35 0 0 1 3.1-.5c1.1 0 2.2.1 3.3.1.5 0 1.1 0 1.6.2.5.1.9.3 1.3.6.8.4 1.2 1 .8 1.6zm19.7-3.4c-3.2 1.2-6.5 2.5-9.5 3.8-.8.4-1.9.1-2.8-.4-1.6-1-2.5-2.2-2.5-3.6 0-1.3 1.7-2.7 3.8-2.8l4.6-.3h0c1.9.1 3.6.1 5.2.3 1.1.2 1.9.7 2.2 1.3.4.7.1 1.3-1 1.7zm63.6 6.5c-2.6-.6-5.2-1.1-8-1.3-1.1-.1-2.1-.3-3.2-.5-1.4-.2-2.3-1.5-1.7-2.5 1.6-2.2 5.9-3.5 9.7-2.6l10.8 2.4c1 .2 1.5.8 1.9 1.4-1.9.5-3.4 1.4-5.1 2.2-1.2.8-2.8 1.3-4.4.9zm280.2 16.8c-1.2 0-2.5 0-3.1-.6-.5-.5.2-1.3 1.2-1.7.9-.4 1.9-.7 2.9-.9 1.2-.2 2.2.1 2.8.8.2.3.1.6.2.9-.9 1.1-2.3 1.4-4 1.5zm14.1-1.4c-.3.3-.6.8-.8.8-1-.1-1.8-.6-2.5-1-1-.7-.9-1.1.5-1.4.4-.1 1.1 0 1.5.1 1 .2 1.4.8 1.3 1.5zm100.9-6.5c-1.3 1.2-3.7 1.4-5.2 2.5-.8.6-1.2 1.1-1.1 1.8v2c-1.1.2-2.1.5-3.2.6-2.2.1-4.5.2-6.7.2-3.4 0-6.6-.5-9.5-1.8-.9-.4-2-.6-3-.9-2-.6-2.5-1.8-1.7-3.5.7-.6.7-1.2.7-1.9 0-1.9.9-2.4 3.7-2.4 2.2 0 4.5 0 6.6.6.5.1 1 .2 1.6.4 1 .3 2.1.3 3.3.1.5-.1 1.2-.2 1.7-.1 3.7.8 7.6 1 11.4 1.4.5 0 1.1.2 1.4.5.1 0 .2.4 0 .5zm8.1.3c-.2-.1-.4-.5-.2-.7.7-.6 1.8-.6 2.9-.2.9.3 1.5.8 1.7 1.4-1 0-1.9 0-2.9-.1-.6-.1-1.1-.2-1.5-.4zm438.2 6.4c-.4.2-.8.5-1.3.6-1.7.2-3.3.1-4.6-.7-.1 0 .3-.5.6-.6a7.24 7.24 0 0 1 4.6 0c.4.1.5.4.7.7h0zM86.1 31.5c0-.1-.1-.2-.2-.3-.1 0-.2 0-.2.1l.4.2zM79 16.7v.1c.1 0 .2.1.3.1l-.3-.2zm34 10.7l.2-.1h0-.4c0 .1.1.1.1.2l.1-.1z"/><path d="M70.5 29c2.2 0 4.4 0 6.6-.4 1.6-.3 3.2-.8 4.8-.2 1.8.7 3.3 1.6 4 2.8l2.8-.8c6.2-1.9 12.7-2.9 19.4-3.1 1.5 0 3.1 0 4.7-.1a2.99 2.99 0 0 0-1.9-1.3c-2.6-.7-5.6-.6-8.2-1.2-5.3-1.3-10.7-2.1-16.4-2.1-3.3 0-6.2-1.9-6.9-3.9-.2-.6-.3-1.3-.4-1.9-1.4-.4-2.8-.8-4.3-1.1-1-.2-2.1 0-3 .6-.7.5-1.5 1-1.9 1.7-.9 1.3-1.5 2.5-2.8 3.7-1.6 1.5-1.6 3.2-1.2 4.9.4 1.1 2.6 2.4 4.7 2.4zm1108.1 17.3c1 .4 2 .6 3 .9 2.1.6 4.2.9 6.5.3 2.6-.7 5.4-1 8.2-1h10.2c5.1-.1 10.1-.3 15-1.3 3.7-.8 7.8-.8 11.8-.6 4.5.2 9 .4 13.4-.4.4-.1.8-.4 1.2-.6-.5-.2-.9-.5-1.4-.5-2.8-.2-5.6-.6-8.4-.6-5.6 0-11.3.2-15.2-.1h0c-6.8 0-11.9 0-17-.1a44.84 44.84 0 0 0-11.6 1.2c-1.5.4-3.3.5-5 .6-3.4.2-6.8.2-10.2.3-1.5.1-2.1.6-1.7 1.1.4.3.8.6 1.2.8zM7.4 13.1c1.1.3 2.1.4 3.2.2 2.5-.4 4.3.2 5.6 1.4.9.8 1.6 1.8 2.7 2.6.7.5 1.8.9 2.8 1 2.2.3 4.4.4 6.6.4 1.7 0 3.3-.2 4.6-1-.1-.6-.1-1.3-.4-1.9-.8-1.6.1-2.6 2.2-3.4 1.1-.4 1.5-1 1-1.5-.3-.2-1-.3-1.5-.4s-1.1-.1-1.7-.1h-15 0c-5.5-.1-11-.7-16.5.2-.4.1-.6.3-1 .5.4.2.7.6 1.1.7 2.1.4 4.3.8 6.3 1.3zm909.5 39.7c9.6.6 19.2.2 28.8.2h6.8c1.2 0 2.4-.3 2.6-.9.2-.7-.5-1.3-1.6-1.7-1-.3-2-.7-3.1-.8-3.4-.3-6.8-.4-9.2-.5h0c-2.7 0-4.4-.1-6.1 0-2.2.1-4.6.2-6.6.7-3.8 1-7.7 1-11.6 1.4-.5 0-.9.3-1.3.6-.7.3-.3.9 1.3 1zM106.8 21h0z"/><path d="M92.3 17.2a4.44 4.44 0 0 0 1.1.8l7.5 2.4c2.1.7 4.3.7 5.9.7 3.8-.1 5.9-1.1 7-2.8.2-.3.5-.6.7-.9.7-.9-.6-2.1-2.3-2.1-6.2 0-12.3-.5-18.5-.1-1.4.1-2.1.5-2 1.2.1.2.3.5.6.8zm1183.4 26.2c0 .6.9 1.1 2.1 1.2.7.1 1.4.1 2.1.1v-3.5c-.8.1-1.6.4-2.4.6-1 .4-1.8.9-1.8 1.6zM865 50.5h0s-.1.1-.1.2c.1 0 .2.1.4.1l-.3-.3z"/><path d="M851.7 54.3c1.6.2 3.3.2 4.9.2 4.1-.2 7.1-1.3 8.3-3.8-2.6-.5-4-2-6.2-2.8-1.1-.5-2.2-.5-2.9.1l-5.4 5c-.6.5-.1 1.1 1.3 1.3zm-203.2-5c.5.1 1.1.1 1.7.1l7.3-.2h0c2.2 0 6.6.3 10.9 1.1 1 .2 1.9-.5 2-1.2 0-.3-.1-.8-.5-.9-.9-.4-1.9-.8-3-.8-2.2-.2-4.4-.2-6.7-.2s-4.4-.4-6.3-1.1c-2.2-.8-4.2-.4-6.2.4-1 .4-1.8 1-1.6 1.7.2.6 1.2.9 2.4 1.1zM836.2 53c1.6-.4 3.2-.8 3.6-1.9.2-.6-.7-1.3-.9-1.9l-.8-3c-.1-.6-.1-1.2-.1-1.8-2 .3-3.7 1-5.2 1.8s-2.8 1.7-4.7 2.1l2.9 3.6c1.6 1.9 1.8 1.9 5.2 1.1zm1.7-8.9h0 0z"/><path d="M838.2 44.3l-.3-.2v.3c.1 0 .2-.1.3-.1h0zm-10.6 4.2c.1 0 .3-.1.4-.1 0 0 0-.1-.1-.1l-.3.2zm-354-8.6c.1.1.2.1.3.2l-.3-.2z"/><path d="M459.2 41.2c.3.2.9.5 1.3.5l9.8.1c1.6-.1 2.7-.8 3.3-1.8-2.3-.7-4.4-1.6-7-2-2.7-.4-5.4.1-7.2 1.5-.7.6-.8 1.2-.2 1.7zm14.7-1.1c0-.1 0-.1 0 0h0 0zM749 49.3c1.2 0 2.2-.5 2-1.1-1-3.6-1-3.6 5.3-4.7.5-.1.8-.5 1.2-.7-.4-.2-.7-.5-1.1-.6-1.1-.2-2.2-.2-3.3-.3h0c-1.1.1-2.3 0-3.3.2s-1.9.7-2.8 1c-1.2 2-1 4 .6 5.9.2.2 1 .4 1.4.3zm328.8 5.5c-.1.1.6.5 1 .7h0c.5 0 1.1.2 1.5.1 2.7-.5 5.1-1.3 7.5-2.2 1.1-.4 1.6-1 1.1-1.8-.6-.9-2.8-1.4-4.1-1-3.1 1-5.6 2.2-7 4.2zM123.6 21l8.4.4h0l8.1-.5c.5 0 .9-.4 1.4-.5-.4-.2-.7-.5-1.1-.6-1-.2-2.1-.4-3.2-.4-4.4-.1-8.9-.1-13.3 0-1.3 0-2 .7-1.6 1.1.3.2.8.5 1.3.5zm43 1.3c-.5.4 0 .9 1.2 1.3l4.3 1.4c2 .8 4.1.7 6.3.5 1.4-.1 2.5-1.6 1.8-2.3-.6-.6-1.5-.8-2.8-.5h0c-1.1.2-2.1.1-3.2-.2l-4.7-.8c-1.1-.1-2.2 0-2.9.6zm900.7 32.5c.8.5 1.9.7 3 .4s1.7-.9 1.8-1.6h0c-.5-1.9-2.6-2.9-5.4-3.4-.4-.1-1.1 0-1.5.2s-1 .5-.9.7c.7 1.4 1.5 2.7 3 3.7zM399 37.3a15.26 15.26 0 0 0 1.1-1.6c.8-1.2 0-2.1-1.7-2.2-3.3-.1-6.6-.3-9.9.2-.4.1-.8.3-1.2.5.4.2.7.7 1.1.7 3.9.2 7.1 1.4 10.6 2.4z"/><path d="M399.1 37.3h0 0-.1l-.2.2.3-.2zM563 44.4c4.3.4 8.6.6 12.9 0 .5-.1.9-.4 1.3-.6-.3-.2-.6-.5-1-.6-2.5-.7-5.3-.5-8.2-.6-1.4.1-3 0-4.6.2-1.3.1-2 .6-1.7 1 .2.3.8.5 1.3.6z"/><path d="M568 42.6h0 0zm269.9 1.5h0 0zm10.1 0c1.4-.1 2.1-.6 1.8-1.3-.1-.3-.4-.6-.7-.9-1.4-.9-2.7-1.1-4.5-.6l-4.5 1.4c-.9.3-1.5.8-1.8 1.4 3.2.3 6.5.3 9.7 0z"/><path d="M838.2 44.3c0-.1.1-.1.1-.2h-.4 0l.3.2zm419.4.3c1.6.1 3.2 0 5.8 0 .6 0 2.2-.1 3.8-.3.5-.1.9-.4 1.3-.6-.4-.2-.7-.6-1.1-.6-3.6-.6-7.3-.9-11-.1-.5.1-.8.4-1.3.6.4.2.7.5 1.1.6.4.2.9.4 1.4.4zm-205.1-3.8c2.5 0 4.2-.8 5.2-2.1h0c-.1-.2-.1-.6-.3-.7-1.6-.8-4.1-.8-6.2 0-1 .4-1.6 1-1.2 1.7s1.4 1.1 2.5 1.1zm-360.7 8.7h-.4v.2l.4-.2zm0-3.9h0c0-.1 0 0 0 0zm-10.1-.4l-.3.2h.4c-.1 0-.1-.1-.1-.2z"/><path d="M684.7 48.4c1.1.6 2.4 1.1 4.1 1h2.7v-3.9c-3.2 0-6.4-.1-9.7-.1.4 1.2 1.4 2.2 2.9 3z"/><path d="M691.4 45.3h0v.2h.3l-.3-.2zm-287.2-4.5c1-.3 1.8-.7 2.6-1.2.4-.2.6-.6.6-.9-.1-.6-.9-1-2.1-1.1l-6.1-.1c.1.6.1 1.2.2 1.8.4 1.5 2.6 2.2 4.8 1.5zm-5.1-3.5l-.3.2h-.1.4v-.2h0zm564 15.2c.4.2 1 .3 1.5.3 1.8 0 3.2-.6 4.1-1.5.3-.3.6-.7.4-.9-.6-.7-1.7-.9-3-.7-1.9.4-2.8 1-3.6 2h0c.2.3.2.6.6.8zm150.2 1.6c1.6.2 3.3.2 4.8-.4.4-.1.5-.5.8-.7h0c-.1-.8-2-2-3.3-2-1.3-.1-3.1.7-3.7 1.7-.4.7.1 1.2 1.4 1.4zm-689-16.7h1.6c1.2-.1 2-.5 2-1.1 0-.9-1.6-1.9-2.9-1.9-1.7.1-2.7.7-3.5 1.6-.7.7.5 1.4 2.8 1.4zm647.3 2c.5 0 1.1.1 1.6.1h0 1.7c1.2.1 2.4-.1 2.9-.8.3-.4-.7-1-1.9-1.1l-4.9-.1c-1.2 0-2.4.6-2.1 1 .3.6 1.5.9 2.7.9zM830.5 57.9c-1-.3-1.9 0-2.1.8-.2.7.4 1.4 1.5 1.5l4.2.4c-.6-1.1-1.7-2.1-3.6-2.7zm3.8 3h0l.3-.2h-.5c.1.1.2.1.2.2zm-183.9-9.4c-2-.3-4 0-4.3.7-.1.2.2.6.5.7 1.4.7 3 .6 4.5.4.5-.1.8-.4 1.2-.7-.1-.5-.7-.9-1.9-1.1zm377.1 4c1.2 0 2.5-.4 2.3-.9-.2-.6-1.6-.8-2.7-.8h0c-1.2-.1-2.1.1-2.9.6-.7.6 1.1 1.2 3.3 1.1zm27.3-1c-.2.1-.3.5-.2.6 1.3.8 3 .6 4.6.4.5 0 .9-.4 1.5-.6h0c-.4-.2-.8-.6-1.2-.6-1.6-.3-3.3-.4-4.7.2zm-184.1-3.1c.7-.6.5-1.2-.3-1.8-.8-.5-1.8-.7-2.9-.4-.5.1-1 .3-1.3.6-.3.2-.5.5-.7.7l2.6.8c1 .6 2 .7 2.6.1zm-5.4-.7h0c.1 0 .1-.1.1-.1-.1 0-.2-.1-.4-.1l.3.2zm-41.4-4c1 .7 2.3 1.2 3.7 1.4 0-1.2 0-2.5-1.8-3.3-1-.5-2.1-.3-2.9.3-.2.2-.1.6 0 .8.3.3.7.6 1 .8zm3.7 1.8h0 0zm.4-.2c-.1 0-.2-.1-.3-.1v.3l.3-.2zM735.1 44c.9.5 1.9.9 2.8.5 1.1-.3 1.4-1.1.9-1.8s-1.6-1-2.7-.9c-.5 0-1.1.2-1.4.4-.7.6-.5 1.2.4 1.8zM525 40.4h0l-.3-.2c0 .1-.1.1-.1.2h.4 0z"/><path d="M518.4 41.9c2.6.2 5.1.2 6.3-1.5l-5.9.2c-1.3.1-2 .5-1.7.9.2.2.8.4 1.3.4zm-73.1-4.2c1.5 1.1 2.9 1.4 3.6.6.2-.2.2-.6.3-.9-.3-.6-.9-1.1-1.9-1.3-.4-.1-1 0-1.4.1-1.3.3-1.5.8-.6 1.5zM50.8 14.6c.4.2.8.5 1.2.7 1.2.6 2.2.4 2.7-.5.1-.3-.2-.7-.3-1h0c-.7-.6-1.8-1-3-.8-1.5.3-1.7.9-.6 1.6zm374.6 29.7c-.3 0-.5.5-.8.7.4.2.9.3 1.3.5h0c.5-.1 1.3-.2 1.4-.4.4-.7-.4-1-1.9-.8zm256 1.2h0l.3-.2h-.5c.1 0 .1.1.2.2h0zm-4.1-.7c.4.2.9.3 1.4.3.9.1 1.7.1 2.6.1-.3-.5-.9-.9-1.7-1.2-1-.3-2-.3-2.6.2-.2.1 0 .5.3.6zm40.1-.3c.2-.3.5-.5.7-.8-.1-.3-.1-.7-.4-.8-.9-.3-1.4.1-1.2.9.1.2.6.5.9.7zM458.1 35s0 .1 0 0h0z"/><path d="M458.1 35c0-.2 0-.6-.1-.6-.4-.1-1-.2-1.4-.2-.4.1-.8.4-1.2.6.4.2.9.4 1.3.4.4.1.9-.1 1.4-.2zm722.5 3.8c.4-.1.6-.5.8-.8h0c-.2-.3-.3-.8-.7-.8-1.1-.2-1.7.3-1.4 1.2.2.2 1.1.5 1.3.4zm12.4-1.1c.5-.1 1.2-.5 1.1-.7-.5-.7-1.5-.9-2.7-.6-.5.1-.8.4-1.2.6h0c.7.7 1.6 1 2.8.7zM234.1 26.9c.2-.3.5-.5.8-.8h0c-.2-.3-.3-.8-.6-.8-1-.2-1.5.3-1.3 1.2 0 .1.7.2 1.1.4zM189 25.3c.2-.2.9-.5.8-.6-.5-.6-1.4-.9-2.6-.7-.4.1-1.1.5-1 .6.6.7 1.5.9 2.8.7zm8.5.2c.5.1 1.1.1 1.5 0s.7-.5 1-.7l-1.1-.6h0c-.6 0-1.2-.1-1.6 0-1.4.5-1.3 1 .2 1.3zM168.6 19c.4-.1.7-.4 1.1-.7-.7-.6-1.6-.8-2.8-.6-.4.1-1.1.6-1 .7.6.7 1.6.9 2.7.6zm-84.8-3.3c-.1-.2-.8-.4-1.2-.4-.5 0-1 .1-1.4.2-.9.2-1.4.6-1.7 1.2l2.6-.1c1.2-.1 1.9-.4 1.7-.9zm-4.4 1H79h0l.3.2c0-.1.1-.2.1-.2zm35.4 11.6c-.1-.2-.2-.5-.5-.6s-.6-.2-1-.2c.3.6.7.9 1.5.8zm-1.8-.9l-.1.1c.1 0 .3 0 .4.1 0-.1-.1-.2-.1-.3l-.2.1zm415.5 10.9c0-.1.1-.1.1-.2h-.4 0l.3.2z"/><path d="M530.1 37.2c-.4.1-.9 0-1.1.2s-.3.4-.4.7c1.1-.1 1.6-.4 1.5-.9zm-1.9 1.1c-1.7.2-2.7.8-3.1 1.8 1.7-.1 2.7-.7 3.1-1.8z"/><path d="M528.5 38.3h0l-.3-.2c0 .1 0 .1-.1.2h.4 0zm-3.5 2.1c0-.1 0-.1.1-.2h-.3 0l.2.2zM475.6 39c-.4 0-.9 0-1.1.2s-.3.5-.4.7c1.1-.1 1.6-.4 1.5-.9z"/><path d="M474 40.1c0-.1.1-.1.1-.2h-.4l.3.2zm604.3 5l.3-.5h-.9zm-385.1-.6c-.3.1-.7.1-.9.2-.2.2-.3.3-.4.5.9-.1 1.3-.3 1.3-.7zm-1.4 1.1h0s0-.1 0 0c.1-.1.1-.2.2-.3-.2 0-.3 0-.5.1l.3.2zm19.3 1l-.9-.2.1.5zM407 45l.8-.1-.5-.5zm352.8 11.2c-.1 0-.3 0-.4-.1 0 .1.1.2.1.3l.3-.2z"/><path d="M758.3 55.8c.3.1.7.2 1.1.3-.1-.7-.6-1-1.4-.9.1.2 0 .5.3.6z"/></svg>