<svg xmlns="http://www.w3.org/2000/svg" viewBox="0 0 1280 71" ><path d="M1144.3 27.8h0 0zm50.5-1.4h0zm-124-1.1h.2-.2z"/><path d="M1070.8 25.3h0zm3.5 0h.1s.1 0 .1-.1l-.2.1h.1-.1zm70.4 2.5h-.2.2zm50-1.5s0 .1 0 0h.2-.2zm-123.6-1h0c-.1 0-.1 0 0 0-.1 0 0 0 0 0zm-965.2 4.8h-.2.2 0z"/><path d="M1144.4 27.9h.2v-.1l-.2.1zm120.6-1.5c-4.4.1-8.9-.1-13.3.1-.5 0-1.2.1-1.2.2s.4.3.8.3c2.2.4 4.6.8 7.3.9 4.5.1 8.7.4 13 .7 2.6.2 5.6.1 8.1.4.1 0 .2 0 .3.1v-2.3h-.3c-4.8-.3-9.7-.5-14.7-.4zm-1012.1 4c0 .1 0 .1 0 0h0zm-147.2-.3h.1-.1zm147.3.3s-.1 0 0 0h.2-.2zm1009.3-7.7c-.5 0-1.4.1-1.4.2 0 .2.8.4 2 .4.5 0 1.1.1 1.6.1 3.5.2 6.1.7 7.2 1.5.8.6 2.4.8 4.8.9 1.3 0 2.5.1 3.5.3v-3.2l-6-.2h-11.7z"/><path d="M1260.4 29.2c-2.2.1-4.4.1-6.4-.2-1.6-.2-3.3-.2-4.7 0a29.54 29.54 0 0 1-7.9.2c-1.1-.1-2.2-.1-3.2.1-.9.1-1.8.3-2.7.5-.5.1-.9.2-1.3.2-.5.1-1 .1-1.6.1s-1.1.1-1.6.1c-11.2.1-22.3 0-33.4-.1-1.1 0-2.2-.1-3.2-.2-.4 0-.6-.1-1-.2.4-.1.8-.2 1.3-.2 4.4-.2 8.9 0 13.3-.1.5 0 1.2-.1 1.4-.2.4-.2-.1-.4-1.3-.5l-9.3-.8c-2.3-.2-3.3-.6-3.8-1.2l-.3-.3c-1.5.1-2.8.3-4.2.5-2.6.3-5.3.3-7.9 0-2.9-.3-5.8-.7-8.7-1.1-1.6-.2-3.2-.2-4.7 0-3.2.5-6.2 1.1-8.8 1.7-1.5.4-2.2.9-3.3 1.3-.8.3-2.5.5-4.2.5-2.2-.1-4.1-.3-5.2-.8-.7-.3-1.7-.6-3.2-.7-.2.2-.3.4-.4.6-.2.3-2 .7-3.4.7h-6.6c-3.3-.1-5.8-.7-6.2-1.6-.4-.7-1.2-1.2-4.2-1.5-1-.1-2-.2-2.9-.4-.5-.1-1-.1-1.5-.2-1.6-.1-3.2-.2-4.9-.1l-3.1.3c-4.1.3-4.3.4-6.9-.4-1.6-.5-3.2-.7-5.6-.5-.5 0-1 .1-1.6.1-3.2.3-6.4.3-9.8.3h-13.1c-.3.2-.9.4-1.9.4s-1.6-.2-1.7-.4c-1.6 0-3.3 0-4.7.1-4.3.5-7.5 0-10.7-.6-1.8-.3-3.2-.7-4.5-1.1-1.7-.5-2.2-.5-5.7-.2-2.8.3-4.4.7-4.8 1.5-.1.1-.4.2-.8.3-.3.1-.9.2-1.3.1-2.3-.1-3.7-.5-5.6-.8-2-.3-4.3-.3-6.3-.5-1.5-.2-2.3-.5-3.4-.8-1.6-.4-3.7-.6-6-.4-5.8.4-5.8.4-11.3.5-4.5 0-8.9.2-13.1.6-3.1.3-6.4.4-9.8.3-1.6-.1-3.3-.1-5-.1-2.9 0-5.5-.2-8.1-.5-1-.1-2.1-.2-3.2-.2l-16.7-.2c-5 0-10-.1-15.1-.1-4.5 0-8.9-.1-13.2-.4-2.1-.2-4.5-.2-6.6 0-4.8.4-9.9.4-14.7.7-1.1.1-2.2.1-3.2 0-7.1-.5-14.4-.4-21.6-.4-11.7 0-23.4-.1-35.1-.1-1.7 0-3.5 0-5-.1-3.8-.3-7.5-.4-11.3 0-2.6.2-5.5.2-8.3.2-1.7 0-3.3-.1-5-.1-2.3 0-4.5 0-6.5.3-5.8.7-11.7.7-17.8.2l-3.1-.3c-2.2-.1-4.4-.1-6.4.2-2.5.3-5.1.5-8 .5-3 0-5.3.3-7.2.8-.9.3-1.7.3-3 .1-2-.2-4.1-.4-6.4-.4h-10-26.8c-3.3 0-6.7-.1-10-.2-3.4 0-6.6-.2-9.6-.6-1.5-.2-3-.4-4.4-.5-2.2-.3-4.3-.2-6.2.2-.9.1-1.6.4-2.4.5-2.2.5-4.9.5-7.7.4-1.6-.1-3.1-.3-4.7-.4-1-.1-2.3-.1-3.2 0-2.6.3-5.2.4-8 .5-3.3 0-6.7.1-10 0h-13.4c-4.4 0-8.6.6-13.1.1l-4.9.3c-3.3.2-6.6.3-9.8-.1-3.7-.4-7.6-.4-11.5-.4-6.1 0-12.3.1-18.3-.2-1.4-.1-1.7-.2-1.4-.6.4-.5-.5-.7-2.2-.8-1.7 0-3.4 0-4.7.3-.8.2-1.4.4-2.2.6-1.9.4-3.5.6-5.9.6h-5c-3.3 0-6.7 0-10-.1a60.53 60.53 0 0 0-9.7.5c-.5.1-1 .1-1.5.1-3.9 0-7.8 0-11.7-.1-1.1 0-2.1-.2-3.1-.3-2.5-.3-5-.6-7.6-.8-1-.1-2.3-.1-3.2 0-2.7.2-5.3.4-8.2.1-1.6-.1-3.3-.1-4.9 0a83.41 83.41 0 0 1-10 0c-3.9-.2-7.6-.3-11.4.1-1.5.1-3.3.1-5 .2a29.01 29.01 0 0 0-6.9 1c-1.5.4-3.7.5-6.1.4-1.1-.1-2.2-.1-3.2-.2-2.6-.3-5.3-.4-8.1-.4l-8.4.1c-.5 0-1.2.1-1.4.2-.3.2.4.3 1.7.4 2.1.1 4.5-.1 6.5.2a12.59 12.59 0 0 1 1 .3c-.5.1-.9.2-1.4.2-3.3.1-6.7.1-10 0a20.65 20.65 0 0 1-4.5-.5c-1.2-.3-2.4-.5-4.1-.7-4.4-.3-8.8-.4-13.2-.1-2.7.2-5.4.3-8.2.4l-25.1.2c-2.9 0-5.6.2-7.7.6-2.7.6-5.7.7-9.2.7-3.9 0-7.8-.1-11.7.1-.5 0-1.4.1-1.4.2-.1.2.6.4 1.9.5 3.4.1 6 .5 8.9.8-.4.2-1 .4-2 .5-1.6.1-3.2.1-4.8.2-2.2 0-4.3.1-6.3.4l-10.2 1.2c-1.2-.4-2.7-.7-5-.7-2.7 0-5.5 0-8.3-.1-2.2 0-4.4.1-6.4.3-2.5.3-5.2.4-8 .4-3.9 0-7.6.2-11.2.5-1.5.1-3.2.2-4.9.2-3.3 0-6.6 0-9.9-.1-6.3-.1-12 .2-16.9 1.2-1 .2-2 .2-3.1.1-2.5-.3-5.1-.4-8-.4h-11.6c-1.3 0-2.1-.2-1.9-.4.1-.1.7-.2 1.2-.3 2.2-.1 4.4-.1 6.6-.2 1.6-.1 2.8-.3 3.4-.6-3.7 0-7.4-.1-10.8-.6-1-.1-2.1-.1-3.2-.1l-3.1.3c-5.4.5-10.8.5-16.1-.1-1.1-.1-2.1-.1-3.2 0-2.1.2-4.3.2-6.5.2a172.8 172.8 0 0 0-14.6.6c-2.7.2-5.6.2-8.1-.1-3.6-.5-7.3-.5-11.2-.5-1.4-.6-3.8-.8-6.5-.8l-18.1.1c-1.1 0-2.2 0-3.2.1-8.6.7-17.4.4-26.2.5-5.4 0-10.9-.1-16.3 0-.7.4-2 .6-3.6.7-3.3.1-6.7 0-10 .1-5 0-10 0-14.8.5l-13.3.4h-1.7c-1.5 0-3.5.6-2.7.8.7.2 1.5.4 2.5.5 2.1.2 4.4.1 6.6 0 3.6-.5 7.7 0 11.4-.4 3.2-.3 6.6-.1 10-.1h8.4c4.5 0 8.8-.3 13.1-.5 1.2-.1 2.2.1 2.2.3 0 .1-.5.2-.9.3-1.2.3-2.8.4-4.5.5-2.2.1-4.5.1-6.6.1-3.4-.1-6.7 0-10 0-2.2 0-4.4.2-6.5.4-1.5.1-3.2.3-4.8.3-6 .2-12.3.1-18.1.7l-8.3.2H35.5c-1.5 0-3.3.4-3.1.7.3.3 1.1.4 2.5.3 1.1-.1 2.2-.1 3.3 0 .5 0 1 .1 1.6.1 1.6.1 3.2.1 4.8-.1 3.6-.5 7.5-.4 11.4-.2 1.6.1 3.2.3 4.8.2 7.1-.5 14.4-.2 21.6-.3 2 0 4.2.2 4 .4-.7.4-2.6.4-4 .6-.5.1-1 .1-1.5.2a54.75 54.75 0 0 1-8.1 0c-.5-.1-1.1-.1-1.5-.2-1.5-.2-3.3-.2-4.8-.1a140.27 140.27 0 0 1-9.7.6l-8.4.1c-1.7 0-3.4 0-4.9.1-5.4.5-10.9.5-16.5.5l-27 .1V72h1280V29.7c-6.6 0-13.2 0-19.6-.5zM125.6 32.3c-.5 0-1.1-.1-1.2-.2-.2-.2.5-.3 1.8-.4h5.8c-.4.2-1 .4-1.8.4-1.5.3-3 .3-4.6.2zm9.9-.7c-.9 0-1.9 0-2.8.1.2-.1.3-.2.6-.2 1.2-.2 2.6-.5 3.8 0-.6 0-1.1.1-1.6.1zm32.7-1c-.3-.1.5-.3 1.8-.3h5.8c-1 .4-2.8.6-4.9.6-1.1 0-2.2 0-2.7-.3zm8.7 3.2l.8-.1.1.2-.9-.1zm53.5-1c-.8.2-1.8.3-2.8.4-3.1.2-6.6.2-9.5.7-2.5.4-5.3.3-8 0-1.6-.2-3.2-.2-4.8 0-2.2.2-4.3.2-6.3-.1-1-.1-2-.2-2.9-.4-.5-.1-1-.2-1.1-.3-.1-.2.7-.3 2-.4 6.6-.5 13.1-.8 19.5-.8h3.4 0c3.3 0 6.6-.1 9.9.1.5 0 1.1.1 1.3.2.4.2.2.5-.7.6zm104.3-1c-1.1 0-1.9-.2-2.5-.4-.7-.3-.5-.5.5-.6 1.3-.2 2.7-.2 4.1-.2-.1.2-.2.4-.4.6-.2.4-.8.6-1.7.6zm31.9-3.5h-5.9c1.4-.6 3.7-.7 6.4-.6.5 0 1 .1 1.2.2.2.2-.5.4-1.7.4zm808.7 1c-1.4.1-2.1-.1-1.8-.3.1-.1.9-.1 1.3-.1h0c.5 0 .9.1 1.3.2-.3 0-.5.2-.8.2zm-922 1.2h-.1.1z"/><path d="M1144.7 27.8h-.2-.1-.1.1.3 0z"/><path d="M1151 26.9c.5.3 1.1.5 2.3.5.9 0 1.3-.5.9-1-.2-.3-.8-.5-2-.6-4.8-.3-9.7-.5-14.7-.2-.5 0-1.1.1-1.3.2-.3.1-.3.3-.1.4.6.4-.1.7-1.7.9-1.1.2-1.6.4-1.1.6.2.1.9.1 1.5.2 3.2.2 6.4.1 9.7 0 .7-.5 2-.8 3.9-1.1.9-.2 2-.2 2.6.1z"/><path d="M1144.3 27.9h0 0zm-872 2.5c1.3 0 2-.2 1.7-.4-.2-.1-.8-.2-1.2-.2l-6.5-.1c-2.8 0-5.2-.2-7.8-.5-2.3-.2-5-.1-5.4.9v.3a614.43 614.43 0 0 0 19.2 0z"/><path d="M253.2 30.5s0-.1 0 0c0-.1 0-.1 0 0 0-.1 0-.1 0 0-.1-.1-.2-.1-.3-.1h0 0 .1l.2.1zm967.2-2.7h0c2.3.1 4.3-.1 5.7-.7.7-.3.4-.5-.9-.6-2-.2-4-.3-6.1-.1-1.7.1-2.6.5-1.6.8.9.3 2 .6 2.9.6zM53.1 33.1c1-.3.9-.5-.6-.6-3.4-.2-6.3 0-8.7.6-.3.1-.4.2-.6.3.4.1.8.2 1.3.2 3.4.3 6.3.1 8.6-.5zm479.1-9.2c.4 0 1-.2 1-.2-.5-.2-1.5-.3-2.6-.2-.4 0-.6.2-.9.3h0c.5.2 1.4.3 2.5.1zm703.6 3.3c.4 0 1.1-.2 1.1-.3-.5-.3-1.5-.3-2.7-.2-.5 0-.8.2-1.2.2.7.3 1.6.4 2.8.3zM146.6 28.4c.3 0 .5-.2.8-.2-.4-.1-.9-.1-1.3-.2-.5 0-1.2.1-1.3.1-.3.3.4.4 1.8.3zm35.4 1c1 .1 1.9 0 2.4-.2.1 0-.6-.1-1-.2h0c-1-.1-1.9 0-2.4.2l1 .2zm892.2-4h0 0zm-3.2 0c0-.1 0-.1 0 0 .1-.1.1-.1 0 0 0-.1 0-.1 0 0-.1-.1-.2-.1-.2-.1h-.1.1 0l.2.1z"/><path d="M1074.3 25.3h.1c0 0 0 0-.1 0h-.2s.1 0 .1.1l.1-.1z"/><path d="M1072.6 24.9c-.8 0-1.3.2-1.5.4h3c-.2-.2-.7-.4-1.5-.4zm122.4 1.5s-.1 0 0 0c-.1-.1-.2-.1-.2-.1h-.1 0 .1.1l.1.1z"/><path d="M1196.6 26c-.4 0-1 0-1.1.1-.2.1-.3.2-.4.3 1.1 0 1.6-.2 1.5-.4zM105.8 30.1h-.4l.1.1h.2l.1-.1h0z"/><path d="M104.1 29.8c.1.1.2.2.4.2.3 0 .6.1.9.1-.2-.2-.6-.4-1.3-.3z"/></svg>