<svg xmlns="http://www.w3.org/2000/svg" viewBox="0 0 237 237.18"  ><path d="M229.77 98.46c-.31-11.41-.96-22.82-2.1-34.19l-.95-8.52c-.15-1.42-.33-2.84-.53-4.25l-.89-6.41-.58-4.15-.29-2.07-.14-1.04c-.28-.08-.68-.01-1.01-.03l-8.33.13-9.62.14c-.08.26 2.32.49-1.41.67-10.04.37-12.32-.21-20.12-.11l-.04-1.14-.05-2.77c.02-1.08-.14-2.15-.48-3.01-.32-.85-.92-1.71-1.75-2.33-.79-.6-1.73-.94-2.82-1.13-1.09-.18-2.26-.22-3.42-.23l-1.33.03-.95.04c-1.01.03-2.25.07-3.37 0-1.16-.02-2.09.3-2.78.65-.34.17-.66.35-1.01.7-.17.16-.31.34-.41.49l-.24.58-.47 1.13-.23.55c-.05.21-.06.46-.09.68l-.31 6.27-22.08.02-53.11 1.16c.46.15.68.29-1.07.37-6.2.2-8.4.04-15.3.07 0-.13-.01-.23-.02-.36l-.1-2.91-.05-2.77c.02-1.08-.14-2.15-.48-3.01-.32-.85-.92-1.71-1.75-2.33-.79-.6-1.73-.94-2.82-1.13-1.09-.18-2.26-.22-3.42-.23l-1.33.03-.95.04c-1.01.03-2.25.07-3.37 0-1.16-.02-2.09.3-2.78.65-.34.17-.66.35-1.01.7-.17.16-.31.34-.41.49l-.24.58-.47 1.13-.23.55c-.05.21-.06.46-.09.68l-.33 6.85v.49c-.02.44-.03.92-.04 1.38l-12.04.08-13.69.44-7.09.23-12.73.32 2.24 37.15 1.53 32.54c.81 21.99 1.06 44.6.23 67.93-.11 5.99-.32 11.97-.6 17.9l-.34 5.51-.18 2.9-.09 1.44-.05.71-.02.36c0 .11.21.02.31.04l11.03-.36 55.75-.79c-2.59-1.45 38.15-2.88 29.99-4.25 11.14-.16 27.88-.39 28.73-.83 2.57-1.31 11.12-2.92 40.7-4.19 11.58-.38 29.38-.15 33.46-.47 6.42-.52-15.03-.64-8.61-1.15l-127.61 2.06-54.21 1.03c.02-.35-.1 1.1.21-2.76l.54-8.07.84-16.18c.46-10.81.71-21.67.77-32.57l-.64-34.31-.48-14.47c.05.02.1.03.16.05.89.04 1.79.07 2.72.06l-2.38.03a28.27 28.27 0 0 0 2.03.43c2.83.27 5.54.69 7.07.67l37.04-.33c.02-.19-.64-.36.38-.47 3.21-.24 5.81.33 9.02.08.07-.1.15-.2.23-.31l7.73.28 14.54-.52c-.13-.11-.19-.21.29-.26 2.01-.12 4.79-.07 7.67-.1l1.27-.08c.33-.07.41-.18.46-.25 1.3-.02 2.46-.01 3.54 0l44.04-2.9c3.29-.35 6.57-.69 9.74-.89 4.7-.21 10.7-.14 15.28-.2-.72-1.05 10.43-1.81 8.18-2.84 3.05-.04 7.64-.1 7.87-.41.69-.92 3.02-2.01 11.12-2.73 2.57-.16 6.23 0 8.13-.05.92 12.31 1.37 24.07 1.62 34.01.37 10.72.46 21.66.32 32.56l1.33-13.79-1.15 26.44c-1.18 23.64.61 10.36 2.32 1.32.88-6.52.97 2.39 2.11-7.86l-1.41 18.55c.17.44.61-5.27.95-10.45.33-5.18.65-9.82.83-7.22l-1.65 22.56c.43-1.25 1.01-7.67 1.52-13.63.46-5.96.87-11.47 1.1-10.88-.04 2.01-.59 7.22-1.06 12.11-.52 4.88-.91 9.45-.65 10.19.14.3.74-7.13 1.05-10.84l-1.49 23.74c-.08 3.42.57 1.41 1.91-9-.65 7.26-2.07 17.45-2.85 25.1 0-.01.01-.04.02-.06l1.49-11.89-1.25 11.01.55-2.24 1.25-9.87-.97 8.65 1.47-7.3c1.57-10.24 3.05-20.08 3.5-25.68 1.88-22.59 2.85-45.37 2.22-68.19zM20.54 91.67v-.08l3.11.04-3.11.04zm194.82-11.51l-70.07 1.51c-8.08.64-62.62 1.98-76.63 2.06l-1.27.04c-7.64.1-16.93.37-23.39.91l-8.97 1.04 3.82.45c-3.06.04-6.12.08-7.29.3-6.5.59-2.8 1.05-.28 1.72 1.81.28-.62.82 2.21 1.08l-5.09.07c-.23.31 6.27-.28 4.87.24-1.96-.08-4.15.16-6.19.18.71.4 7.06 0 6.75.42-1.1.12-5.73-.43-6.12.08-.08.1 1.96.08 2.98.06-6.27.28-9.71.84-3.98 1.27-1.77.02-4.18-.09-6.17-.03l-.5-12.48-.71-15.34-.4-8.01-.09-1.56-.04-.47 35.58-.64c.03.43.07.8.16 1 .51 2.49 1.01 1.06 1.72.09.3-.7.81.23 1.11-.86v1.94c.3.08-.2-2.39.3-1.86-.1.75.1 1.58.1 2.36.4-.28.1-2.69.5-2.58.1.42-.51 2.19 0 2.33.1.03.1-.75.1-1.14.21 2.38.73 3.68 1.22 1.49 0 .75-.18 1.83-.08 2.62h0c0-.4.09-1.09.08-1.46v1.36l.22-.24a7.04 7.04 0 0 0 .09-1.03v.9a4.86 4.86 0 0 0 .46-.78c.29-1.08.74-2.11.74-2.69l.45-13.95c-.19-.01-.38.23-.46-.16-.15-1.21.51-2.18.37-3.37l-.3-.02c.09-.07.19-.1.3-.09.05 0 .1.02.15.05-.07-.11-.02-.14.08-.25-.01-.11-.03-.21 0-.25-.07-.02.3-.04.48-.04h.68c.49 0 .37.05.46.06l.07-.05a5.02 5.02 0 0 1 .11-.23c.08.01.14.05.18.09.15-.06.36-.09.46 0 .11.08.17.19.25.34l.12.22.06.13.06.51.25 2.09 1.04 8.66c.28 1.26.56 2.52.69 3.73.12 1.74-.07 4.36-.11 5.24.53.09.93 1.03 1.33 2.25l.3.91.15.44c-.02.07-.07.11-.09.17-.09.22-.03.45.47.7-1.47.04-3.61.08-3.65.38-.05.45-.3.95-1.29 1.42l-.39.17-.3.16c-.21.11-.45.21-.72.31-.54.2-1.2.37-2.02.5-1.28.12-3.24-.35-3.71-.2-.73.25 1.64.73.91.98 1.21.1 2.41.15 3.59.17 1.27.01 1.91.03 4.61-.05l6.67-.26.42-.02c.13-.01.04-.24.07-.35v-.83-1.67-3.35l-.09-6.29 47.46-.85 44.59-.65.39 1.51c.17-.54.34-1.04.51-1.48-.01 1.18-.01 2.36.19 2.8.51 2.49 1.01 1.06 1.72.09.3-.7.81.23 1.11-.86v1.94c.3.08-.2-2.39.3-1.86-.1.75.1 1.58.1 2.36.4-.28.1-2.69.5-2.58.1.42-.51 2.19 0 2.33.1.03.1-.75.1-1.14.21 2.38.73 3.68 1.22 1.49 0 .75-.18 1.83-.08 2.62h0c0-.4.09-1.09.08-1.46v1.36l.22-.24a7.04 7.04 0 0 0 .09-1.03v.9a4.86 4.86 0 0 0 .46-.78c.29-1.08.74-2.11.74-2.69l.45-13.95c-.19-.01-.38.23-.46-.16-.15-1.21.51-2.18.37-3.37l-.3-.02c.09-.07.19-.1.3-.09.05 0 .1.02.15.05-.07-.11-.02-.14.08-.25-.01-.11-.03-.21 0-.25-.07-.02.3-.04.48-.04h.68c.49 0 .37.05.46.06l.07-.05a5.02 5.02 0 0 1 .11-.23c.08.01.14.05.18.09.15-.06.36-.09.46 0 .11.08.17.19.25.34l.12.22.06.13.06.51.25 2.09 1.04 8.66c.28 1.26.56 2.52.69 3.73.12 1.74-.07 4.36-.11 5.24.53.09.93 1.03 1.33 2.25l.3.91.15.44c-.02.07-.07.11-.09.17-.09.22-.03.45.47.7-1.47.04-3.61.08-3.65.38-.05.45-.3.95-1.29 1.42l-.39.17-.3.16c-.21.11-.45.21-.72.31-.54.2-1.2.37-2.02.5-1.28.12-3.24-.35-3.71-.2-.73.25 1.64.73.91.98 1.21.1 2.41.15 3.59.17 1.27.01 1.91.03 4.61-.05l6.67-.26.42-.02c.13-.01.04-.24.07-.35v-.83-1.67-3.35l-.11-8.08 15.23-.22 4.64-.09 8.85-.12c.22.04.56-.13.51.2l.25 1.79c1.01 7.29 1.78 14.74 2.47 22.06l.49 6.05c-1.07-.14-2.21-.29-1.3-.45zm-9.41 78.96l-3.27.16 3.05-.22-.55-.12-2.32.09 2.03-.15-1.76-.24-6.06-.16-10.21.57.29-6.3c-.1-1.98.1-9.6.23-17.57l.26-14.5 5.57-.9-3.3-.19c2.62-.17 5.24-.33 6.23-.57 5.54-.81 2.35-.98.17-1.39-1.56-.13.49-.68-1.94-.76l4.36-.31c.18-.25-5.35.55-4.17.05 1.68-.03 3.55-.34 5.28-.46-.63-.28-6.03.36-5.79 0 .93-.13 4.92.05 5.22-.37.06-.09-1.68.04-2.55.11 5.34-.55 8.26-1.17 3.34-1.22 1.7-.12 4.11-.15 5.9-.35h-.01l-3.27.16 3.05-.22-.55-.12c-.76.01-1.53.03-2.32.09l2.03-.15c-.52-.09-1.11-.17-1.76-.24-2.43-.06-4.76-.26-6.06-.16l-9.33.52c.05-3.59-.03-7.79-.36-10.76-.21-1.44-.48-2.91-.73-4.37-.13.68-.26 1.31-.4 1.86 0-1.49 0-2.97-.16-3.54-.43-3.16-.82-1.36-1.38-.13-.24.88-.65-.3-.89 1.07l-.01-2.47c-.24-.11.18 3.04-.23 2.36.08-.95-.09-2.01-.1-3-.31.35-.06 3.42-.39 3.27-.08-.53.4-2.78-.01-2.96-.08-.04-.07.95-.07 1.44-.19-3.03-.61-4.69-.99-1.92 0-.96.13-2.32.06-3.33h0l-.06 1.86v-1.73l-.18.31c-.04.43-.07.86-.07 1.31v-1.15c-.13.29-.25.62-.37.99-.23 1.37-.58 2.68-.58 3.41l-.26 17.86-15.11.76c-.01.15.56.27-.31.39-2.74.29-4.97-.13-7.71.14l-.19.25-6.61-.08-5.01.23c.04-3.43-.05-7.35-.37-10.15-.21-1.41-.48-2.85-.73-4.28a28.99 28.99 0 0 1-.4 1.82c0-1.46 0-2.92-.16-3.47-.43-3.1-.82-1.33-1.38-.13-.24.86-.65-.29-.89 1.05l-.01-2.42c-.24-.11.18 2.98-.23 2.31.08-.93-.09-1.97-.1-2.94-.32.34-.06 3.35-.39 3.21-.08-.52.4-2.72-.01-2.9-.08-.04-.07.93-.07 1.41-.19-2.97-.6-4.6-.99-1.88 0-.94.13-2.28.06-3.27h0l-.06 1.82v-1.7l-.18.3c-.04.42-.07.85-.07 1.29v-1.13c-.13.28-.25.61-.37.97-.23 1.34-.58 2.63-.58 3.35l-.25 17.07c-.08 0-.16 0-.24.01.11.09.16.17-.25.21-1.71.11-4.09.09-6.56.13l-1.09.06c-.28.06-.35.14-.39.2h-3.02l-22.14 1.12c.04-3.49-.04-7.51-.37-10.39-.21-1.41-.48-2.85-.73-4.28a28.99 28.99 0 0 1-.4 1.82c0-1.46 0-2.92-.16-3.47-.43-3.1-.82-1.33-1.38-.13-.24.86-.65-.29-.89 1.05l-.01-2.42c-.24-.11.18 2.98-.23 2.31.08-.93-.09-1.97-.1-2.94-.32.34-.06 3.35-.39 3.21-.08-.52.4-2.72-.01-2.9-.08-.04-.07.93-.07 1.41-.19-2.97-.6-4.6-.99-1.88 0-.94.13-2.28.06-3.27h0l-.06 1.82v-1.7l-.18.3c-.04.42-.07.85-.07 1.29v-1.13c-.13.28-.25.61-.37.97-.23 1.34-.58 2.63-.58 3.35l-.25 17.25-8.4.28-8.37.4c-4.03.02-9.16-.29-13.08-.43.58.88-9.01.95-7.13 1.88l-1.23-.05v-.05c.06-3.58 0-7.93-.36-10.95-.21-1.39-.48-2.8-.73-4.2a39.45 39.45 0 0 1-.4 1.79c0-1.43 0-2.86-.16-3.41-.43-3.04-.82-1.3-1.38-.13-.24.84-.65-.28-.89 1.03l-.01-2.37c-.24-.1.18 2.92-.23 2.27.08-.91-.09-1.93-.1-2.88-.32.33-.06 3.29-.39 3.14-.08-.51.39-2.67-.01-2.85-.08-.03-.07.91-.07 1.39-.19-2.92-.6-4.51-.99-1.84 0-.92.14-2.23.06-3.21h0l-.06 1.79v-1.66l-.18.29a12.94 12.94 0 0 0-.07 1.26v-1.1c-.13.28-.25.6-.37.95-.23 1.32-.59 2.58-.58 3.28l-.25 17.18c.15.01.3-.29.37.18.02.26 0 .5 0 .74-1.32.44-3.78.8-8.42.85-2.73-.04-6.9-.57-7.87-.48-1.53.15 3.5.7 1.98.85l14.1.8c-.05.46-.09.92-.05 1.42l.24.11-.4 3.58.05 6.76c.09-.06.17-.08.2.14.04.93-.07 2.22-.13 3.56l.02.59c.05.15.13.2.18.22l-.11 1.64.73 20.54c.12 1.31.21 2.61.25 3.88-1.02.58-3.42 1.12-9.21 1.19-2.73-.04-6.9-.57-7.87-.48-1.53.15 3.5.7 1.98.85l15.05.85c-.12 1.81-.36 3.77-.48 5.37.89-.27.9 4.96 1.84 3.99-.12 1.42-.33 3.55-.1 3.68.69.39 1.44 1.56 1.53 5.39-.04 1.49-.57 3.74-.47 4.28.15.85.69-1.87.85-1.02.89-7.24 1.36-14.34 1.74-21.5 13.35.51 26.63.7 40.3.79h.06l-.36 3.93c.89-.28.9 5.05 1.84 4.06-.12 1.45-.33 3.62-.1 3.76.69.4 1.44 1.58 1.52 5.49-.04 1.52-.57 3.82-.48 4.37.15.86.7-1.91.85-1.05.85-6.97 1.31-13.8 1.68-20.68l26.02-.5 9.79-.27-.27 3c.89-.28.9 5.05 1.84 4.06-.12 1.45-.33 3.62-.1 3.76.69.4 1.44 1.58 1.52 5.49-.04 1.52-.57 3.82-.48 4.37.15.86.7-1.91.85-1.05.82-6.67 1.27-13.21 1.63-19.79l20.06-.76 1.09-.07c5.11-.22 11.05-.6 16.05-1.09l-.33 3.67c.89-.28.9 5.15 1.84 4.14-.12 1.48-.32 3.7-.1 3.83.69.4 1.44 1.61 1.52 5.59-.05 1.55-.58 3.89-.48 4.45.15.88.7-1.95.85-1.07.87-7.15 1.33-14.15 1.69-21.2l6.68-1.07-3.3-.19c2.62-.17 5.24-.33 6.23-.57 5.54-.81 2.35-.98.17-1.39-1.56-.13.49-.68-1.94-.76l4.36-.31c.18-.25-5.35.55-4.17.05 1.68-.03 3.55-.34 5.28-.46-.63-.28-6.03.36-5.79 0 .93-.13 4.92.05 5.22-.37.06-.09-1.68.04-2.55.11 5.34-.55 8.26-1.17 3.34-1.22 1.7-.12 4.11-.15 5.9-.35h-.01zm-25.08-44.55c-.09 0-.18 0-.26.01.1-.03.2-.14.26-.01zM89.18 163.7l-8.37.4c-4.03.02-9.16-.29-13.08-.43.58.87-9.01.95-7.13 1.88l-2.22-.09.41-8.33c-.1-1.9.11-9.23.25-16.9l.3-16.57c12.75.47 25.45.66 38.5.74l-.3 2.72.05 6.89c.09-.06.17-.08.2.14.04.95-.07 2.27-.13 3.63l.02.6c.05.16.13.2.18.23l-.11 1.67.74 20.95.17 2.14-9.48.31zm48.77-2.07c-1.71.11-4.09.09-6.56.13l-1.09.06c-.28.06-.35.14-.39.2h-3.02l-23.06 1.16.33-6.85c-.1-1.94.11-9.41.24-17.24l.27-14.81 24.89-.48 9.02-.25-.19 1.76.05 6.89c.09-.06.17-.08.2.14.04.95-.07 2.27-.13 3.63l.02.6c.05.16.13.2.18.23l-.11 1.67.74 20.95.16 1.94-1.3.06c.11.09.16.17-.25.21zm27.18-1.1c-2.74.29-4.97-.13-7.71.14l-.19.25-6.61-.08-5.92.28.31-6.63c-.1-1.94.11-9.41.24-17.24l.25-13.95 18.89-.72 1.09-.07a336.18 336.18 0 0 0 15.18-1l-.16 1.46.05 7.03c.09-.06.17-.09.2.15.04.97-.07 2.31-.13 3.7l.02.61c.05.16.13.2.18.23l-.11 1.71.75 21.36c.05.52.08 1.03.12 1.55l-16.15.82c-.01.15.56.27-.31.39zm-81.75-15.66c-.11-.04-.26-.13-.44-.23l1.77-1.3.14-.12c.89-.64 1.89-1.5 2.41-2.33l.59-1.33h-.69c.35-.25.71-.51.75-.73.51-.86-.17-.87-.81-1.11-.36-.04-.33-.56-.8-.52l.59-.42c-.12-.21-.63.65-.71.21.28-.1.43-.41.67-.58-.28-.2-.87.52-1.03.24.08-.16.91-.16.71-.51-.04-.07-.28.1-.4.18.63-.65.78-1.25-.13-1.1.23-.17.65-.28.85-.51-.13.08-.38.17-.49.26l.41-.3-.17-.08c-.13.04-.26.09-.36.16l.28-.2c-.15-.05-.3-.09-.46-.12-.48.04-1.02-.02-1.19.11l-4.37 2.98c.09.12.26.18.18.32-.27.39-.87.23-1.15.62l.12.21-1.08.4-1.29 1.2-2.68-2.48-.14-.12c-.77-.79-1.75-1.66-2.6-2.1l-1.34-.47.03.68c-.27-.34-.54-.67-.76-.7-.86-.47-.89.19-1.08.85-.02.37-.56.34-.47.83l-.48-.61c-.22.14.72.65.27.74-.13-.29-.46-.44-.64-.71-.2.31.6.92.33 1.09-.17-.08-.25-.95-.59-.76-.07.04.12.31.22.43-.71-.69-1.37-.94-1.14.09-.19-.27-.34-.74-.59-.99h0c.09.15.21.44.3.57l-.34-.49-.07.18a1.62 1.62 0 0 0 .2.42l-.23-.33c-.05.16-.08.32-.1.5.08.53.08 1.16.24 1.36 1.19 1.73 2.51 3.22 3.91 4.58.11-.11.13-.29.3-.23.46.24.42.88.89 1.12l.19-.15.66 1.06c.43.36.88.67 1.33.99l-1.07 1.39c-.23.46-.46.93-.76 1.29-.47.49-1.24.89-1.77 1.27.61.61-.39 1.92.39 2.41-.35.25-.89.63-.76.85.37.63.62 1.5-.02 2.55-.29.36-1.03.55-1.06.76-.05.34.78.04.72.38 2.81-1.87 5.17-4.11 7.84-6.2.2-.3.89-.96 1.79-1.75l3.1 1.49c.52.14 1.05.28 1.48.5.61.37 1.2 1.07 1.71 1.53.46-.73 2.02.02 2.32-.85.34.31.85.78 1.04.62.55-.48 1.36-.89 2.61-.39.44.26.81 1 1.04 1.02.36.02-.14-.81.22-.8-2.64-2.74-5.51-4.59-8.26-6.87z"/></svg>