<svg xmlns="http://www.w3.org/2000/svg" viewBox="0 0 194.8 73" ><path d="M118.4 46.1v.2h.1c0-.2 0-.2-.1-.2zm.2 5.1l.2-.2h-.2zm49.1-7.8h0zM188 22.8h0 0zm-52.3 12.6l-.6-1-.2-.5c-.1-.2-.2-.5-.3-.9-.1-.3-.2-.5-.2-.8l-.2.2c0 .1-.1.1-.2.1l-1.6 3.4-.9 1.8c-.2.5-.3 1-.3 1.6.1.2.2.3.3.3h.6c.4 0 .9-.1 1.3-.1.5-.1.9-.1 1.4-.1h.9l1.7-.5-1.1-2.5-.6-1z"/><path d="M194.5 16.6v-.2c.1-.2.2-.3-.1-.3l-.9-.3c-.1-.1-.3-.1-.4 0-.2.1-.3.3-.3.6 0 .1 0 .2-.1.2l-.2-.2c-.1-.1-.2-.3-.1-.4.2-.5.1-.5-.5-.7-.2-.1-.3-.1-.5-.2s-.5-.1-.7 0c-.3.1-.5.2-.3.6.1.2-.1.3-.4.3-.2-.1-.3-.2-.5-.1l-.3-.3c-.1-.1.1-.2.2-.3.2 0 .3-.2.3-.4v-.1c-.1-.4.1-.4.4-.4.5 0 .5 0 .5-.6 0-.1-.1-.2 0-.2.4-.1.6-.4 1.1-.2s1-.2 1.6 0h.1l.2-.3h-.2c-.3-.1-.7-.1-1-.2-.1 0-.2-.1-.2-.2-.1-.2 0-.4-.1-.5-.3-.1-.2.2-.3.4-.1 0-.1.1-.2.1s-.2.1-.2 0-.1-.2-.1-.2c.2-.4 0-.2-.2-.2-.5-.2-1 .1-1.4-.2-.2-.1-.5 0-.8.1v.1c.1.1.2.1.3.2l.2.1h-.2c-.4.1-.9.1-1 .7l-.1.1h-.1s-.1 0-.1-.1c.2-.2.1-.4-.2-.3-.1-.4-.4-.3-.7-.3s-.4.3-.3.6l-.1.1h-.1c0-.4-.3-.6-.6-.8-.1-.1-.1-.1-.1-.2.1-.1.2-.1.3-.1s.3.1.4.1h.4c.2-.2.5-.5.4-.6s-.4-.3-.7-.3c-.3.1-.6.1-.9 0s-.7.2-.7.5h0v.4c0 .1-.1.4-.1.6-.3 0-.3-.4-.5-.6-.1-.2-.2-.4-.2-.6 0-.3-.1-.5-.4-.5s-.4-.4-.6 0c-.1-.2-.3-.3-.5-.4h-.5-.3c-.4 0-1-.2-1.1.5 0 .1-.2.2-.3.3s-.1 0-.2 0 0-.2 0-.2c.3-.2.4-.4 0-.7s-.3-.7.1-.9l.3-.5c.1-.1.2-.2.1-.4h0c-.1-.2 0-.5.2-.7s.3-.5.1-.7c-.1-.3-.3-.5-.7-.3-.1 0-.2 0-.2-.1 0-.3-.3-.5 0-.8h0c-.2 0-.4-.1-.5.1l-.7.6-.1.1-.1-.1v-.5c0-.1-.1-.3-.2-.3s-.2.1-.3.2-.1.2-.2.2h-.3c0-.3-.6-.3-.3-.7l-.1-.1c-.1 0-.2 0-.2.1.1.2-.1.3-.2.4-.3.1-.5.2-.8.2h-.2c0-.1.1-.1.1-.2.1-.1.2-.2.3-.2s.4.1.4-.2c0 0-.2-.1-.3-.2s-.3-.1-.4-.2a1.23 1.23 0 0 0-1.3.2c-.3.3-.6.2-.9.4-.1 0-.1-.1-.1-.1v-.2s.2-.1.1-.3c0-.1-.1-.1-.2-.2l-.3.3c0 .1 0 .2-.1.2-.1.1-.2.3-.4.3s-.3 0-.4-.1c-.1 0-.1-.2-.1-.3.1 0 .2-.1.4-.1a.76.76 0 0 1 .4-.2c-.1-.1-.3-.2-.4-.3h-.3c-.8.2-1.5-.5-2.3 0 0 0-.1-.1-.2-.1-.8-.4-1.7-.4-2.5 0-.1.1-.2.1-.2-.1s-.3-.3-.3-.3c-.2.1-.4 0-.6-.1s-.4-.1-.6-.1c-.8-.1-1.6-.1-2.4 0-.2 0-.4.1-.6-.2s-.3-.1-.5-.1c-.4.1-.8.3-1.2 0-.1 0-.2 0-.3.1s-.2.2-.2.3c-.2.3-.3.3-.6.2s-.5-.1-.6-.4c-.1-.2-.2-.3-.4-.2h-.1c-.7.3-1.5.7-1.6 1.6 0 .2-.2.3-.1.4s.3.3.4.3c.2.1.5 0 .5.3s-.3.2-.4.4-.4.1-.5.2-.5.4-.3.5.1.5.1.8c0 .1.1.2.1.3l.2-.1c.3-.2.8-.3.9-.2.3.4.5.8.3 1.3-.1.4-.5.7-.9.7-.1 0-.3.1-.3.2h0c-.1.3-.2.6-.2 1 0 .2-.1.3-.3.3-.1 0-.2.1-.3.1l-.9-.3s-.1 0-.1-.1c0-.2 0-.5.1-.6s.3.1.4.2l.1.1h.2l.1-.2c-.2-.3.1-.6.1-.9s-.4-.5-.6-.7c-.1-.1-.1-.3-.2-.5-.1-.1 0-.2.1-.2.2-.2.4-.3.5-.5.1-.1.1-.2.2-.3v-.2l-.2.1c-.1 0-.3.1-.4.1s-.4-.3-.7-.2c0 0-.2-.3-.3-.4.1-.1.2-.2.3-.2.2 0 .4-.2.4-.5s0-.6.1-.8.5 0 .8 0h.1l.2-.2-.1-.2h-.5-.1s-.1-.1 0-.1c.2-.2.3-.5.6-.6a.65.65 0 0 0 .6-.6v-.1c0-.4-.4-.2-.6-.3-.3-.1-.6-.1-.9-.1-.2 0-.5.1-.6.3-.3.4-.6.8-.4 1.4 0 .1 0 .2-.1.3h-.3c-.1 0-.1-.1-.2-.2-.1-.3-.3-.3-.5-.3h-.3c-.2 0-.2-.2-.2-.4.1-.2.2-.4.4-.5.2-.2 0-.3-.1-.4-.4-.1-.9.1-1.1.5-.2.3.2.4.3.6s.1 0 .1.1.1.4-.1.5c-.4 0-.7.4-.9.6s-.2.7-.7.3c0 0-.2.1-.3.2a.53.53 0 0 1-.8.1h0c-.4-.3-.7 0-1 .1-.6.3-1.1.6-1.6 1s-.7.3-1.2.2c-.3 0-.5-.3-.5-.5-.1-.3.2-.4.4-.5s.3-.2.4-.5c.1-.2 0-.5-.1-.7-.2-.3-.5-.7-.8-.7s-.6-.4-.9-.5c-.1 0-.2-.1-.2-.2-.2-.6-.4-.7-1-.6-.2 0-.3.1-.5 0-.4-.1-.9.1-1.2.5-.3.3-.3.5.1.6h.5c.2 0 .2 0 .3.2.2.5.2.5-.3.7-.1.1-.3.1-.5.1-.5-.1-.7.2-.9.5-.1.1-.2.3-.3.4-.1.2-.2.2-.4.1-.4-.3-.5-.8-.7-1.1-.1-.2.1-.5.4-.5s.3.1.2.4v.3c0 .1.1 0 .1 0 0-.4.4-.5.6-.7.4-.4.2-.6-.3-.9-.8-.2-1.5-.3-2.3-.3-.1 0-.3.1-.3.2-.1.3-.2.5-.2.8-.1.2-.1.4-.2.5-.3.2-.4.5-.4.8 0 .1-.2.4-.2.4-.2 0-.4-.1-.6-.3-.1-.1-.2-.3-.1-.4.3-.4.1-.8.2-1.2 0-.1-.1-.2-.2-.2-.3 0-.6 0-.8.2-.4.5-1.1.3-1.5.8-.1 0-.2 0-.2-.1 0-.2-.1-.4-.2-.5-.1-.2-.2-.4-.4-.5-.3-.1-.6-.1-.8.1s-.5.3-.3.7v.6c-.1.3 0 .3.3.5.4.3.4.5.1 1s-.5.4-.9.5-.5.3-.7.2-.2-.4-.3-.6l-.1-.1v.2c-.1.2.2.5 0 .6-.1 0-.3-.2-.5-.3s-.1-.4-.1-.6 0-.3.2-.3c-.1-.1-.1-.2-.2-.2-.3-.1-.3-.3-.3-.5-.1-.5-.2-.6.3-.8.1-.1.1-.1.1-.2-.1-.1-.1-.1-.2-.1-.3 0-.5-.1-.8-.1s-.3 0-.3-.3c-.1-.6-.1-.6-.6-.6s-.9 0-1.4.1c-.2 0-.3.2-.4.4.2.1.3.3.5.2.1 0 .2 0 .3.1.2.2.3.4.5.6s.1.1-.1.2c-.1.1-.3.3-.3.4-.1.2-.1.1-.2.1-.4-.1-.3-.5-.5-.7s-.6-.1-.8-.4c0-.1-.1-.2-.1-.3-.1-.1-.1-.3-.1-.4s-.1-.2-.3-.2h-.1c-.3.2-.6.3-.9 0 0 0-.3.1-.4.1s-.6.1-.7.1c-.3-.4-.6-.2-.8 0s-.2.1-.3 0-.3-.1-.4 0-.3.2-.4-.1-.3-.4-.6-.4h-.1c-.3.1-.7.1-1 0-.5 0-1.1.2-1.4-.4 0 0-.2-.1-.2 0-.3.2-.6.1-.8-.1s-.5-.2-.8 0c-.2.2-.4.4-.6 0h-.3-.9c-.5.1-1 0-1.5 0-.1 0-.2.1-.2.1-.2.1-.2.2-.3-.1-.2-.4-.7-.7-1.2-.7-.6 0-1.1.1-1.7.1-.3 0-.5 0-.7.3s-.6.4-1.1.3h-.4c-.3.2-.4 0-.4-.3 0-.5-.1-.5-.6-.4-.2.1-.5.1-.7.1s-.2.1-.3-.1c-.2-.4-.6-.5-1-.4h0c-.5.1-1.1.1-1.7.1-.4 0-.8-.1-1.1 0-.5.2-1 .1-1.5-.1-.1.1-.3 0-.4-.1-.3-.2-.6-.2-.9-.1-.4.1-.8.1-1.2 0s-.8.1-1.2 0-.8 0-1.2.3h-.3c-.2-.5-.6-.2-.9-.3s-.6.3-.8.5-.2.2-.4 0c-.5-.7-1.3-.9-2.1-.6h-.3c-.3-.3-.8-.4-1.1-.1-.3.1-.7.2-1 .1-.4-.1-.8-.2-1.1-.2-.6 0-1.2-.1-1.7-.3h-.4c-.2 0-.4.1-.7.1-.3-.1-.7-.1-1 0-.4.1-.9 0-1.3-.2h-.5c-.3.1-.7.2-1 .1-.6-.2-1.2-.2-1.8 0s-1.2.2-1.7 0c-.8-.3-1.6-.3-2.4-.1h-.2c-1-.2-2.1-.1-3.1.3-.2 0-.3.1-.3-.1 0-.1-.2-.1-.3-.1-.6 0-1.2-.3-1.8 0h-.3c-.7-.2-1.2.2-1.7-.1h-.2c-.3.1-.5.2-.8-.1h-.3c-.1 0-.2.2-.3.2-.4-.3-.8 0-1.3 0-.4 0-.7 0-1.1.1-.3 0-.7-.1-1-.2h-.6-.4c-.7-.1-1.4 0-2 .2-.2.1-.4.1-.6.1-.4 0-.9.1-1.2.3-.4.3-1 .3-1.4 0-.1-.1-.3-.1-.5-.2H55c-.3.3-.5.1-.8 0a1.69 1.69 0 0 0-1-.3c-.5.1-1 .2-1.5.4-.4.2-.9.3-1.2.1-.1 0-.2-.1-.2 0-.3.1-.6.1-.9 0-.2-.1-.5 0-.7 0-.6 0-1.2.4-1.8.2-.1 0-.2 0-.2.1s-.2.4-.6.3c-.2-.1-.5.1-.7.2s-.4 0-.6 0-.5.3-.8.3c-.5-.1-1 .1-1.2.5s-.6.5-1 .3h-.1c-.1 0-.2-.1-.2-.1-.3.2-.5 0-.8 0s-.5.1-.7.1c-.3 0-.6.1-.8.3-.4-.4-.8.1-1.3 0-.2-.1-.5 0-.6.2s-.5.4-.6.3c-.4-.2-.5.1-.7.2s-.2.2-.3.2c-.4-.1-.8 0-1.2.2-.3-.3-.6 0-.7.1-.7.4-1.5.7-2.3.7-.2 0-.4.1-.6.2-1 .7-2.2 1-3.2 1.7h-.3c-.3 0-.7.1-.9.3-.5.5-1 .7-1.5.8-.4.1-.7.3-1 .6-.3.4-.8.6-1.3.7-.4.1-.7.3-1 .6-.1.1-.2.3-.4.3-.5 0-.7.4-1 .7l-.9.9c-.4.5-.9.9-1.4 1.3v.2l-1.2 1.9c-.5.6-.5 1.4-1.1 1.9l-.1.1c.1.4-.2.7-.4 1s-.1.5-.2.6c-.5.7-.9 1.5-1.2 2.3-.1.6-.3 1.1-.5 1.6-.4.6-.7 1.3-.9 1.9-.1.5-.6.8-.5 1.4-.4.5-.6 1-.8 1.6l-.6 1.5c-.2.3-.3.7-.5 1.1s0 .7-.1.8.1.5-.2.7c-.2.1-.2.5-.4.7-.4.6-.6 1.3-.6 2 0 .1 0 .2-.1.2-.1.2-.2.5-.4.8-.1.3-.1.5-.2.8s-.3.7-.2.9c.2.4-.3.4-.3.7s-.1.7-.2 1c-.2.4-.3.9-.1 1.4v.4c-.2.7-.3 1.5-.3 2.4v.2c-.2.5-.2 1-.1 1.4 0 .4.2.8-.1 1.3-.1.1-.1.3 0 .4.1.3.2.6.2.9v.3c-.2.2-.4.5-.6.5-.6 0-.3.3-.3.6a.76.76 0 0 0 .2.4c.2.2.2.3-.2.4-.3 0-.5.3-.4.5v.2c.2.3.4.5 0 .8v.1c.4.3.1.8.3 1.1.1.1.1.2.1.4-.1 0-.3-.1-.3 0-.3.3-.8.2-1 .5-.3.4-.7.5-1.1.3-.3-.1-.6-.3-.9-.4-.1-.1-.3-.2-.3 0s-.2.2 0 .4c.1.2.3.4.4.6.1.1.1.3 0 .4 0 0-.1 0-.1.1-.2.1-.4.2-.6.2s-.3.1-.2.2c.1.4.3.8.4 1.1.1.1.1.3.1.4-.3.2-.2.4-.2.7-.1.3-.2.6-.4 1h-.1c-.4-.3-.5.1-.7.3s-.4.1-.5.2-.5 0-.5.1c0 .2 0 .4.1.6 0 .1.2.2.3.2.4.2.8.4 1 .9.1.1.2.3.3.3.4.3.5.9 1 1 .1 0 .1.1.1.2a3.08 3.08 0 0 1 .3 1.3c-.1.5-.1.9-.1 1.4 0 .8.2 1.6.6 2.2.1.2.2.4.2.6 0 .3.1.6.3.7a4.74 4.74 0 0 1 1 1c.3.4.6.7 1 .9.3.2.7.4 1.1.5.6.2 1.2.2 1.9.3.2 0 .4.1.6.2.5 0 1 .3 1.5-.2.2-.1.4-.1.6 0 .4.2.8.1 1.1-.2.1-.1.4-.1.5-.2l.8-.3c.3-.2.5.1.8-.1l.9-.5c.1 0 .2-.1.2-.1.4.4.7.3 1.1 0 .2-.2.6-.2.8-.1s.4.1.6 0c.8-.1 1.7-.3 2.5-.6s1.8-.2 2.4-.8h.2c.4 0 .8 0 1.2-.2.4 0 .8-.1 1.2-.1.2.4.6.2.9.1s.6-.2.9-.2c.3-.1.7-.1 1-.1.4 0 .8.3 1.2.3.4.1.8 0 1.2-.2.3-.3.8-.3 1.2-.2.1 0 .2-.1.2-.1h1c.6-.1 1.2.4 1.8-.2 0 0 .1 0 .1.1l1.1.3c.5.1 1 0 1.4-.3.4-.1.7-.1 1.1 0 .6.2 1.2.6 1.8 0 .2-.2.4-.1.7.1.4.4 1.1.5 1.5.1.1-.1.1-.1.2 0 .8.2 1.7.2 2.5-.1.2-.2.5-.3.8-.3.8 0 1.6.1 2.4.2.3.1.6 0 .9-.2.1-.1.5 0 .6-.2.2-.4.5-.1.5 0a.91.91 0 0 0 1 0c.1-.1.3-.1.4-.1.4.3.8 0 1.3 0s1-.3 1.5-.3h1.5c.5 0 .8.2 1.1-.2 0 0 .2 0 .3.1l1.5.2c.2-.2.4 0 .6 0h.7c.5 0 1 0 1.5-.1.7-.2 1.3-.3 2-.4.2 0 .1-.3.4-.1.6.3 1.2.4 1.9.3.4.1.9 0 1.3-.2s.9-.3 1.4-.3c.8-.1 1.5.4 2.3.2 0 0 .1 0 .1.1.8.6 1.7.1 2.5.2.1 0 .1-.1.2-.1s.4.3.4.4c.3.3.7 0 .9.1.4.3.8-.1 1.3 0 0 0-.1-.3.2-.3s.4 0 .4.3c.1.1.2.1.3.1.3-.1.7 0 1 .1.5.1 1.1.1 1.6-.1h.3c.7.2 1.5.2 2.2.2.4.3.8 0 1.2 0 .4.2.8.1 1.1-.2l1.1.2h.1c.7-.2 1.4-.4 2.1-.4.2-.1.5 0 .7.1.3.2.6.3.9.1.2-.1.4 0 .5.1a.76.76 0 0 0 .4.2l2.4-.3c.3 0 .6-.1.9-.2.4-.3 1-.1 1.2.3v.1c.1.2.1.2.2 0s.4-.3.7-.2.5.2.8.2c.4 0 .8-.1 1.2-.2.7-.2 1.4-.2 2 .1a4.22 4.22 0 0 0 2.2.3c.1 0 .3-.1.4-.1 0 0 .1-.1.2 0 .3.5.7.2 1 0 .2-.1.4-.2.6-.1.3.2.6.2.9.2.7-.1 1.3.2 2 .1.5.4 1 .1 1.5 0 .5-.2 1.1-.1 1.6.2.1.1.3.1.4.1.4 0 .7-.4 1.2-.1.1 0 .3-.2.5-.2.5-.1.9-.1 1.4-.1l2.1-.1c.6 0 1.2 0 1.8.2.5.2 1.1.2 1.7 0 .1-.1.3-.1.4 0 .4.3.8.1 1.2.1.3 0 .7 0 1-.1a.78.78 0 0 1 1 .2h.1c1 .1 2-.3 3 0 .4.1.8.1 1.2 0 .4 0 .9.1 1.3.1h.5c.7-.2 1.3-.3 2-.3 1-.1 1.9-.3 2.8-.5.6-.1 1.2-.2 1.4-.8a1.27 1.27 0 0 1 1.1-1.1c.5-.1 1 .2 1.3.6.1.1.1.1.1.2.1.4.2.3.5.5s.5.3.7.4c.6.3 1.3.5 1.9.6 1.1-.2 2.1-.7 3.1-1 .4-.2.8-.4 1.3-.5s1-.2 1.5-.2c.6.1 1.2-.1 1.7-.5.2-.2.3-.1.4-.1.3 0 .5.1.8.1.6.2 1.2 0 1.6-.5.4-.4.7-.8 1.3-.5.2.1.3 0 .3-.1.3-.4.8-.6 1.4-.5a1.36 1.36 0 0 0 1.1-.7c.5-.7.6-1 1.6-.2h.1s.1.1.1.2-.1.1-.1.1c-.2 0-.5 0-.7.1-.1 0-.2.1-.2.2s.1.2.2.2c.2.2.5.4.7 0h.2c.7.2 1.4 0 1.9-.5.2-.1.4-.3.6-.3.5-.2.6-.2.5-.6s0-.4.2-.4.3 0 .3.2.2.3.4.1l.3-.3c.1 0 .1-.1.2-.1v.2c0 .1-.1.2-.1.3s.2 0 .3 0c.2-.2.4-.2.4.2l.1.1h.8c.1 0 .2-.2.4-.3s.2 0 .1-.2c-.3-.5-.2-.7.2-1 .1 0 .3-.1.3-.1.2.3.4 0 .5 0 .3-.1.6 0 .8.2.3.3.3.2.4-.1v-.2c.1-.4.2-.4.5-.2s.4.3.2.7c0 0 0 .1-.1.2-.2.2-.1.4 0 .6s.4.1.5-.1.4-.2.6.1.2.1.3 0 .2-.2.3-.2c.6 0 1.3-.2 1.8-.4.3-.1.7-.1 1-.1.2 0 .3-.1.2-.3s-.2-.2-.2-.3 0-.3.1-.4c.1-.2.2 0 .3.1.5.3.9.5 1.5.5h.5c.1 0 .2-.1.4-.2-.1-.1-.2-.1-.3-.2l-.9-.2c-.1 0-.1-.1-.2-.1.1 0 .2-.1.2-.1 0-.2-.1-.4-.1-.6 0-.1 0-.2.1-.3s.1-.1.2-.1a.76.76 0 0 1 .4.2c.3.3.7.5 1.1.3.7 0 1.2-.6 1.2-1.2 0-.2 0-.3-.1-.5s.1-.4-.2-.5-.4.2-.5.4-.3.1-.5 0-.1-.3 0-.4.2-.2.4-.2.4-.9.1-1.1h-.2c-.3.1-.2 0-.1-.2s.2-.4.2-.5c-.3-.2-.3-.7-.8-.8s-.5-.2-.8.1h-.2c0-.1-.1-.1-.1-.2.5-.3.2-.7.2-1s-.1-.5-.4-.5c-.1 0-.1-.2-.2-.3.1-.1.2-.2.3-.2.3 0 .6-.1.6-.4s0-.6.1-.7.4-.2.6-.3.2-.3-.1-.5c-.1 0-.1-.1-.1-.2s.1-.1.1-.1l1.3-.3c.4-.1.7-.1 1.1 0l.1.1c-.2.2 0 .4 0 .6-.1.3-.2.5-.3.7s-.1 0-.2 0c-.2-.3-.3-.3-.5 0-.1.1-.1.2-.1.3 0 .4-.3.4-.5.5-.4.2-.5.2-.2.6s.1.2-.1.3c-.2 0-.3.1-.5.2-.1.1-.1.2-.1.3 0 .3.6.4.5.8l.2-.1c.4-.1.4-.1.4.3v.2c.1.1.1.2.2.3l.3-.3v-.2c-.2-.2-.2-.5 0-.6.1-.1.1-.1.2-.1s.2-.1.2-.1c.1-.5.5-.6.9-.7.1 0 .2-.2.4-.3.1-.1.2-.1.3-.1s.2.1.2-.1 0-.5-.1-.5c-.4-.2-.3-.6-.4-.8s0-.9.3-.9.4-.2.5-.5.4-.4.1-.7-.5.1-.8 0l-.2.2c-.1.1-.2.1-.2.2-.3-.3-.4 0-.6.2l-.1.1c0-.1-.1-.1-.1-.2v-.3c0-.1 0-.1-.1-.2l-.1.1c-.1.1-.3.2-.3.3 0 .4-.3.3-.5.4-.1 0-.2.1-.2.1-.5-.4-.9 0-1.4.2-.2.1-.4.2-.4.5 0 .1-.1.2-.2.2s-.3 0-.4-.1-.1-.2-.1-.4 0-.3.2-.3c.3-.1.4-.3.3-.6 0-.2-.1-.4-.2-.5-.1-.3.2-.3.3-.5s.2-.1.3 0a3.86 3.86 0 0 0 2.1-.3c.3-.1.3-.3.1-.6s-.5-.4-.7-.5l-.5-.4-.3.1c-.1-.1-.1-.2-.1-.3l.1-.1c-.1-.1-.2-.2-.2-.3-.1.1-.2.1-.2.2v.3a.76.76 0 0 1-.2.4c-.1.1-.2-.1-.4-.2-.2-.3-.4-.5-.6-.6-.7-.4-.7-.5-.2-1.1 0-.1.2-.1.2-.1s.2.1.2.2-.1.2-.1.4c0 .1 0 .2.1.3s.2.1.3 0c.2-.2.5-.3.6-.5s.3-.4.5-.5.3-.3.1-.5-.2-.4-.1-.5c.3-.4-.1-.5-.2-.7-.1-.1-.2-.1-.3-.1-.1.1-.2.2-.2.3v.6c.1.4 0 .5-.4.7-.2.1-.6.1-.7-.2-.1-.2-.1-.4-.1-.6 0-.3-.2-.5-.5-.4-.2 0-.3.1-.4.2-.3.2-.6.3-1 .2-.1 0-.1-.1-.1-.1 0-.2 0-.5.1-.7.1-.3-.1-.4-.3-.6s-.2.1-.3.1c-.1.1-.2.2-.3.2-.5.2-1 .5-1.2 1l-.1.1s-.1-.1-.1-.2c.1-.4-.1-.8-.4-1.1-.2-.1-.2-.2-.2-.2l-.2.2a.45.45 0 0 1-.5 0c-.2-.1-.5-.1-.8 0-.1.1-.2.1-.4 0-.6-.5-.3-.7-1.1-.8-.2 0 .2-.1 0-.3s-.7-.3-.7-.5-.1-.1-.2-.1c-.2-.2.3-.3.4-.4s.1 0 .1-.1a.76.76 0 0 1 .2-.4 1.38 1.38 0 0 0 .4.3c.3.1.1-.1.4.1s.2-.2.3-.6c0-.1.2-.2.2-.3.2-.2.2-.4.5-.4s.5.2.6.4c.1.1.1.1.1.2.2.6-.1.5.4.5.2 0 .4 0 .4-.3s.2-.2.4-.1.2.2.2.2.2 0 .3-.1c-.4-.3.4-.4.1-.7.1-.1.2-.2.3-.2s.2.1.2.2c.1.4.3.7.6.8.4.2.4.3.6-.1s.3-.4.7-.3c.1 0 .3.1.4 0s.5-.4.4-.5c-.1-.4.2-.4.3-.6s.8-.4.4-1l.1-.2c.3-.1.5 0 .6.3s.2.6.4.8c.1.1.2.1.3.2.1 0 .1-.2.1-.2v-.3c.1-.3.2-.1.2 0s.2.2.3 0c0-.1.1-.2.2-.2s.2.1.2.1c-.2.6.1.4.4.3.2-.1.3-.1.4-.2a.47.47 0 0 1 .6.1c.2.2.3.2.4-.1 0-.2.2-.4.1-.6 0-.3 0-.6.1-.9 0-.2.2-.3.4-.1s.3.2.4.4.1.3.3.4c.1 0 .1.2.1.2s-.1.4.2.4c0 0 .1-.2.2-.3 0-.1.1-.1.1-.2.2-.2.2-.3 0-.6s-.1-.4-.1-.5-.1-.1-.1-.1-.1.4-.2 0c0-.2 0-.3.1-.4l.3-.3c.1-.1 0-.2.1-.2h-.3c-.1 0-.1.1-.2.1s-.3-.1-.2-.3c.1-.1.1-.2.1-.3 0-.2.1-.2.2 0s.3.4.6.1.6 0 .7.4-.2.2-.3.3-.1.1-.1.2a.94.94 0 0 0 .1 1.3s.1 0 .1.1c.2.2.3.4 0 .6s0 .3.1.4.2.1.3 0c.4-.4.9-.7 1.4-.9.3-.1.3-.3 0-.5s-.1-.2 0-.2c.3-.1.3-.3.3-.6v-.2c-.2-.3-.1-.5.2-.6.1 0 .2-.2.1-.4s.1-.2.2-.1.2.1.2.2c0 .2.1.3.1.5a1.38 1.38 0 0 0 .4.3s.2-.1.2-.2 0-.3-.1-.4l-.3-.3s-.1-.1-.1-.2c.5-.4.1-.5-.1-.7s0-.2-.1-.3c.5.2.5.2.8-.1s.4-.5.7-.7l.3-.2c.3.2.4 0 .5-.2s.1-.3.2-.4c.3-.3.3-.4 0-.7-.3-.4-.3-1.1-.7-1.5-.1-.1.1-.3.1-.5 0-.1 0-.2-.1-.3h-.2s0 .2-.1.2-.1-.2-.2-.2c-.1-.1-.2-.1-.3-.2-.1.1-.2.2-.2.3s.1.2.1.4 0 .1-.1.1h-.2c0-.1-.1-.1-.1-.2 0 .1-.1.1-.1.2 0 .3-.1.5-.1.8l-.8-.2-.1-.1c-.4-.2-.7-.4-.9-.8v-.1h.1.1c.2.1.2.4.4.2 0-.2-.1-.3-.2-.5-.1-.1-.1-.2-.1-.3 0-.2 0-.5.1-.6s.4 0 .6 0c.1 0 .2.1.2.2.1.2.1.4.2.5.1.2.5.3.6.2s-.1-.3 0-.3c.4-.2.4-.5.5-.8h.1s.1 0 .1.1v.2c.1.4.1.4.4.2s.5-.3.6-.3c.3.2.4-.2.6-.2h.2c.3.3.7-.1 1 0l.1-.3c-.4 0-.7-.3-.8-.6s-.2-.2-.3-.1l-.2.2c-.4.4-.4.4-1 .1-.2-.1-.4-.2-.6 0h-.2c-.1-.2-.1-.6-.4-.7 0 0 0-.1.1-.1s.4-.3.5 0c.3.5.7.1 1 .1s.3-.2.2-.5c-.2-.6-.2-.6.4-.6h.1c.4-.2.5-.1.4.3v.2l.1.1s.2 0 .2-.1c.1-.4.5-.7.9-.7l.8-.3c.2-.1.3-.3.2-.5v-.1c-.1-.2-.3-.3-.5-.1-.1.1-.1.1-.2.1h-.2v-.3s.1-.1.2-.1.4 0 .5-.1.1-.4.1-.6c0-.3.1-.5.2-.8.1-.2.5-.3.8-.5h.1l.1-.1c-.1 0-.1-.1-.1-.1h-.6c-.4 0-.4-.2-.5-.5s.2-.2.3-.3.3-.2.1-.3-.5-.5-1-.4c-.2 0-.4-.1-.2-.4.1-.2.1-.4.1-.6 0-.1 0-.2-.1-.2-.2-.1-.4 0-.5.2s-.4.4-.1.5c.4.3.3.8.5 1.2.1.2 0 .2-.2.2s-.4.2-.1.3.1.3.1.5c.1-.2.5 0 .4-.4 0-.1.3-.3.4-.3s.3.4.2.7-.4.4-.1.7.1.5-.2.5-.6.1-1 .1c-.1 0-.3 0-.3.1s-.2.3-.4.2l-.6-.3c0-.2 0-.4.1-.5l.7-.3c.1-.3 0-.6-.3-.8l-.3-.2.2-.2c0-.3-.1-.6-.2-.9s-.3-.4-.6-.4-.4 0-.5.3-.4.3-.6.5-.3.2-.4-.1c0-.1-.4-.2-.4-.2-.4.4-.8.2-1.1-.1-.2-.2-.6-.2-.9 0-.1.1-.3.2-.4.3-.2.4-.3.2-.5 0s-.1-.3-.1-.6-.4.2-.5-.1c-.1-.1-.1-.3-.2-.4v-.4c0-.6 0-.7.5-.6.2 0 .3.1.5.1l-.1.4v.2c0 .3 0 .3.3.3.4 0 .9-.4 1.3.1h.1a1.59 1.59 0 0 0 1-.8c0-.1.1-.2.1-.2.1.1.1.2.2.3v.2c.1.2.2.4.4.6.1.1.3-.1.4-.1.3 0 .5-.2.5-.4h0c.1-.2.2-.2.4-.1l.1.1c.3.4.4.4.5 0 .1-.3.4-.6.8-.6.3 0 .7 0 1 .1s.7.1.9-.2c.2-.1.4-.4.3-.5-.1-.4.2-.4.3-.6 0-.1 0-.2-.1-.2-.1-.1-.2-.2-.3-.4s0-.2 0-.2h.3c.1 0 .1.2.1.3 0 .3.3.2.4.2.2 0 .4-.1.4-.3h0c0-.2-.1-.3-.2-.4s-.3-.1-.4-.1-.1-.1 0-.2l.3-.3c.2-.4.4-.6.8-.3.4-.2.4 0 .4.3v.4c0 .1.2.4.4.3a2.21 2.21 0 0 1 1.6 0c.4.1.6-.2.8-.3s1.3-.7 1.1-.8zm-4.8-4c.1-.1.2-.1.3-.1l.1.1c.1 0 .1.1.2.1s.1.1 0 .1c0 .1-.1.1-.1.1h-.3c-.1-.1-.2-.1-.3-.2 0 .1.1 0 .1-.1h0zM40.5 50.8v.2 1.1.8c0 .3-.1.5-.2.7-.1.1-.1.3-.1.4l-.2.2c0 .1-.1.2-.2.3s-.1.2-.2.3l-.2.2-.1.1v.1L39 55h-.1-.2c-.2 0-.2.1-.2.4l-.2.1v-.2c0-.1 0-.2-.1-.2l-.1-.2H38l-.1-.1c-.1 0-.1-.1-.1-.2h.1-.1-.1l-.2.1v.2l-.1.1-.2.2c-.1 0-.1 0-.1-.1h0l-.6.4h-.2l-.1-.1-.1-.4-.4.6-.1-.1c0-.1 0-.2-.1-.3 0-.1-.1-.2-.1-.3v.1h-.2-.1l-.1-.1c-.2 0-.2.1-.2.2s0 .2-.2.4l-.1.1-.2-.3-.3.3v-.1s0-.1-.1-.2c0-.1-.1-.1-.2-.1V55c-.2 0-.4.1-.4.3v.1l-.3-.1h-.1.1l-.1.2c-.1-.1-.1-.2-.2-.3s-.1-.2-.1-.4l-.2.3-.4-.1h-.1l-.3.1-.2-.1v-.2l-.1-.1-.3-.4-.1-.1V54c-.1 0-.2-.1-.2-.3v-1-.1l-.2-2.8-.2-3.4-.2-5.1c0-1-.1-2.1-.2-3.1 0-.5-.1-1-.1-1.5l-.1-3.9-.1-2.9.1-3.7c0-.7 0-1.4.1-2l.3-2.8c.1-.5-.1-1.5 0-2 .1-.6.4-.7.7-.4l.1.1c.1-.4.2-.4.4-.2s.2 0 .2 0c.1.1.3.1.4.1.2 0 .4-.1.6-.1s.4 0 .5-.2c0 0 .2.1.3.1.2 0 .4 0 .6-.2.1-.1.3 0 .4.1s.2.1.3-.1h.1.3c.1 0 .2-.2.3 0s.1 0 .1 0c.1 0 .3 0 .4-.1.1 0 .1-.2.1-.2.2.2.4.2.7-.1.1.1.2.4.3 0h.1.1s0-.1.1-.1c.2.3.4-.3.7-.1h.1c.2-.3.3 0 .5.1.1-.3.2-.3.4-.1h0c.3.1.3.1.3.6V20c0 1.2.3 2.8.4 4v2.9l.1 3.7.1 3.6.3 5.1.3 6.3.2 4c-.1.2-.1.7-.1 1.2zM77.2 41c0 .9-.1 1.8-.2 2.7-.1.6-.2 1.2-.1 1.8v1.2 1.2 2c0 .9.1 1.9.2 2.8v.8.2c0 .2-.2.3-.4.3h-.1l-.1-.1h-.2c-.1 0-.1.1-.2 0-.2-.1-.4 0-.6.2-.2-.1-.2-.2-.4-.1h-.4c-.2 0-.3-.1-.3-.3-.1.1-.2.1-.3.1h-.2c-.2.2-.4 0-.6 0s-.3-.3-.3-.3l-.2-.1c-.1 0-.1.1-.1.2s-.1.1-.2 0h0l-.1-.1c-.2.1-.4.1-.5-.1-.3.1-.5-.1-.7-.2h-.1c-.1.1-.2.1-.2 0l-.6-.2c-.2 0-.3-.1-.3-.2s-.1-.2-.2-.2h-.4a.55.55 0 0 1-.5-.3 22.63 22.63 0 0 0-1.3-2l-.5-.8c-.2-.3-.4-.5-.6-.7-.3-.3-.5-.6-.7-1-.4-.8-.8-1.5-1.3-2.3l-1.4-2.3c-.4-.7-.8-1.4-1.3-2l-1.5-1.8-1.7-1.9c-.2-.3-.5-.5-.7-.8l-.2-.2v.6.8 1.9l-.1 2.5c-.1.5 0 1-.1 1.5l-.4 2.1-.3 2-.3 2c-.1.5-.1 1-.2 1.5 0 .5-.1.9-.2 1.4 0 .1 0 .2-.1.3l-.3.9v.1c0 .3-.3.4-.5.6h-.1c-.4-.2-.8 0-1.1-.2-.4-.2-.9-.2-1.3-.2-.2 0-.4-.1-.7-.1h-.2c-.1 0-.1.1-.2 0s-.2-.1-.3-.1h-.6-.1c-.2-.2-.5-.2-.8 0l-.7.1h-.2c-.4.1-.8.1-1.2 0h-.1c-.5 0-.7-.4-.7-.8s-.2-1-.3-1.5c-.1-.7-.2-1.5-.1-2.2v-1.2c0-.2 0-.3.1-.5s.1-.4.1-.6c.1-.5.1-1.1.1-1.6v-.3l.1-.8.1-1.5V42v-.4-.2c0-.2 0-.3-.1-.5 0-.1-.1-.3-.1-.4V40c0-.8-.2-1.6-.1-2.4s0-1.3 0-1.9v-.9c0-.5.1-1 .1-1.5s.1-1 .1-1.5l.2-2.4v-.2l-.3-1.8c-.1-.6-.2-1.1-.1-1.7 0-.4.1-.7.1-1.1s.1-.8.1-1.3v-.9a10.68 10.68 0 0 1 .3-2.5c.1-.3.2-.6.5-.8l.2-.2c.1-.2.3-.2.5-.2.2.1.5 0 .7-.1s.4-.1.6-.2h.2c.3-.2.6-.3.9-.3.3-.1.7-.1 1 .1 0 0 .1.1.2.1h1.1c.4-.2.8-.1 1.3-.2h.1c.2-.1.4-.1.6 0 .3.1.5.3.5.6 0 .2.1.4.2.5.2.2.4.5.5.8l.6 1.4c.5 1 1 2 1.7 2.9.3.5.7.9 1.1 1.4l2.1 2.9a7.55 7.55 0 0 0 1.1 1.4c.4.4.7 1 1.1 1.5.2.3.5.6.8.9s.4.6.7.9.4.5.6.8c.1.1.2.2 0 .3s0 .2.1.2a.55.55 0 0 1 .5.3l.1.1c-.1.2.1.3.3.3l-.2.2c-.1.1-.1.2 0 .3 0 0 .1 0 .1.1h.3c.2 0 .3.1.3.3v.3c-.1.3-.1.5 0 .3s.3 0 .3.1c.1-.5.1-.6.1-1l.5-3.1c.1-.4.1-.9.1-1.3s.1-1.1.1-1.6v-.6l-.5-3-.3-1.9c-.1-.6-.1-1.5-.1-2.2 0-.5 0-1.1.1-1.7 0-.5.2-.9.4-1.3.1-.2.2-.5.2-.7.1-.4.2-.5.6-.4h.3c.3-.1.6-.2.9-.1h.2c.4-.2.9-.1 1.3-.3h.9c.1 0 .3 0 .4-.1.4-.1.7-.2 1.1-.2h.5.3c.2 0 .3 0 .4.2.2.4.3.8.3 1.3l.4 3.8.4 3.3c0 .3 0 .5.1.8s.1.5.1.8.1.4.2.6v.2c0 .1-.1.1 0 .2v1.2c0 .3 0 .6-.1.9l-.1 1.6v.4c0 .4-.1.8-.1 1.2 0 .2.1.4.1.6v1.3l.3 2.8c.2.7.3 1.5.2 2.4zm36.4 7.3v.6c-.1.3-.2.6-.4.9-.1.2-.3.3-.4.5-.2.2-.3.5-.4.7-.4.6-.9 1.1-1.5 1.7-.6.4-1.2.9-1.8 1.2-.2.1-3 .4-3.3.6s-.4.3-.6.4-.2.2-.3.3c-.8.4-1.7.5-2.5.3h-1.7-1.8-1.1c-.5 0-1-.1-1.5-.1-.1 0-.2-.1-.4-.1l-1-.1c-.6-.1-1.3-.2-1.8-.5-.5-.2-1-.3-1.4-.5-1-.4-2-.9-3-1.5l-1.4-1.2c-.1-.1-.3-.2-.4-.4s-.3-.4-.5-.5-.2-.2-.2-.3c-.3-.4-.6-.8-.8-1.2-.1-.2-.3-.4-.5-.6-.2-.3-.4-.6-.5-.9l-1-1.8c-.2-.4-.3-.8-.5-1.2s-.2-.6-.3-.8c-.4-1.1-.8-2.3-.9-3.5-.1-.6-.2-1.3-.2-1.9v-1.9l.3-2.4c.2-1 .5-2.1.8-3.1.3-.9.7-1.8 1.2-2.6l1-1.8c.1-.2.2-.4.4-.5l1.7-2.3 1.2-1.2c.4-.4.8-.7 1.2-1s.8-.5 1.2-.7l.7-.4c.9-.6 1.8-1.1 2.7-1.5l1.9-.6c1.4-.4 2.8-.5 4.2-.4.2 0 .5.1.7.1.4 0 .8.1 1.3.2.8.1 1.7.3 2.5.6.3.1.6.3.9.5l1.7.9a32.53 32.53 0 0 1 2.9 2.3c.1 0 .2.1.3.1l.1.1c.1.3.4.5.7.6h.1c.2.2.5.4.7.6 0 0 .1.1.1.2.1.1.1.3.2.4v.2l-.1-.1c-.1-.1-.1 0-.1.1v.2l-.2-.1h-.4l-.1.1s0 .1-.1.2-.1.1-.1.2.1.3 0 .5c0 0 0 .1.1.1v.2h-.2c.1.1.1.2-.1.2h-.1c-.1 0 0 .1.1.1s0 .2 0 .3c-.1 0-.1.1-.2.1s-.2.1-.2.2v.1c0 .1.1.2.1.3v.2h-.6-.4c.2.3.4.1.6.2h.1 0-.1-.3 0s0 .1.1.1.1.1 0 .2l-.1.1c-.2.2-.2.2 0 .3 0 0 0 .1.1.1h-.1c-.1 0-.1-.1-.1.1v.1h-.1l-.1-.1h-.1v.1c0 .1.1.2.2.3s.1.4.3.4l.1.1s0 .1-.1 0h-.2 0s0 .1.1.1h-.2c-.1 0-.2-.1-.2-.1h-.1v.1s.1.3.2.2.1 0 .1.1v.2c0 .1-.1.1-.1.2v.1l-.1-.1v-.1c-.1.2-.2.2-.4.1h-.1s0 .1.1.1c.1.1.1.2.2.3l.1.1s.2.1.1.3-.2.3-.4.1-.1-.1-.1 0 0 .1-.1.1v.1.1s-.1.2 0 .2c.1.1.2.1.3.2v.1h-.3-.2s0 .1-.1.1-.1.1 0 .2l.1.1v.1h-.1v.2c.1.3 0 .2-.2.2s-.2 0-.3.1h-.2c-.1 0-.2 0-.2.1s.2.1.2.3.1.2.2.2.2.2.2.2c0 .2-.3.2-.6-.1s-.5-.5-.8-.7l-1.1-.6c-.4-.3-.7-.3-1.2-.6s-1.7-.7-2.1-1c-.3-.1-.6-.1-.9-.1-.2-.1-.5 0-.7-.1s-.5-.1-.7-.1c-.4 0-.7-.1-1.1-.1-.5 0-.9.2-1.4.4s-.9.5-1.3.8c-.3.3-.6.6-.9 1-.3.3-.5.7-.7 1.1l-.3.8c-.1.3-.3.6-.4.9s-.1.6-.2.9v.5c0 .5-.2.5-.1 1 0 .3 0 .6.1.8s.1.6.2.8.2.4.2.6c0 .1 0 .1.1.2.2.4.1.6.3 1 .1.1.2.3.3.4v.1c.2.4.4.8.7 1.2.2.4.5.7.8 1 .2.1.3.3.4.4a.76.76 0 0 0 .4.2c.1 0 .1 0 .2.1.2.1.4.3.7.3.3.1.6.3.9.3.3.1.6.1.9.2h.8c.2 0 .4 0 .6-.1.3-.1.7-.1 1-.2s.8-.2 1.1-.3c.4-.1.8-.2 1.2-.4.3-.1 1.7-.8 2-.9.5-.2.6-.7 1.1-.9.2-.1.4-.6.5-.6s.5 0 .8-.1c.3 0 .6.1.8.2l.1.1c.1.1.1.2.2.2l.1.1v.1c.2.1.3.3.4.4s.4.4.5.6.5.5.5.9c0 .1.1.2.2.2.1.1.1.2.2.3 0 .1 0 .2.2.2s.2.3.2.4.1.1.1.2l.1.1.2.4c.1.2.1.3.2.5s.1.2.2.2c.2.3.3.7.3 1.1h0zm4-.7a.76.76 0 0 1 .2-.4l.2-.2a.76.76 0 0 0-.2.4c-.1.2-.1.3-.2.4v-.2zm18.9-1h-.2-.1.1.2 0zm.2 0l.3-.1h0l.2.1h-.5zm1.7.2l-.1-.1.1.1h0zm0-.1h-.4 0 .2.2 0 0 0 0 0 .1-.1zm.5 0l-.1.1c-.1 0-.2 0-.2-.1h.3 0zm13.1 4.9h-.1l-.2-.1c-.1 0-.1-.1-.2-.1h-.1-.1v.6c-.1 0-.2 0-.3.1l-.2.1-.4.5v.3s0 .1-.1.1h-.1c-.2 0-.3 0-.5.1l.2.2h-.2-.1-.4c-.1 0-.3.1-.4.1-.1.1-.2.1-.4.1l-.4.2c0 .2-.1.3-.4.3l-.1.1h-.3-.2-.2-.2-.2s-.1 0-.1-.1h-.2c-.2 0-.4 0-.6-.1-.2 0-.4-.1-.6-.1h-.1v.2c-.1 0-.1 0-.2-.1l-.3-.3c-.3 0-.7-.1-.9-.3l-.1-.2c-.1 0-.2-.1-.3-.4-.1-.2-.2-.4-.3-.5l-.4-.4c0-.1-.1-.1-.1-.2v-.2l-.1-.2c-.3-.2-.5-.5-.5-.8l-.1-.2s-.1-.1-.1-.2l-.3-.5c0-.1-.1-.2-.2-.3l-.8-1.5c-.1-.1-.6-1.3-.7-1.4l-.2-.4-.1-.1h-.5l.1-.1-.6-.2c-.2 0-.3.1-.3.3h.2-.6-.7-.8l-1.7.2h-2l-.8.1c-.3 0-.5 0-.8.2h-.7-.9-.2s-.1 0-.1.1l-.1.1-.4.8c0 .1-.1.1-.1.2l-.7 1.9c-.1 0-.1.1-.1.2l-.4.6c0 .2-.1.4-.2.6s-.3.4-.4.6c-.2.2-.3.4-.4.5a.76.76 0 0 0-.2.4l-.4.6a.76.76 0 0 1-.2.4l-.6.8c-.2.2-.4.3-.5.6a.55.55 0 0 1-.5.3l-.7-.4-.4-.2c-.1-.1-.2-.1-.3-.2h-.3v-.2-.1l.2-.1c0 .1 0 .1.1.2h0l.1-.2c-.1-.1-.1-.1-.1-.2h-.9v-.2l-.2.5c-.1 0-.1 0-.2-.1l-.4-.3s0-.1-.1-.1c0-.1 0-.1-.1-.2v-.2l-.3-.3s.1 0 .1-.1v-.2-.1-.2-.2l-.1-.1-.4.4s-.1 0-.1.1h-.3l-.1-.2-.4-.3h-.1v-.1l.3-.6v-.1a.78.78 0 0 1-.4.4h-.2-.2l-.3-.2v-.1c-.2 0-.4-.1-.4-.2l-.4.6-.1.1h.2c.1-.2.2-.3.3-.5s.2-.3.3-.4v-.6c0-.1 0-.2.1-.3 0-.1.1-.2.1-.3h0-.1c-.1.2-.2.4-.4.6l-.1-.1a.76.76 0 0 1 .2-.4c.1-.1.1-.3.2-.4v-.1c-.1.1-.2.4-.4.8l-.4.9-.5.5.5-1.5v-.2l.1-.2.3-.6.4-.9.1-.3c.2-.2.3-.5.3-.8 0-.2.1-.4.2-.6v-.2l-.3.4.7-1.6c0-.1 0-.1.1-.2 0-.1.1-.1.1-.2.2-.6.4-1 .6-1.3.1-.2.2-.4.2-.6l.1-.3.3-.6c.1-.1.1-.3.1-.4l.3-.4s.2-.3.4-.7.4-.8.4-1.3c0 0 .1-.1.2-.3l.3-.7.3-.8c.1-.2.2-.4.3-.5l.1-.2c.2-.2.4-.5.5-.8.1-.2.2-.3.2-.5l.3-.5c.2-.6.5-1.2.9-1.7s.7-1 .9-1.5l.4-.8c0-.2.1-.4.2-.5.2-.3.3-.6.4-.9l.2-.3c0-.2.1-.4.3-.6s.3-.4.3-.6l.4-.7c.1-.1.2-.3.3-.5.1-.1.1-.3.2-.4l.3-.8a1.69 1.69 0 0 0 .3-1l2.6-5.3.2-.4c.1-.2.2-.4.3-.5l.3-.1h.1l.2.1.3-.2h.1.1l.2.1h.1 1.2l.3.1h.3.3l.2.2.5-.1c.1 0 .1 0 .2-.1h.3c.1 0 .1 0 .1.1l.1.1.3.2h.1 0s0-.1-.1-.1l-.2-.2h.3l.1.1c.1 0 .2.1.3.2l.2.2h.4L139 20c0 .2.2.5.5.7.4.3.7.8.9 1.2l.6.9c.2.2.4.5.6.8.1.2.1.4.2.7 0 .2.1.4.2.6a.78.78 0 0 0 .4.4l.3.5c0 .2.1.3.3.4.1.1.2.2.2.4l.6 1.4c0 .1 0 .1.1.2 0 .1.1.1.1.2l.6 1.2.4.9c.1.2.2.4.3.7 0 .1.1.2.1.3l.3.5c.1.2.2.4.3.5s.1.2.1.3c.1.2.2.4.2.5.1.3.2.6.3.7 0 0 0 .1.1.1l.1.1.5 1.3c.2.4.3.8.4 1s.2.4.2.6l.1.9c0 .1.1.2.2.5.1.2.2.3.2.5l.7 1.6c.1.2.2.3.3.5s.2.5.2.8l.1.2.2.1c.1.1.1.2.1.3s.1.2.1.3v.3c0 .2 0 .3-.1.3s-.1 0-.1.1l-.2.6v.3c0 .1 0 .1.1.2a.76.76 0 0 0 .2.4l.3.6.3.6c.1.1.1.3.1.4l.1.1c.1 0 .2.1.3.4s.2.5.2.6v.3c.1.3.2.7.2 1l.3 1.2v.1c0 .1 0 .1.1.2 0 .1 0 .1.1.2l.1.4-.1.3v.2zm2-40.3c0 .1-.1.2-.2.2h-.3c-.1 0-.4.1-.5-.2a.76.76 0 0 0-.4.2c-.3.2-.7.2-.9-.1l-.1-.1c-.1-.1-.1-.3-.1-.3.4-.4 0-.7 0-1.1 0-.1-.1-.2-.1-.2.1-.1.1-.2.2-.2 0 0 .1.1.2.1.1.2.2.4.2.6.1.5.6.8 1.1.7.2 0 .5.1.7.2.1-.1.2.1.2.2zm8.6-5.7c-.2.3-.4.7-.4 1.2v.1c-.1.1-.2.1-.3.2-.2.1-.5.3-.5.2-.3-.3-.4.3-.7.1s-.5-.2-.6-.3c-.1-.3-.2-.6-.2-.8l.1-.2c.2 0 .3-.2.5-.3s.3 0 .4 0 .1 0 .1-.1h0l1.1-.6c.1-.1.3 0 .4.1.2.2.2.3.1.4h0zm11.7 50.2c.2 0 .4 0 .4.3 0 .2.1.3.1.5v.4s0 .2-.1.3c-.3.1-.5.1-.8.2l-.1-.2c.2-.2.1-.3 0-.5-.2-.3 0-.7.3-.8l.2-.2zm-3.8 2.4c0 .1-.1.2-.2.2 0-.1-.1-.2-.1-.3v-.2h0v-.2c0-.1.1-.1.1-.2l.2.1v.6zm1.2-1.1c-.1.1-.3.1-.5.1s-.3.1-.2-.2c.1-.5-.4-.8-.3-1.3 0-.1-.3-.2-.5-.3-.4-.2-.5-.2-.3-.6a.47.47 0 0 0-.1-.6c-.1-.1 0-.2-.1-.3s.3 0 .4 0c.3.2.6.4.8.7v.1c-.2.3 0 .4.1.7.2.3.3.6.3.9 0 .1.1.3.1.4s.5.1.3.4h0zm-1.3-4.5c.1.4.1.5-.2.6-.1 0-.2-.1-.3-.2s0-.2.1-.2c.1-.1.2-.2.4-.2zm1.4.9c-.2.2-.5.4-.7.6h-.2s0-.1-.1-.1c.2-.3.4-.6.6-.8 0 0 .2 0 .3.1.1 0 .1.1.1.2h0zm1 2.5l-.2.1c-.3 0-.5-.2-.4-.4s.1-.1.2-.2l.4.5zm-2.5-8.3c.1-.2.3-.2.5-.1.1.1.3.2.4.3l.1.1-.1.1s-.3.2-.4.2-.2.3-.4.1c-.3-.2-.3-.5-.1-.7h0zm.4 2c.2 0 .3.2.4-.2 0-.3.2-.5.4-.7s.4-.5.7-.5c.2 0 .4-.1.6-.2 0 .2 0 .5-.1.7-.1.3-.2.5-.1.8v.4c-.1.1-.2.1-.3.1-.2 0-.1-.1-.1-.2s.1-.2.1-.3c.1-.2-.1-.4-.3-.5-.2 0-.4.1-.4.3s-.3.5 0 .8 0 .8.2 1.1c0 .1-.1.3-.2.3-.5 0-.8.6-1.2.7 0-.2.1-.4.2-.6.2-.5.2-.5-.3-.6l-.2-.1c.1-.1.1-.2.2-.2.2-.1.5-.2.7-.3s.3-.3.1-.4l-1.1-.6c-.5-.2-.5-.3-.5-.7 0-.1.1-.2.2-.2s.2 0 .3.1.2.2.2.3c0 .5.2.7.5.7h0zm-1.4-3.6c.2-.1.3-.4.2-.6l.1-.1s.1 0 .1.1c0 .2.1.4.2.5.2.3 0 .5-.1.8h-.1c-.1-.2-.3-.4-.4-.5v-.2h0zm0 13.9c0-.2.1-.4.2-.6.1-.1.2-.1.4-.1.1 0 .3.1.3.2v1.1h-.2c-.2-.1-.4-.2-.6-.4-.1-.1-.1-.1-.1-.2h0zm-.6.8h.2c.1.1.3.2.4.3.4.4.4.4.7 0 .1-.2.2-.2.4-.1.1.1.1.2.1.3 0 0 0 .1-.1.1-.3.1-.5.6-.9.4-.2 0-.4-.1-.6-.2-.5-.1-.5-.4-.2-.8h0zm-2.3-10.7h.2v.2c-.1.2-.3.3-.6.2l-.1-.1.2-.2s.2 0 .3-.1h0zm-1.3-5.1c.2 0 .3.1.4.2.2.4.3.9.5 1.4l-.1.1c-.2 0-.6.2-.6-.3-.4-.2-.4-.6-.7-.9-.1 0-.1-.1-.1-.2.1-.1.4-.2.6-.3h0zm.3-38.9c-.4.1-.4.3-.4.7v.4a1.66 1.66 0 0 0 0 2.1c0 .1.1.2.1.3s-.1.1-.1.2-.1 0-.1 0c-.2-.5-.6-.5-1-.5s-.4.1-.4-.3.2-.8.5-1c.1-.1.3-.1.3-.2s.3-.3 0-.6c-.2-.2-.3-.4-.4-.6-.2-.3-.4-.6.1-.8l.1-.1c.1-.4.2-.4.4-.1.2.2.6.2.9 0 .1-.1.1-.1.1-.2s.1-.2.2-.3h.1c.1 0 .2.2.1.2-.2.3-.1.7-.5.8h0zm2.1 32.9c-.1.2-.1.1-.2 0-.3-.3-.5-.7-.6-1.1-.1-.3.1-.7.2-1.1 0-.1.2-.2.3 0s.3.3.4.5c.3.3.1.6.2.9-.2.3-.2.6-.3.8h0zm.3-29.3c-.1.1-.2.1-.4.2-.3.2-.4.2-.6-.1 0-.1-.2-.3 0-.4s.4-.6.6-.1c0 .1.3.1.4.2v.2h0zm3.2 29.9s-.2.1-.4.1v-.3a.76.76 0 0 0-.2-.4c-.1-.1.1-.3.2-.4s.5 0 .6.2v.1c-.1.2-.2.5-.2.7zm.7-3.8c-.2 0-.4 0-.5-.1l-.3-.6.1-.2s.4-.1.6 0 .5.3.4.6c0 .1-.1.3-.3.3h0zm6.4-24.5c.1 0 .3-.1.4-.1s.1 0 .2.1c-.1.2-.2.3-.4.5-.1.1-.5-.1-.5-.2s.3-.3.3-.3h0zm-.9-2.1c0-.1.1-.1.2-.2l.3-.2c.1.1.1.2.2.4.2.4.1.6-.3.6h-.2s-.2-.1-.2-.2v-.4h0zm-.1.7l.3.5c-.1 0-.2.2-.2.1-.1-.1-.2-.1-.2-.3-.1 0 0-.1.1-.3h0zm-.8 8.3c.4-.3.5-.8.2-1.2 0-.1.1-.2.2-.3h.3c.2.2.3.6.1.9-.2.2-.3.5-.3.8 0 .1-.2.2-.4.3 0-.2-.1-.5-.1-.5h0zm.9 17.9h-.5l-.3.3c-.4.4-.4.4-.1.9 0 .1.1.1.2.1s.1-.1.1-.2c0-.3 0-.5.3-.6.1 0 .2 0 .3.1v.2l-.3.6c-.3.5-.4.5-.8.2-.2-.1-.3-.3-.6-.2-.1 0-.4-.6-.4-.8s.1-.1.1 0c.2.1.4.2.3-.2v-.2c.1-.4.3-.4.7-.3h.3a1.38 1.38 0 0 0 .3-.4c.1-.1.1-.3 0-.4-.3-.1-.2-.4-.2-.6s-.1-.3-.1-.5c0-.1-.1-.2-.2-.2.3-.2 0-.5.1-.7.1-.1.2-.2.3-.2.1.1.2.2.2.3.1.7.3 1.3.5 1.9.5.6.3.9-.2.9h0zm.2-8h0c.1.2.2.4.2.5.1.1.1.3 0 .3h-.4s.1-.7.2-.8h0zm1.1-6.4c-.3-.4-.7-.3-1-.2s-.2-.1-.3-.2-.5-.4-.8-.2c-.2.1-.3 0-.4-.2 0-.1 0-.2.1-.3.2-.2.4-.4.6-.1.1.1.2.2.3.2.7-.3 1.1.4 1.8.3.1 0 .2.2.3.2 0 .4-.4.7-.6.5h0zm7 2.9l.1.1c-.2.2-.2.5-.6.3h-.2c-.1-.1-.2-.3-.3-.4.1-.1.3-.1.4-.1.3 0 .4.3.6.1h0zm-.5-2.3h.2c0 .1 0 .1-.1.2s-.2.3-.3.4l-.2.2c0-.1-.1-.2-.1-.2.1-.3.2-.5.5-.6zm-2.5 10.6c.1.1.2.2.4.1.3-.2.6-.4.8-.8.1-.2.1-.4.2-.6 0-.1 0-.1.1-.2 0 0 .1 0 .1.1.1.3.3.6 0 .9-.1.1-.2.3-.3.4-.3.4-.5.8-.5 1.3-.3.1-.1.3-.2.5s-.2.1-.2.1c-.1-.1-.1-.2-.1-.3l.1-.1c.2-.2.3-.5-.1-.6s-.1-.5-.4-.4c-.4.1-.3-.2-.3-.4 0-.3.1-.3.4 0h0zm-.7-2c-.2.1-.2.4-.1.6.1.3-.2.6-.5.8h-.1l-.1-.6c.3-.1.3-.2 0-.4l-.9-.6.3-.9.3-1.2c0-.1.1-.1.2-.2l.2.2c.2.3.4.6.3 1-.1.3-.1.6.2.7s.4.4.2.6h0zm1.1-4.4h0 .2c.4.4.4.9.5 1.3 0 .1-.2.3-.4.4s-.3-.2-.4-.3 0-.4-.2-.6-.1-.3-.1-.4c.3 0 .4-.2.4-.4h0zm-1 .7c.2.2 0 .5.4.6.1 0 .2.2.3.4l-.4.1h-.5c-.1-.1-.2-.1-.2-.2-.1-.2-.1-.4-.1-.5s.1-.2.2-.3c.1-.2.2-.2.3-.1h0zm-.5-3.6c.2.1.4.1.2.4s-.2.6-.3.9c0 .1-.1.1-.2.1s-.1-.1-.1-.2-.1-.3-.2-.5-.2-.3-.2-.5l.8-.2zm.4-10.3c-.2 0-.5-.1-.7-.2s0-.3.1-.4c.1-.3.1-.5.5-.2s.6.1.8.4c0 0 .1.1.1.2-.3 0-.6.1-.8.2h0zm1.6 5.8h-.1l-.1-.1c.1-.3.1-.5.2-.8h.1s.1.3.1.5-.1.3-.2.4h0zm1.4-4.6v-.2c.4-.2.7-.4 1.1-.5.2.1.3.2.5.3.1.1.1.2 0 .3-.2.2-.4.3-.6.4-.3.2-.6.2-.8-.1l-.2-.2h0zm1.4 3.8c-.3.2-.6.3-.9.2-.1-.1-.2-.2-.1-.4l.1-.1c.3-.1.7-.1.9.3-.1-.1-.1 0 0 0h0zm1.4-2.9c-.2.1-.3.4-.2.6 0 .1 0 .3-.1.3-.6.1-.3.6-.3.9v.4c-.1.3-.2.3-.5.1-.1-.1-.2-.1-.3-.1-.3 0-.4-.2-.2-.4.1-.1.1-.3 0-.3-.5-.3 0-.6-.1-.9 0-.3-.1-.6-.1-.9 0-.1.1-.1.1-.2h.4c.1 0 .2-.1.3-.2 0-.2.1-.4.1-.7 0-.1.1-.1.1-.2.1 0 .1.1.2.2s.1.2.2.4c0 .3.1.5.4.5.1 0 .2.1.3.2l-.3.3h0zm-48 30.6l-.1.1c0 .1 0 .1.1.1s.1 0 .1-.1 0-.1-.1-.1zm39 10.7h0c.4.1.6 0 .8-.2s.2-.3 0-.6-.3-.5 0-.7c0 0-.1-.1-.1-.2s-.6-.1-.6.1 0 .3.2.4c.4.3.3.5 0 .7-.2.1-.5.2-.8.2-.1 0-.2 0-.3-.1v-.2c0-.2.1-.3.2-.4 0-.1 0-.2-.1-.2s-.2 0-.2.1c-.1.1-.1.3-.2.4-.2.3-.3.5.1.7.1 0 .2.2.1.3-.2.2-.3.4-.5.5 0 0-.1-.2-.2-.2h-.2c-.1.2-.1.5-.4.6v.2c.4 0 .4.4.5.6s.2.3.4.1c.3-.3.6-.7.7-1.2 0-.4.5-.5.6-.9h0z"/><path d="M177.8 47.9c-.1.1-.3.2-.4.3v.3c.2.2.4.2.5-.1s.3-.5.5-.7c.4-.3.6-.6.3-1v-.2h0v-.2c.1-.5.2-.6.7-.4l.9.3c.1 0 .2-.2.3-.3l-.2-.2c-.5-.2-1-.3-1.5-.2-.1 0-.2 0-.2.1-.1.6-.8.4-1.1.7s-.5.5-.9.2l-.1.1s.1.2.1.3a.47.47 0 0 0 .5.5c.3.1.2-.3.3-.4l.1-.1c.1 0 .3-.1.4-.1 0 0 .1.2.1.3.2.2.2.6-.3.8zM146.5 4.4c-.2 0-.4 0-.6.1-.2 0-.2.2-.2.4 0 0 0 .1.1.1.2.4.7.7 1.2.6.6.2 1.1-.3 1.6-.3V5c-.2.1-.2 0-.3-.2-.1-.5-.1-.4-.7-.4-.4-.1-.7.1-1.1 0zm40.2 26.8c.1-.2 0-.3.1-.5s.2 0 .1-.2c-.2-.2-.3-.4-.5-.6-.2-.1-.4-.1-.6-.1-.1 0-.1.2-.1.3 0 .3.1.7.1 1 .1.2.3.6.5.6s.3-.3.4-.5zM180 57.4h-.4 0-.4c-.4 0-.5.1-.3.5 0 .2.1.3.1.5s-.1.1-.1.1l-.1-.2h-.2l-.1.1s.2.2.3.4.2.2.4 0 .4-.3.6-.5l.2-.2c-.2-.2.1-.3.2-.5s-.1-.2-.2-.2zm4.9-21.7c-.1-.1-.1-.3-.3-.2s-.2.2-.2.5 0 .6-.4.6c-.2 0-.2.1-.1.3l.3.6c0 .1.1.1.2.1h.1c.3 0 .6-.7.4-.9s-.1-.4.2-.6c.1 0 .2-.1.3-.2v-.2s-.4.1-.5 0zm-7.3 18.6c0 .1-.1.2-.1.3.1.1.2.1.3.1.2-.1.5-.3.6-.2.3.2.5 0 .7-.1s.3-.1.4-.2.1-.1.1-.2c-.1 0-.1-.1-.2-.1-.4-.1-.7.1-1.1 0s-.4 0-.7.4zm9.8-18.3c.1 0 .2.6.2 0 0-.1.1-.1.1-.2.1-.3-.2-.7-.4-.6a.47.47 0 0 1-.6-.1c-.1 0-.2.1-.2.1a1.1 1.1 0 0 0 0 .8c.1.2.4.2.6.2s.3-.2.3-.2zm4.2-17.2c-.1-.3-.1-.5-.2-.8-.2.1-.3.3-.5.4-.1.1-.1.2-.1.4s-.1.3-.4.2-.1.2-.3.3c.1 0 .2.1.2.1.3 0 .6-.1.9-.2.2-.1.3-.3.4-.4zm-1.4 13.9c-.2 0-.3 0-.5.1-.3.2-.1.5 0 .8s.2.2.4.3v-.1h.4c.1 0 .2-.1.2-.2s-.1-.2-.2-.2-.2.1-.3-.1-.1-.3 0-.3.5 0 .5-.3-.3.1-.5 0zM151.6 5.1a.76.76 0 0 0 .4-.2c0-.1-.1-.2-.1-.3-.4-.4-.8-.1-1.2-.1s-.4.3-.6.5c.1 0 .1.1.2.1.4 0 .9-.1 1.3 0z"/><path d="M187 36.6h-.2c-.4-.1-.9.1-1.1.5-.1.2 0 .3.2.3.4-.1.8-.2 1.2-.5l.1-.1c-.1-.1-.1-.2-.2-.2zm-6.1-27.3h0c.2.1.5.1.7.1.1 0 .1-.3.2-.3s.1.4.3.2l.3-.2c-.1-.1-.2-.3-.4-.3-.4 0-.9.2-1.1.5 0-.1 0 0 0 0z"/><path d="M180.9 9.3h0zm-1.5 43.3s-.2.3-.1.3c.1.1.2.2.3.2.2 0 .5 0 .7-.1.1 0 .2-.2.2-.3-.1 0-.2-.1-.3-.2-.2-.1-.5.2-.8.1zm8-29c.2.1.5 0 .6.1.3.2.4-.1.5-.2s-.1-.3-.2-.4l-.4-.3-.2.2c-.1.5-.1.5-.5.2.1.2.1.4.2.4zm-.1-.3h0 0zm4.5 1.7s-.2.2-.4.3l-.4.3h0c.6.5.6.5 1.2.1l.1-.1c-.2-.3-.3-.5-.5-.6zm-.8.5h0 0z"/><path d="M191 25.4c-.2-.2-.4-.3-.6-.5h-.1c-.1.4-.4.2-.7.3-.1 0-.1.2-.1.3s.2.2.2.1c.4-.2.9-.2 1.3 0v-.2zm-9.9 23.5c-.1-.2-.3-.3-.4-.2a.76.76 0 0 0-.2.4c0 .2.1.3.3.2s.2 0 .3.1l.4.3h.1v-.1c0-.1-.1-.2-.2-.2-.1-.3-.2-.4-.3-.5zm4-14.4v-.3c0-.1 0-.2-.1-.2-.1.1-.2.1-.2.2 0 .4-.2.6-.5.7 0 0-.1 0-.1.1s0 .2.1.2c.3.1.7 0 .8-.4v-.3zm-9.3 11.6v-.4-.3c-.1-.1-.1-.2-.2-.2-.1.1-.2.1-.2.2-.1.2-.1.4-.1.7 0 .1.1.2.2.2s.2-.1.3-.2zm-1 .5h-.1v.1c.3.1.4.4.5.7 0 .1.1.2.2.2l.2-.2c0-.4-.3-.7-.8-.8zm15.2-23c0 .2-.1.5.2.6s.4-.1.5-.3-.1-.5-.4-.5c-.1.1-.3.2-.3.2zM149.4 5.1h.3c.1-.1.2-.1.3-.2 0-.1-.1-.2-.1-.2-.3.1-.6 0-.8-.1l-.1.1c0 .1 0 .3.1.4.1.3.2.1.3 0zm21.5 38.5a1.38 1.38 0 0 0 .3.4c.1 0 .2-.2.4-.3l-.5-.5c0 .2-.2.3-.2.4zm4 5.8c-.2.2-.5.3-.8.5-.1.1-.3-.2-.3.1a1.44 1.44 0 0 0 .3.2c.3-.1.6-.3.8-.6v-.1c.1-.1.1-.1 0-.1zm15-23.1v-.2s-.2-.2-.4-.1-.1.2-.2.3-.1.3-.2.5c.4 0 .4-.5.8-.5zm-.8.4h0 0zM130.4 5.3c0 .1-.1.1-.1.2s.1.1.1.1l.5-.1h.2c0-.1-.1-.1-.1-.2-.2-.3-.3-.3-.6 0zM189 19.8l-.3.3c-.1.1 0 .2.2.3s.1 0 .1 0 .3.1.4-.1-.1-.3-.2-.3l-.2-.2zm-2.9 14.3c0-.1-.1-.2-.1-.3 0 0-.2 0-.2-.1s-.3-.1-.3 0 0 .2.1.3.2.1.2.1c.1 0 .3.3.3 0zm1.4-22.1c.2 0 .3 0 .5-.1.1 0 .1-.1.1-.2s-.5-.2-.6-.2c-.1.1-.1.2-.2.3 0 .1.2.2.2.2zm-9.3 27c.1 0 .2 0 .3-.1v-.3l-.3-.3-.1.2v.3c0 .1.1.2.1.2zm9.1-2.3c0 .1.1.3.2.3h.4l.1-.1-.5-.4-.2.2zm2.8-9.5c-.2-.1-.3-.2-.4-.2s-.2.2-.3.3c.1 0 .2.2.2.2.2-.1.4-.2.5-.3zm-2.5.4c.2 0 .3-.1.5-.2l-.2-.3-.4.4.1.1zm.2.6h0 0z"/><path d="M188.5 28.3c0-.1 0-.2-.1-.2-.1-.2-.3 0-.4 0s-.1.1-.2.2.1.1.2.1c.2-.1.3-.1.5-.1zM161.1 6.9c.2.2.3 0 .4 0s.1-.2.1-.3c-.1-.2-.2-.4-.2-.6 0-.1-.2-.1-.3-.1 0 .1 0 .2-.1.3-.3.3-.1.5.1.7z"/><path d="M161 5.9h0 0z"/></svg>