<svg xmlns="http://www.w3.org/2000/svg" viewBox="0 0 237 237.18" ><path d="M137.38 192.51c.28.07.57-1.87.7 1.14l.05 4.07v.99c0 .08 0 .09-.01.13-.01.07-.03.14-.04.2-.08.05-.15.1-.22.13l-.05.03-.38.38-.81.79-3.23 3.18-6.55 6.87-.14.81-4.84 4.85-2.49 2.49-.12.11h-.03l-.06.04-.1.03c-.08 0-.13.03-.18-.02-.05-.1-.06-.19-.07-.26l-.03-.02h-.02l-.47-.5-2.41-2.54-4.82-5.06-4.82-5.04-2.34-2.45-.14-.1-.17-.14c-.05-.08.04-.11.07-.16l.15-.15.04-.04h.01l.19-.15.37-.28 1.49-1.11c-.4.08-.63.06.48-.82l2.55-1.9 3.79-2.78 1.95-1.47c.3-.26.54-.53.81-.81l.63-.83c.74-1.13 1.12-2.17 1.33-3.16.12-.59.08-1.55-.05-1.99-.12-.5-.28-1.04-.53-1.61a8.68 8.68 0 0 0-2.99-3.64l-8.01-5.94-.77-.54-.09-.06H105l-.02-.02-.05-.02-.21-.1c-.18-.01-.38.04-.51.07h0l-.36-.29c-.1-.09-.26-.16-.22-.32.04-.15.22-.19.32-.28l.35-.21.3-.3.17-.16 1.05-.81 7.72-5.83a8.92 8.92 0 0 0 2.64-3.37c.24-.53.42-1.04.54-1.51.15-.38.22-1.23.08-1.9-.06-.33-.16-.53-.25-.77-.08-.23-.2-.47-.33-.72-.11-.24-.25-.5-.42-.76l-.24-.39-.31-.41c-.39-.54-.95-1.09-1.57-1.62-.69-.51-1.47-.99-2.24-1.48l-4.61-2.92-3.02-1.89-2.72-1.69-1.38-.86-.37-.22-.19-.11c-.21-.12-.48-.2-.59-.44-.1-.23-.07-.48-.11-.74l-.02-.19-.02-.63-.03-1.39-.07-2.79-.27-11.27-.14-5.7-.07-4.53-.03-2.33c.14-.48-.38-.56-.69-.76l-1.04-.55-4.07-2.15-2.35-1.41c-.81-.45-1.5-1-2.25-1.5l-2.18-1.6c-5.7-4.44-10.63-10.15-14.19-16.77-1.84-3.29-3.23-6.84-4.31-10.52-.24-.93-.56-1.84-.74-2.78l-.59-2.84c-.18-.95-.27-1.92-.41-2.88l-.19-1.45-.09-1.46c-.44-4.57-.26-9.22.5-13.75.79-4.52 2.14-8.93 4.04-13.01 2.82-6.04 7.44-12.27 13.18-17.18 5.7-4.96 12.43-8.53 18.56-10.59-.3-.11-.1-.38.48-.75.58-.38 1.53-.88 2.77-1.36 2.45-1.01 5.99-2.05 9.51-2.65 7.03-1.26 13.83-.8 10.56-1.99 2.31.19 4.89.63 7.44 1.18 2.56.57 5.08 1.34 7.31 2.12 4.47 1.56 7.7 3.33 8.14 3.27 1.25-.03 3.76.33 8.46 2.96 2.33 1.34 5.19 3.27 8.45 6.24 3.25 2.97 6.86 7.03 10.26 12.68 1.31 2.22 2.54 4.88 3.63 7.67 1.06 2.8 1.9 5.75 2.53 8.53 1.21 5.58 1.36 10.45 1.58 12.25.15 1.29.26 1.18.35.37.08-.82.14-2.56.1-4.24l-.08-2.44-.11-1.86c-.03-.92.07-1.06.4.36-1.4-9.69-5.15-18.97-10.64-26.96-5.53-7.97-12.79-14.69-21.19-19.48-8.36-4.85-17.86-7.7-27.48-8.38-9.6-.68-19.35.85-28.31 4.4-8.98 3.52-17.06 9.17-23.61 16.21C65 30.28 60.04 38.84 57.19 48.09c-1.41 4.63-2.31 9.42-2.66 14.25a44.07 44.07 0 0 0-.16 3.63c-.06 1.21.02 2.42.06 3.63.03 2.43.36 4.84.65 7.25.73 4.81 2.04 9.55 3.83 14.1.48 1.12.9 2.28 1.44 3.38l1.63 3.29c1.21 2.13 2.43 4.26 3.86 6.26.34.46.69.99 1.12 1.54l1.45 1.79c1.01 1.32 2.34 2.7 3.8 4.28.73.78 1.58 1.53 2.44 2.36.84.84 1.8 1.63 2.8 2.45l1.52 1.26c.53.41 1.09.8 1.66 1.21l1.72 1.25c.59.42 1.19.76 1.81 1.16l1.87 1.17.21.13h.02l.04.02.07.03a.85.85 0 0 0 .15.07l.02.17v.09l.01.05v.02.26l.02 2.32.03 4.79.06 10.15.03 6.08c0 .85-.01 1.72.13 2.53a8.41 8.41 0 0 0 .71 2.32c.73 1.53 1.8 2.71 3.27 3.69l6.03 3.9 2.55 1.64.34.21c.21.12.41.25.62.38.06.03.07.11.03.16l-.14.11-.29.22-.25.2-.8.6-6.94 5.13c-.34.26-.7.5-1.01.77l-.48.4-.4.42c-.54.56-.92 1.13-1.25 1.68-.31.55-.55 1.09-.71 1.59a5.11 5.11 0 0 0-.23.76c-.06.28-.12.61-.13.96-.05.7.05 1.47.19 1.96.06.24.17.5.26.75.08.25.2.51.34.79a9.17 9.17 0 0 0 2.73 3.32l9.15 6.68c.19.15.41.27.59.44.05.14-.13.18-.2.26l-.29.22-6.84 5.02-2.02 1.48c-.66.49-1.38.98-1.88 1.53-1.08 1.1-1.62 2.25-1.99 3.26-.18.47-.32 1.27-.3 1.93 0 .34.05.59.09.86.05.27.12.55.18.83.3 1.14.93 2.45 2.03 3.65L105 223.33l7.98 8.48c.92 1.04 1.93 1.85 2.91 2.31a8.6 8.6 0 0 0 1.41.54c.47.13.82.23 1.41.26.28.01.58 0 .84-.03s.45-.08.67-.13c.43-.11.88-.24 1.35-.45a8.41 8.41 0 0 0 2.82-1.94l26.6-28.12.03-6.78-.02-3.75-.65-68.88-.07-1.64v-.21c-.01-.06-.02-.04-.02-.07l-.02-.09-.04-.2-.08-.42-.04-.22-.02-.11s.05-.04.07-.06l.65-.54 2.71-1.92c3.87-2.85 7.41-6.14 10.53-9.74-1.67 1.47-3.22 2.92-4.87 4.09-.81.59-1.57 1.21-2.37 1.72l-2.31 1.48c3.94-2.73 7.43-6.05 10.1-9.09.65-.77 1.32-1.47 1.86-2.2l1.51-2.04c.95-1.24 1.55-2.39 2.01-3.18l.94-1.55.74-1.45 1.22-2.46c.61-1.49 1.03-2.6 1.29-3.38.49-1.58.33-1.87-.08-1.34-.39.54-1.29 1.78-2.26 3.31-.47.78-1.09 1.55-1.68 2.35-.61.79-1.16 1.62-1.82 2.31-1.68 2.12-1.67 1.54-1.87 1.29-.23-.27-.53-.11-3.24 2.96 1.85-2.3 3.05-4.16 4.24-6.03l1.69-2.97c.55-1.07 1.08-2.25 1.73-3.58-.03-.2-.52.73-1.22 2.18l-.56 1.17-.7 1.26c-.5.86-.96 1.82-1.53 2.67l-1.6 2.44c-.5.74-1.02 1.33-1.38 1.79-.75.91-1.08 1.17-.61.25 3.62-4.34 6.5-10.07 8.46-15.55-.34.41-.93 1.81-1.76 3.59l-1.44 2.88c-.54 1-1.16 2.02-1.74 3.03-2.43 3.98-5.27 7.23-5.19 6.71.45-.64 1.32-1.73 2.39-3.03l1.57-2.19c.27-.39.56-.76.82-1.17l.75-1.23c.48-.82 1.01-1.6 1.4-2.39l1.05-2.18.4-.91c.1-.29.18-.55.24-.78.13-.46.18-.79.14-.95-.01-.24-2.24 5.07-3.83 7.48.52-.98 1.07-1.9 1.51-2.84l1.23-2.74c.39-.88.65-1.77.96-2.59.3-.83.59-1.61.77-2.37.89-3.01 1.18-5.36 1.33-6.65.07-1.31-.09-1.58-.43-.57-.16.51-.49 1.31-.85 2.47-.2.57-.35 1.25-.65 1.99l-.92 2.48.65-2.03c.11-.35.24-.71.34-1.08l.28-1.13.59-2.34c.16-.8.29-1.62.44-2.44.35-1.63.42-3.31.59-4.92.11-1.61.05-3.18.06-4.63 0 0 0 .03-.01.04.02 2.88-.34 7.83-.92 10.42l.38-2.41.21-2.44c.2-1.62.13-3.26.17-4.89a59.2 59.2 0 0 0-.33 1.71c-.04.61-.03 1.21-.09 1.82l-.2 1.82-.18 1.84-.31 1.85.25-1.59c.08-.53.1-1.07.15-1.6.07-1.07.23-2.14.22-3.22-.09.8-.35 1.65-.52 2.55-.21.9-.34 1.85-.64 2.82l-.62 2.74-.81 2.62c-.24.86-.57 1.68-.89 2.47-.33.79-.6 1.58-.93 2.31-1.35 2.93-2.67 5.35-3.65 7.08-.52.86-.98 1.76-1.53 2.6l-1.69 2.5-1.85 2.38c-.6.81-1.33 1.51-1.98 2.27a53.21 53.21 0 0 1-9.11 7.84l-2.56 1.61-.16.1c-.07.04-.07.05-.22.13l-.73.39-1.45.79-2.91 1.57-1.46.79c-.35.07-.23.42-.25.68v.82l-.02 3.3-.03 5.19-.09 13.64-.22 54.51zM91.39 49.4c.21.03.44-.51.49.37.02 2.72-.43 5.02.36 7.73l.37.12.3 1.6.43 1.6c.27 1.09.72 2.14 1.15 3.22 1.99 3.76 4.94 6.94 8.36 9.31-.02-.16.01-.28.37-.08.69.51 1.6.98 2.54 1.6.47.3 1.01.54 1.53.82.53.27 1.07.56 1.66.77l1.04.32c.29.03.39-.06.46-.11 1.04.37 2 .59 2.88.87 2.99.44 6.01.36 8.94-.18 2.94-.53 5.78-1.61 8.34-3.16 5.13-3.06 9.17-7.96 11.08-13.76.72-2.49.87-5.06.93-7.45.02-.89.07-1.83-.01-2.81-.03-.49-.03-.98-.08-1.48l-.2-1.49-.1-.75-.17-.73-.33-1.44c-.3-.92-.58-1.82-.93-2.62-.21.24-.64-.05-1.14-.54-.26-.25-.51-.56-.83-.87l-.96-.94c-.61-.64-1.34-1.12-1.81-1.39-.49-.25-.8-.23-.81.25-1.23-1.63-3.57-3.65-3.93-3.42a2.5 2.5 0 0 1-.92.27c-.37.03-.83.03-1.41-.02-.57-.06-1.22-.22-2.06-.35-.8-.19-1.78-.35-2.92-.57-.45-.07-.94-.2-1.45-.35l-1.53-.32c-.99-.18-1.86-.23-2.18-.16-.31.08-.29.16-.09.25a7.75 7.75 0 0 0 .75.3c.57.21 1.11.4.62.55 1.58.18 3.14.5 4.59 1.1.75.24 1.42.65 2.13.97.65.43 1.36.77 1.96 1.28 2.53 1.83 4.5 4.39 5.72 7.24.6 1.44.98 2.95 1.2 4.5.12 1.56.21 3.16-.1 4.71l-.08.59-.14.57c-.1.38-.18.77-.29 1.15-.29.74-.49 1.51-.88 2.21-.3.74-.75 1.4-1.16 2.09-.22.34-.48.64-.71.97l-.36.48-.41.44c-.58.92-2.45 3.01-5.69 4.58-1.62.75-3.55 1.35-5.68 1.56a17.34 17.34 0 0 1-6.63-.63c-2.2-.65-4.28-1.77-6.03-3.21-1.76-1.43-3.16-3.17-4.14-4.94-.99-1.77-1.56-3.55-1.91-5.1-.09-.79-.26-1.51-.26-2.17s-.08-1.24-.02-1.73l.02-.71a19.57 19.57 0 0 1 1.62-6.54c.91-2.1 2.18-3.96 3.34-5.42 1.02-1.4 2.29-2.69 3.72-3.87-.82.24-1.61.48-2.3.72 1.59-1.05 3.31-1.85 3.93-2.28.91-.47 1.46-.82 1.76-1.01.29-.22.3-.37.13-.49-.17-.11-.53-.2-.97-.26l-1.41-.08c-.65.05-.63-.19-.7-.41-.06-.21-.22-.43-1.22-.14.66-.33 1.19-.51 1.72-.69.53-.17 1.04-.4 1.77-.56.02-.09-.25-.06-.64.04-.38.13-.89.33-1.38.52-.98.33-1.79.81-1.45.31 1.36-.49 2.82-1.21 4.3-1.53-.3-.14-1.61.07-2.76.51-1.18.34-2.2.86-2.2.59.69-.58 4.23-.99 4.37-1.53.03-.13-1.49.23-2.2.53 2.22-.91 4.05-1.35 4.73-1.67.69-.32.23-.6-2.09-.47.78-.19 1.75-.22 2.71-.33.97-.04 1.95-.02 2.79-.11-.84.04-2.3-.07-3.07.06.95-.13 1.91-.11 2.86-.16-.15-.07-.32-.14-.51-.21-.72-.02-1.45-.08-2.21.01.64-.08 1.28-.07 1.93-.11-.49-.16-1.06-.31-1.69-.43-2.35-.08-4.75-.04-6 .41-5.06 1.57-9.68 4.7-13 8.91-1.7 2.08-3.02 4.46-4.01 6.96-1.02 2.5-1.57 5.18-1.77 7.85z"/></svg>