<svg xmlns="http://www.w3.org/2000/svg" viewBox="0 0 237 237.18" ><path d="M58.96 198.73c-.2.21.14.84-.74.31-1.32-.94-2.14-2.22-2.73-3.51-.6-1.31-.95-2.65-1.38-4.13l-.51-.13c-.04-.31-.02-.63-.05-.94l-.03-.47.03-.47.06-.97.12-1.43.5-5.82.18-11.8.09-5.27.05-2.62.02-1.31v-.16c0-.06.02-.12-.06-.11l-.32-.08-.64-.16-5.1-1.24-2.56-.6-2.29-.59c.12.21.16.38-.5.26-2.67-.65-6.31-2-9.18-3.63l-1.2-.65c-.35-.1-.47-.03-.58.02a22.64 22.64 0 0 1-.72-.57l-.5-.53c-.2-.16-.27-.33-.36-.47-.07-.15-.25-.28-.25-.41-.09-.18-.29-.34-.32-.53-.03-.09-.11-.17-.14-.27-.01-.11-.03-.22-.07-.33l-.06-.17v-.22c0-.15 0-.29-.03-.44 0-.33.09-.72.1-1.09l.16-.62v-.19c.03-.08.04-.11.1-.23l.51-.85 2.04-3.43 8.25-13.87 8.44-14.22 1.58-2.58.21-.34c.09-.11.02-.26.04-.39v-.81-1.63l-.06-4.35-.03-4.23.09-4.26-.06-3.63.11-3.6.15-3.58c.05-1.19.23-2.34.36-3.5l.39-2.63.5-2.74 1.33-5.61 1.74-5.44 1.93-4.91c-.45.09-.55-.84-.27-2.18.28-1.33.82-3.13 1.34-4.89 1.28-3.37 2.55-6.62.98-5.62.61-.99 1.45-2.01 2.22-3.08l2.34-3.03c1.53-1.82 2.67-3.28 2.63-3.57-.11-.86.19-2.19 1.64-4.54.69-1.21 1.8-2.5 3.27-4.12 1.44-1.67 3.42-3.38 5.86-5.45.97-.8 2.16-1.51 3.36-2.3l3.63-2.21 5.03-3c2.1-1.77-5.92 2.42-3.83.65-7.86 4.61-15.59 9.96-22.3 16.82-6.76 6.81-11.96 15.32-15.36 24.13-3.43 8.85-5.23 17.94-6.37 26.95l-.72 6.76-.44 6.75c-.18 2.26-.2 4.5-.28 6.75l-.09 2.96s0 .03-.02.04v.02l-.07.14-.36.61-.89 1.46-2.36 3.79-6.68 10.52-8.61 13.37-1.17 1.81-.91 1.4-.28.43c-.08.15-.11.32-.17.48l-.33 1.01-.49 1.57c-.13.51-.22 1.06-.32 1.59-.24 1.03-.27 2.26-.3 3.45-.03.59.09 1.25.16 1.87.08.63.16 1.26.37 1.89.18.63.39 1.25.6 1.87a27.7 27.7 0 0 0 .87 1.72c.29.59.65 1.09 1.01 1.57.37.48.73.99 1.12 1.42l1.2 1.19.61.58.62.48c3.33 2.6 6.64 4.03 9.83 5.26l2.39.85 2.36.73a17.18 17.18 0 0 0 1.17.34l.73.2.32.08c.58-.05.35.53.39.89l-.21 8.3-.21 7.68c-.04 1.05-.05 2.82.07 4.27l.28 2.2.46 2.09c.73 2.7 1.78 5.08 2.97 7.04 1.21 1.95 2.49 3.55 3.7 4.78.61.57 1.18 1.18 1.85 1.68a26.12 26.12 0 0 0 10.37 5.33c.98.22 1.97.42 2.98.56l1.54.14.77.06c.26.02.4.01.61.02l4.59.06c6.09.06 11.96.03 16.78-.16l2.14-.14 1.07-.07c.12 0 .11-.01.14-.02l.07-.02.15-.05a16.59 16.59 0 0 1 1.47-.39c.27.34.58.77.91 1.32.01-.74-.01-1.59-.04-2.46l-.35-.13.44.02.44 1.5.53 1.67c.54 1.67 1.02 3.02 1.39 3.76 3.5 9.05 2.68 3.57 2.64-.32-.32-2.7 1.45.54.7-3.61l2.16 7.26c.54.2-2.96-8.85-1.62-7.06.69 2.84 1.91 5.88 2.78 8.78.29-1.19-2.85-10.1-2.12-9.83.62 1.52 1.69 8.38 2.6 8.71.18.07-.68-2.84-1.12-4.29 2.96 8.84 5.16 13.54 3.47 5.16.84 2.83 1.76 6.92 2.77 9.88v-.03c-.43-1.5-1.07-4.12-1.48-5.5l1.52 5.1c.02-.3.03-.63.03-.98-.3-1.29-.61-2.59-1.01-3.91l1.01 3.39c-.02-.92-.09-1.96-.2-3.09-.76-4.16-1.24-8.21-1.89-10.39l-1.68-5.89-3.13-10.57-10.24-.35-5.34-.22-10.68-.41-5.34-.19c-1.69-.06-3.88-.11-4.66-.24-1.1-.2-2.23-.43-3.25-.92-.54-.18-1-.52-1.52-.75-.45-.34-.97-.59-1.38-.98zM199.54 69.31c.27-.1.23-.88.81.08a19.29 19.29 0 0 1 1.75 4.58l.65 2.28.78 2.35.52.1c.64 2.61 1.04 5.36 1.32 8.14.96 5.04 1.29 10.13.97 15.2.18-.12.34-.17.36.35-.05 1.06-.26 2.32-.47 3.69-.26 1.36-.66 2.83-.98 4.32l-.29 1.33c0 .36.13.49.22.58l-.57 1.91c-.2.6-.44 1.16-.65 1.7-.94 3.71-2.39 7.34-3.93 11-1.69 3.6-3.5 7.22-5.7 10.73l-1.63 2.66-1.77 2.61c-1.15 1.77-2.46 3.46-3.74 5.2l-.97 1.3-1.06 1.31-3.2 3.8-.79.94-.2.23-.05.06a1.4 1.4 0 0 0 .03.07l.06.15.26.59 1.02 2.33 1.81 4.1c1.81 3.46 3.62 6.93 5.16 10.34 2.18 5.1 4.47 11.8 6.39 16.85 1.22-1.36 6.75 10.62 7.33 7.57 1.28 3.37 3.19 8.43 3.73 8.52 1.59.28 4.08 2.28 8.34 10.89 1.54 3.42 3.09 8.99 3.83 10.12 1.17 1.78-.86-4.88.31-3.1l-14.88-38.49-7.62-19.12-3.36-8.46c-.02-.03-.06-.08-.01-.11l.09-.1c.61-.67 1.24-1.34 1.82-2.05 1.46-2.05 5.4-6.69 9.79-13.51 1.08-1.71 2.2-3.56 3.34-5.49l1.65-3.04.84-1.56.78-1.64c2.17-4.35 4-9.23 5.44-14.3 3-10.15 3.3-21.33 1.84-30.52-1.5-9.22-4.39-16.44-6.13-20.49l-.68-1.46a95.36 95.36 0 0 0-7.53-13.22c-2.91-4.16-5.95-7.97-8.72-10.82-2.58-2.59-5.35-5.04-8.14-7.4.93 1.44 1.81 2.74 2.49 3.95-2.41-2.78-4.9-5.49-6.11-6.29-2.95-2.58-3.86-2.85-3.79-2.21.07.65 1.02 2.3 1.64 3.76 1.13 1.87-1.4.32.54 3.05l-4.13-4.33c-.48.09 5.3 5.13 3.61 4.45-1.47-1.77-3.44-3.45-5.14-5.11.19.98 5.61 6.05 4.91 6.21-.99-.82-4.03-5.4-4.94-5.15-.17.04 1.51 1.72 2.31 2.6-5.32-5.04-8.75-7.22-4.56-2.01-1.6-1.65-3.78-4.09-5.63-5.68.87.87 2.29 2.42 3.1 3.19l-3-2.86a13.18 13.18 0 0 0 .31.73c.69.77 1.39 1.54 2.17 2.28l-1.99-1.9a24.84 24.84 0 0 0 1.22 2.12c1.03 1.28 1.94 2.62 2.77 3.78.82 1.16 1.56 2.13 2.15 2.77 9.58 10.29 18.15 21.47 23.92 33.55zm-25.59 38.98l-.45-2.84-.69-2.8-.18-.7-.24-.68-.48-1.36c-.58-1.83-1.48-3.53-2.3-5.26l-1.46-2.46-.76-1.21-.85-1.15c-2.78-3.86-6.26-7.16-10.18-9.8.29-18.42-.2-36.35-.19-55.01l-.24-2.41c-.17-1.04-.35-2.29-.78-3.65-.8-2.72-2.29-6.03-4.98-8.97-2.63-2.95-6.44-5.56-11-6.75-2.26-.63-4.69-.85-7.11-.7s-4.89.66-7.19 1.64c-4.6 1.92-8.54 5.41-10.9 9.68-1.18 2.13-2 4.41-2.44 6.7l-.26 1.72c-.07.57-.08 1.14-.11 1.7l-.03.81v.6 1.18l-.12 14.45.02 1.1c-.09 6.59.03 14.6.65 20.18.38 2.56.85 5.16 1.3 7.75.27-1.2.54-2.32.8-3.29-.04 2.64-.07 5.27.22 6.29.7 5.62 1.51 2.43 2.62.27.49-1.55 1.23.55 1.72-1.89l-.06 4.39c.46.2-.24-5.41.52-4.19-.14 1.3 0 2.73.06 4.12-1.14.42-2.26.86-3.34 1.43-1.76.78-3.37 1.82-5.01 2.83-.8.53-1.55 1.13-2.33 1.7l-1.15.88-1.08.97c-.45.48-1.1 1.09-1.85 1.9l-2.51 2.97-1.37 1.92-.73 1.04-.68 1.14c-.45.78-.94 1.59-1.4 2.45l-1.27 2.75a41.88 41.88 0 0 0-3.19 13.29c-.35 4.89.17 10.13 1.77 15.14 1.58 5.01 4.19 9.72 7.48 13.66a40.09 40.09 0 0 0 11.22 9.35c2.69 1.52 5.4 2.62 7.96 3.43-.07.09-.13.18-.2.27.13.1.25.21.23.32-.21.37-.75.61-1.21.97l-.15.22c.01.12.1.25.15.34a5.47 5.47 0 0 1-.64.37c-1.73 2.52-4.09 5.02-7.15 7.35-.56.71-1.19 1.33-1.86 1.77-1.02.56-2.55.63-3.63.88.42 1.1-.77 2.13-1.16 3.17-.17-1.1-.43-2.18-.81-3.23-.59-1.72-1.45-3.33-2.52-4.78-2.11-2.93-5.07-5.18-8.41-6.51-1.67-.66-3.44-1.07-5.22-1.26-1.78-.13-3.57-.12-5.34.23-.89.12-1.75.4-2.62.64-.84.31-1.7.6-2.5 1.02-1.63.77-3.14 1.8-4.49 3.01-.82.91-2.94 3.13-4.44 6.73-1.5 3.58-2.09 8.55-.55 13.21.74 2.32 1.96 4.49 3.49 6.3 1.52 1.82 3.34 3.27 5.19 4.31a19.64 19.64 0 0 0 5.36 2.05 22.28 22.28 0 0 0 4.09.45l.75-.05c2.25-.08 4.76-.69 6.9-1.81 2.15-1.1 3.91-2.68 5-4.19.96-1.45 1.6-3.08 2.03-4.68-.57.55-1.12 1.01-1.64 1.35.92-1.28 1.63-2.72 1.59-3.38.18-.94.15-1.47.02-1.74 2.67-.26 5.3-.8 7.91-1.51 3.2-.93 6.36-2.15 9.57-3.61.94-.79 5.06-3.03 8.87-6.31 1.91-1.62 3.72-3.48 5.15-5.21 1.44-1.72 2.47-3.31 3.11-4.21a4.09 4.09 0 0 0 .19-.36c.09-.14.17-.29.26-.43 4.54-.35 9.43-1.61 13.71-3.77 4.69-2.31 8.59-5.59 11.2-8.71 2.35-2.93 4.12-6.3 5.48-9.7-.49.7-1.07 1.3-1.57 1.9-.53.58-.97 1.15-1.5 1.6 2.09-2.98 3.69-6.3 3.87-7.72.51-1.87.73-3.02.66-3.68-.03-.65-.21-.78-.47-.6-.27.18-.62.66-1.04 1.23-.46.56-.97 1.21-1.47 1.75-.57.84-.79.56-1.06.41-.28-.15-.55-.14-1.44 1.08.5-.94.77-1.69 1.05-2.44.27-.75.62-1.48.86-2.53-.1-.09-.23.27-.39.82l-.7 1.98-.36.99c-.13.3-.27.54-.38.72-.23.36-.38.45-.39.04 1.02-1.77 1.49-4.02 1.98-6.04-.42.27-.81 2.03-1.51 3.54-.56 1.56-1.36 2.88-1.55 2.61.09-.26.33-.69.65-1.21l.88-1.77c.65-1.21.92-2.47.62-2.74-.13-.11-.62 1.86-1.05 2.79.55-1.47.69-2.87.89-3.95a9.43 9.43 0 0 0 0-2.42c-.19-.95-.61-.4-1.52 2.15.25-.9.43-2.02.7-3.14a24.55 24.55 0 0 0 .27-3.3s0 .01-.01.02c-.04.5-.12 1.17-.2 1.84-.08.66-.13 1.31-.24 1.76.12-.55.12-1.11.16-1.68l.11-1.69a6.36 6.36 0 0 0-.35.58c-.16.83-.21 1.66-.34 2.51.12-.72.1-1.46.17-2.2-.28.54-.55 1.15-.81 1.81-.83 2.5-2.08 4.59-2.56 5.81-1.88 4.98-5.22 9.38-9.47 12.48-2.09 1.61-4.46 2.8-6.9 3.69-2.43.95-5.02 1.4-7.62 1.59 0 .29.59.54-.29.72-.69.08-1.36.19-2.01.07-.42-.06-.82-.13-1.23-.2-.24-.6-.71-.76-1.28-.24-.04-.01-.09-.02-.13-.04.05-.14.11-.29.17-.43a2.44 2.44 0 0 0 .1-.33c.01-.05.02-.11.02-.14s0-.1-.02-.05h-.01s-.06.12-.11.23c-.05.12-.1.25-.11.34l.07-.59c-.11.02-.22.05-.32.07-.1.12-.18.28-.21.45l.05-.41c-.25.09-.5.18-.74.29-.09.08-.18.15-.28.22-.52-.1-1.06-.17-1.62-.29l-.3.4-1.54-.55c-.51-.21-.99-.48-1.5-.72-1.02-.43-1.95-1.09-2.91-1.65-3.71-1.82-6.92-4.57-9.5-7.8-.07.19-.16.32-.47.02l-.44-.53a17.38 17.38 0 0 1-.39-.63l-.83-1.4c-.29-.49-.48-1.06-.73-1.6-.24-.55-.52-1.11-.69-1.71l-.45-1.01c-.19-.23-.37-.25-.48-.26-.22-.53-.29-1.08-.41-1.57l-.31-1.44c-.83-2.99-1.18-6.18-1.03-9.41.08-.8.08-1.62.22-2.42l.43-2.42.68-2.39c.24-.8.6-1.56.89-2.36 2.63-6.21 7.65-11.88 14.5-15.19 2.79-1.66 5.98-2.68 9.14-3.14l1.83-.14c.63-.06 1.27.03 1.92.05.65.05 1.32.05 1.98.14l1.98.34.99.18.96.27 1.88.53c.6.21 1.19.46 1.76.68.56.24 1.14.4 1.64.68 0-.45.66-.53 1.66-.41.49.07 1.1.14 1.69.32l1.87.6.94.3.86.35c.55.22 1.06.4 1.48.5.13.03.24.06.35.07.01.18.03.33.06.44.17.6.36.17.56-.47.15-.08.2-.23.14-.49 0-.03.01-.05.02-.08.67.51 1.33 1.2 2.04 1.83.74.63 1.39 1.37 2 2.01 1.25 1.24 2.1 2.32 2.37 2.28.4-.05.88 0 1.48.21.3.11.64.25 1 .47.34.22.72.5 1.12.85.81.7 1.82 1.64 2.77 3.07 1.05 1.38 2.03 3.25 3.02 5.62.3.96.59 2.06.85 3.2.2 1.15.31 2.34.44 3.43.08.55.09 1.08.1 1.58l.04 1.38c.03.83.07 1.48.16 1.83.11.47.23.43.35.14.12-.3.2-.99.29-1.64.18-1.32.34-2.68.63-1.56 0-.96-.14-1.91-.28-2.87zm-72.36 66.26c-.84.31-2.24-.08-2.5.23-.43.5 1.24.82.81 1.32.27-.01.54-.05.81-.07-.05.04-.1.07-.16.11-.29.19-.61.42-.93.59-.33.29-.55.12-.8.01-.25-.12-.49-.16-.93.24a6.05 6.05 0 0 0 .4-.91c.1-.28.24-.55.34-.94-.27-.18-.66 2.37-1.06 1.6.45-.62.5-1.49.68-2.22-.31.06-.47.69-.75 1.22-.23.55-.54 1.01-.75.84.1-.34 1.42-1.67.79-2-.12-.06-.31.63-.46.95.29-1.06.19-1.94-.04-2.27-.23-.35-.58-.16-1.09.6.09-.28.18-.63.32-.99.09-.36.15-.74.13-1.06h-.01a22.62 22.62 0 0 1-.25 1.15c.07-.35.06-.72.11-1.07a7.36 7.36 0 0 1-.29.18c-.1.26-.16.51-.21.78.04-.22.04-.45.07-.68-.23.16-.44.34-.64.52-.54.72-1.29 1.18-1.43 1.49-.61 1.31-1.58 2.41-2.73 3.16-.56.4-1.19.67-1.83.88-.63.23-1.29.32-1.96.36 0 .25.18.49-.05.61-.38.16-.73-.03-1.05-.19-.32-.19-.61-.37-.98-.34l-.14.37c-.27-.15-.52-.32-.75-.53-.25-.17-.45-.42-.67-.62-.97-.43-1.85-1.1-2.61-1.9-.1.11-.2.2-.31.14-.38-.33-.59-.98-.8-1.62l-.17-.26c-.11-.04-.25-.02-.34 0-.1-.31-.1-.6-.14-.86-.7-1.61-1.02-3.65-.44-5.69.55-2.04 1.94-4.12 4.14-5.5a7.05 7.05 0 0 1 3.04-1.61c1.69-.29 3.84.32 5.25 1.05.15-.69 1.27-.82 2.39-.71 1.11.07 2.23.32 2.29-.55 1.11.89 2.43 2.54 2.79 2.42a2.79 2.79 0 0 1 2.31.13 5.08 5.08 0 0 1 1.58 1.17c.58.57 1.13 1.38 1.66 2.44.16.43.29.94.4 1.46.08.53.12 1.07.16 1.58v.15c-.47.12-.84.27-.83.54.07 1.37-.25 3.12-2.34 4.25zm18.39-99.18s-.08.03-.12.04l.04-1.53a58.56 58.56 0 0 0 .08 1.49zm-.2-4.19c.11.7-.41 3.09-.36 4.4-.05.02-.11.04-.16.06.16-1.8.08-4.66.53-4.46zm29.03 4.83l-2.68-.96c-.89-.34-1.83-.51-2.74-.76-1.83-.53-3.72-.72-5.6-1-.94-.1-1.89-.11-2.84-.16s-1.89-.09-2.84 0l-2.84.17c-.94.11-1.88.28-2.82.42l-1.41.23-.96.24.67-31.74c-.29-.02-.57.55-.7-.33-.27-2.77.69-5 .41-7.77l-.46-.2.67-6.66-.03-1.58-.02-.79v-.38-.22c0-.58.04-1.16.14-1.73.2-1.13.62-2.24 1.25-3.24-.17-.05-.32-.11-.22-.34.51-.91 1.67-1.83 2.95-2.5.16-.15.36-.23.54-.36.11-.16.08-.33.06-.43.64-.26 1.23-.4 1.79-.48 1.74-.61 3.79-.79 5.74-.29.98.24 1.96.61 2.86 1.17.9.55 1.79 1.21 2.51 2.05.73.83 1.4 1.77 1.86 2.83s.81 2.2.96 3.42l.8 9.85c.42 2.84.85 5.68 1.04 8.42.18 4.05-.12 9.23-.18 13.18 1.63-.61 2.43 9.03 4.07 7.11-.04 2.63-.09 6.59.37 6.79 1.35.6 2.9 2.56 3.74 9.16-1.95-1.19-3.98-2.25-6.1-3.11z"/></svg>