<svg xmlns="http://www.w3.org/2000/svg" viewBox="0 0 237 237.18"><path d="M48.41 189.44c-.08.29 2.37.58-1.44.71-6 .14-11.4-.04-16.81-.21l-8.19-.22-3.61-.04c-.07 0-.13.02-.24.05a4.44 4.44 0 0 1-.42.47l-.14-.03a10.97 10.97 0 0 1 .15-.75v-.04l.02-.02c0-.01 0 .02 0-.08l.02-.84.04-1.69.08-3.41.33-13.87-.33-54.3c-.17.47-.33.69-.39-1.1-.12-7.49.04-17.87.09-28.63l-.08-4.74c-.1-1.22-.26-1.54-.37-1.74l.11-13.19-.21-11.88-.05-3.05-.05-2.27-.11-1.37.85-.08.46-.04.24-.02.94-.02 8.39-.16 16.92-.32 34.47-.66 71.94-1.36 36.42-1.06 18.35-.05 17.06.11-.12 17.16c1.65-2.62 2.45 39.07 4.12 30.75-.04 11.4-.09 28.52.38 29.4 1.4 2.65 3.01 11.42 3.85 41.7.2 11.85-.39 30.05-.11 34.23.45 6.58.99-15.36 1.43-8.78l.2-73.62-.09-80.49-122.3.19-36.53.39-69.32.28.17 89.07v79.39l37.74.1 4.75-.02 87.31-.66 33.54-1.31-14.22-.81 27.2-.23c24.3-.7 10.53-1.53 1.19-2.65-6.72-.49 2.37-1.24-8.16-1.74l19.01.06c.87-.47-23.42.24-18.14-.53 7.31.18 15.51-.11 23.1-.08-2.63-.63-26.32-.24-25.15-.86 4.1-.14 21.35.85 22.82.07.29-.16-7.31-.18-11.11-.19 23.4-.24 36.29-.98 14.93-1.83l25.74.25s-.04 0-.06-.01l-14.28-.2 13.35.04a63.56 63.56 0 0 0-2.33-.32l-10.13-.18 8.87.03c-2.21-.25-4.76-.5-7.55-.73l-26.32-1.25-138.22-.68z"/><path d="M57.87 87.01c.2-.21-.33-.99.86-.24 3.66 2.49 5.87 5.43 9.53 7.93a11.2 11.2 0 0 1 .54-.17l7.97 7.05 16.01 12c-.03-.24 0-.41.56-.06 2.26 1.59 5.18 4.07 8.28 6.53l1.43 1.01c.42.2.61.14.73.1l3.77 3.07 1.98 1.39 1 .7.56.4.9.66 7.36 5.41 8.11-6.84 4.59-4.05 9.35-8.25 19.52-17.21c3.28-3.15 6.55-6.31 9.85-9.17 4.95-4.16 11.59-9.05 16.56-12.93-1.78-.69 9.74-10.87 6.3-10.27 3.31-2.58 8.28-6.46 8.24-7.03-.11-1.7 1.42-4.97 9.63-12.57 3.29-2.87 8.91-6.58 9.94-7.76 1.62-1.86-5.04 2.75-3.42.89-25.71 19.78-49.79 39.69-75.37 60-1.62 1.47-5.19 4.48-10 8.44l-8.05 6.59-4.56 3.7-.29.23-.03.03-.06.06-.13.12-.27.25c-.15-.1-.31-.2-.46-.31l-3.37-2.57-8.13-6.23-15.87-12.24-23.26-18.21-1.39-1.06c-8.25-6.51-18.4-14.24-25.81-19.19L30.4 50.67l3.64 3.85c-3.3-2.61-6.6-5.21-8.05-5.96-7.5-4.93-4-1.17-1.97 1.83 1.66 1.91-1.45.45 1.3 3.22l-5.49-4.34c-.54.17 6.96 5.1 4.96 4.51-2.02-1.79-4.58-3.42-6.77-5.15.38 1.09 7.51 6.13 6.79 6.36-1.28-.81-5.69-5.49-6.6-5.21-.18.06 2.02 1.79 3.12 2.66-6.96-5.1-11.16-7.42-5.47-1.93-2.14-1.69-4.99-4.32-7.34-6.01v.02c1.12.9 2.99 2.56 4.03 3.38l-3.86-3.05c.14.24.3.51.48.78.91.83 1.83 1.64 2.84 2.43l-2.56-2.02a36.24 36.24 0 0 0 1.75 2.28c2.76 2.77 5.24 5.63 6.89 6.94l39.8 31.75z"/></svg>