<svg xmlns="http://www.w3.org/2000/svg" viewBox="0 0 237 237.18"  ><path d="M57.05 219.99c-.07.29 2.11.59-1.29.72-10.69.28-19.29-.7-29.99-.43l-.77.47-3.12-.08h-.39c-.16-.01-.13-.03-.21-.03a1.63 1.63 0 0 0-.31-.03c-.2-.07-.41-.06-.59-.15-.77-.24-1.48-.72-2-1.36a4.07 4.07 0 0 1-.92-2.16c-.01-.19-.04-.38-.01-.58v-.14-.4l.02-.82.09-3.29-.34-48.41c-.17.42-.33.62-.4-.98-.13-6.68.04-15.94.09-25.52l-.08-4.23c-.1-1.09-.27-1.37-.37-1.55l.11-11.76-.08-4.29a4.76 4.76 0 0 1 .33-1.9c.47-1.23 1.5-2.31 2.75-2.84.31-.14.63-.25.97-.31.17-.03.33-.09.51-.08.21 0 .24-.05.7-.05l4.45-.09 8.92-.19 36.07-.77 75.11-1.61 32.47-1.07h25.57l6.61.05 3.27.03h.4l.32.03c.21.02.43.01.64.05.42.07.84.12 1.25.25 3.29.87 5.75 3.69 6.36 6.61.13-.27.44-.09.7.53.16.31.28.72.39 1.24s.18 1.26.27 2.01c.34 3.04.65 7.24.96 11.27.62 8.07 1.25 15.51 2.1 11.8-.04 10.16-.09 25.42.38 26.21 1.42 2.36 3.05 10.19 3.91 37.18l.03 8.7-.02 2.31v1.16c-.02.4-.01.68-.05 1.37-.1 2.36-.71 4.68-1.69 6.69-1.96 4.07-5.3 6.85-8.38 8.21-3.08 1.45-5.79 1.57-7.19 1.68-1.47.11-1.34.23-.43.36.11.01.24.03.38.05a12.32 12.32 0 0 0 .67.02c.5 0 1.06.03 1.66-.04 1.2-.1 2.56-.33 3.86-.76 2.65-.8 4.98-2.36 6.14-3.3.6-.45.93-.72.93-.64 0 .09-.34.52-1.22 1.37a18.83 18.83 0 0 0 6.26-10.26c.2-1 .38-2.02.41-3.04l.04-.76v-.31-.23-.92l.02-3.67.06-14.63.06-29.12v-29l-.02-14.48v-7.24l-.02-1.83c-.03-1.01-.08-2.02-.27-3.02-.34-2-.99-3.96-1.95-5.74-1.93-3.55-4.95-6.48-8.63-8.17-1.83-.85-3.81-1.43-5.83-1.65-.5-.06-1.01-.07-1.51-.1l-.7-.02h-.45-1.81l-14.49.04-29.07.08-58.75.08c-6.73.19-23.12.34-44.65.47l-35.58.17-4.82.02h-2.43-.61c-.22 0-.35 0-.73.02-.65.04-1.3.04-1.95.15-5.22.67-10.08 3.75-12.85 8.28-1.4 2.25-2.32 4.84-2.61 7.51a34.75 34.75 0 0 0-.11 1.98v1.26l.01 2.53.03 10.19.1 79.18v4.45 2.19V216v.29l.02.43.04.85a17.72 17.72 0 0 0 5.63 11.64c3.12 2.92 7.26 4.59 11.3 4.71l.74.03h.48.95 1.86 3.63l23.24.09 4.23-.02 77.85-.67 29.9-1.33-12.68-.82 24.25-.23c21.66-.72 9.39-1.55 1.06-2.69-5.99-.5 2.11-1.26-7.27-1.77l16.95.06c.78-.47-20.88.24-16.17-.53 6.52.18 13.83-.11 20.6-.08-2.34-.64-23.47-.24-22.42-.87 3.66-.15 19.04.86 20.35.07.26-.16-6.52-.18-9.91-.19 20.86-.24 32.36-.99 13.31-1.85l22.95.25s-.04 0-.05-.01l-12.73-.2 11.9.04a72.43 72.43 0 0 0-2.08-.33l-9.03-.19 7.91.03a175.78 175.78 0 0 0-6.73-.74l-23.47-1.27-123.24-.69zm53.67-136.52c-.07-.28-.69-.39.08-.79 2.46-1.1 4.82-.84 7.28-1.94l.04-.51 6.34-1.36 11.44-4.11c-.15-.13-.25-.27.11-.45 1.55-.64 3.81-1.21 6.11-1.91l.98-.41c.23-.18.24-.36.25-.47l2.84-.81 34-14.44 3.71-1.88 1.85-.88.92-.41c.21-.12.43-.17.67-.25 1.49-.41 3.34-.18 4.88.64 1.56.81 2.73 2.16 3.38 3.45.31-.3.83-.17 1.39.33.3.24.55.58.85.97l.84 1.34c1.12 1.8 2.21 3.44 2.78 2.33.62 2.47 1.54 6.19 2.05 6.26 1.52.21 3.61 1.69 6.16 8.02.87 2.51 1.33 6.6 1.85 7.43.82 1.31.09-3.58.9-2.27l-3.55-14.23-1.87-7.03-.95-3.51-.12-.44-.21-.7c-.17-.5-.31-1.02-.54-1.5-.4-.99-.91-1.93-1.47-2.83-2.31-3.6-5.92-6.23-9.98-7.39a17.6 17.6 0 0 0-6.3-.62c-.53.06-1.06.1-1.58.2-.49.1-1.08.22-1.67.37l-2.01.68-13.98 4.68c-6.18 2.81-49.35 17.33-60.57 20.67l-1 .35c-6.09 1.9-13.42 4.44-18.35 6.73-2.23 1.15-4.47 2.39-6.71 3.61 1.19-.1 2.31-.18 3.28-.21-2.44.76-4.87 1.52-5.71 2.12-4.94 2.38-1.75 2.21.59 2.64 1.58 0-.11 1.36 2.29 1.11l-4.06 1.27c-.04.51 4.9-1.86 4.02-.76-1.61.34-3.26 1.19-4.88 1.69.76.43 5.67-1.61 5.62-.93-.83.43-4.81.67-4.87 1.52-.01.17 1.61-.34 2.42-.59-4.9 1.86-7.4 3.48-2.6 2.8-1.58.5-3.92.91-5.55 1.56.86-.25 2.35-.56 3.12-.81l-2.85.89c.18.06.39.1.6.15.74-.14 1.47-.3 2.21-.53l-1.89.59a14.08 14.08 0 0 0 1.84.17c2.4-.25 4.78-.25 5.99-.63l29.6-8.99z"/><path d="M72.37 74.7c-.14-.26-.84-.15-.08-.81 2.46-1.94 5.09-2.49 7.55-4.44l-.07-.52 6.65-3.54 11.63-8.03c-.2-.08-.33-.18.02-.49 1.56-1.17 3.91-2.52 6.28-4.01l.99-.74c.21-.26.19-.44.17-.56l2.93-1.79 34.09-26.06 7.34-6.09a91.05 91.05 0 0 1 3-2.03l1.61-1.03.8-.49.67-.36c1.83-.89 3.94-.88 5.56-.39-.02-.44.49-.71 1.34-.74.84-.02 2 .25 3.07.77.54.25 1.04.57 1.51.86l1.2.82c.67.4 1.13.43 1.18-.26 1.59 2.5 3.99 6.26 4.51 6.19 1.56-.2 4.18.81 9.21 6.93 1.86 2.47 3.95 6.76 4.79 7.51 1.32 1.18-1.35-3.89-.04-2.71l-9.18-14.37-4.64-7.07-.15-.22-.26-.37-.55-.75c-.36-.5-.8-.95-1.22-1.41-.86-.9-1.82-1.69-2.84-2.39-2.05-1.39-4.39-2.31-6.8-2.74a17.6 17.6 0 0 0-7.33.25c-1.2.29-2.37.73-3.48 1.27-.57.25-1.08.59-1.61.9l-.38.23-.22.15-.44.29-7.05 4.71-14.29 9.46c-6.16 4.92-50.28 34.22-61.84 41.4l-1.02.69c-6.26 3.99-13.73 9.04-18.63 13.01l-6.57 5.9c1.29-.51 2.49-.97 3.55-1.34-2.5 1.6-5 3.19-5.79 4.07-4.89 4.06-1.44 2.8 1.22 2.42 1.74-.54.18 1.39 2.75.32l-4.17 2.66c.07.52 4.96-3.54 4.24-2.14-1.69.89-3.31 2.3-4.98 3.36.92.16 5.86-3.55 5.95-2.86-.81.71-5.12 2.32-5.01 3.19.02.17 1.69-.89 2.52-1.42-4.96 3.54-7.35 6.01-2.23 3.68-1.63 1.04-4.09 2.25-5.74 3.46h.02c.87-.54 2.42-1.36 3.22-1.87l-2.93 1.87c.21 0 .45-.03.69-.06.78-.39 1.55-.8 2.31-1.29l-1.95 1.24c.62-.1 1.31-.26 2.05-.46 2.57-1.08 5.17-1.89 6.43-2.69l30.45-19.13zm35.41 119.54c-.05.29 1.36.59-.83.72-6.88.28-12.42-.7-19.3-.43l-.5.47-16.55-.69-6.86.05-3.42.03h-.14-.02l-.03.01-.07.02-.07-.04-.06-.04-.76-.79-3.03-3.16-6.05-6.28c.06.31.03.52-.72-.19l-2.38-2.47c-.21-.22-.42-.45-.63-.68l-.08-.09-.16-.19c0-.09.02-.18.03-.27v-.07s.01 0 .01-.06v-.28c0-.38.01-.75.02-1.14l.05-4.66-.08-2.72c-.1-.7-.27-.88-.37-1l.11-7.57-.21-6.82-.11-3.53v-.45l-.02-.23v-.06l-.03-.19a5.46 5.46 0 0 1-.05-.4c.13-.18.21-.32.39-.57l2.01-2.3 4.1-4.67 4.24-4.83 2.2-2.5c.12-.14.11-.13.15-.17l.08-.1.16-.21.34-.44 1.02-.11 3.2-.11 6.58-.23 13.54-.47 28.37-.94 20.9-1.07c10.07-.18 22.92.13 32.73.18-1.43-1.67 22.12-2.49 18.29-4.18h.72l4.09 4.4 3.56 3.76c2.22 2.31 3.97 4.02 4.3 4.04.65.04 1.55.33 2.87 1.06.66.37 1.42.85 2.3 1.48l.7.51 1.11.95c.78.67 1.62 1.43 2.55 2.27l.35 4.72.33 3.46c.21 2.44.39 5.26.55 8.5.2 6.8-.4 17.25-.11 19.64.45 3.78 1-8.82 1.45-5.04l.12-14.73.06-17.65L187 122.48l-98.59.28c-2.31.1-6.38.19-11.77.27l-9.04.12-13.67.11-21.11 22.8.14 39.63 21.13 22.5 30.66.02 19.49.11 2.73-.02c16.37.09 36.26-.04 50.12-.67l19.25-1.33-8.16-.82 9.25.01 4.03-.07c1.59-.04 2.89-.09 3.79-.16.03-.04.05-.07.07-.09 3.73-4.25 4.47-5.31 5.22-6.4.63-.96.59-1.22.12-1.04-.96.38-3.48 2.35-6.01 4.21-.28.24-.51.41-.64.48-1.33-.25-.97-.54-1.09-.83-.05-.14-.21-.29-.66-.42-.23-.07-.53-.13-.92-.2a21.9 21.9 0 0 0-1.56-.18l3.53.02 4.54-4.79c.03-.41-2.83 2.79-4.58 4.68-1.16 0-2.2 0-2.8-.06-.68-.05-.88-.15-.19-.33a53.59 53.59 0 0 0 2.84.06l6.22-6.85c-.44.19-1.53 1.21-2.85 2.53l-3.64 3.7c-1.04-.03-1.88-.06-2.58-.12-.84-.06-1.31-.15-1.17-.28a9.7 9.7 0 0 1 .79-.01h.51c.13 0 .26.01.4.02l1.94.13 1.44-1.33.88-.86.89-.9c1.11-1.16 1.89-2.09 1.89-2.46 0-.11-.75.62-1.69 1.58l-2.55 2.67 2.89-3.25 2.62-3.03c1.55-1.83 2.67-3.24 3.24-4.08 1.13-1.68 0-1.07-4.5 3.11 2.93-3.09 7.28-7.25 10.28-10.61 0 0-.02.01-.03.02l-5.75 5.84 5.27-5.57c-.36.22-.75.48-1.16.75-1.37 1.33-2.74 2.67-4.11 4.12l3.5-3.7c-1.06.75-2.24 1.65-3.5 2.66-4.5 4.07-9.01 7.78-11.26 10.16-.14.15-.08.08-.11.11l-.03.03-.07.05-.13.1-.24-.03h-.06l-.03-.01h-.29l-1.19-.02-4.75-.06-9.49-.12-19-.19-37.96-.21zm10.95-17.98c0 .25.26.5-.1.63-.57.18-1.11-.03-1.6-.2-.25-.07-.49-.23-.74-.29-.25-.08-.51-.1-.79-.14l-.17.38-.61-.3c-.2-.11-.39-.25-.58-.37-.4-.22-.75-.55-1.11-.82-1.51-.7-2.84-1.77-3.95-3.05-.09.12-.19.22-.34.12-.29-.24-.45-.65-.7-1.06l-.54-1.39-.22-.4c-.13-.08-.27-.06-.36-.06-.15-.46-.18-.89-.25-1.28-.87-2.46-1.12-5.43-.12-8.28.96-2.85 3.06-5.63 6.16-7.38 1.23-.94 2.71-1.6 4.22-1.9 2.28-.34 5.19.39 7.13 1.38.11-.72 1.55-.74 2.94-.47 1.37.23 2.73.65 2.68-.32 1.42 1.13 3.12 3.24 3.5 3.14.6-.18 1.48-.25 2.55.4.54.32 1.19.79 1.81 1.54.67.73 1.3 1.74 1.92 3.06a13.4 13.4 0 0 1 .48 1.8l.21 1.94c.07 1.24 0 2.29.15 2.69.1.24.2.22.31.07s.19-.55.29-.92c.18-.75.35-1.54.58-.9-.12-2.19-.51-4.39-1.28-6.46-.33-1.05-.84-2.03-1.31-3.03l-1.75-2.78c-2.56-3.56-6.16-6.3-10.21-7.92-2.03-.81-4.17-1.3-6.34-1.54-2.16-.16-4.35-.16-6.5.26-.54.08-1.07.19-1.6.34l-1.58.44c-1.03.38-2.07.73-3.04 1.24-1.99.94-3.82 2.19-5.47 3.66-1.02 1.08-3.62 3.77-5.48 8.16-.9 2.19-1.59 4.78-1.76 7.57-.18 2.77.13 5.74 1.05 8.58.91 2.84 2.39 5.5 4.26 7.72 1.86 2.23 4.08 4.01 6.35 5.29s4.56 2.05 6.57 2.51c2.02.4 3.74.52 5.01.54l.92-.06c2.76-.1 5.82-.84 8.44-2.2 2.64-1.34 4.81-3.24 6.2-5.06 1.23-1.73 2.09-3.7 2.7-5.65-.66.7-1.31 1.31-1.91 1.77 1.15-1.61 2.03-3.41 2.03-4.22.46-2.06.11-2.58-.29-2.42-.22.07-.48.31-.79.58-.33.27-.68.57-1.04.81-.38.4-.6.21-.85.09s-.5-.16-1.03.4c.25-.46.39-.83.53-1.2.13-.37.31-.73.44-1.25-.24-.2-.93 3.12-1.29 2.17.56-.84.69-1.98.94-2.96-.33.1-.54.95-.9 1.67-.29.75-.7 1.37-.9 1.19.18-.45 1.7-2.34 1.05-2.72-.12-.07-.37.87-.58 1.31.42-1.44.36-2.61.14-3.07s-.59-.21-1.17.9c.12-.4.23-.9.39-1.4.11-.51.17-1.04.15-1.5h-.01a30.24 30.24 0 0 1-.29 1.63c.09-.5.08-1.01.14-1.52-.1.08-.2.17-.3.26-.11.37-.17.74-.23 1.11.06-.32.05-.65.09-.98-.24.24-.46.5-.67.77-.59 1.07-1.44 1.84-1.64 2.33-.86 2.02-2.28 3.77-4.04 4.98-.86.63-1.83 1.08-2.81 1.43-.98.37-2.02.53-3.06.6z"/></svg>