<svg xmlns="http://www.w3.org/2000/svg" viewBox="0 0 237 237.18" ><path d="M104.3 4.22c-.1.3 2.79.61-1.7.75l-14.77.04-.15 14.79-.22 7.73c-.14 5.17-.23 10.43-.12 16.14l.49 1.02-.71 33.96.03 7.07.03.23-.19.03h-.05l-1.45.01-3.08.02-12.29.07-24.48.17c.55.18.81.34-1.3.41l-14.27.03-23.86-.11-.01 4.76.08 10.28c.11 1.44.28 1.81.38 2.04l-.12 15.54.22 14 .11 7.46.11 13.48 15.88-.16 9.8-.16 19.95-.33 20.61-.34 10.62-.17 2.69-.04h.49l.25-.02.51-.02 2.12-.09.09 1.77.04.93v.24l.02.52.02 1.2.17 9.72.35 20.11.35 20.85.18 10.65.18 14.18 2.61-.03 7.79-.17 5.66-.17 10.8-.31 21.25-.46 11.99-.05.01-16.62.07-14.84.16-28.14c-.48.86-.89-2.33-1.28-7.16l-.56-8.19-.54-8.78c4.19-.29 8.67-.58 10.98-.9 2.4-.32 3.13-.66.95-1.05l34.62-.39c1.33-.62 3.96-1.29 9.31-1.91 2.68-.31 6.03-.62 10.25-.9l6.99-.41.48-.02h.12l.04-.01h.07l.28-.06.54-.09 1.01-.18-.24-1.68c-.04.16-.07-1.59-.11-2.74l-.1-3.88c-.21-13.96.41-35.39.11-40.31-.47-7.75-1.03 18.09-1.5 10.34l-.16 36.27c-27.35 0-54.49-.02-81.61-.03l.15 81.74-39.1.1-.03-38.62-.19-13.75-.09-9.91-.08-18.92-81.92.34-.12-40.78 81.51-.08.03-54.08.04-19.08.03-7.43.03-.87c.13 0 .21 0 .3.01l.8-.02 22.86.03 11.82-.02 4.3-.02.77-.02.04.99.05 7.36.14 14.65.44 26.51.41 12.59.11 3.17.06 1.59.06 2.6.23 10.62 11.9-.26 7.58-.26-3.84-.18-1.86-.09-2.43-.09-10.1-.36.13-3.94v3.82h21.55l11.85-.24c28.61-.74 12.41-1.61 1.4-2.78-7.92-.52 2.79-1.31-9.61-1.83l22.39.06c1.03-.49-27.58.25-21.36-.55 8.61.19 18.26-.11 27.21-.09-3.1-.66-31-.25-29.62-.9 4.83-.15 25.15.89 26.88.08.34-.16-8.61-.19-13.09-.2 27.56-.25 42.74-1.03 17.59-1.92l30.32.26c-.01 0-.05 0-.07-.01l-16.81-.21 15.72.04-2.75-.34-11.93-.19 10.45.03c-2.61-.27-5.6-.52-8.9-.76l-31-1.32-18.13-.13-9.08-.06h-1.14-.16-.02-.04-.17l-.32-.04.03-.39.02-.18v-2.41l.07-10.2.1-20.4.16-48.39-52.51-.09z" /></svg>