<svg xmlns="http://www.w3.org/2000/svg" viewBox="0 0 237 237.18"  ><path d="M84.36 46.97c-.19-.23-.69-.19-.33-.71 1.24-1.58 3.14-1.67 4.45-3.08l-.17-.47 2.08-.95 1.06-.47 1.1-.4 1.82-1.08 1.88-.93.94-.48.96-.4 1.93-.81c-.12-.15-.2-.29.04-.45.54-.21 1.22-.37 1.96-.53l1.15-.24 1.22-.15.71-.2c.17-.14.19-.31.21-.42l1.07-.14h.99c4.05-.86 8.37-1.15 12.83-.59 4.45.56 9.05 1.89 13.61 4.08 1.05.32 2.02.8 3.01 1.24l1.46.7c.48.25.91.55 1.36.83a43.9 43.9 0 0 1 1.95 1.52c.65.56 1.26 1.21 1.89 1.82 1.28 1.22 2.38 2.59 3.4 3.72.48-.76 2.17.07 3.69.97 1.55.86 3.06 1.68 3.25.54 1.24 1.75 3.11 4.37 3.57 4.27.74-.2 1.69-.18 2.96.46.63.32 1.34.8 2.15 1.49.76.71 1.6 1.64 2.52 2.83.69.96 1.25 2.33 1.74 3.53.49 1.19.91 2.21 1.22 2.51 1 .96-.41-3.15.59-2.2-3.62-7.99-8.41-15.4-14.54-21.81-2.99-3.26-6.42-6.17-10.05-8.87-3.66-2.68-7.7-4.95-11.97-6.9-.78-.21-2.1-.64-3.82-1.22-.86-.28-1.87-.5-2.94-.8l-1.68-.44c-.58-.15-1.21-.23-1.84-.35-5.04-1.01-11.51-1.42-17.95-.39-6.46.96-12.75 3.33-17.66 6.06-4.94 2.7-8.61 5.62-10.66 7.34l-.71.67-1.68 1.49-1.61 1.66c-.54.57-1.09 1.13-1.6 1.72l-1.47 1.81c-.48.61-.96 1.2-1.4 1.81l-1.21 1.84c-.78 1.2-1.47 2.35-1.97 3.46a85.14 85.14 0 0 0-1.26 3.13l-1.04 3.21c.76-.74 1.47-1.41 2.12-1.96-1.13 1.89-2.3 3.77-2.36 4.68-1.45 4.49.54 2.48 2.36 1.49 1.02-.87.95.98 2.3-.47l-1.63 3.05c.37.36 1.71-3.92 1.98-2.68-.76 1.09-1.17 2.55-1.81 3.76.82-.13 2.35-4.13 2.87-3.61-.23.69-2.53 3-1.93 3.59.12.12.76-1.08 1.08-1.68-.42.96-.75 1.83-.97 2.54-.19.73-.28 1.3-.25 1.65.06.7.59.52 1.75-.99-.55 1.17-1.6 2.71-2.06 4.01.32-.62.96-1.63 1.22-2.2l-.98 2.12a5.37 5.37 0 0 0 .48-.24c.33-.49.64-.99.89-1.53l-.65 1.4c.4-.25.81-.55 1.23-.89.61-.72 1.24-1.4 1.82-1.98.59-.58 1.06-1.08 1.29-1.5.92-1.71 2.02-3.31 3.04-4.94.54-.8 1.12-1.56 1.67-2.34l.83-1.17.89-1.11c2.32-3.02 4.92-5.73 7.64-8.19zm7.59 24.56c-.23-.2-.64-.17-.46-.61.17-.32.39-.58.64-.8.27-.2.55-.36.84-.53.58-.31 1.1-.68 1.53-1.22l-.26-.42 1.45-.83c.49-.27 1.03-.47 1.53-.72.77-.69 1.63-1.18 2.44-1.79.41-.29.86-.51 1.28-.78.43-.25.84-.55 1.3-.75-.12-.15-.21-.29-.05-.42.36-.22.84-.39 1.35-.57.52-.17 1.12-.25 1.69-.41l.48-.24c.1-.14.1-.32.09-.43.54-.11 1.04-.15 1.49-.19 5.67-2.11 12.62-2.51 20.04-.26 1.63.33 3.34.64 4.8 1.34 2.17 1.03 4.43 3.14 6.19 4.65.2-.39.68-.5 1.27-.47.58.05 1.28.25 1.97.44 1.39.36 2.71.74 2.89-.31 1.15 1.21 2.87 3.01 3.28 2.81.67-.35 1.53-.57 2.7-.33.58.12 1.26.35 2 .75.72.42 1.53.99 2.43 1.77 1.32 1.31 2.38 3.98 3.01 4.32.97.56-.52-2.52.45-1.96-3.76-5.77-8.33-10.97-13.82-15.29l-2.07-1.6c-.71-.51-1.45-1-2.18-1.49-1.43-1.02-3.02-1.86-4.54-2.77-3.18-1.66-6.49-3.19-10.08-4.28-1.27-.2-4.3-.91-8.39-1.29a43.73 43.73 0 0 0-14.38 1.19c-5.11 1.29-9.96 3.79-13.64 6.44-.9.69-1.81 1.31-2.58 1.98l-2.16 1.89c-1.25 1.25-2.33 2.27-3.05 3.08l-.48.62c-.77.89-1.58 1.84-2.27 2.87l-1.07 1.55c-.34.52-.64 1.08-.94 1.61l-.87 1.61c-.27.53-.49 1.08-.71 1.6-.44 1.05-.84 2.05-1.06 3-.18.88-.33 1.77-.47 2.66l-.26 2.69c.55-.65 1.08-1.23 1.57-1.72-.64 1.6-1.33 3.2-1.2 3.94-.4 3.71 1.07 1.94 2.59 1.05.78-.75 1.13.72 2.09-.51-.37.99-.52 1.5-.87 2.51.43.26.74-3.2 1.29-2.24-.49.9-.54 2.09-.89 3.08.76-.15 1.31-3.4 1.92-3.01-.06.55-1.74 2.51-1.03 2.94.15.08.48-.9.65-1.38-.18.78-.3 1.48-.36 2.05-.03.58.01 1.03.12 1.3.21.54.68.36 1.47-.88-.27.94-.95 2.2-1.1 3.24.17-.5.55-1.32.68-1.78l-.48 1.7c.13-.06.27-.14.41-.22.21-.4.39-.81.52-1.24l-.32 1.12c.33-.22.66-.48.99-.77.43-.59.89-1.16 1.31-1.64.43-.48.76-.89.88-1.23.49-1.37 1.14-2.65 1.71-3.97.67-1.25 1.26-2.55 2.01-3.74.67-1.24 1.48-2.36 2.22-3.51.83-1.08 1.6-2.21 2.49-3.19zm64.54 144.27c.07-.3-1.88-.61 1.15-.75 9.52-.29 17.16.73 26.69.44l.69-.49 23.33.71c1.77-.04 3.62.21 5.06-1.01l2.28-1.35 1.08-.84.83-.66c.54-.41.92-.86 1.38-1.29.43-.44.9-.87 1.28-1.32l1.12-1.36a14.66 14.66 0 0 0 1.04-1.38c2.62-3.7 4.43-7.55 5.81-11.51 1.36-3.97 2.27-8.06 2.61-12.33.18-2.13.18-4.33-.01-6.58-.05-1.11-.31-2.29-.48-3.42-.08-.56-.27-1.21-.41-1.8a51.23 51.23 0 0 0-.54-1.76c-.03.55-.07.78-.78-.96-1.46-3.63-3.78-7.41-6.91-10.87-3.14-3.46-7.08-6.67-11.91-8.99-1.44-.66-2.97-1.19-4.52-1.64-1.25-.25-1.61-.15-1.84-.08-.49-.1-.95-.23-1.45-.3l-1.32-.2a13.77 13.77 0 0 1-.67-.07 2.19 2.19 0 0 0-.59.04c-.17.1-.11-.11-.1-.21l-.13-.78-.11-.65-.06-.36-.22-1.09-.45-2.18c-.14-.73-.3-1.45-.53-2.16-.44-1.41-.79-2.86-1.33-4.23-1.99-5.56-4.84-10.78-8.38-15.47-7.09-9.33-17.08-16.71-28.72-19.97-11.63-3.27-24.17-2.11-35.21 2.51-5.53 2.31-10.73 5.5-15.32 9.49-1.16.98-2.21 2.1-3.31 3.15-1.07 1.09-2.03 2.29-3.04 3.44-.3.34-.36.46-.51.66l-.4.57-.81 1.15-1.26 2.16c-.02-.01-.04-.03-.07-.05l-1.64-1.12-1.93-1.09-3.46-1.73c-1.19-.51-2.39-.97-3.58-1.44-4.83-1.73-9.82-2.68-14.72-2.98-3.63-.23-7.54-.21-11.51.43-3.96.61-8.02 1.59-11.82 3.26-.98.35-1.89.85-2.82 1.31s-1.86.91-2.72 1.48l-2.59 1.63-2.39 1.7c-3.13 2.3-6.05 4.73-8.54 7.3.34-.06.28.31-.06.98-.32.69-1.01 1.59-1.69 2.85-.35.62-.77 1.25-1.15 1.98l-1.15 2.29-1 2.53c-.29.87-.51 1.78-.76 2.65-.86 3.56-.73 7.05-.47 9.13.42 2.11.83 2.85 1.21 1.27l.04 1.51a6.94 6.94 0 0 0 .09.91l.13 1.02c.18 1.37.32 2.76.68 4.23.31 1.45.59 2.93.96 4.32l.53 2.09.26 1.03.13.51c-.01.11-.14.08-.21.13-1.59-.52-3.07-1.05-4.48-1.46l-3.85-1.01c-1.1-.18-2.02-.31-2.69-.39a12.94 12.94 0 0 0-.82-.08 2.01 2.01 0 0 0-.48.05c-.35.16-.58.36-.98.54-.37.2-.85.31-1.35.58-1 .5-2.38.99-3.61 2.07l-.25.18-.22.24a9.98 9.98 0 0 1-.46.46c-.17.13-.3.34-.44.54-.14.19-.29.39-.45.57-.54.92-1.15 1.94-1.63 3.41-.49 1.46-.92 3.23-1.23 5.36l-.11.82-.06.41-.02.36c0 .48-.09.96-.07 1.46.03.5 0 1.01.06 1.53.08.52.09 1.06.21 1.6.23 1.7.77 3.63 1.62 5.48.84 1.85 2.01 3.61 3.32 5.02 1.3 1.41 2.73 2.46 3.96 3.17.64.29 1.18.61 1.68.76.49.16.89.28 1.18.35 1.28.26 1.21.11.47-.24l-.31-.14c-.1-.05-.16-.09-.25-.14l-.57-.31c-.42-.18-.86-.48-1.29-.76-.45-.25-.85-.61-1.21-.89-.37-.27-.64-.58-.82-.79-.37-.43-.34-.56.42-.15-2.84-2.02-5.08-5.22-6.09-8.68-.52-1.73-.75-3.51-.68-5.22l.02-.65c.02-.21.06-.42.09-.63.06-.42.08-.81.22-1.39.11-.53.21-1.08.35-1.57.13-.5.25-1.02.41-1.46.58-1.88 1.34-3.41 2.12-4.33.79-.93 1.43-1.34 2.48-1.65.27-.07.51-.19.87-.18a4.26 4.26 0 0 0 .5-.06c.16-.03.32-.07.54-.04l.6.02h.3.15.07l.31.03.73.09c.2.04.35.09.53.13l1.04.27 2.07.55 2.07.55c.67.15 1.45.47 2.17.7l4.4 1.51 8.33 2.84-3.66-14.59c-.74-2.58-.95-4.73-1.36-7.03l-.28-1.71-.07-.43v-.19-.35l-.06-1.39-.03-.69.04-.66.07-1.33c.07-.87.24-1.69.36-2.54.42-1.61.85-3.19 1.66-4.67.69-1.51 1.75-2.94 2.85-4.38l1.89-2.11c.72-.68 1.37-1.39 2.14-2.05 1.51-1.35 3.14-2.67 4.85-3.95l1.31-.95c.43-.31.89-.66 1.27-.88.81-.49 1.58-1.04 2.4-1.5 6.59-3.76 14.67-5.26 22.51-4.51 3.92.38 7.79 1.32 11.4 2.81.88.42 1.81.74 2.65 1.22l1.28.7.64.35c.11.06.2.1.33.18l.7.53 5.63 4.24 5.58 4.52 4.28-6.86 4.09-6.01.26-.37c.06-.08.1-.11.15-.17l.28-.31.57-.62 1.13-1.25c.79-.81 1.65-1.55 2.47-2.34 3.43-2.99 7.41-5.47 11.68-7.29 2.22-.99 6.09-2.66 11.48-3.46 1.35-.16 2.77-.41 4.28-.42.75-.02 1.53-.11 2.31-.07l2.41.1c3.26.29 6.78.81 10.31 2.15a41.89 41.89 0 0 1 10.56 5.78c3.41 2.56 6.63 5.78 9.36 9.54s4.97 8.06 6.44 12.67c.31 1.17.68 2.33.95 3.51l.34 1.79.17.9.09.45.05.9.19 3.71c.06 1.26.16 2.41.14 3.85l.03 4.13v2.07c0 .37.04.63.06.92l.07.85 5.32-1.59 2.68-.78c.89-.26 1.67-.41 2.51-.63.46-.15.7-.08 1.03-.09l.93.02c.39 0 .4.03.55.05l.38.06c.51.09 1.03.21 1.57.36 2.13.62 4.35 1.76 6.39 3.23s3.89 3.29 5.4 5.24 2.65 4.09 3.19 6.05c.07.24.11.48.18.72.05.25.08.55.13.83l.13.84c.04.28.04.59.06.89.03.59.09 1.18.05 1.81-.03.62.01 1.23-.08 1.86-.18 2.51-.69 5.08-1.45 7.52-.75 2.45-1.73 4.8-2.89 6.89-1.15 2.1-2.53 3.93-3.88 5.14-.16.18-.33.26-.49.4-.06.05-.05.05-.09.09-.08.05-.17.1-.25.15h-2.21-7.91c-5.13 0-9.97-.02-14.44-.02l-21.82-.1-3.77.02c-22.63-.09-50.12.04-69.28.69l-26.61 1.38 11.29.85c-9.06-.04-18.11-.08-21.58.24-19.28.74-8.36 1.61-.94 2.78 5.33.52-1.88 1.31 6.47 1.83l-15.08-.06c-.69.49 18.58-.25 14.39.55-5.8-.19-12.3.11-18.33.09 2.09.66 20.88.25 19.96.9-3.25.15-16.94-.89-18.11-.08-.23.16 5.8.19 8.82.2-18.57.25-28.8 1.03-11.85 1.92l-20.42-.26s.03 0 .05.01l11.33.21-10.59-.04 1.85.34 8.04.19c-2.34 0-4.68-.02-7.04-.03 1.76.27 3.78.52 5.99.76 8.36.53 16.36 1.3 20.89 1.32l109.67.71z"/></svg>