<svg xmlns="http://www.w3.org/2000/svg" viewBox="0 0 237 237.18" ><path d="M230.09 65.95c-1.4-5.02-4.07-9.08-6.87-12.52-2.84-3.44-5.92-6.35-8.97-9.01-3.05-2.67-6.11-5.07-8.97-7.36l-2.08-1.69c-.37-.29-.55-.48-1.31-1.03l-.96-.68c-.33-.21-.7-.39-1.05-.58-1.41-.76-2.98-1.16-4.47-1.39-.74-.09-1.47-.13-2.18-.14-.67.04-1.38.05-2.01.15-2.58.35-4.68 1.12-6.56 1.95-1.86.84-3.48 1.78-4.98 2.74-3 1.91-5.48 3.87-7.72 5.72-4.41 3.69-7.77 6.95-10.18 9.06l-1.61 1.43a3.09 3.09 0 0 1-.39.31c-.11.09-.11.08-.13.09-.05.04-.11.05-.15.07-.13.06-.64.19-1.24.25-1.22.15-2.93.11-4.68 0-3.58-.24-7.55-.76-11.54-1.13-4-.38-8.05-.64-11.99-.56-1.96.04-3.9.15-5.77.36-.94.11-1.86.23-2.76.39l-.68.11-.78.17c-.5.12-1.03.22-1.5.37-3.54 1.11-6.61 2.91-9.19 4.98-2.59 2.07-4.81 4.38-6.79 6.76 2.16-1.91 4.36-3.53 6.4-4.75-4.77 3.58-8.42 8-9.91 10.24l-.82.02-1.1.05-4.44.19-9.08.4-16.83 1.47c-1.34.11-3.03.3-3.66.3a10.83 10.83 0 0 1-2.6-.26c-.43-.1-.86-.22-1.26-.36l-1.9-.7-3.94-1.46c.22.25.29.44-.77.1l-3.57-1.33-1.96-.76-.26-.1-.34-.13-.7-.24c-.48-.14-.95-.33-1.44-.44-1.97-.55-4.1-.81-6.28-.84-2.19 0-4.42.33-6.59.95-.63.23-1.26.42-1.87.68-.6.28-1.21.54-1.79.83-.86.57-1.02.83-1.12.99-3.5 1.95-6.1 4.57-8 7.27-.73 1.12-1.43 2.49-1.8 3.29l-1.34 2.76-2.68 5.56-5.4 11.2-1.49 15.68c1.35 5.17 4.63 9.82 9.04 12.78l20.59 13.73c-.03.05-.06.12-.09.17-.54 1.04-1.05 2.05-1.51 3.03-.14.32-.29.62-.42.92-.17.41-.36.79-.48 1.2-.28.8-.45 1.59-.56 2.35-.13 1.4-.04 2.8.26 4.13a13.71 13.71 0 0 0 1.48 3.68c-.17-1.21-.17-2.31 0-3.23.19 2.47 1.43 4.73 2.21 5.3.86.96 1.56 1.36 1.97 1.5.41.15.57.04.59-.23.04-.25-.06-.66-.18-1.1-.09-.46-.21-.95-.21-1.43-.13-.59.19-.67.44-.81.26-.14.45-.36.32-1.11.48.93.79 1.37 1.52 2.12.19-.12-.42-.61-.86-1.2-.45-.57-.69-1.17-.22-1.02.3.94 1.21 1.61 1.95 2.21.05-.33-.54-.89-.94-1.51s-.64-1.26-.35-1.31c.09.08.16.28.23.53.1.23.18.55.32.81.14.27.3.51.48.66.17.14.34.2.5.08.11-.08-.49-.68-.73-1.04.43.49.95.79 1.36.98.21.08.41.13.58.16.15.03.41.08.54.07.31 0 .44-.12.34-.39-.05-.13-.16-.31-.32-.5-.06-.17-.17-.34-.29-.55.11.1.25.19.38.32.2.16.53.39.79.59.57.41 1.14.8 1.69 1.05v-.02c-.5-.32-1.31-.96-1.79-1.25l1.75 1.05-.15-.44c-.4-.33-.8-.65-1.25-.93l1.15.7c-.17-.38-.39-.77-.65-1.17l-.43-.46-.2-.23c-.07-.07-.15-.16-.14-.2-.04-.2-.09-.35-.09-.53-.02-.15-.02-.29-.02-.41 0-.11-.02-.19-.05-.24-.25-.39-.32-.87-.3-1.3a2.68 2.68 0 0 1 .14-.59 3.11 3.11 0 0 1 .32-.53l1.67-2.73 3.78-6.3c-.23-.14-.65.04-.47-.53.39-.95 1.03-1.62 1.64-2.32.49-.57.96-1.15 1.27-1.92l-.32-.33 2.76-3.49 1.97-3.67.92-1.75c.06-.14.12-.32.21-.44-.13-.1-.23-.19-.23-.29.13-.32.63-.44 1.06-.52.06-.03.13-.07.18-.12.04-.11.03-.25.03-.35.23 0 .45.02.63.09.32-.08.66-.11 1.03-.06.1.03.15 0 .32.06l.7.31 1.4.61.35.15.18.08.07.03.32.1c.1.05.2.08.31.13.09.05.18.11.29.16a3.5 3.5 0 0 1 1.04.96c.6.81.95 1.95.77 3.15 0 .07-.03.14-.04.22h0c-.5.5-.95 1.03-1.37 1.59-.31.39-.55.8-.81 1.21l-.19.31-.1.18-.22.37-.83 1.45-1.59 2.76-2.56 4.38-2.31 3.83-.34.64c-.81 1.34-1.66 2.8-2.47 4.28l-.94 1.74a95.65 95.65 0 0 0-1.52 3.04l-.41.91c-.17.41-.36.79-.48 1.2-.28.8-.45 1.59-.56 2.35-.13 1.4-.04 2.8.26 4.13a14.75 14.75 0 0 0 .26.95 3.88 3.88 0 0 1-.33.07c-1.49.23-3.44 0-5.01-.54-.8-.24-1.49-.59-2.05-.84-.55-.28-.98-.5-1.24-.56-.27-.04-.31.07-.23.25s.53.54.91.86c.8.64 1.75 1.2.82 1.09 1.4.59 2.91.95 4.43 1.07a14.44 14.44 0 0 0 3.22-.06 14.98 14.98 0 0 0 .69 1.39c-.07-.51-.11-1-.12-1.47.14-.02.27-.05.4-.07.46 1.74 1.32 3.16 1.92 3.6.86.96 1.56 1.36 1.96 1.51.41.14.58.03.6-.23.03-.25-.07-.66-.18-1.09-.09-.47-.21-.96-.21-1.44-.13-.59.19-.67.44-.81.26-.14.44-.35.32-1.11.48.93.79 1.37 1.52 2.12.19-.12-.42-.61-.86-1.2-.45-.57-.69-1.17-.22-1.02.3.94 1.21 1.61 1.95 2.21.05-.33-.53-.88-.93-1.51-.41-.62-.64-1.26-.35-1.31.09.08.16.28.23.53.1.23.18.55.32.81.14.27.3.52.48.66.17.14.34.2.5.08.11-.08-.49-.68-.73-1.03.43.49.95.78 1.36.97.21.08.41.13.58.16.15.03.41.08.54.07.31 0 .44-.12.34-.38-.05-.14-.16-.32-.32-.51-.06-.17-.18-.34-.29-.55.11.1.25.2.38.32.2.16.53.39.79.59.57.41 1.14.8 1.68 1.05h0c-.44-.3-1.12-.83-1.6-1.14l1.56.94c-.05-.14-.1-.3-.15-.45-.4-.33-.8-.65-1.25-.92l1.15.69c-.17-.37-.39-.77-.65-1.17l-.43-.46-.21-.23c-.06-.07-.14-.15-.14-.2-.04-.2-.09-.35-.09-.53-.02-.15-.02-.29-.02-.41a.52.52 0 0 0-.05-.23c-.24-.4-.32-.88-.29-1.3a2.77 2.77 0 0 1 .14-.6c.09-.19.17-.31.32-.53l2.67-4.36 2.78-4.67c-.23-.14-.65.05-.47-.52.54-1.34 1.59-2.13 2.34-3.22.23-.31.41-.65.57-1.03l-.32-.33 2.76-3.49 1.97-3.66.92-1.76c.06-.14.11-.31.21-.44-.13-.1-.23-.19-.23-.29.13-.32.63-.44 1.06-.52a1.74 1.74 0 0 0 .18-.11c.04-.12.03-.26.03-.35.23-.02.45 0 .63.08.32-.08.66-.11 1.03-.06.1.04.15.02.32.06l.7.31 1.4.62.35.15.18.07.07.03.32.1c.09.05.2.09.31.13.09.05.18.11.29.16.38.23.75.56 1.04.96.25.33.46.73.59 1.16h0c-.15.19-.3.37-.43.56-.31.38-.55.8-.81 1.21l-.18.3-.11.19-.21.36-.83 1.45-1.59 2.77-3.58 6.11-1.29 2.1-.35.63c-.99 1.64-2.04 3.46-3.01 5.28l-.4.75c-.54 1.03-1.05 2.05-1.51 3.03-.14.31-.29.61-.42.92-.17.41-.36.78-.48 1.2-.28.8-.45 1.59-.56 2.34-.13 1.4-.04 2.81.26 4.13.31 1.29.79 2.49 1.42 3.58-.67.29-1.43.52-2.29.69-1.49.24-3.44 0-5.01-.54-.8-.24-1.49-.59-2.05-.84-.55-.28-.98-.5-1.24-.56-.27-.04-.31.07-.23.25.09.18.53.55.92.86.8.65 1.75 1.21.82 1.09 1.4.59 2.91.95 4.43 1.07 1.51.14 3.05.05 4.53-.28a15.41 15.41 0 0 0 1.65-.44c.25.4.51.7.73.86.86.97 1.56 1.37 1.97 1.51s.57.03.6-.23-.07-.66-.19-1.1c-.09-.47-.21-.95-.21-1.44-.13-.59.19-.66.44-.81.19-.1.34-.24.36-.6.05-.04.11-.07.15-.12.38.68.7 1.09 1.32 1.74.19-.13-.42-.62-.86-1.2-.16-.21-.3-.41-.38-.59.09-.06.18-.12.26-.19.37.81 1.18 1.43 1.86 1.97.05-.34-.54-.89-.94-1.51-.19-.3-.34-.59-.41-.84.08-.05.15-.12.23-.18a1.25 1.25 0 0 1 .07.23c.1.23.18.54.32.8.14.27.3.52.48.66.17.15.34.2.5.08.1-.07-.5-.68-.74-1.03.44.49.95.78 1.36.97a2.79 2.79 0 0 0 .58.17c.15.03.41.08.55.07.31 0 .43-.12.33-.39-.04-.14-.16-.31-.32-.5-.06-.17-.17-.34-.29-.55.12.1.25.19.38.32.2.16.53.39.79.58.57.41 1.14.8 1.69 1.06v-.02c-.51-.32-1.32-.96-1.8-1.25l1.75 1.05c-.04-.14-.09-.29-.15-.44-.4-.33-.8-.65-1.25-.93l1.16.7a10.05 10.05 0 0 0-.66-1.17l-.42-.46-.21-.23c-.07-.08-.15-.16-.14-.2-.04-.21-.09-.36-.09-.53-.02-.16-.02-.3-.02-.41 0-.1-.02-.18-.05-.23-.24-.39-.32-.87-.3-1.3a2.55 2.55 0 0 1 .14-.59c.09-.19.17-.32.32-.54l1.93-3.14 3.53-5.88c-.23-.15-.66.04-.48-.53.27-.65.65-1.17 1.05-1.67.68-.8 1.43-1.52 1.86-2.58l-.32-.33 2.76-3.49 1.97-3.67.92-1.75c.06-.15.12-.32.22-.44-.14-.1-.24-.2-.23-.3.14-.32.63-.43 1.06-.51.06-.04.13-.07.18-.12a.85.85 0 0 0 .03-.35c.24-.02.45.02.63.09.32-.08.66-.11 1.03-.06.1.03.15 0 .32.06l.7.31 1.4.61.36.15.17.08.08.03.31.09a2.88 2.88 0 0 0 .31.13 1.64 1.64 0 0 0 .29.16c.39.24.75.57 1.04.97.11.15.22.32.31.49-.91.75-1.72 1.59-2.4 2.53-.31.39-.55.8-.81 1.21l-.19.3-.11.19-.21.37-.83 1.44-1.59 2.77-3.4 5.79-1.48 2.41-.34.64c-.9 1.49-1.84 3.12-2.73 4.75l-.68 1.26c-.54 1.03-1.05 2.05-1.51 3.03-.14.32-.28.61-.42.92-.17.41-.35.78-.48 1.2-.28.8-.44 1.59-.56 2.35-.13 1.4-.03 2.8.27 4.12.25 1.06.62 2.07 1.11 3.01-1.45.16-3.25-.08-4.72-.59-.79-.24-1.49-.59-2.05-.83-.55-.29-.98-.5-1.24-.56-.27-.04-.31.07-.23.24.08.18.53.55.91.87.81.64 1.75 1.2.82 1.08a14.67 14.67 0 0 0 4.43 1.08c1.17.11 2.35.07 3.51-.1.39.74.8 1.3 1.13 1.54.86.97 1.55 1.37 1.96 1.51s.58.04.6-.23c.03-.25-.07-.66-.19-1.1-.08-.47-.21-.95-.2-1.43-.13-.6.18-.67.44-.82.2-.11.35-.25.36-.66a1.01 1.01 0 0 1 .15-.07c.37.69.69 1.1 1.32 1.75.19-.13-.43-.62-.86-1.2-.16-.21-.29-.41-.37-.59.09-.05.19-.09.28-.14.37.79 1.17 1.39 1.83 1.92.04-.33-.53-.89-.94-1.51-.14-.23-.27-.48-.35-.68.08-.05.16-.09.23-.14v.04c.1.23.17.55.32.8.13.27.3.52.48.66.17.15.34.21.5.08.1-.07-.49-.68-.74-1.03.44.49.95.78 1.36.97a2.86 2.86 0 0 0 .59.17c.15.03.41.08.54.07.31 0 .43-.12.34-.39-.04-.13-.17-.31-.32-.5-.06-.17-.17-.34-.28-.55.11.1.25.19.38.32.2.16.52.39.79.59.56.41 1.14.79 1.68 1.05v-.02c-.5-.32-1.32-.96-1.79-1.25l1.75 1.05a4.75 4.75 0 0 0-.16-.44c-.39-.33-.79-.65-1.25-.93l1.16.7c-.17-.38-.4-.77-.66-1.17l-.42-.46-.21-.23c-.07-.08-.14-.16-.13-.2-.05-.21-.09-.36-.09-.53-.02-.15-.03-.3-.03-.41 0-.1-.02-.18-.05-.23-.15-.25-.24-.55-.28-.84h0c.55-.54.99-1.14 1.46-1.74l.62-.95.27-.44.15-.26.59-1.03.65-1.13 2.44-4.31 1.44-2.58 3.4-6.09 2.46-4.37 1.24-2.19.63-1.1s.04-.07.05-.11c.04 0 .09.02.14.04a2.63 2.63 0 0 1 1.02-.06c.11.03.15 0 .32.06l.7.31 1.41.61.35.15.18.08.07.03.32.09c.09.05.19.09.3.14.09.05.19.11.3.16.38.23.74.56 1.04.96a4.32 4.32 0 0 1 .77 3.15c-.05.32-.11.57-.23.95l-.65 1.49-1.31 3.04c-.59 1.83-1.18 3.66-1.92 5.31-.54 1.11-1.25 2.29-1.99 3.47l-2.51 3.99c.99.28.32 2.79.23 4.48-.06.95.07 1.64.79 1.53a98.77 98.77 0 0 0-1.45 2.49c-.26.46-.51.86-.69 1.17s-.27.53-.23.64c.31.61.48 1.56-.25 2.94-.39.68-1 1.47-2.02 2.22-1 .76-2.42 1.49-4.31 1.86-1.49.23-3.45 0-5.02-.55-.79-.24-1.48-.59-2.04-.83-.55-.29-.98-.5-1.25-.56-.27-.04-.31.07-.23.24.08.18.53.55.92.87.8.64 1.75 1.2.82 1.09 1.4.58 2.91.95 4.42 1.07l4.54-.28c2.96-.62 5.75-2.14 7.86-4.34.55-.53 1.01-1.13 1.47-1.74l.62-.95.27-.43.16-.27 1.22-2.15.45-.8a11.74 11.74 0 0 0 .73.33c2.6 1.15 5.21 1.91 6.87 2.12 1.66.22 2.33 0 1.27-.7 1.59.51 3.43.91 5.24 1.01 1.81.11 3.58-.14 4.91-.76 1.25-.58 2.42-1.65 3.14-2.42.73-.79 1.09-1.38 1.09-1.53-.02-.22 0-.47.02-.76.63.55 1.23 1.05 1.67 1.13l.45.1.22.05.31.05a22.84 22.84 0 0 0 1.27.18c.86.09 1.73.12 2.59.1 1.73-.06 3.42-.41 4.97-1.08a11.24 11.24 0 0 0 4.02-2.98c1.08-1.29 1.88-2.81 2.31-4.47-.26-.1-.61.13-.58-.43.02-.44.11-.83.21-1.21l.24-.92c.39.06.79.11 1.2.14.72.06 1.49.08 2.29.04.43-.03.87-.07 1.33-.13.47-.08.95-.15 1.42-.27 1.87-.45 3.66-1.3 5.16-2.51 1.51-1.21 2.71-2.79 3.53-4.56-.24-.13-.65.11-.5-.51.26-.93.7-1.73 1.03-2.44.27-.55.46-1.03.55-1.54a13.44 13.44 0 0 0 6.53-2.92c.48-.41.95-.85 1.4-1.28l.56-.68.67-.88c.51-.59.71-1.16 1.03-1.76l.86-1.74c.53-1.17.61-2.44.54-3.61 0-.59-.14-1.17-.23-1.74-.15-.56-.27-1.12-.44-1.64a24.53 24.53 0 0 0-.54-1.49l-.41-.97c-.27-.58-.52-1.11-.77-1.56-1.98-3.65-4.12-6.69-6.32-9.72-.15-.22-.32-.42-.48-.64l4.31-4.9 2.85-3.12 1.68-1.79c2-2.1 4.04-4.16 6.12-6.13.64-.67 1.52-1.54 2.63-2.58 1.1-1.03 2.44-2.22 3.92-3.37a19.85 19.85 0 0 1 2.22-1.54c.08-.05.16-.1.24-.14 0 .03 0 .02 0 0 .23-.14.45-.25.58-.31.03 0 .05-.02.07-.04.22 0 .43-.03.65-.05.52-.05.85-.13 1.23-.22.82-.17 1.39-.4 2-.64.59-.23 1.07-.49 1.59-.75.45-.26.93-.53 1.34-.8 1.67-1.09 3.07-2.26 4.41-3.49 2.63-2.46 5.02-5.16 7.28-8.12 2.27-2.95 4.4-6.17 6.38-9.66 1.95-3.5 3.77-7.26 5.09-11.55.33-1.08.63-2.18.87-3.33a28.77 28.77 0 0 0 .55-3.72c.22-2.68-.1-5.4-.79-7.89zM51.62 168c0-.05 0-.12.02-.17a.44.44 0 0 0 .02.16h-.04zm18.1 13.37c-.16-1.15-.15-2.21 0-3.1.08 1 .33 1.96.66 2.79-.21.11-.42.21-.66.31zm15.75 11.16c-.09-.93-.06-1.77.07-2.51.06.84.25 1.66.5 2.39a9.86 9.86 0 0 1-.58.13zm50.46-5.14s0 .07-.02.14c-.03.23-.24.82-.76 1.53-.5.71-1.28 1.5-2.14 2.19l-.32.25-.08.05h-.03l-.04.02c-.07.02-.06.1-.18.11-.11.02-.15.09-.3.12-.14.02-.27.06-.41.11-1.38.24-3.92-.05-6.39-.92-2.05-.68-4.19-1.68-6.08-2.83l3.18-5.69 2.46-4.37 1.24-2.19.63-1.1c.32-.61.72-1.31.97-2.02.26-.77.61-2.03.77-3.67a68.73 68.73 0 0 1 4.37 7.87c1.22 2.7 2.14 5.43 2.74 8.1l.35 1.99.04.24v.03c0 .02.02.03 0 .05zm3.04 3c.01-.1.03-.2.04-.3.13.16.33.34.62.54-.2-.05-.43-.14-.66-.24zm33.5-20.42h-.01a5.32 5.32 0 0 1 .39-.07 5.06 5.06 0 0 1-.38.07zm26.43-56.78v-.65-.08.73zm.18-6.57v-.41.24l-.02.16zm19.76-33.83l-.05.78c-.02.29-.08.61-.12.92-.1.64-.21 1.29-.38 1.95-.31 1.32-.72 2.68-1.24 4.05-1.01 2.73-2.32 5.48-3.84 8.15-1.5 2.67-3.22 5.29-5.09 7.76-1.86 2.47-3.92 4.85-6.07 6.75-.53.48-1.06.89-1.58 1.26-.5.35-1.02.67-1.3.78l-.12.05s-.03 0-.05.02c0 0-.03.02-.04.03v.04h-.02l-.36.02c-.48.04-1.01.08-1.33.19-1.59.36-2.54.91-3.51 1.43-1.85 1.07-3.32 2.23-4.76 3.42-1.42 1.18-2.76 2.4-4.06 3.66-2.59 2.49-5.05 5.09-7.47 7.74l-1.8 2.01-.45.51-.36.41-.51.61-1.88 2.35c-.36-.17-.82-.6-1.28-.95l-1.08-.75c-.4-.29-.66-.45-1.39-1.04l-3.71-2.91-7.21-5.84c-4.42-3.77-9.48-8.38-14.28-12.74-.02-.03-.04-.05-.05-.05l-7.47-6.78c0 .75-2.2-.58-4.86-2.37l-4.21-2.87-1.8-1.17-.74-.44c-.12-.05-.23-.12-.33-.17l-.14-.08s-.08.14-.12.2c-.91 1.77-1.11 2.59-.44 2.42-.68.87-1.46 1.84-2.3 2.81l-1.5 1.72c-.08.1-.17.19-.25.28l-1.35 1.49c-2.07 2.24-3.77 3.91-3.8 4.22-.1.95-.69 2.54-3.18 5.18-.65.65-1.4 1.37-2.37 2.13-.47.38-1.03.75-1.6 1.15-.62.37-1.24.78-2.01 1.14-1.48.76-3.34 1.49-5.77 1.78a14.27 14.27 0 0 1-4.04-.12c-.72-.14-1.46-.36-2.21-.59-.36-.15-.72-.31-1.08-.47-.34-.16-.77-.35-1.02-.5-1.72-.97-3.76-2.46-5.44-4.74-1.7-2.25-2.68-5.35-2.76-7.93-.1-2.59.39-4.69.82-6.28.47-1.57.9-2.67 1.08-3.31.23-.82.09-.79-.22-.35-.14.18-.38.66-.62 1.13-.26.48-.51 1.06-.76 1.67-.5 1.18-.89 2.52-1.11 3.28-.23.74-.36.85-.27-.41-.3 1.52-.39 3.26-.23 5.05.14 1.8.68 3.73 1.52 5.45s1.98 3.27 3.21 4.46c1.22 1.21 2.51 2.2 3.77 2.96l.48.3a5.82 5.82 0 0 0 .62.33c.43.23.87.43 1.32.64.45.2.93.33 1.4.49.47.15.95.3 1.42.37.48.09.96.16 1.44.23.48.05.93.05 1.4.08.96.05 1.8-.06 2.68-.14 3.41-.49 6.1-1.71 8.46-3 4.66-2.65 8.19-5.82 11.47-9.09l2.37-2.49.18-.2 29.13 30.52c4.75 4.87 9.55 9.86 13.99 14.99l-4.78-7.27c2.21 2.71 4.35 5.46 6.11 7.79l3.96 5.26c2.08 2.89 3.12 4.84 3.42 5.25.41.68.6.82.75.47.07-.17.11-.46.08-.85-.03-.4-.09-.83-.28-1.5-.35-1.27-.94-2.76-1.48-4.12-.91-1.86-.5-1.72-.2-1.82.27-.1.43-.47-1.27-3.3 1.37 1.94 2.35 3.42 3.28 4.96a38.66 38.66 0 0 1 1.37 2.42c.23.44.46.9.68 1.4a15.65 15.65 0 0 1 .66 1.73c.15.14-.07-.84-.66-2.1-.55-1.22-1.44-2.76-2.34-4.17-1.8-2.8-3.58-5.19-2.31-4.06 1.25 1.92 2.64 3.93 3.91 6.09.63 1.12 1.22 2.13 1.75 3.56.23.68.47 1.37.54 2.08.08.7.07 1.43-.23 2.07.18-.2.4-.67.46-1.33.06-.68-.05-1.53-.32-2.48-.13-.48-.31-.96-.5-1.48-.21-.49-.39-.91-.61-1.35-.42-.9-.91-1.77-1.4-2.62-1.99-3.38-4.08-6.22-3.62-6.11.82 1.01 2.63 3.85 4.15 6.72a38.58 38.58 0 0 1 1.07 2.13c.17.34.31.68.47 1.03.15.39.3.75.44 1.09.53 1.39.7 2.44.88 2.74.09.13.1-1.37-.6-3.17-.35-.97-.71-1.68-1.09-2.44-.38-.74-.77-1.41-1.07-1.95.5.82.96 1.62 1.4 2.45.11.2.21.41.31.62s.21.41.32.67a18.82 18.82 0 0 1 .59 1.51c.33 1 .54 2.01.5 2.97 0 .99-.51 1.8-.84 2.6-.18.4-.32.8-.54 1.15l-.68 1.04c-.35.61-.86 1.09-1.27 1.56-.4.49-.88.82-1.27 1.14l-.56.45-.53.32c-.64.39-1.03.66-1.1.76-.07.12.18.14.8-.05.31-.1.72-.23 1.21-.44a24.63 24.63 0 0 0 1.65-.99c.55-.47 1.24-1.02 1.85-1.71.27-.32.65-.82 1.03-1.32.37-.49.59-1.04.89-1.61-.2.41-.38.83-.59 1.24-.22.41-.58.84-.86 1.27-.49.75-1.19 1.4-1.89 2.06-1.5 1.28-3.48 2.29-5.51 2.67-.05 0-.09 0-.14.02.11-.43.23-.85.32-1.35.1-.66.22-1.4.25-2.06-.3-2.45-1.03-4.4-1.84-6.15-.13.1-.26.18-.39.02-.38-.72-.67-1.73-1.08-2.74-.09-.13-.19-.26-.28-.39-.14-.07-.29-.03-.39 0-.2-.44-.35-.84-.49-1.2-3.17-4.1-6.79-7.39-10.74-10.77-.99-.59-1.98-1.16-2.78-1.84-1.1-1.06-2.14-2.72-3.09-3.86-1.01 1.19-3.97-.95-4.66.65-.62-.74-1.58-1.83-1.95-1.59-1.12.75-2.73 1.24-5.04 0-.81-.56-1.5-2.03-1.88-2.03-.17-.02-.24.07-.26.21s-.01.31.02.5c.06.38.11.76-.23.73 4.72 5.4 9.88 10.29 14.13 15.97.96.74 4.07 4.43 6.18 8.37 1.05 1.94 1.8 3.97 1.9 5.16.07.33.02.51.04.73-.03.27-.04.62-.09.83l-.06.32c-.02.1-.05.13-.07.19-.04.13-.06.16-.09.18v.06c-.1.12-.18.25-.27.42-.06.1-.11.2-.17.3-.06.12-.14.24-.32.42-.41.41-1.07.84-1.83 1.18l.84.84c-.73-.06-1.5-.22-1.85 0-.43.07-.72.17-.91.31-.24-.57-.5-1.11-.76-1.66-.14.1-.27.17-.38.04-.17-.29-.3-.66-.42-1.07-.13-.39-.26-.82-.42-1.25-.08-.11-.15-.23-.23-.34-.13-.06-.28-.02-.37 0-.15-.38-.25-.74-.34-1.07-2.59-3.68-5.47-7.04-8.58-10.62-.82-.67-1.66-1.31-2.28-2.04-.82-1.13-1.47-2.8-2.11-4-1.24.96-3.57-1.46-4.59-.09-.42-.78-1.08-1.95-1.49-1.78-1.24.51-2.89.72-4.79-.84-.64-.67-.92-2.16-1.3-2.25-.62-.19-.17 1.46-.79 1.28 3.18 5.93 7.02 11.29 10.17 17.22.83.84 3.17 4.67 5.04 8.72l.69 1.52c.21.5.39.99.58 1.48.42 1 .64 1.87.89 2.69l.09.3c.04.11.02.11.04.17.02.09.03.18.04.26.02.15.06.37.06.44 0 .11-.04.2-.08.25l.02.05c-.13.25-.15.53-.33 1.18-.04.39-.22.86-.56 1.27.16.27.35.53.56.79-.46-.03-.86-.12-1.13.14-1.66.4-1 1.31-.43 2.47.46.53-.38 1.14.47 1.72a17.55 17.55 0 0 1-1.57-.29c-.08.21.41.25.85.28.44.04.88.1.61.43-.68-.24-1.33-.08-1.98-.23.05.32.59.48 1.1.61.5.13 1.11.24 1.02.53-.21.05-.77-.21-1.15-.4-.41-.19-.79-.32-.92.03-.06.14.6.29.93.35-1.02-.04-1.82-.01-2.21.2a6.13 6.13 0 0 0-.1-1.6c-.06-.25-.14-.5-.24-.73l-.48-1.42c-.19-.53-.32-1.09-.55-1.68l-.73-1.86a62.5 62.5 0 0 0-4.84-9.4c-1.03-1.77-2.29-3.8-3.64-5.82-.04-.92-.16-1.9-.41-2.93-.32-1.37-.86-2.8-1.67-4.19s-1.9-2.74-3.26-3.89c-.34-.28-.69-.55-1.06-.82-.37-.25-.76-.5-1.14-.73l-1.49-.82c-.23-.14-.48-.27-.72-.4l-.36-.21-.53-.27c-.85-.45-1.76-.83-2.7-1.11-1.04-.31-2.13-.5-3.22-.58-.32-.97-.76-1.96-1.32-2.93a15.25 15.25 0 0 0-3.26-3.89c-.34-.28-.7-.55-1.06-.82-.37-.25-.76-.5-1.14-.73l-1.49-.82a25.87 25.87 0 0 0-.72-.4l-.37-.21-.52-.28a15.59 15.59 0 0 0-2.7-1.1c-1.89-.56-3.93-.74-5.92-.5h-.04c-.23-.58-.53-1.14-.86-1.71a15.17 15.17 0 0 0-3.25-3.89l-1.06-.82c-.38-.25-.76-.49-1.15-.73-.49-.26-.98-.54-1.48-.82l-.73-.4-.36-.2-.52-.28c-.86-.45-1.77-.82-2.71-1.1-1.35-.41-2.78-.61-4.21-.61a7.54 7.54 0 0 0-.14-.65c-.32-1.37-.86-2.8-1.68-4.19a15.17 15.17 0 0 0-3.25-3.89 42.68 42.68 0 0 0-1.06-.82c-.38-.25-.76-.49-1.15-.73l-1.48-.82c-.24-.14-.49-.26-.72-.4l-.37-.2-.52-.28c-.86-.45-1.77-.82-2.7-1.11-1.89-.56-3.93-.74-5.92-.5-3.97.44-7.75 2.63-10.09 5.8-.31.39-.55.8-.81 1.21l-.18.31-.11.18-.21.37-.83 1.45-1.59 2.76-3.22 5.48-6.98-4.76-7.3-5.05-4.17-2.89c-.36-.24-.71-.5-1.07-.75l-.68-.52c-.43-.38-.89-.77-1.27-1.22-1.59-1.76-2.71-4.21-2.86-6.87-.07-1.33.08-2.7.5-4.03.13-.32.21-.67.36-.98l.22-.49c.07-.16.13-.3.27-.58l1.5-2.94 6.22-12.16 1.59-3.11.8-1.56.58-1a11.93 11.93 0 0 1 3.21-3.28c1.29-.86 2.76-1.49 4.29-1.79 1.53-.31 3.12-.27 4.64.05.38.08.76.16 1.13.31l.56.17.82.32 3.31 1.27 6.57 2.51 1.71.66c.73.27 1.47.5 2.22.69 1.49.39 3.03.63 4.56.72a25.21 25.21 0 0 0 2.3.03c.37 0 .79-.05 1.12-.06l.85-.07 3.36-.27 12.94-1.04 11.92-.95 3.49-.26c-.8 1.5-1.33 2.69-1.59 3.4-.29.84-.22 1.06.29.53.5-.53 1.44-1.83 3-3.97l-3.3 5.37a49.31 49.31 0 0 0-1.6 2.92 30.43 30.43 0 0 0-1.26 2.69s.02 0 .03-.02c.32-.74.95-1.95 1.56-3.07l1.34-2.39c-.94 1.71-1.85 3.48-2.61 5.16.23-.25.48-.55.74-.86l1.89-3.39c-.52.96-1.03 1.93-1.49 2.9l2.29-2.97c1.56-2.38 3.24-4.57 4.71-6.42l3.02-3.81c1.63-2.21 3.37-4.3 5.19-6.2l.6-.62c1.63-1.66 3.34-3.16 5.09-4.36.97-.71 1.96-1.25 2.94-1.77.98-.42 1.94-.85 2.86-1.04a2.84 2.84 0 0 1 .68-.14c.24-.04.41-.09.72-.13l1.91-.19c1.29-.11 2.6-.15 3.94-.16 5.34-.05 10.92.64 16.81 1.36 2.96.34 5.99.74 9.4.86 1.71.05 3.53.06 5.65-.23 1.1-.18 2.21-.38 3.53-.87.7-.23 1.35-.57 2.01-.9.32-.19.62-.39.93-.59.32-.2.62-.41.84-.59-.04-.15-.54.08-.72.05-.21 0 .21-.41 1.05-1.18l3.56-3.2a130.31 130.31 0 0 1 3.21-2.68c2.12-1.72 4.2-3.37 6.34-5.28 0-.2.03-.41.04-.6 1.79-1.31 3.64-2.55 5.48-3.58 1.83-1.01 3.71-1.82 5.17-2.11.67-.22 1.17-.24 1.54-.28.36 0 .47.05.6.08.03.02.05.03.1.03.04.04.07.07.12.1h.04l.02.02.09.06.35.29.71.58 2.79 2.21c3.67 2.86 7.18 5.6 10.34 8.49-.04-.27-.02-.46.63.09 2.64 2.35 5.91 6.05 7.75 9.84a15.91 15.91 0 0 1 .79 1.61c.24.39.43.45.55.49.53 1.7.64 3.15.52 4.46z" /></svg>