<svg xmlns="http://www.w3.org/2000/svg" viewBox="0 0 237 237.18" ><path d="M153.24 32.35c.07-.29-.26-.67.37-.68 2 .06 3.2 1.53 5.12 1.75l.28-.42 2 1.1 1.01.57.97.64 1.96.82 1.87.96.94.47.89.54 1.8 1.07c.05-.18.11-.34.38-.23.49.32 1.02.76 1.59 1.26l.88.78.85.9.59.45c.21.06.37-.03.46-.08l.75.78.59.79c3.1 2.74 5.91 6.04 8.11 9.96 2.2 3.91 3.87 8.4 4.82 13.36.37 1.03.56 2.1.8 3.16l.31 1.59c.09.53.1 1.06.14 1.59a53.46 53.46 0 0 1-.06 2.47c-.06.86-.22 1.73-.34 2.6-.22 1.75-.67 3.46-.97 4.94.9-.07 1.23 1.79 1.42 3.55.23 1.76.47 3.46 1.5 2.94-.67 2.04-1.66 5.1-1.31 5.41.6.48 1.16 1.25 1.39 2.65.12.7.16 1.56.08 2.61-.12 1.03-.37 2.26-.77 3.71-.36 1.13-1.13 2.39-1.8 3.5s-1.24 2.04-1.29 2.48c-.18 1.37 2.29-2.2 2.12-.84 4.27-7.66 7.37-15.92 8.88-24.66.84-4.34 1.13-8.83 1.15-13.35-.03-4.54-.6-9.13-1.57-13.73-.3-.76-.73-2.07-1.29-3.79-.29-.86-.71-1.8-1.11-2.84l-.65-1.61c-.23-.56-.53-1.11-.81-1.69-2.19-4.65-5.71-10.09-10.37-14.66-4.62-4.62-10.26-8.26-15.38-10.59-5.12-2.36-9.64-3.57-12.24-4.2l-.96-.18c-.72-.15-1.45-.33-2.2-.46l-2.29-.31-2.33-.27-2.33-.1-2.29-.05-2.2.12c-1.43.09-2.77.22-3.96.47l-3.27.85-3.2 1.08c1.05.17 2.01.35 2.83.54-2.19.21-4.4.39-5.17.89-4.48 1.51-1.67 1.91.21 2.79 1.3.31-.22 1.35 1.75 1.57l-3.42.51c-.07.51 4.16-.96 3.33 0-1.33.04-2.75.58-4.1.78.59.58 4.72-.57 4.6.16-.69.23-3.92-.25-4.04.59-.02.17 1.32-.03 1.99-.13-1.02.24-1.91.48-2.62.73-.7.28-1.21.55-1.48.78-.53.47-.06.78 1.84.82-1.27.26-3.13.33-4.45.73.69-.11 1.88-.21 2.49-.34l-2.29.47a10.73 10.73 0 0 0 .48.24c.59-.03 1.17-.08 1.76-.2l-1.51.31c.44.17.93.33 1.45.46.94.06 1.87.16 2.68.28.81.13 1.5.21 1.98.14 1.93-.28 3.86-.35 5.78-.49.96-.04 1.92-.03 2.87-.06l1.43-.03 1.42.06c3.8.07 7.53.54 11.13 1.27zm-15.22 20.71c.03-.3-.25-.62.21-.74a2.88 2.88 0 0 1 1.02.04c.32.09.62.23.92.36.6.28 1.2.48 1.89.5l.19-.46 1.53.67c.51.23.99.55 1.49.8 1.01.21 1.92.6 2.89.89.48.16.92.38 1.39.56.46.2.94.35 1.37.6.05-.18.11-.34.31-.29.39.17.81.44 1.27.75.45.32.86.75 1.34 1.12l.48.25c.18 0 .31-.11.4-.18.41.37.74.75 1.04 1.09 5.07 3.3 9.53 8.65 12.14 15.95.7 1.5 1.47 3.07 1.77 4.66.47 2.35.11 5.43-.05 7.74.43-.07.81.24 1.13.74.3.5.56 1.18.82 1.85.54 1.33 1.02 2.62 1.96 2.14-.29 1.64-.71 4.1-.3 4.31.68.33 1.37.89 1.87 1.98.25.54.46 1.22.58 2.05.1.83.11 1.82.02 3.01-.27 1.84-1.79 4.28-1.68 4.99.13 1.12 1.72-1.91 1.85-.81 2.4-6.46 3.86-13.23 4.06-20.21l.05-2.62c-.01-.88-.06-1.76-.1-2.64-.03-1.76-.3-3.53-.47-5.3-.56-3.55-1.3-7.12-2.56-10.65-.59-1.14-1.83-4-3.95-7.52-2.15-3.51-5.42-7.54-9.51-10.84-4.08-3.34-8.97-5.75-13.29-7.13-1.09-.31-2.13-.67-3.12-.89l-2.81-.61c-1.74-.26-3.21-.52-4.28-.62l-.78-.02c-1.17-.09-2.41-.18-3.66-.11l-1.88.06c-.63.03-1.24.13-1.86.2l-1.81.25c-.59.1-1.16.25-1.71.38-1.11.28-2.15.54-3.04.93-.81.38-1.62.79-2.42 1.21l-2.32 1.39c.85.06 1.63.13 2.31.24-1.67.44-3.37.84-3.88 1.38-3.22 1.89-.93 2.01.7 2.7 1.07.18.09 1.34 1.65 1.38-1.02.3-1.52.48-2.54.79.04.51 3.02-1.31 2.57-.29-1.02.14-2 .8-3 1.12.58.52 3.51-.97 3.56-.25-.48.28-3.05.1-2.97.92.02.17 1.01-.15 1.5-.3-.73.32-1.37.64-1.86.93-.48.32-.82.62-.98.87-.31.49.12.76 1.58.65-.92.34-2.33.55-3.26 1.04.5-.17 1.4-.35 1.84-.52l-1.65.62c.13.07.27.13.42.2.45-.07.88-.16 1.31-.32l-1.09.41c.37.13.78.25 1.21.33.73 0 1.46.02 2.1.08s1.17.08 1.51-.02c1.39-.42 2.81-.66 4.21-.99 1.41-.21 2.8-.51 4.2-.61 1.39-.19 2.77-.22 4.15-.31 1.36.02 2.72-.03 4.05.11z"/><path d="M228.37 187.73c-.62-4.25-2.4-7.89-4.46-10.74l-.78-1.07c-.27-.36-.47-.59-.7-.89l-1.39-1.68c-.94-1.11-1.89-2.18-2.86-3.22-1.94-2.09-3.93-4.07-5.93-5.97l-3.01-2.8-3-2.71c-2.03-1.81-4.14-3.64-6.38-5.42-4.46-3.55-9.5-6.91-15.2-9.37-3.02-1.29-6.35-2.27-9.94-2.64-3.58-.34-7.4-.03-10.92 1.1-3.52 1.11-6.72 2.87-9.39 4.96-1.43 1.1-2.39 1.97-3.47 2.93l-3.05 2.81-5.68 5.31-2.85 2.52c-.89.77-1.69 1.41-2.38 1.88a7.59 7.59 0 0 1-1.83.94c-.59.21-1.15.34-1.76.38-1.22.08-2.77-.19-4.6-.88-1.8-.66-3.92-1.78-5.93-2.97s-3.98-2.52-5.89-3.97c-3.83-2.9-7.46-6.28-10.99-9.95-1.77-1.84-3.51-3.73-5.27-5.7l-5.24-5.92c-3.41-3.95-6.63-7.94-9.5-12.07-1.99-2.76-5.35-7.57-8.23-14.45l-.54-1.31-.45-1.25-.39-1.26-.32-1.25c-.36-1.66-.46-3.23-.26-4.63.19-1.41.72-2.66 1.73-4 .22-.34.54-.67.85-1.01.28-.35.69-.67 1.04-1.01.34-.35.82-.65 1.23-.99l.32-.25.47-.34.97-.71c2.57-1.91 5.06-3.97 7.48-6.1l3.61-3.23.9-.81 1.09-1.03c.73-.73 1.45-1.5 2.13-2.33 2.74-3.28 4.88-7.57 5.67-12.11.41-2.26.52-4.55.38-6.77-.15-2.26-.49-4.26-.98-6.32-.97-4.08-2.56-7.93-4.4-11.45-.92-1.77-1.9-3.46-2.9-5.11l-2.85-4.65c-3.81-6.21-7.91-13.02-13.66-19.17-1.47-1.53-2.87-2.95-4.83-4.53-1.89-1.51-4.12-2.87-6.69-3.82-2.56-.96-5.49-1.42-8.34-1.2-2.85.2-5.53 1.04-7.84 2.16-.56.29-1.14.58-1.68.9l-1.57.98-1.45 1.05c-.25.18-.46.35-.65.5l-.59.48c-1.57 1.27-3.03 2.54-4.43 3.76l-4.05 3.45c-1.47 1.26-3.07 2.53-4.49 3.91-1.48 1.33-2.85 2.79-4.23 4.22-1.32 1.5-2.65 2.96-3.85 4.54-2.45 3.11-4.64 6.39-6.48 9.8-1.85 3.4-3.45 6.89-4.67 10.44-1.25 3.53-2.23 7.08-2.9 10.6-2.79 14.04-1.69 27.28.75 38.07 2.48 10.82 6.09 19.27 8.84 25.31.67 1.48 1.42 2.89 2.12 4.33 3.23 6.45 7.02 13.06 11.26 19.47 4.22 6.43 8.87 12.69 13.67 18.59 4.79 5.92 9.75 11.47 14.57 16.59 4.83 5.13 9.62 9.81 14.12 13.84 8.34 7.31 17.43 14.15 27.13 19.9a145.03 145.03 0 0 1-11.06-8.98c4.47 3.52 9.12 6.81 13.21 9.38 4.08 2.58 7.59 4.42 9.59 5.34 5.47 2.69 8.98 3.96 10.89 4.53 1.92.57 2.24.47 1.59-.04-1.3-.98-6.37-3.72-10.14-6.41-2.8-1.77-2.1-1.81-1.85-2.03.27-.26.07-.63-4.18-3.46 3.15 1.89 5.56 3.23 8.01 4.49s4.94 2.48 8.34 3.89c.48-.05-4.77-2.15-9.32-4.54-4.56-2.36-8.45-4.81-6.06-3.84 5.97 3.79 13.22 7.04 20.06 9.5-1.08-.73-6.95-3-12.13-5.75-5.2-2.71-9.76-5.63-9.11-5.62 1.71.97 6 3.78 10.25 6.01 4.23 2.26 8.39 3.96 9.19 3.81.15-.01-1.45-.69-3.49-1.58l-3.22-1.47-2.9-1.42c10.06 4.91 18.49 6.86 21.72 7.21 1.63.17 1.97.05.71-.42-1.25-.47-4.1-1.32-8.73-3.1 3.25 1.13 7.22 2.34 11.31 3.15 4.09.83 8.29 1.24 11.88 1.2 0 0-.04 0-.05-.01l-3.08-.13c-1.13-.12-2.34-.19-3.53-.36-2.39-.31-4.73-.73-6.36-1.07 4 .81 8.07 1.29 12.13 1.37l-2.11-.4c-3.01-.28-6.02-.71-9.13-1.29 2.65.46 5.31.89 8 1.04-.99-.21-2.05-.4-3.17-.69l-1.72-.4-1.8-.48c-9.33-2.06-17.57-6.41-22.24-8.69-9.47-4.65-18.47-10.68-26.86-17.42-8.39-6.78-16.21-14.37-23.65-22.43-14.91-16.22-28.45-33.54-38.19-52.67-.3.07.48 2.25-1.28-.86-2.64-4.95-4.49-9.64-6.03-14.36-1.53-4.72-2.76-9.47-3.96-14.73l-.64-.67c-1.34-8.26-1.38-17 .11-25.59 1.12-7.91 3.61-15.45 7.56-22.17.85-1.45 1.77-2.84 2.74-4.21 1.09 2.14 2.22 4.24 3.42 6.31.26-.15.4-.51.72-.26.86.89.49 2.24 1.36 3.13l.46-.18.9 2.85c1.02 1.53 2.07 3.02 3.18 4.48.13-.13.25-.24.41-.12.51.57.92 1.55 1.46 2.5l.33.36c.16.05.32-.02.42-.06.25.42.44.82.62 1.19 3.69 3.97 7.62 7.87 11.95 11.99 1.08.75 2.19 1.48 3.06 2.31 1.2 1.31 2.33 3.29 3.37 4.68 1.17-1.26 4.49 1.38 5.28-.4.7.85 1.76 2.15 2.19 1.86 1.1-.74 2.64-1.15 4.66-.5-1.2 1-2.42 1.96-3.65 2.87-.73.58-1.54 1.18-2.28 1.82-.73.7-1.5 1.32-2.18 2.12-1.43 1.47-2.65 3.27-3.67 5.19-1.01 1.94-1.65 4.09-1.99 6.23-.35 2.15-.3 4.29-.04 6.31.25 2.03.71 3.95 1.31 5.76.28.92.63 1.79.96 2.66l1.05 2.49c.74 1.64 1.51 3.26 2.36 4.85 1.68 3.17 3.57 6.22 5.6 9.15 4.06 5.86 8.67 11.24 13.41 16.42 4.73 5.14 9.55 10.4 15.02 15.26 4.68 4.03 9.79 7.71 15.29 10.58 2.73 1.41 5.6 2.75 8.77 3.56 3.14.81 6.68.95 9.9-.06 2.38-.68 4.65-2.01 6.53-3.51a40.45 40.45 0 0 0 1.58-1.3c2.62 3.65 5.32 7.24 8.18 10.69.24-.19.29-.59.68-.36 1.09.85 1.01 2.33 2.11 3.18l.44-.24 1.56 2.94c1.38 1.52 2.81 2.99 4.26 4.42.1-.16.21-.28.39-.17.65.56 1.28 1.56 2.05 2.5l.42.35c.17.03.32-.05.42-.1.35.42.63.82.89 1.2 4.64 3.86 9.52 7.63 14.79 11.69 1.28.71 2.55 1.41 3.62 2.25 1.47 1.33 3.03 3.34 4.33 4.77 1.01-1.4 4.94 1.29 5.5-.63.88.91 2.2 2.28 2.6 1.99 1.22-.87 3.09-1.47 6.01-.02 1.02.53 2 2.09 2.48 2.11.76 0-.53-1.74.24-1.73l-1.12-.99-.57-.48-.6-.58a105.39 105.39 0 0 0-2.45-2.29c-1.64-1.64-3.33-3.17-5-4.85l-5.03-5.03c-1.68-1.71-3.34-3.46-4.98-5.29-1.41-.97-5.95-5.59-10.52-10.65-4.58-5.04-9.19-10.48-10.94-12.82l-.36-.39c-1.98-2.49-4.55-5.37-6.78-7.02-1.1-.69-2.28-1.34-3.45-2 .15.63.28 1.23.36 1.77-.46-.59-.92-1.17-1.33-1.6 2.05-1.92 4.11-3.81 6.22-5.52 1.74-1.39 3.63-2.51 5.61-3.27 1.98-.78 4.05-1.11 6.1-1.11s4.08.35 6.02.95c1.92.59 3.77 1.45 5.54 2.36-.36-.65 1.6-.17 4.55 1.27 2.95 1.41 6.78 3.91 10.32 6.56l9.04 6.84c2.15 1.57 3.15 2.04 1.99.29 2.01 1.96 4.23 4.24 6.34 6.66 1.06 1.22 2.08 2.42 3.06 3.72 1.02 1.29 1.83 2.74 2.52 4.15.64 1.44 1.08 2.9 1.31 4.28.21 1.38.23 2.66.13 3.74-.19 2.17-.71 3.48-.67 3.76.05.43.01.94-.11 1.6-.1.68-.36 1.43-.71 2.37-.4.9-.94 1.94-1.72 3.07-.38.57-.84 1.12-1.34 1.75l-1.4 1.67c-2.01 2.34-4.62 5.31-8.36 8.93-3.75 3.57-8.67 7.97-15.99 11.87l-2.27 1.08-2.35.99c-1.61.65-3.31 1.25-5.05 1.81a72.76 72.76 0 0 1-10.58 2.47c-6.87 1.07-12.71 1.02-14.86 1.18-1.6.12-1.47.24-.47.37 1.01.13 3.06.24 5.07.28 4.05.07 8.18-.22 4.7.41 5.86-.54 11.76-1.73 17.4-3.6 1.41-.46 2.8-.97 4.17-1.51a67.19 67.19 0 0 0 4.13-1.76c2.78-1.3 5.43-2.8 7.92-4.43 5-3.26 9.39-6.98 13.45-10.65l5.92-5.44c.49-.46.9-.82 1.6-1.51l.94-.93.9-1.02c1.2-1.37 2.31-2.96 3.25-4.73.95-1.77 1.66-3.81 2.09-5.92.4-2.14.43-4.36.17-6.49zM41.8 29.02c.09-.08.17-.17.26-.26 0 .24-.02.47-.03.69l-.23-.43zm31.57 41.51c-2.59-3.1-5.17-6.37-7.6-9.9-1.15-.97-4.57-5.51-7.9-10.51-3.34-4.98-6.58-10.37-7.75-12.67l-.26-.39c-1.35-2.46-3.19-5.33-4.94-7.06-.72-.6-1.5-1.18-2.28-1.76.59-.55 1.22-1.07 1.82-1.61l2.52-2.15c-.49.18-.76.19.6-1.04l4.47-3.91c.78-.66 1.57-1.31 2.37-1.94l1.02-.74 1.01-.62c1.36-.72 2.65-1.13 3.81-1.1 1.16-.02 2.35.35 3.75 1.13.83.48 1.7 1.09 2.55 1.82.79.61 1.12.69 1.31.73 2.92 2.94 5.22 6.01 7.24 9.06 1.76 2.45 3.44 5.06 5.16 7.75l5.08 8.04c1.53 2.56 2.85 5.11 3.81 7.69a31.48 31.48 0 0 1 1.18 3.89 27 27 0 0 1 .37 1.96c.08.63.16 1.24.19 1.84.13 2.43-.27 4.68-1.25 6.76-.49 1.04-1.13 2.05-1.91 3.01a15.01 15.01 0 0 1-1.27 1.4l-.34.34-.44.41-.89.83a190.45 190.45 0 0 1-5.71 5.14 52.25 52.25 0 0 1-1.85-1.98c-1.28-1.4-2.58-2.9-3.88-4.45z"/></svg>