<svg xmlns="http://www.w3.org/2000/svg" xmlns:xlink="http://www.w3.org/1999/xlink" viewBox="0 0 237 237.18" >
<g >
<path d="M67.3 148.98h.02zm37.81-2.56c-.02.08-.05.17-.08.25.15-.12.26-.23.17-.27-.04 0-.06.01-.1.02z"/>
<path d="M67.48 148.88c.17.14.34.28.49.33-.09-.17-.14-.33-.19-.49l-.31.16z"/></g>
<g >
<path d="M49.24 212.24c-.26-.08-.52 2.26-.64-1.38-.25-11.43.63-20.62.38-32.05l-.42-.82.61-27.48-.3-51.75c-.15.45-.3.66-.35-1.05-.11-7.14.04-17.03.08-27.28l-.07-4.52c-.09-1.17-.24-1.47-.33-1.65l.1-12.57-.32-18.91-.16-9.5-.04-2.38-.04-.66c0-.19-.04-.39-.03-.6.02-.2.13-.39.3-.49.36-.16.77-.09 1.18-.15l4.36-.08 9.61-.17 19.38-.35 80.29-1.44 17.51-.56 7.34-.23c1.03-.09 1.95.86 1.86 1.85l.08 3.06-.16 54.35c1.49-2.5 2.22 37.23 3.73 29.3-.03 10.86-.08 27.18.34 28.02 1.27 2.52 2.73 10.89 3.49 39.74.18 11.29-.35 28.64-.1 32.62.41 6.27.89-14.64 1.3-8.37l.13-124.41-.07-30.97-.04-15.52v-3.89l-.01-2.7c-.02-1.28.05-2.6-.09-3.83-.17-1.23-.51-2.26-1.01-3.19A9.08 9.08 0 0 0 195 9.59a8.98 8.98 0 0 0-2.86-1.64c-1.02-.38-2.25-.57-3.55-.55l-64.66.07c-7.19.17-24.71.31-47.72.42L58 7.97l-10.7.04c-1.56 0-3.19-.05-4.52.37-1.28.36-2.47 1-3.54 2.01a8.14 8.14 0 0 0-2.16 3.51c-.22.65-.36 1.38-.43 2.16-.05.78-.03 1.6-.03 2.4l.11 43.74-.03 144.2.02 4.53-.01 5.16v3.99c-.06 1.66.15 3.3.68 4.55.5 1.26 1.45 2.57 2.67 3.46 1.24.91 2.45 1.37 4.06 1.61.79.12 1.65.1 2.5.1h2.55 2.81l21.94-.08 40.04-.54 31.97-1.19-13.56-.74 25.92-.21c23.15-.64 10.04-1.39 1.13-2.4-6.41-.44 2.26-1.13-7.78-1.58l18.12.05c.83-.42-22.32.22-17.29-.48 6.97.16 14.78-.1 22.02-.07-2.51-.57-25.08-.22-23.97-.78 3.91-.13 20.35.77 21.75.07.28-.14-6.97-.16-10.59-.17 22.3-.22 34.59-.89 14.23-1.66l24.53.22c-.01 0-.04 0-.06-.01l-13.61-.18 12.72.04-2.22-.29-9.66-.17 8.45.03c-2.11-.23-4.54-.45-7.2-.66l-25.09-1.14-65.88-.42-32.95-.13-15.62-.04c-.04 0-.1 0-.09-.07v-.03-.81-4.11zm55.63-106.06c-.02.18.54.36-.32.45-2.69.2-4.86-.4-7.56-.2l-.19.3-6.48-.37-12.2.32c.11.11.16.21-.25.25-1.68.09-4.01 0-6.43 0l-1.06.06c-.27.07-.34.17-.39.23l-5.47-.03-2.01.07-.99.04c-.12-.03-.09.08-.09.17v.26l.02.52.11 4.11.12 3.79.12 2.25.49 9.1 1.02 18.94.39 4.13a57.71 57.71 0 0 1 .16 2.27l.12 2.57.03 1.94c.02.15-.04.37.04.46h.51l1.04.03 4.14.1 3.46.09 3.08.04c-.59-1.01 8.77-1.69 6.87-2.72 2.55-.04 6.39-.15 6.57-.46.56-.92 2.48-1.98 9.17-2.93l7.6-.5c1.44-.4-3.46-.34-2.02-.75-9.76.62-19.34 1.03-28.95 1.14l-5.41.03c-.14.01-.08.05-.12-.05l-.06-14.58c-.12-1.69-.22-5.82-.3-11.24l-.11-8.96-.01-1.18v-.14l-.03-.31c-.05-.15.08-.12.18-.13l.32-.02 19.54-.22 14.05-.04 1.07-.02h.99.35c0 .14.02.3.04.43l.02.11.02.86.04 1.83c.06 2.42.16 4.7.29 6.67l.81 7.55.52-3.2c-.03 2.57-.06 5.14.12 6.12.43 5.47.96 2.37 1.68.26.32-1.51.79.53 1.11-1.83l-.05 4.27c.3.2-.13-5.26.35-4.07-.12 1.64.06 3.48.04 5.19.4-.59.17-5.91.56-5.65.09.92-.55 4.8-.06 5.12.1.06.12-1.64.13-2.5.13 5.25.6 8.14 1.15 3.35-.02 1.66-.24 4.02-.17 5.78h0l.14-3.22-.04 3a13.99 13.99 0 0 0 .21-.52 33.79 33.79 0 0 0 .12-2.27l-.02 1.99c.16-.5.32-1.07.47-1.7.33-2.36.8-4.63.81-5.9l.29-12.89.11-6.45.1-11.17-9.89.06z"/><use xlink:href="#A"/><use xlink:href="#B"/><use xlink:href="#B" y="85.1"/><use xlink:href="#A" x="65.05"/><use xlink:href="#A" x="65.05" y="20.83"/><use xlink:href="#A" x="65.05" y="40.89"/><use xlink:href="#C"/><use xlink:href="#C" x="65.42" y="-61.72"/><use xlink:href="#C" x="65.42" y="-40.89"/><use xlink:href="#C" x="65.42" y="-20.83"/><path d="M140.17 201.73c0-.18-.16-.37.1-.45.81-.17 1.45.44 2.26.27l.06-.3 1.94.43 3.65-.21c-.03-.11-.05-.21.07-.25.5-.08 1.2.02 1.92.06l.32-.05c.08-.06.1-.17.12-.23.33 0 .62.04.89.07l11.05-1.94c.83-.27 1.65-.55 2.45-.67 1.18-.11 2.68.08 3.83.11-.18-1.05 2.62-1.56 2.07-2.61.77.02 1.92.06 1.98-.24.18-.89.77-1.91 2.8-2.44.8-.12 2.02.25 2.3.07.44-.28-1.03-.63-.59-.91-5.92-.32-11.61.06-17.57.06-2.03.46-15.71.67-19.22.46-.11 0-.21 0-.32.01-1.92-.06-4.24.02-5.87.42-.74.25-1.5.55-2.25.83a13.98 13.98 0 0 1 .96.51c-.77-.02-1.53-.05-1.83.14-1.63.45-.71.97-.08 1.68.45.31-.16.79.55 1.11l-1.28-.04c-.06.3 1.57-.15 1.22.33-.49-.11-1.04.07-1.55.05.18.4 1.77.15 1.69.55-.28.09-1.43-.54-1.53-.05-.02.1.49.11.75.12-1.57.15-2.44.62-1 1.16-.5-.01-1.2-.22-1.73-.16.26.02.72.12.96.13-.3 0-.6-.02-.9-.03.05.07.1.14.16.21.22.06.45.11.68.12a12.02 12.02 0 0 1-.6-.02c.15.16.32.32.51.46.71.32 1.39.78 1.77.8 3.09.23 6.2.4 9.29.43zm34.3-164.15v-.02c-.35-.02-.96-.22-1.28-.22h1.18l-.23-.42c-.3-.12-.6-.21-.91-.22h.78c-.21-.33-.45-.65-.71-.95l-1.87-1.41c.02-.02.04-.04.07-.06h-.17c-.15-.08-.29-.14-.4-.14-4.05-.38-8.13-.68-12.22-.75 0 .23.06.45.05.63h-1.77c-.45-.22-.91-.42-1.41-.25l-.03.26-1.04.01-1.58-.58c-1.63.08-3.25.21-4.88.4.02.1.03.2.02.28l-16.85.24c-4.65.99-36.01 1.43-44.07.99-.24 0-.49.02-.73.03-4.39-.12-9.73.05-13.45.9-1.71.53-3.44 1.17-5.17 1.79.8.37 1.55.74 2.19 1.1-1.76-.05-3.52-.1-4.19.31-3.74.96-1.62 2.08-.18 3.6 1.04.67-.36 1.69 1.26 2.37l-2.93-.08c-.13.63 3.61-.32 2.79.72-1.13-.24-2.39.15-3.56.11.41.86 4.05.32 3.87 1.17-.63.2-3.29-1.15-3.52-.1-.04.21 1.13.24 1.71.26-3.61.32-5.59 1.33-2.3 2.48-1.14-.03-2.76-.48-3.97-.33v.02c.6.04 1.64.25 2.2.27l-2.06-.06a6.96 6.96 0 0 0 .36.44c.51.13 1.03.23 1.56.25l-1.37-.04a9.55 9.55 0 0 0 1.16.99c1.62.68 3.18 1.68 4.06 1.71 7.09.5 14.21.86 21.29.93.01-.39-.36-.79.22-.97 1.85-.37 3.33.94 5.18.57.04-.21.09-.42.13-.63 1.43.27 2.92.62 4.44.92a178.96 178.96 0 0 0 8.37-.46c-.07-.23-.11-.44.17-.53 1.13-.17 2.69.04 4.3.11v.02c7.67.37 15.18-.44 23.14-.34 2.68-.98 21.15-1.11 26-.7l.44-.03c2.62.12 5.83-.08 8.04-.96 1.02-.55 2.04-1.22 3.06-1.86a20.26 20.26 0 0 1-1.34-1.07c1.05.02 2.1.05 2.49-.37 2.21-1.04.89-2.11 0-3.61-.63-.65.16-1.69-.81-2.35l1.72.03c.06-.63-2.1.4-1.66-.66.67.23 1.39-.19 2.07-.18-.27-.85-2.37-.24-2.29-1.09.36-.2 1.95 1.09 2.05.03.02-.21-.66-.22-1-.22 2.08-.4 3.18-1.45 1.24-2.53.66 0 1.6.42 2.29.25z"/></g><defs><path id="A" d="M74.75 74.97c0-.18-.16-.37.1-.45.81-.17 1.45.44 2.26.27l.06-.3 1.94.43 3.65-.21c-.03-.11-.05-.21.07-.25.5-.08 1.2.02 1.92.06l.32-.05c.08-.06.1-.17.12-.23.33 0 .62.04.89.07l11.05-1.94c.83-.27 1.65-.55 2.45-.67 1.18-.11 2.68.08 3.83.11-.18-1.05 2.62-1.56 2.07-2.61.77.02 1.92.06 1.98-.24.18-.89.77-1.91 2.8-2.44.8-.12 2.02.25 2.3.07.44-.28-1.03-.63-.59-.91-5.92-.32-11.61.06-17.57.06-2.03.46-15.71.67-19.22.46-.11 0-.21 0-.32.01-1.92-.06-4.24.02-5.87.42-.74.25-1.5.55-2.25.83a13.98 13.98 0 0 1 .96.51c-.77-.02-1.53-.05-1.83.14-1.63.45-.71.97-.08 1.68.45.31-.16.79.55 1.11l-1.28-.04c-.06.3 1.57-.15 1.22.33-.49-.11-1.04.07-1.55.05.18.4 1.77.15 1.69.55-.28.09-1.43-.54-1.53-.05-.02.1.49.11.75.12-1.57.15-2.44.62-1 1.16-.5-.01-1.2-.22-1.73-.16.26.02.72.12.96.13-.3 0-.6-.02-.9-.03.05.07.1.14.16.21.22.06.45.11.68.12-.2 0-.4-.01-.6-.02.15.16.32.32.51.46.71.32 1.39.78 1.77.8 3.09.23 6.2.4 9.29.43z"/><path id="B" d="M74.75 95.8c0-.18-.16-.37.1-.45.81-.17 1.45.44 2.26.27l.06-.3 1.94.43 3.65-.21c-.03-.11-.05-.21.07-.25.5-.08 1.2.02 1.92.06l.32-.05c.08-.06.1-.17.12-.23.33 0 .62.04.89.07l11.05-1.94c.83-.27 1.65-.55 2.45-.67 1.18-.11 2.68.08 3.83.11-.18-1.05 2.62-1.56 2.07-2.61.77.02 1.92.06 1.98-.24.18-.89.77-1.91 2.8-2.44.8-.12 2.02.25 2.3.07.44-.28-1.03-.63-.59-.91-5.92-.32-11.61.06-17.57.06-2.03.46-15.71.67-19.22.46-.11 0-.21 0-.32.01-1.92-.06-4.24.02-5.87.42-.74.25-1.5.55-2.25.83a13.98 13.98 0 0 1 .96.51c-.77-.02-1.53-.05-1.83.14-1.63.45-.71.97-.08 1.68.45.31-.16.79.55 1.11l-1.28-.04c-.06.3 1.57-.15 1.22.33-.49-.11-1.04.07-1.55.05.18.4 1.77.15 1.69.55-.28.09-1.43-.54-1.53-.05-.02.1.49.11.75.12-1.57.15-2.44.62-1 1.16-.5-.01-1.2-.22-1.73-.16.26.02.72.12.96.13-.3 0-.6-.02-.9-.03a2.92 2.92 0 0 0 .16.21c.22.06.45.11.68.12-.2 0-.4-.01-.6-.02.15.16.32.32.51.46.71.32 1.39.78 1.77.8 3.09.23 6.2.4 9.29.43z"/><path id="C" d="M74.75 201.73c0-.18-.16-.37.1-.45.81-.17 1.45.44 2.26.27l.06-.3 1.94.43 3.65-.21c-.03-.11-.05-.21.07-.25.5-.08 1.2.02 1.92.06l.32-.05c.08-.06.1-.17.12-.23.33 0 .62.04.89.07l11.05-1.94c.83-.27 1.65-.55 2.45-.67 1.18-.11 2.68.08 3.83.11-.18-1.05 2.62-1.56 2.07-2.61.77.02 1.92.06 1.98-.24.18-.89.77-1.91 2.8-2.44.8-.12 2.02.25 2.3.07.44-.28-1.03-.63-.59-.91-5.92-.32-11.61.06-17.57.06-2.03.46-15.71.67-19.22.46-.11 0-.21 0-.32.01-1.92-.06-4.24.02-5.87.42-.74.25-1.5.55-2.25.83a13.98 13.98 0 0 1 .96.51c-.77-.02-1.53-.05-1.83.14-1.63.45-.71.97-.08 1.68.45.31-.16.79.55 1.11l-1.28-.04c-.06.3 1.57-.15 1.22.33-.49-.11-1.04.07-1.55.05.18.4 1.77.15 1.69.55-.28.09-1.43-.54-1.53-.05-.02.1.49.11.75.12-1.57.15-2.44.62-1 1.16-.5-.01-1.2-.22-1.73-.16.26.02.72.12.96.13-.3 0-.6-.02-.9-.03a2.92 2.92 0 0 0 .16.21c.22.06.45.11.68.12a12.02 12.02 0 0 1-.6-.02c.15.16.32.32.51.46.71.32 1.39.78 1.77.8 3.09.23 6.2.4 9.29.43z"/>
</defs>
</svg>