<svg xmlns="http://www.w3.org/2000/svg" viewBox="0 0 237 237.18" ><path d="M220.46 82.39l-.34-1-.72-2-.85 1.69c.04-1.36.08-2.72-.24-3.24l-.11-.39.38-.17 1.18-.62c.39-.25.83-.74 1.13-1.34.3-.59.48-1.29.46-1.85 0-.58-.21-.93-.35-1.4l-.53-1.42c-.44-1.01-.93-2.13-1.83-3.36-.46-.61-1-1.23-1.56-1.85l-1.65-1.84-3.27-3.64-2.51-2.76-8.86-9.66-15.25-16.04c-3.54-3.97-7.46-8.59-11.34-13.2l-7-8.32c1.42-1.28 7.03-2.11 5.66-3.59 2.21.04 5.53.09 5.7-.39.51-1.47 2.21-3.16 8.08-4.04 2.3-.21 5.83.41 6.64.11 1.28-.47-2.98-1.03-1.7-1.5-17.07-.53-33.51.11-50.7.09-5.85.77-45.32 1.1-55.46.76-.31 0-.61.01-.92.02-5.53-.09-12.25.04-16.93.69-2.15.41-4.33.9-6.5 1.38a47.12 47.12 0 0 1 2.76.85c-2.21-.04-4.42-.08-5.27.24-4.71.74-2.04 1.61-.23 2.78 1.3.52-.46 1.31 1.58 1.83l-3.69-.06c-.17.49 4.54-.25 3.52.55-1.42-.19-3.01.11-4.48.09.51.66 5.1.25 4.88.9-.8.15-4.14-.89-4.42-.08-.06.16 1.42.19 2.15.2-4.54.25-7.04 1.03-2.9 1.92-1.44-.02-3.47-.37-4.99-.26.77.04 2.08.21 2.78.22l-2.59-.04c.14.11.29.23.45.34.64.1 1.29.18 1.96.19l-1.72-.03c.43.27.92.52 1.46.76 2.04.53 4 1.3 5.1 1.32l9.2.35c-3.22 2.91-6.11 5.48-7.79 7.29l-17.91 19.1-8.94 9.58-13.37 14.47c-1.68 1.93-2.21 3.72-2.47 5.15-.06.66-.15 1.37-.09 1.89 0 .25.02.47.04.7-.08.01-.15-.02-.22-.14-.13 2.62-.19 5.22-.21 7.8v.97c0 .33-.01.6.01 1.09.04.88.08 1.77.16 2.64l.42 2.62c.19.86.44 1.71.68 2.56 2.05 6.54 6.43 12.17 12.2 15.94-.31 2.35-.62 5.81-.91 3.64l-.15 71.82.08 17.88.04 8.96.02 4.49v2.25l.01.56.01.7c.03.61.05 1.23.12 1.84.54 4.93 3.06 9.55 6.79 12.72 1.86 1.59 4.03 2.84 6.38 3.64 1.17.4 2.38.7 3.61.87.61.11 1.23.15 1.84.17l.92.04h.57l18.2-.02c8.3-.38 40.46-.66 74.13-.8l48.86-.1h2.75 1.35c.48 0 .77.02 1.58-.03a18.67 18.67 0 0 0 7.77-2c4.7-2.37 7.95-6.5 9.36-10.86.35-1.09.62-2.19.76-3.28.1-.54.13-1.08.15-1.62l.04-.8v-.55l.03-3.81.06-6.33-.02-2.61c.09-15.69-.04-34.75-.69-48.04l-1.38-18.45-.85 7.83c.04-6.28.08-12.55-.24-14.97-.74-13.37-1.61-5.79-2.78-.65-.52 3.7-1.31-1.3-1.83 4.49l.06-10.46c-.49-.48.25 12.88-.55 9.98.19-4.02-.11-8.53-.09-12.71-.66 1.45-.25 14.48-.9 13.84-.15-2.26.89-11.75.08-12.55-.16-.16-.19 4.02-.2 6.11-.25-12.87-1.03-19.97-1.92-8.22.02-3.04.21-7.02.27-10.64 3.32-1.21 6.36-3 8.73-4.98 3.22-2.71 5.32-5.59 6.39-7.34l.36-.65c1.09-1.95 2.1-4.26 2.55-6.62a18.06 18.06 0 0 0 .26-6.52c-.08-.46-.19-.76-.3-1.09zm-17.84-15.87c.09.04.21.09.33.19.11.15.02.18-.07.22-.1.04-.27.08-.5.12l-9.56.11-23.88.14-7.7-13.15c-2.13-2.69-13.66-22.44-16.38-27.65l-.28-.46c-1.53-2.81-3.54-6.15-5.27-8.29-.85-.95-1.77-1.88-2.67-2.82a23.15 23.15 0 0 1 .3 1.67c-.5-.91-.99-1.81-1.39-2.3l9.22-.58 9.83-.63 1.23-.08.31-.02h.14l.32.36 46.02 53.17zm-42.43 23.44c-.14.48-.51.77-.89 1.03-.42.24-.81.46-.97.93l.33.36-1.02.61c-.35.19-.74.33-1.09.51-1.03.95-2.13 1.85-3.36 2.55.1.15.19.29.08.41-.52.32-1.36.51-2.21.63l-.35.18c-.07.13-.06.3-.05.41-.4.07-.76.05-1.09.06-2.08.76-4.47 1.18-6.99.92-2.51-.26-5.17-1.14-7.66-2.77-.58-.29-1.17-.61-1.75-.95-.52-.39-1.05-.79-1.5-1.25-1.22-1.46-1.92-3.81-2.32-5.54-.4.18-.82.07-1.25-.22-.44-.28-.9-.73-1.27-1.21-.4-.47-.8-.94-1.2-1.24-.39-.29-.76-.4-1.19-.09-.02-.73-.05-1.67-.12-2.4-.04-.69-.15-1.23-.4-1.28-.13-.03-.25-.06-.38-.1-.01-.04-.03-.08-.04-.13-.04-.11-.08-.21-.11-.32l12.82.14 2.88-.08c.74-.11.93-.28 1.05-.38l8 .12 13.61-.43-.05.84-.06 1.03c-.02.32-.03.76-.07.92-.08.45-.1.9-.18 1.33-.31 1.76-.92 3.42-1.79 4.95.26.15.62.12.59.46zm-50.91 0c-.14.48-.51.77-.89 1.03-.42.24-.81.46-.97.93l.33.36-1.02.61c-.35.19-.74.33-1.09.51-1.03.95-2.13 1.85-3.36 2.55.1.15.19.29.08.41-.52.32-1.36.51-2.21.63l-.35.18c-.07.13-.06.3-.05.41-.4.07-.76.05-1.09.06-2.08.76-4.47 1.18-6.99.92-2.51-.26-5.17-1.14-7.66-2.77-.58-.29-1.17-.61-1.75-.95-.52-.39-1.05-.79-1.5-1.25-1.22-1.46-1.92-3.81-2.32-5.54-.4.18-.82.07-1.25-.22-.44-.28-.9-.73-1.27-1.21-.4-.47-.8-.94-1.2-1.24-.39-.29-.76-.4-1.19-.09-.02-.73-.05-1.67-.12-2.4-.04-.69-.15-1.23-.4-1.28-.28-.06-.56-.14-.84-.27l13.04.53 25.55-.26-.04.67c-.02.32-.03.76-.07.92-.08.45-.1.9-.18 1.33-.31 1.76-.92 3.42-1.79 4.95.26.15.62.12.59.46zM77.59 67.18c.52-1.31 1.67-1.96 2.19-3.28-.08-.08-.16-.17-.23-.25.65-.88 1.37-1.77 2.07-2.7l2.91-5.64c-.13-.01-.24-.04-.17-.25.35-.81 1.05-1.81 1.7-2.88.07-.17.15-.34.22-.51a.4.4 0 0 0-.12-.3c.29-.49.56-.91.82-1.3l7.58-17.79c.44-1.4.89-2.8 1.45-4.07.9-1.85 2.37-4.02 3.38-5.74-1.16-.3.75-4.82-.75-4.55l.85-1.47 12.44-.71c-.14 4.17-.22 8.36-.17 12.52.2 0 .4-.24.5.13.22 1.17-.44 2.12-.22 3.29.11.02.22.05.33.08-.12.91-.28 1.86-.42 2.82.08 1.77.2 3.54.35 5.29.12-.05.23-.07.27.1.1.73 0 1.74 0 2.79.02.15.05.31.07.46.07.12.19.15.26.16 0 .47-.02.9-.05 1.29l2.48 16c.33 1.19.65 2.39.81 3.54.09 1.01.07 2.18.04 3.31l-38.3.02c-.17-.05-.41.01-.28-.37zm78.69-54.2h0-.02s0-.01-.01-.02h0l.03.03zm-33.37 54.54l-.36-10.97c-.57-2.93-1.21-22.79-1.09-27.89 0-.15-.02-.31-.02-.46 0-2.78-.15-6.16-.64-8.51-.29-1.07-.65-2.17-.99-3.25-.18.51-.36.99-.54 1.4 0-1.02 0-2.03-.16-2.52l5.98-.35 3.19-.2c.18.93.3 1.78.54 2.22 2.34 4.62 4.76 9.22 7.29 13.72.18-.09.22-.43.51-.11.83 1.08.78 2.35 1.62 3.43.11-.03.22-.05.33-.08.4.97.78 2.01 1.19 3.05 1.05 1.75 2.13 3.48 3.23 5.18.08-.1.16-.18.3-.03.49.69.97 1.76 1.54 2.82l.31.43c.13.08.25.06.32.04a23.78 23.78 0 0 1 .67 1.33l11.03 14.98c.95 1.05 1.89 2.1 2.67 3.19.47.71.94 1.55 1.39 2.4l-19.76.12-18.53.06zm-7.87-51.96c.07 0 .13 0 .2-.01-.03.32-.09.56-.23.52-.03-.1 0-.29.03-.51zm.64-.04c.08 0 .16 0 .24-.01 0 .33-.06.53-.26.35.02-.11.01-.22.02-.33zm.31-.02c.09 0 .17-.01.26-.02-.09.08-.18.21-.26.45v-.43zm15.01-.91c.13 0 .26-.02.39-.02.27.81 1.17 2.19.82 2.27-.31-.35-.67-2.33-1.21-2.25zm.49 1.15c-.28-.43-.55-.81-.8-1.13a2.64 2.64 0 0 0 .29-.02c-.09.05.3.78.51 1.15zm.13-1.19c.12 0 .23-.01.35-.02.18.51 1.35 1.99.71 1.78-.24-.61-.68-1.18-1.05-1.76zm-2.13.13l.06.23c-.04-.07-.07-.15-.11-.23h.05zm3.52 1.55l-.93-1.71 1.58-.1c-.01.14-.02.27-.04.41.08.83-.89.2-.61 1.4zm39.83 64.85c0-.34.02-.68.02-1.01.17 0 .34-.01.51-.02a31.03 31.03 0 0 1-.53 1.02zM92.83 15.36l-1.73.07c.03-.09.06-.19.1-.28.54.06 1.09.14 1.64.21zm-4.36.18l-4.3.19c-.09-.22-.22-.42.33-.52 1.42-.18 2.67.14 3.96.34zm-19.53.11c.15 0 .29 0 .44.01-.82.7-1.97 1.74-3.5 3.2l3.06-3.21zm-31.4 50.78l.45-.64c.06-.08.04-.07.16-.22l.88-1.01 1.73-1.99 6.34-7.44 12.71-15.95-6.45 5.8c4.7-5.09 9.4-10.17 10.96-12.34 9.4-11.38 3.13-5.8-1.57-2.41-3.13 2.66 0-1.94-4.69 2.42l7.83-8.47c0-.72-9.4 10.66-7.83 7.75 3.13-3.15 6.27-7.02 9.39-10.41-1.57.73-10.96 11.62-10.96 10.66 1.57-1.94 9.4-8.96 9.4-10.17 0-.24-3.13 3.15-4.7 4.84 4.54-5.14 7.97-9.26 9.26-11.15l10.88.21.04.66c.14 0 .28.01.42.02l.87.04c2.34.11 4.68.23 2.71.59l9.35-.51-8.88 16.12c-1.29 3.32-12.78 24.15-15.98 29.36-.09.16-.17.33-.26.49-.89 1.5-1.83 3.2-2.68 4.85l-17.29-.1-2.88.02c-2.51 0-5.11-.02-7.75-.03h-1.01l-.54.02c-.09 0-.19.02-.28 0-.09-.03-.16-.11-.17-.2.09-.3.35-.52.53-.81zm-10.8 21.61c-.4.18-.82.07-1.25-.22-.44-.28-.9-.73-1.27-1.21-.4-.47-.8-.94-1.2-1.24-.39-.29-.76-.4-1.19-.09-.02-.73-.05-1.67-.12-2.4-.04-.69-.15-1.23-.4-1.28-1.31-.28-2.79-1.14-3.72-3.87.38.56.65.85 1.01 1.21.74.79 1.85 1.7 3.61 2.35.85.34 1.96.55 3.2.6h3.89l7.8.03 8.82.02c.05-.3-1.44-.61.88-.75 4.41-.17 8.29.13 12.28.33l-.04.75c-.02.32-.03.76-.07.92-.08.45-.1.9-.18 1.33-.31 1.76-.92 3.42-1.79 4.95.26.15.62.12.59.46-.14.48-.51.77-.89 1.03-.42.24-.81.46-.97.93l.33.36-1.02.61c-.35.19-.74.33-1.09.51-1.03.95-2.13 1.85-3.36 2.55.1.15.19.29.08.41-.52.32-1.36.51-2.21.63l-.35.18c-.07.13-.06.3-.05.41-.4.07-.76.05-1.09.06-2.08.76-4.47 1.18-6.99.92-2.51-.26-5.17-1.14-7.66-2.77-.58-.29-1.17-.61-1.75-.95-.52-.39-1.05-.79-1.5-1.25-1.22-1.46-1.92-3.81-2.32-5.54zm68.63 135.95a6.77 6.77 0 0 0-.45.02c.18-.52.38-1.49.57-3 0 .89-.06 1.92-.12 2.99zm47.59-1.65c-.67.11-.85.28-.95.38l-7.26-.12-37.84 1.33c.49-2.83 1.07-5.42 1.08-6.98l.71-44.02c-.3-.03-.61.75-.75-.46-.29-3.82.73-6.89.44-10.71l-.49-.28.71-9.18-.06-4.34-.04-2.17v-.27-.13h0l-.01-.03-.02-.05c-.07-.12-.06-.38.12-.46-.08-.18-.16-.34-.12-.41a.52.52 0 0 1 .23-.05c.49 0 1.01.02 1.56.03l4.95.11 1.51-.08c.39-.11.49-.28.55-.38a123.11 123.11 0 0 1 4.2.12l25.56-1.55 1.63-.1.82-.05h.2l.09-.03.16-.03c.42-.06.87-.17 1.35-.18.97.02 1.79.83 2 1.79.05.24.08.49.12.75l.05.4.03.21.03.42.21 3.39.42 6.87c.45 3.91.9 7.83 1.11 11.6.19 5.59-.13 12.71-.19 18.16 1.73-.84 2.58 12.44 4.32 9.79-.04 3.63-.09 9.08.39 9.36 1.47.84 3.16 3.64 4.04 13.28.07 1.22.05 2.64 0 4.06l-8.26-.11-2.61.08zm56.77-18.27c.14 3.3-.04 6.27-.22 9.25l-.13 2.24-.06 1.13-.03.54c-.02.07-.03.15-.04.22-.08.58-.22 1.13-.43 1.73.12.12.24.26.36.4-.62.89-1.53 1.64-2.54 1.94-.5.16-1.01.23-1.51.23a2.53 2.53 0 0 0-.38-.03l-.91-.04-2.03-.09-29.88.35c.26.18.38.34-.61.41-1.76.06-3.81.06-6.04.03l.09-37.55-.16-20.73-.06-10.45-.02-5.26v-2.64-2.27c0-.87-.03-1.74-.16-2.56-.24-1.1-.62-2.59-1.53-4.2-.88-1.61-2.31-3.37-4.44-4.66a11.65 11.65 0 0 0-3.59-1.44c-1.34-.29-2.91-.27-4.52-.24l-5.96.11-26.96.31-7.33.05h-1.83l-3.38.04-.83.05-.79.13c-.54.07-1.02.22-1.52.36-.98.33-1.94.79-2.79 1.39-1.73 1.18-3.08 2.85-3.97 4.7-.87 1.88-1.28 3.9-1.24 6.05v7.52L84.16 171l.02 1.51c-.09 9.08.04 20.12.69 27.81L86.25 211a116.04 116.04 0 0 1 .85-4.53c-.04 3.63-.08 7.27.24 8.66.74 7.74 1.61 3.35 2.78.38.52-2.14 1.31.75 1.83-2.6l-.06 6.05c.49.28-.25-7.46.55-5.78-.19 2.33.11 4.94.09 7.36.66-.84.25-8.38.9-8.01.15 1.31-.89 6.8-.08 7.27.16.09.19-2.33.2-3.54.13 3.8.39 6.72.74 7.78l-3.72.13-22.81.83-11.67.42-5.91.21-1.49.05-.74.03h-.54c-.71.01-1.41-.12-2.11-.28-2.37-.52-4.62-2.17-5.85-4.45-.62-1.14-1-2.42-1.08-3.74l-.2-4.92c-.19-9.65.13-21.97.19-31.37-1.73 1.44-2.58-21.49-4.32-16.92.04-6.27.09-15.69-.39-16.17-1.47-1.46-3.16-6.28-4.04-22.94-.17-5.5.24-13.48.19-17.22.58.24 1.46.71 2.68 1.18.64.26 1.33.57 2.14.81.8.24 1.64.58 2.59.76a30.24 30.24 0 0 0 13.26.23c4.72-1.02 9.17-3.35 12.39-6.04 3.22-2.71 5.32-5.59 6.39-7.34l.36-.65a48.44 48.44 0 0 0 .66-1.26c2.46 5.01 6.35 9.28 11.16 12.27.57.23 1.49.73 2.77 1.22.64.26 1.33.57 2.14.81.8.24 1.64.58 2.59.76a30.24 30.24 0 0 0 13.26.23c4.72-1.02 9.17-3.35 12.39-6.04 3.22-2.71 5.32-5.59 6.39-7.34l.36-.65c.08-.15.16-.32.25-.48 2.47 4.68 6.21 8.65 10.76 11.49.57.23 1.49.73 2.77 1.22.64.26 1.33.57 2.14.81.8.24 1.64.58 2.59.76a30.24 30.24 0 0 0 13.26.23c4.72-1.02 9.17-3.35 12.39-6.04 1.8-1.51 3.24-3.08 4.35-4.47a30.63 30.63 0 0 0 8.21 7.5c.57.23 1.49.73 2.77 1.22.64.26 1.33.57 2.14.81.8.24 1.64.58 2.59.76a30.24 30.24 0 0 0 13.26.23c.91-.2 1.81-.46 2.69-.74-.17.88-.34 1.82-.49 2.83-.53 5.79-1.3 11.35-1.32 14.48l-.71 76.05c.3.05.61-1.3.75.79zm2.04-94.24s.05-.02.08-.03l-.1 3.67.02-3.64zm.47 4.13l.03-4.29.09-.03-.11 4.32zm5.11-31.66c-.02.32-.03.76-.07.92-.08.45-.1.9-.18 1.33-.31 1.76-.92 3.42-1.79 4.95.26.15.62.12.59.46-.14.48-.51.77-.89 1.03-.42.24-.81.46-.97.93l.33.36-1.02.61c-.35.19-.74.33-1.09.51-1.03.95-2.13 1.85-3.36 2.55.1.15.19.29.08.41-.52.32-1.36.51-2.21.63l-.35.18c-.07.13-.06.3-.05.41-.4.07-.76.05-1.09.06-2.08.76-4.47 1.18-6.99.92-2.51-.26-5.17-1.14-7.66-2.77-.58-.29-1.17-.61-1.75-.95-.52-.39-1.05-.79-1.5-1.25-1.19-1.41-1.88-3.67-2.29-5.38.21-1.71.15-3.35-.05-4.72-.08-.46-.19-.76-.3-1.09l-.34-1-.48-1.35.98-.03c.23.47.42.85.58.97.39.3.2-.47.15-.99l21.21-.68 6.69-.2 4.02-.08-.15 2.25-.06 1.03z" /></svg>