<svg width="40" height="40" viewBox="0 0 40 40"  xmlns="http://www.w3.org/2000/svg">
  <g clip-path="url(#clip0_1060_19651)">
    <mask id="mask0_1060_19651" style="mask-type:luminance" maskUnits="userSpaceOnUse" x="0" y="0" width="40" height="40">
      <path fill="white" d="M40 0H0V40H40V0Z" />
    </mask>

    <g mask="url(#mask0_1060_19651)">
      <path fill-rule="evenodd" clip-rule="evenodd" d="M20 0C8.95417 0 0 8.95417 0 20C0 31.0458 8.95417 40 20 40C31.0458 40 40 31.0458 40 20C40 8.95417 31.0458 0 20 0ZM22.929 21.9258C23.3286 21.3278 23.5419 20.6247 23.5419 19.9055C23.5389 18.942 23.1548 18.0188 22.4735 17.3375C21.7922 16.6562 20.869 16.2721 19.9055 16.2691C19.1863 16.2691 18.4832 16.4824 17.8853 16.882C17.2873 17.2815 16.8212 17.8495 16.5459 18.5139C16.2707 19.1784 16.1987 19.9095 16.339 20.6149C16.4793 21.3203 16.8257 21.9682 17.3342 22.4768C17.8428 22.9854 18.4907 23.3317 19.1961 23.472C19.9015 23.6123 20.6326 23.5403 21.2971 23.2651C21.9615 22.9898 22.5295 22.5238 22.929 21.9258ZM31.2691 24.9055V14.9055C31.2691 13.2178 30.5987 11.5991 29.4053 10.4057C28.2119 9.21232 26.5932 8.54187 24.9055 8.54187H14.9055C13.2178 8.54187 11.5991 9.21232 10.4057 10.4057C9.21232 11.5991 8.54187 13.2178 8.54187 14.9055V24.9055C8.54187 26.5932 9.21232 28.2119 10.4057 29.4053C11.5991 30.5987 13.2178 31.2691 14.9055 31.2691H24.9055C26.5932 31.2691 28.2119 30.5987 29.4053 29.4053C30.5987 28.2119 31.2691 26.5932 31.2691 24.9055ZM24.4408 16.8751C25.0401 17.7721 25.3601 18.8267 25.3601 19.9055C25.3601 21.3521 24.7854 22.7395 23.7625 23.7625C22.7395 24.7854 21.3521 25.3601 19.9055 25.3601C18.8267 25.3601 17.7721 25.0401 16.8751 24.4408C15.9781 23.8414 15.279 22.9896 14.8662 21.9929C14.4533 20.9962 14.3453 19.8995 14.5558 18.8414C14.7662 17.7833 15.2857 16.8114 16.0486 16.0486C16.8114 15.2857 17.7833 14.7662 18.8414 14.5558C19.8995 14.3453 20.9962 14.4533 21.9929 14.8662C22.9896 15.279 23.8414 15.9781 24.4408 16.8751ZM26.9484 13.2388C27.0983 13.4631 27.1782 13.7267 27.1782 13.9964C27.1782 14.3581 27.0346 14.7049 26.7788 14.9607C26.5231 15.2164 26.1763 15.3601 25.8146 15.3601C25.5449 15.3601 25.2812 15.2801 25.057 15.1302C24.8328 14.9804 24.658 14.7674 24.5548 14.5183C24.4516 14.2691 24.4245 13.9949 24.4772 13.7304C24.5298 13.4659 24.6597 13.2229 24.8504 13.0322C25.0411 12.8415 25.284 12.7116 25.5486 12.659C25.8131 12.6064 26.0873 12.6334 26.3364 12.7366C26.5856 12.8398 26.7986 13.0146 26.9484 13.2388Z" />
    </g>
  </g>

  <defs>
    <clipPath id="clip0_1060_19651">
      <rect width="40" height="40" />
    </clipPath>
  </defs>
</svg>
