<svg width="40" height="40" viewBox="0 0 40 40"  xmlns="http://www.w3.org/2000/svg">
  <g clip-path="url(#clip0_1060_19657)">
    <path d="M20.1785 0.799805C9.57452 0.799805 0.978516 9.39581 0.978516 19.9998C0.978516 30.6038 9.57452 39.1998 20.1785 39.1998C30.7825 39.1998 39.3785 30.6038 39.3785 19.9998C39.3785 9.39581 30.7825 0.799805 20.1785 0.799805ZM15.4785 27.9578H11.5905V15.4458H15.4785V27.9578ZM13.5105 13.9098C12.2825 13.9098 11.4885 13.0398 11.4885 11.9638C11.4885 10.8658 12.3065 10.0218 13.5605 10.0218C14.8145 10.0218 15.5825 10.8658 15.6065 11.9638C15.6065 13.0398 14.8145 13.9098 13.5105 13.9098ZM29.6785 27.9578H25.7905V21.0238C25.7905 19.4098 25.2265 18.3138 23.8205 18.3138C22.7465 18.3138 22.1085 19.0558 21.8265 19.7698C21.7225 20.0238 21.6965 20.3838 21.6965 20.7418V27.9558H17.8065V19.4358C17.8065 17.8738 17.7565 16.5678 17.7045 15.4438H21.0825L21.2605 17.1818H21.3385C21.8505 16.3658 23.1045 15.1618 25.2025 15.1618C27.7605 15.1618 29.6785 16.8758 29.6785 20.5598V27.9578Z" />
  </g>
  <defs>
    <clipPath id="clip0_1060_19657">
      <rect width="40" height="40" />
    </clipPath>
  </defs>
</svg>
