<svg xmlns="http://www.w3.org/2000/svg" viewBox="0 0 237 237.18" ><path d="M114.75 79.1c.02-.28-1.14-.47.62-.74.69-.08 1.38-.09 2.04-.11a16.13 16.13 0 0 1 1.97.03l1.91.14 1.87.27 1.86.31 1.87.34 3.9.76.49-.35c4.16 1.17 8.28 2.99 12.2 5.27 3.73 1.89 7.21 4.24 10.39 6.93 3.19 2.69 6.09 5.72 8.58 9.05 0-.27.07-.45.6.2 2.13 2.77 4.52 7.02 6.26 11.71.3.68.6 1.35.84 2.04.27.51.47.6.59.65.72 2.16 1.15 4.14 1.51 5.98 2.93 11.97 1.97 25.28-3.63 37.12-2.77 5.92-6.61 11.5-11.47 16.29-4.84 4.8-10.66 8.85-17.21 11.74-1.36.68-2.77 1.24-4.17 1.83-1.43.51-2.86 1.04-4.32 1.44-2.91.84-5.88 1.46-8.84 1.73-4.38.41-9.44.21-14.32-.73-4.9-.9-9.61-2.48-13.49-4.25.14.49-.97.4-2.68-.06-1.69-.49-3.97-1.35-6.1-2.37-4.27-1.99-8.01-4.44-6.81-2.41-2.37-1.91-5.13-4.53-7.24-6.8-2.1-2.28-3.61-4.16-3.94-4.2-.49-.07-1.09-.33-1.9-.87-.4-.27-.87-.61-1.37-1.05a31.35 31.35 0 0 1-1.65-1.64c-2.36-2.62-5.76-7.11-8.68-15.24-1.1-3.19-1.88-7.42-2.22-11.12a37.57 37.57 0 0 1-.21-2.65c-.04-.84-.11-1.62-.12-2.32-.03-1.4-.07-2.49-.15-3.08-.11-.85-.22-.78-.34-.25-.12.54-.2 1.67-.29 2.76-.17 2.2-.17 4.44-.55 2.56.78 12.73 5.32 25.13 12.8 35.27a68.13 68.13 0 0 0 29.38 22.88c11.66 4.75 24.61 6.05 37.04 3.94 12.46-2.08 24.35-7.8 33.91-16.34 1.55-1.53 4.28-4.12 7.33-8 3.03-3.88 6.48-9 9.22-15.39 1.37-3.18 2.62-6.66 3.56-10.38a68.59 68.59 0 0 0 1.88-11.76c.6-8.17-.26-16.93-2.91-25.3-2.62-8.37-6.97-16.26-12.46-22.85-5.47-6.62-12.06-11.9-18.75-15.67a70.43 70.43 0 0 0-9.98-4.64c-3.28-1.19-6.46-2.06-9.43-2.7a71 71 0 0 0-14.8-1.45c-.91.04-1.81.04-2.71.11-8.15.36-17.12 2.55-24.95 6.41-7.87 3.8-14.48 9.2-19 14.32-4.11 4.75-7.5 10.19-10.03 15.9.79-1.22 1.62-2.35 2.4-3.42.83-1.03 1.57-2.04 2.36-2.88-3.67 5.1-6.27 10.88-6.84 13.22-1.06 3.16-1.43 5.15-1.54 6.24s.04 1.27.36.92.79-1.24 1.36-2.31c.62-1.04 1.25-2.29 1.98-3.33.87-1.56 1.03-1.15 1.29-.98.27.18.57.09 1.91-2.26-1.63 3.52-2.31 5.36-3.42 9.09.08.14.31-.52.61-1.53.36-.99.75-2.37 1.25-3.63l.7-1.79a20.36 20.36 0 0 1 .64-1.35c.36-.69.56-.89.45-.2-1.71 3.31-2.82 7.36-3.71 11.09.42-.59 1.31-3.78 2.41-6.66 1.12-2.86 2.42-5.38 2.55-4.99-.18.48-.59 1.31-1.1 2.3-.46 1.01-1.05 2.17-1.51 3.34-.98 2.32-1.59 4.61-1.34 5.05.1.17 1.13-3.48 1.81-5.25-1.86 5.55-2.3 10.09-2.23 11.81.05.87.2 1.06.47.39.26-.67.68-2.19 1.42-4.67a74.01 74.01 0 0 0-1.17 6.04c-.17 1.09-.24 2.19-.35 3.26-.05 1.07-.07 2.1-.07 3.06 0 0 0-.02.01-.03.05-1.91.35-5.17.63-6.9-.29 2.13-.41 4.29-.46 6.45a26.17 26.17 0 0 0 .34-1.12c.06-.8.13-1.6.24-2.41.11-.8.15-1.62.28-2.45-.11.7-.14 1.41-.21 2.12-.05.71-.14 1.42-.14 2.13.25-1.06.63-2.25.94-3.55 1-4.95 2.93-9.31 3.81-11.78C70.36 105.32 76.97 96.39 85.46 90c8.48-6.42 18.79-10.24 29.32-10.91zm14.94 48.56c-.37 0-.74.18-.91-.11-.35-.92.89-1.65.54-2.57l-.6-.07.87-2.2-.43-4.15c-.22.04-.42.05-.5-.08-.16-.57.05-1.37.11-2.19-.04-.12-.07-.24-.1-.36-.13-.09-.34-.12-.47-.13.02-.37.08-.7.14-1.01-1.18-4.04-2.57-8.14-3.94-12.58-.55-.94-1.11-1.88-1.36-2.78-.23-1.34.16-3.05.23-4.36-2.12.2-3.16-2.99-5.3-2.35.05-.87.12-2.18-.48-2.25-1.8-.2-3.87-.87-4.96-3.19-.25-.91.5-2.3.14-2.62-.58-.5-1.27 1.17-1.84.67-.65 6.73.13 13.22.11 20 .94 2.31 1.35 17.87.94 21.87 0 .12.02.24.03.36-.12 2.18.04 4.83.85 6.68.5.85 1.11 1.71 1.69 2.56.35-.4.7-.77 1.04-1.09-.05.87-.09 1.74.29 2.08.91 1.86 1.97.81 3.41.09.63-.51 1.6.18 2.24-.62l-.08 1.45c.6.07-.31-1.79.68-1.39-.23.56.14 1.19.11 1.77.81-.2.31-2.01 1.11-1.92.19.31-1.09 1.63-.09 1.74.2.02.23-.56.25-.85.31 1.79 1.26 2.77 2.35 1.14-.03.57-.45 1.37-.32 1.97.05-.3.26-.82.27-1.09l-.05 1.02a3.79 3.79 0 0 0 .42-.18c.12-.25.22-.51.24-.77-.01.23-.02.45-.04.68.33-.17.64-.36.94-.58.65-.81 1.59-1.58 1.61-2.01.48-3.52.81-7.05.88-10.57zm81.9-27.97c-1.61-4.33-3.5-8.54-5.66-12.61-2.22-4.03-4.62-7.97-7.35-11.66a99.26 99.26 0 0 0-5.13-6.41c.95-.63 1.87-1.29 2.75-2.01-.24-.28-.58-.48-.55-.73.21-.65 1.38-.02 1.58-.67l-.36-.48c.51-.1 1.08-.16 1.63-.26.61-.65 1.18-1.33 1.7-2.06-.16-.15-.3-.3-.29-.41.17-.36.69-.53 1.12-.83.03-.08.07-.15.1-.23-.04-.14-.17-.31-.25-.41.19-.14.39-.23.58-.31 1.15-2.57 2.2-5.33 3.42-8.22.09-.81.17-1.62.44-2.19.49-.73 1.57-1.15 2.24-1.64-1.49-1.51-.65-3.63-2.36-4.97.45-.33 1.12-.82.76-1.3-1.09-1.44-2.13-3.28-1.74-5.06.27-.57 1.43-.58 1.34-.99-.14-.64-1.4-.47-1.53-1.11-3.65 2.32-6.23 5.61-9.48 8.43-.48 1.67-7.65 8.48-9.83 9.83-.05.06-.11.11-.16.17-1.12.82-2.28 2.05-2.63 3.43-.02.22-.03.47-.05.7-7.83-6.5-16.64-11.8-26.08-15.61l-3.2-1.25-3.25-1.1-1.63-.54-1.65-.47c-1.1-.3-2.2-.64-3.31-.91-4.45-1.08-8.96-1.91-13.52-2.39l-1.58-.13a19.38 19.38 0 0 0 .08-1.33c-.37 0-.74.11-.91-.07-.35-.54.89-.98.54-1.52-.2-.01-.4-.03-.6-.04.26-.42.59-.86.87-1.3-.09-.82-.23-1.64-.43-2.46-.22.02-.42.03-.5-.05-.16-.34.05-.81.11-1.3-.04-.07-.07-.14-.1-.21-.13-.06-.34-.07-.47-.08a2.64 2.64 0 0 1 .14-.6c-1.16-2.34-2.51-4.72-3.86-7.28l1.89-.73c.77-.55 1.53-1.11 2.27-1.36 1.09-.23 2.49.16 3.55.23-.16-2.12 2.43-3.16 1.91-5.3.71.05 1.78.12 1.83-.48.16-1.8.71-3.87 2.6-4.96.74-.25 1.87.5 2.13.14.41-.58-.96-1.27-.55-1.84-5.48-.65-10.76.13-16.28.11-1.88.94-14.55 1.35-17.81.94-.1 0-.2.02-.3.03-1.78-.12-3.93.05-5.44.85-.69.5-1.39 1.11-2.09 1.69.32.35.63.7.89 1.04-.71-.05-1.42-.09-1.69.29-1.51.91-.66 1.97-.07 3.41.42.63-.15 1.6.51 2.24l-1.18-.08c-.05.6 1.46-.31 1.13.68-.46-.23-.97.14-1.44.11.16.81 1.64.31 1.57 1.11-.26.19-1.33-1.09-1.42-.09-.02.2.46.23.69.25-1.46.31-2.26 1.26-.93 2.35-.46-.03-1.11-.45-1.6-.32.24.05.66.26.89.27l-.83-.05c.04.14.09.28.15.42.21.12.41.22.63.24-.18-.01-.37-.02-.55-.04.14.33.3.64.47.94.66.65 1.28 1.59 1.64 1.61 2.87.48 5.74.81 8.61.88 0-.37-.15-.74.09-.91.75-.35 1.35.89 2.09.54.02-.2.04-.4.05-.6.58.26 1.18.59 1.8.87.64-.05 1.27-.12 1.9-.2.46 3.31.6 8.65.29 10.37 0 .07.02.14.03.21-.04.43-.04.88 0 1.34-.43.04-.86.07-1.29.1-1.14.1-2.28.28-3.42.42s-2.28.29-3.41.51l-3.4.62-3.37.78-1.68.4-1.66.47-3.32.97c-4.4 1.42-8.7 3.13-12.89 5.11-4.15 2.05-8.22 4.3-12.08 6.89-3.84 2.62-7.59 5.41-11.06 8.54-2.29 2.2-6.3 5.95-10.78 11.59l-1.7 2.2-.88 1.15-.85 1.22-1.77 2.53-1.73 2.73-.89 1.41-.84 1.48-1.71 3.06-1.63 3.24c-.56 1.09-1.03 2.26-1.56 3.41-2.02 4.65-3.85 9.72-5.24 15.15a101.75 101.75 0 0 0-2.79 17.2c-.9 11.95.34 24.78 4.21 37.02 3.81 12.25 10.18 23.81 18.21 33.46a98.95 98.95 0 0 0 27.45 22.96 103 103 0 0 0 14.62 6.8c4.81 1.73 9.45 3 13.8 3.95 8.73 1.79 16.21 2.13 21.67 2.09 1.33-.05 2.65-.05 3.97-.15 5.96-.29 12.22-1.21 18.43-2.78 6.21-1.56 12.35-3.8 18.09-6.58 5.75-2.78 11.09-6.1 15.81-9.67a91.52 91.52 0 0 0 12.2-11.1c6.16-6.85 11.33-14.73 15.25-23.07-.53.93-1.14 1.8-1.7 2.66-.58.85-1.11 1.7-1.68 2.49l-1.7 2.28-.81 1.08-.83 1.01c5.42-7.57 9.26-16.14 10.24-19.57 1.66-4.66 2.29-7.6 2.54-9.19.26-1.59.12-1.84-.25-1.29-.38.55-.98 1.91-1.72 3.54l-1.25 2.56-.65 1.31-.71 1.25c-1.2 2.39-1.3 1.83-1.55 1.63-.26-.21-.57-.02-2.5 3.6 2.47-5.35 3.49-8.14 5.17-13.82-.06-.19-.39.81-.84 2.35l-.87 2.6c-.31.95-.64 1.95-1.03 2.91l-1.07 2.72c-.35.82-.7 1.52-.96 2.05-.53 1.06-.78 1.39-.53.38 2.52-5.07 4.34-11.18 5.69-16.88-.48.93-1.82 5.82-3.46 10.21-1.69 4.38-3.64 8.25-3.7 7.72.29-.73.9-2 1.66-3.53l1.1-2.49c.38-.87.79-1.76 1.11-2.66 1.43-3.57 2.34-7.07 2.15-7.69-.03-.12-.46 1.21-.97 2.92l-.4 1.34-.47 1.36-.84 2.44c2.9-8.48 3.71-15.41 3.76-18.05.01-1.33-.13-1.6-.45-.56-.3 1.05-.84 3.41-1.88 7.27.63-2.7 1.26-6 1.72-9.37.24-1.68.34-3.39.5-5.04a163.28 163.28 0 0 0 .12-4.73s0 .03-.01.04c-.07 1.47-.1 3.48-.29 5.44s-.36 3.9-.58 5.24c.44-3.3.63-6.65.69-9.98a51.86 51.86 0 0 0-.36 1.74l-.11 1.86c-.05.62-.13 1.24-.19 1.87-.15 1.25-.2 2.52-.4 3.8.17-1.09.22-2.19.32-3.29.08-1.1.2-2.2.21-3.31-.12.82-.31 1.7-.5 2.63l-.57 2.92c-.71 3.84-1.56 7.56-2.61 10.74-.46 1.61-1 3.07-1.46 4.39-.43 1.33-.89 2.48-1.23 3.46-5.53 15.85-15.85 29.96-29.2 40.08-13.31 10.17-29.59 16.26-46.21 17.31-.05.28 1.76.42-1 .77-1.09.11-2.16.11-3.21.15l-1.56.03c-.51 0-1.03-.04-1.53-.06l-3.01-.17-2.95-.35-1.47-.18-1.46-.25-2.96-.48-6.15-1.2c-.23.1-.48.2-.72.3-6.56-1.73-13.1-4.46-19.35-7.96-5.87-3-11.35-6.72-16.34-10.98-5-4.26-9.55-9.05-13.43-14.33.06.37.04.6-.77-.44-3.28-4.38-7.1-11.01-9.87-18.36-.46-1.07-.91-2.13-1.28-3.22-.38-.81-.6-.98-.74-1.09-.61-1.68-.98-3.32-1.42-4.86-.42-1.55-.68-3.06-1.01-4.49-2.15-9.41-2.86-19.3-1.78-29.11.52-4.91 1.45-9.8 2.8-14.61a87.73 87.73 0 0 1 5.4-14.09c4.43-9.13 10.49-17.69 18.09-25 7.58-7.32 16.63-13.43 26.76-17.76 2.11-1 4.3-1.81 6.47-2.65 2.21-.73 4.42-1.5 6.67-2.06 4.49-1.2 9.05-2.06 13.57-2.43 3.35-.31 6.95-.32 10.66-.19 1.85.12 3.73.25 5.61.46 1.87.26 3.77.45 5.64.85l2.8.53 2.75.66 1.37.33 1.34.39 2.65.78c1.73.58 3.44 1.15 5.07 1.78 1.61.68 3.22 1.23 4.69 1.95-.3-.56 1.33-.25 3.85.6a71.49 71.49 0 0 1 9.02 4.01l2.32 1.22 2.14 1.23 1.92 1.09 1.58.94c1.87 1.06 2.76 1.31 1.71-.03 3.55 2.85 7.69 6.76 10.85 10.18 3.13 3.43 5.35 6.27 5.76 6.4.61.21 1.35.7 2.43 1.6.53.45 1.15 1 1.83 1.7.66.71 1.4 1.55 2.24 2.56 3.23 4.04 7.98 10.79 12.08 22.77 1.57 4.69 2.76 10.88 3.3 16.31l.21 1.99.12 1.9.2 3.4c.04 2.06.1 3.65.19 4.52.11 1.29.22 1.18.34.37.11-.81.18-2.45.26-4.05.11-1.61.05-3.23.11-4.1.05-.87.15-1 .37.38-.58-9.28-2.59-18.42-5.72-27.1z"/></svg>